<?xml version="1.0" encoding="UTF-8"?>
<svg width="246px" height="246px" viewBox="0 0 246 246" version="1.1" xmlns="http://www.w3.org/2000/svg" xmlns:xlink="http://www.w3.org/1999/xlink">
    <!-- Generator: Sketch 43.2 (39069) - http://www.bohemiancoding.com/sketch -->
    <title>favorite</title>
    <desc>Created with Sketch.</desc>
    <defs></defs>
    <g id="Page-1" stroke="none" stroke-width="1" fill="none" fill-rule="evenodd">
        <g id="favorite">
            <polygon id="Rectangle" fill="#FFFFFF" points="0 0 246 0 246 246"></polygon>
            <path d="M177,111.142857 C176.303568,111.142857 175.714288,110.901788 175.232143,110.419643 L150.160714,86.2321429 C149.892856,86.0178561 149.524556,85.6696453 149.055804,85.1875 C148.587051,84.7053547 147.843755,83.8281314 146.825893,82.5558036 C145.808031,81.2834758 144.897325,79.9776853 144.09375,78.6383929 C143.290175,77.2991004 142.573664,75.6785809 141.944196,73.7767857 C141.314729,71.8749905 141,70.0267947 141,68.2321429 C141,62.3392563 142.700876,57.7321595 146.102679,54.4107143 C149.504481,51.0892691 154.205327,49.4285714 160.205357,49.4285714 C161.86608,49.4285714 163.560259,49.716515 165.287946,50.2924107 C167.015634,50.8683065 168.62276,51.6450844 170.109375,52.6227679 C171.59599,53.6004513 172.874995,54.5178529 173.946429,55.375 C175.017863,56.2321471 176.035709,57.1428523 177,58.1071429 C177.964291,57.1428523 178.982137,56.2321471 180.053571,55.375 C181.125005,54.5178529 182.40401,53.6004513 183.890625,52.6227679 C185.37724,51.6450844 186.984366,50.8683065 188.712054,50.2924107 C190.439741,49.716515 192.13392,49.4285714 193.794643,49.4285714 C199.794673,49.4285714 204.495519,51.0892691 207.897321,54.4107143 C211.299124,57.7321595 213,62.3392563 213,68.2321429 C213,74.1518153 209.933066,80.1785408 203.799107,86.3125 L178.767857,110.419643 C178.285712,110.901788 177.696432,111.142857 177,111.142857 Z" id="heart" fill="#B66654"></path>
        </g>
    </g>
</svg>