<?xml version="1.0" encoding="UTF-8"?>
<svg width="212px" height="212px" viewBox="0 0 212 212" version="1.1" xmlns="http://www.w3.org/2000/svg" xmlns:xlink="http://www.w3.org/1999/xlink">
    <title>Group 2</title>
    <g id="Page-1" stroke="none" stroke-width="1" fill="none" fill-rule="evenodd">
        <g id="Group-2" transform="translate(0.000000, 0.000000)">
            <circle id="Oval" fill="#4E4843" cx="106" cy="106" r="106"></circle>
            <g id="logo" transform="translate(59.000000, 28.000000)" fill-rule="nonzero">
                <g id="Untitled" transform="translate(-0.000000, 97.000000)">
                    <g id="Group" transform="translate(49.500000, 28.000000) scale(-1, 1) rotate(-180.000000) translate(-49.500000, -28.000000) translate(0.000000, -0.000000)">
                        <path d="M3.33008198,55.7467314 C3.24009597,55.6075965 3.1886754,55.4777372 3.22724083,55.4499103 C3.36864741,55.347878 3.85714286,55.6354235 3.85714286,55.811661 C3.85714286,56.0899308 3.52290913,56.0528282 3.33008198,55.7467314 Z" id="Shape" fill="#FFFFFF"></path>
                        <path d="M8.0583302,55.9339812 C8.03571213,55.8991508 8.08094827,55.8155579 8.17142054,55.7458971 C8.28451088,55.6483719 8.32220767,55.5160164 8.32220767,55.2722036 C8.32220767,54.875137 8.2468141,54.7358154 8.0583302,54.7985102 C7.97539728,54.8263745 7.86230693,54.7915441 7.7642953,54.7079511 C7.67382303,54.6382903 7.48533912,54.5755956 7.34963071,54.5686295 C7.16868616,54.5686295 7.10837131,54.5337991 7.12345002,54.4641383 C7.14606809,54.3666132 7.1611468,53.6073105 7.14606809,53.3774298 C7.13852873,53.307769 7.06313517,53.2938369 6.83695448,53.3286673 C6.60323444,53.3634977 6.46752602,53.3425994 6.24888469,53.21721 C5.91715301,53.043058 5.68343297,53.0987866 5.59296069,53.3843959 C5.56280327,53.4679889 5.39693743,53.7326999 5.22353224,53.9625806 C4.97473348,54.2969524 4.85410378,54.3944775 4.65054116,54.4293079 C4.49975403,54.4571722 4.2811127,54.5755956 4.160483,54.6870529 C3.87398746,54.9656961 3.73827905,54.95873 3.50455901,54.6452564 C3.40654737,54.5059348 3.27083896,54.3944775 3.21052411,54.3944775 C3.08235505,54.3944775 3.08235505,54.4084097 3.18036669,53.5237175 C3.23314218,53.0082276 3.28591767,52.8201434 3.39146866,52.7435165 C3.57995257,52.6181271 3.5573345,52.005112 3.34623252,51.6707402 C3.12005184,51.3154701 3.06727634,50.9393018 3.20298476,50.6885229 C3.30853574,50.5074048 3.30853574,50.4307779 3.21806347,50.2008973 C3.16528797,50.0476435 3.09743377,49.650577 3.06727634,49.3231712 C3.03711892,48.9887994 2.99942214,48.5360042 2.96926471,48.2991574 L2.92402857,47.8811926 L3.28591767,47.8811926 C3.54979514,47.8811926 3.70058227,47.8324301 3.88152682,47.7000745 C4.0926288,47.5328886 4.75609215,47.303008 5.37431936,47.1845846 C5.67589361,47.128856 5.70605104,46.9965004 5.47987035,46.787518 C5.28384709,46.6064 5.11798125,46.5994339 4.38666369,46.7666198 C3.97953845,46.8571788 3.81367261,46.9268396 3.81367261,47.0104326 C3.81367261,47.2751437 3.37638995,47.4074992 3.28591767,47.1706524 C3.25576025,47.1009916 3.16528797,46.9686361 3.08235505,46.8780771 C2.94664664,46.7457216 2.90894986,46.5297731 2.82601694,45.5266575 C2.77324145,44.871846 2.74308402,44.2936614 2.76570209,44.2448988 C2.78832016,44.1891702 2.87879244,44.1543398 2.97680407,44.1543398 C3.18790604,44.1543398 3.33869317,44.0219842 3.33869317,43.8408662 C3.33869317,43.6667142 3.51963772,43.6040194 3.72320034,43.7085106 C3.85890875,43.7712054 3.90414489,43.7572732 3.9719991,43.6318838 C4.0398533,43.5134604 4.03231395,43.4437996 3.93430231,43.304478 C3.85890875,43.1999868 3.81367261,42.9701061 3.81367261,42.7123612 C3.81367261,42.3849554 3.77597583,42.259566 3.64026742,42.1272105 C3.50455901,41.9878889 3.46686222,41.8624994 3.45932287,41.4306024 C3.45178351,41.1380271 3.40654737,40.8245535 3.35377188,40.7339944 C3.22560282,40.5180459 3.23314218,40.3090635 3.38392931,40.1976063 C3.47440158,40.1279455 3.49701965,40.0373864 3.45932287,39.8771666 C3.42916544,39.7517771 3.40654737,39.5567269 3.41408673,39.4313375 C3.42162609,39.1666264 3.0220402,38.6859669 2.76570209,38.6511365 C2.46412784,38.60934 2.51690333,38.3655272 2.9014105,37.9336302 C3.34623252,37.4390385 3.44424416,37.132531 3.40654737,36.2966014 C3.37638995,35.648756 3.38392931,35.6348238 3.57995257,35.5930273 C3.74581841,35.5581969 3.77597583,35.5024683 3.81367261,35.1889947 C3.85136939,34.8337246 3.85890875,34.8267585 4.10016815,34.8476567 C4.39420305,34.8755211 4.53745082,34.7292334 4.3338882,34.6247422 C4.20571914,34.5620475 4.2132585,34.5411492 4.41682112,34.4157598 C4.54499017,34.3391329 4.72593472,34.2764382 4.816407,34.2764382 C4.91441863,34.2764382 5.01243026,34.2485739 5.03504833,34.2067774 C5.0576664,34.171947 5.23107159,34.0953201 5.4195555,34.0326254 C5.60050005,33.9768967 5.88699559,33.8724055 6.06040078,33.8027447 L6.36197503,33.6843214 L6.67108864,33.9908289 C6.92742676,34.2485739 6.99528096,34.2834043 7.10083195,34.1998113 C7.20638294,34.1162183 7.20638294,34.088354 7.04805646,33.9351002 C6.79171834,33.6843214 6.92742676,33.5171354 7.38732749,33.4892711 C7.86984629,33.4614068 8.79718711,33.0504081 8.84996261,32.8344596 C8.88012003,32.7439006 8.94797424,32.6672737 9.01582844,32.6672737 C9.09876136,32.6672737 9.12137943,32.7160362 9.09122201,32.8274935 C9.03844651,33.0225438 9.15907621,33.1827636 9.37771754,33.1827636 C9.46818982,33.1827636 9.73206729,33.0922046 9.96578733,32.9877134 C10.3804519,32.7996292 10.40307,32.7926631 10.6669475,32.9110865 C10.8177346,32.9807473 11.1117695,33.0364759 11.3228715,33.0364759 C11.6395244,33.0364759 11.7299967,33.0643402 11.9034019,33.2524244 C12.1371219,33.5032033 12.3029878,33.5241015 12.7553492,33.3569156 C13.0192266,33.2593905 13.0795415,33.2036618 13.0795415,33.0364759 C13.0795415,32.7578327 13.1398563,32.7299684 13.4188125,32.8623239 C13.6299145,32.9668151 13.7957803,32.9668151 14.7758966,32.8971543 L15.884182,32.8135614 L16.3591615,33.043442 C16.7059718,33.2036618 16.8416803,33.2454583 16.8642983,33.1757975 C16.9246132,33.0016455 17.3845139,32.6672737 17.5579191,32.6672737 C17.7765604,32.6672737 17.9876624,32.4861556 17.9876624,32.2841393 C17.9876624,32.1448177 18.0178198,32.1378516 18.4174057,32.172682 C18.71898,32.2075124 18.8697671,32.1866141 18.9300819,32.1239194 C19.058251,31.9845978 19.3899827,31.9428013 19.4955337,32.0542586 C19.5483092,32.1169533 19.6689389,32.1308855 19.8348047,32.1030212 C20.1439183,32.0542586 20.9129326,31.5944973 20.9129326,31.4621418 C20.9129326,31.3088881 21.2220463,31.2461933 21.3728334,31.3715828 C21.4482269,31.4273114 21.6367108,31.4969722 21.787498,31.5248365 C21.9458245,31.5527009 22.1493871,31.6571921 22.2473987,31.7547172 C22.4358826,31.9567335 22.677142,31.9845978 22.9711769,31.824378 C23.1973576,31.7059546 23.649719,31.6850564 23.7251125,31.7895476 C23.8080455,31.914937 24.1623952,31.8731405 24.305643,31.7268529 C24.4790482,31.5457348 25.6928845,31.392481 26.0547736,31.5039383 C26.2507969,31.566633 26.3714266,31.5457348 26.7860912,31.3785489 C27.4269365,31.1208039 27.4721726,31.0859735 27.2836887,30.953618 C27.0876654,30.8212624 27.1253622,30.7933981 27.5626449,30.7307034 C27.8868372,30.6889069 27.924534,30.695873 27.9999275,30.8491268 C28.0451637,30.9466519 28.158254,31.0302448 28.263805,31.044177 C28.3844347,31.0581092 28.4296709,31.044177 28.3995134,30.9884484 C28.369356,30.9466519 28.3768954,30.9118215 28.4221315,30.9118215 C28.5050644,30.9118215 28.7538632,31.4342775 28.7538632,31.6084295 C28.7538632,31.7547172 29.1986852,31.99853 29.3871691,31.9567335 C29.470102,31.9358353 29.5454956,31.8870727 29.5454956,31.8522423 C29.5454956,31.7616833 30.3145099,31.7756154 30.3748248,31.8661745 C30.4502183,31.9776317 30.7065564,31.9497674 31.0609062,31.7825815 C31.3398624,31.650226 31.4077166,31.6432599 31.6188186,31.7268529 C31.7696057,31.7825815 31.8977747,31.9079709 31.9731683,32.0751569 C32.1314948,32.4304269 32.3652148,32.6533415 32.644171,32.7090702 C32.7648007,32.7299684 32.9457453,32.8483918 33.0437569,32.9668151 C33.1870047,33.1409671 33.2699376,33.1827636 33.5488938,33.1827636 C33.956019,33.1827636 34.0163339,33.0713063 33.9334009,32.4582913 C33.8881648,32.0960551 33.9032435,32.0263943 34.0464913,31.9079709 C34.2274358,31.7547172 34.4234591,31.740785 35.162316,31.8592084 C35.6222167,31.9288692 35.6900709,31.9219031 35.7730039,31.8104458 C35.8333187,31.7477511 35.8785549,31.6153956 35.8785549,31.5318026 C35.8785549,31.2949559 36.1499717,31.0999056 36.474164,31.1068717 C36.8058957,31.1208039 36.9868402,31.2392272 36.9868402,31.4621418 C36.9793009,31.5735991 37.0546944,31.650226 37.2280996,31.7198868 C37.4392016,31.8034797 37.5070558,31.7895476 37.7784726,31.650226 C38.0574288,31.5039383 38.1177437,31.4969722 38.4117786,31.5805652 C38.7133528,31.6641581 38.7510496,31.6571921 38.8566006,31.5318026 C38.9169154,31.4551757 38.9847696,31.2670916 39.0149271,31.1068717 C39.0677026,30.8003642 39.2486471,30.6471104 39.6557723,30.5774496 C39.881953,30.5356532 39.9121105,30.5495853 39.9121105,30.6889069 C39.9121105,30.9327197 40.1382911,30.953618 40.5680345,30.7376695 C40.9148448,30.5635175 40.9826991,30.5565514 41.0354745,30.6540765 C41.0731713,30.7167712 41.2164191,30.8142964 41.3445882,30.8769911 C41.5783082,30.9884484 41.5858476,30.9884484 41.6310837,30.8421607 C41.6763198,30.6680087 41.8120282,30.6401444 41.8120282,30.8073303 C41.8120282,30.9675501 42.0080515,31.0093466 42.2191535,30.9048554 C42.4528735,30.786432 44.3829487,30.8142964 44.5940507,30.9327197 C44.7071411,31.0023805 44.7825346,30.9954144 44.9559398,30.8978893 C45.1971992,30.7655338 45.8455838,30.7167712 46.1848549,30.8003642 C46.3205633,30.8351946 46.7126098,30.786432 47.2780615,30.6610426 L48.1601662,30.4729584 L48.3561895,30.6192461 C48.4692798,30.695873 48.6125276,30.7655338 48.6728425,30.7655338 C48.7331573,30.7655338 48.7708541,30.8073303 48.7557754,30.8560928 C48.7180786,31.044177 49.3890813,31.0093466 49.8565214,30.8003642 C50.1957924,30.6540765 50.376737,30.6192461 50.5878389,30.6471104 C51.3794714,30.7655338 51.5227191,30.7724999 51.7338211,30.695873 C51.9072263,30.6331783 51.9449231,30.5844157 51.8996869,30.4659924 C51.8544508,30.3197047 51.8544508,30.3197047 52.0580134,30.438128 C52.2163399,30.5356532 52.2917335,30.5495853 52.3595877,30.4868906 C52.4199025,30.4241959 52.4651387,30.431162 52.5329929,30.5077888 C52.6687013,30.6749748 53.4754124,30.5495853 53.7392899,30.3197047 L53.9428525,30.1455527 L53.8523802,30.3127386 C53.7242112,30.5356532 53.8146834,31.2461933 54.0107067,31.5387687 C54.0936396,31.6641581 54.1614938,31.8870727 54.1614938,32.0333604 C54.1614938,32.2075124 54.229348,32.3607661 54.3575171,32.5000877 L54.5535403,32.7021041 L54.5535403,32.4443591 C54.5535403,32.2771732 54.6138552,32.1308855 54.7043275,32.0542586 C54.8249572,31.9567335 54.862654,31.7825815 54.9003507,31.1138378 C54.9455869,30.2221796 55.0209804,30.0689258 55.4959599,29.7693843 C55.8201522,29.5604019 57.2149331,29.4698429 58.2025888,29.5952323 C58.5720172,29.6439949 58.926367,29.6788253 58.9942212,29.6788253 C59.4164251,29.6718592 60.9770719,29.6021984 61.2107919,29.5813002 C61.3615791,29.567368 61.572681,29.4977072 61.678232,29.4280464 C61.8968734,29.2887248 62.8996077,29.2469283 62.99008,29.3792839 C63.0730129,29.4977072 63.2765756,29.4559107 63.3218117,29.302657 C63.3444298,29.219064 63.3821265,29.1563693 63.412284,29.1563693 C63.5253743,29.1633354 64.0078931,29.4419786 63.9174208,29.4489447 C63.7741731,29.4489447 63.7967911,29.6718592 63.9400389,29.6718592 C64.0003538,29.6718592 64.0606686,29.6230967 64.0606686,29.567368 C64.0606686,29.4280464 64.3396248,29.3723178 65.4856069,29.2956909 C66.8577698,29.2120979 66.9105453,29.2120979 66.9105453,29.3374874 C66.9105453,29.5882663 67.8755829,29.567368 68.0942242,29.3235552 C68.1620784,29.2469283 68.2977868,29.1633354 68.3957985,29.1354711 C68.5465856,29.1006407 68.5692037,29.1215389 68.5239675,29.2329962 C68.471192,29.4071482 68.6219792,29.4210803 68.8029237,29.2678266 C68.9084747,29.1842336 68.998947,29.1772675 69.2854425,29.2399623 C69.7528826,29.3514195 69.8131974,29.4141143 69.6322529,29.6021984 C69.4814658,29.7554522 69.4814658,29.7554522 69.7001071,29.9296042 C69.9413665,30.1246544 70.1977046,30.1594848 70.2580195,30.0131972 C70.2806375,29.9644346 70.3032556,30.0340954 70.3032556,30.1664509 C70.310795,30.2988064 70.2730982,30.4659924 70.2354014,30.5426192 C70.1826259,30.6331783 70.1977046,30.7167712 70.2806375,30.8282285 C70.4088066,30.9954144 70.5218969,31.0232788 70.6953021,30.9187876 C70.7857744,30.8630589 70.7857744,30.8282285 70.6802234,30.6889069 C70.4615821,30.4032976 70.6425266,30.3197047 71.1024274,30.4799245 C71.4266197,30.5913818 71.6000249,30.605314 72.0297682,30.5635175 C72.5198264,30.5147549 72.5726018,30.4938567 72.6102986,30.3266708 C72.6329167,30.2291456 72.7309283,30.0201632 72.8364793,29.8669095 C72.9797271,29.650961 73.0400419,29.6091645 73.1229749,29.6718592 C73.1832897,29.7136557 73.3039194,29.7345539 73.3868523,29.7066896 C73.4697852,29.6857914 73.5677969,29.6997235 73.5904149,29.74152 C73.6281117,29.7902826 73.7261234,29.7763504 73.8769105,29.6997235 C74.0126189,29.6370288 74.1935634,29.6091645 74.3066538,29.6370288 C74.5252951,29.6857914 75.8446825,29.476809 75.9653122,29.3653517 C76.0934812,29.2538944 76.3950555,29.2956909 76.6890904,29.4698429 C76.892653,29.5882663 76.9906646,29.7206218 77.0735975,29.9783667 C77.1942272,30.347569 77.6315099,30.9118215 77.7973757,30.9118215 C77.8501512,30.9118215 77.9180054,30.870025 77.9406235,30.8212624 C77.9858597,30.7307034 77.9632416,31.0163127 77.86523,31.6850564 C77.8199938,32.0124621 77.8350725,32.0821229 78.0084777,32.263241 C78.3175913,32.5976129 79.3504831,32.7299684 79.6671359,32.4791895 L79.8480803,32.3398679 L79.7048327,32.4931217 C79.5766641,32.6324433 79.5766641,32.6533415 79.6972932,32.695138 C79.9083957,32.7717649 80.2024304,32.7439006 80.2175094,32.6463754 C80.2627449,32.2771732 80.1571941,31.8313441 79.9234739,31.3715828 C79.7726868,31.0790074 79.6520577,30.7376695 79.6520577,30.5983479 C79.6520577,30.3406029 80.3004417,29.2329962 80.4512288,29.2329962 C80.4964651,29.2260301 80.5266224,29.3374874 80.5190837,29.4698429 C80.4964651,29.8460112 80.5115442,29.8738755 80.7377248,29.9783667 C80.8734329,30.0340954 80.9639055,30.1385866 80.9789838,30.25701 C81.0392991,30.6749748 81.3484129,31.0790074 81.4992,30.9327197 C81.5972113,30.8421607 81.551975,30.2012813 81.4388847,30.1107223 C81.3785701,30.0689258 81.3182548,29.9087059 81.2956371,29.7554522 C81.2730193,29.6091645 81.2353225,29.4350125 81.2051645,29.3653517 C81.159929,29.2747927 81.2428612,29.2051319 81.5745936,29.0588442 C82.1702025,28.7871671 82.2908324,28.8010992 82.4642373,29.1633354 C82.6527212,29.5534359 82.7205752,29.5813002 82.9316777,29.3374874 C83.0900035,29.1563693 83.1352398,29.1424371 83.4518931,29.1911997 C83.7233101,29.2329962 83.8740972,29.3165891 84.1078166,29.5464698 L84.4093909,29.8529773 L84.5978748,29.6300627 C85.103012,29.0518781 85.0200789,29.0867085 86.0152742,29.0867085 C86.7465913,29.0867085 86.9953906,29.0518781 87.2969648,28.9334547 C87.500527,28.8568279 87.6814721,28.8010992 87.6965504,28.8150314 C87.7267076,28.8428957 87.4628302,28.9682851 87.2291108,29.0379459 C87.0330873,29.0936746 87.1310987,29.2329962 87.3648189,29.2329962 C87.530685,29.2329962 87.5533028,29.2747927 87.58346,29.5952323 C87.6060786,29.8111808 87.6890109,30.0271293 87.7719439,30.1107223 C87.8925738,30.2361117 87.9001133,30.2848743 87.8247197,30.4032976 C87.7719439,30.4799245 87.7267076,30.5913818 87.7267076,30.6471104 C87.7267076,30.779466 88.1715303,31.134736 88.3373957,31.134736 C88.5560368,31.12777 89.4984564,30.7585677 89.6944798,30.5913818 C90.0714476,30.2779082 90.3428646,29.8738755 90.3428646,29.6091645 C90.3428646,29.3235552 90.4785727,28.5433542 90.5765848,28.3134736 C90.6142816,28.2229146 90.7726082,28.1323555 91.0138671,28.0626947 C91.3455987,27.9791018 91.4209922,27.9791018 91.5642406,28.0626947 C91.6622519,28.1253894 91.8507358,28.2368467 91.9939835,28.3134736 C92.2352432,28.4527952 92.2427827,28.4806595 92.1975464,28.7941331 C92.1673891,29.0100816 92.1900069,29.1633354 92.2578609,29.2538944 C92.355873,29.3792839 92.3860303,29.3792839 92.6574473,29.2817587 C92.9288635,29.1703015 93.1927409,28.8498618 93.1927409,28.613015 C93.1852022,28.5572864 93.290753,28.438863 93.4264611,28.3552701 C93.6526418,28.2020163 93.6752604,28.2020163 94.0974637,28.3204397 C94.3387234,28.3831344 94.5724436,28.4109987 94.6176799,28.3901005 C94.6629154,28.3622362 94.7458485,28.4527952 94.8137025,28.5990829 C94.8890961,28.7662688 95.0398832,28.9125565 95.2660639,29.0240138 C95.6505712,29.219064 95.8013584,29.4419786 95.8013584,29.8390451 C95.8013584,30.0619597 95.8390552,30.1316205 95.959685,30.1594848 C96.1557084,30.2082474 96.1934052,30.6192461 95.9973818,30.6192461 C95.8465947,30.6192461 95.8465947,30.9118215 95.9898423,31.0999056 C96.0576963,31.1834986 96.0878544,31.3297863 96.0576963,31.4830401 C96.0049213,31.8034797 96.1934052,34.1301505 96.2914165,34.2973364 C96.3366528,34.3739633 96.4648222,34.4645223 96.5854513,34.5063188 L96.8040932,34.5759796 L96.8644078,35.565163 C96.9096441,36.4150248 97.0679707,37.2718526 97.2639933,37.7246478 C97.3016901,37.8012747 97.2639933,37.8570033 97.1433643,37.8848677 C97.0076554,37.912732 96.9925771,37.9475624 97.0604312,38.0659858 C97.1056675,38.1495787 97.2639933,38.2540699 97.4072417,38.2958664 C97.6258829,38.3655272 97.7163547,38.4769845 98.048087,39.1039317 C98.3798185,39.7308789 98.4175153,39.8493023 98.3270427,39.9537935 C98.2516492,40.0373864 98.1460983,40.0582847 97.9576144,40.0304203 C97.8143668,40.0095221 97.6409611,40.0095221 97.5806466,40.0304203 C97.4298595,40.0791829 97.4298595,40.5459103 97.5806466,40.7897231 C97.6485007,40.8872482 97.693737,41.1101628 97.7012765,41.2773487 C97.7012765,41.4445346 97.761591,41.73711 97.8294451,41.9251941 C97.8972999,42.1132783 97.9349967,42.3431589 97.9199176,42.4406841 C97.8671418,42.6635986 98.3647395,43.1651564 98.7040105,43.2348172 C99.0357421,43.2975119 99.0960574,43.4577318 98.8472581,43.6109855 C98.6059992,43.7572732 98.5984597,43.910527 98.8246404,44.1334415 C99.0508211,44.34939 98.9377307,44.5514063 98.6059992,44.5514063 C98.4325936,44.5514063 98.372279,44.5096098 98.3345822,44.3772543 C98.2818064,44.1613058 98.0857838,44.0359164 97.9123781,44.0986111 C97.7012765,44.175238 97.761591,44.4538812 98.0405475,44.7185923 C98.2742677,44.9415068 98.2968855,45.0042015 98.304425,45.4639628 L98.3119645,45.9724867 L97.77667,46.1187744 C97.4826353,46.2023673 97.2036788,46.2720281 97.1584425,46.2720281 C97.0905885,46.2720281 96.9096441,45.8401311 96.9096441,45.6659791 C96.9096441,45.6311487 96.7814747,45.4569967 96.623148,45.2828447 C96.3215738,44.9345407 96.0426181,44.1404076 96.0426181,43.6040194 C96.0426181,43.4020031 95.9823028,43.2626815 95.8465947,43.130326 C95.6731898,42.9631401 95.296222,42.3919215 94.9192542,41.73711 C94.8363211,41.5977884 94.7760058,41.4097042 94.7760058,41.3191452 C94.7760058,41.22162 94.685534,41.1031967 94.5649041,41.0335359 C94.3839597,40.9220786 94.3010266,40.9151125 93.9240588,40.9917394 C93.4113829,41.0892645 93.3058313,41.047468 92.9891788,40.6643336 C92.8610094,40.5110799 92.7253013,40.3647922 92.6876045,40.3369279 C92.6423682,40.3090635 92.355873,40.3020975 92.0467593,40.3229957 C91.3229809,40.3647922 91.2098906,40.3020975 91.3908349,39.9468274 C91.5943979,39.5497608 91.5717793,39.2084229 91.3229809,39.0551691 C90.6067421,38.5884418 90.5162695,38.4212558 90.6972146,37.8709355 C90.810305,37.5295976 90.795226,37.4181403 90.6293598,37.4251064 C90.4861122,37.4251064 89.1516466,38.7974242 89.1516466,38.9437118 C89.1591853,39.2293211 89.4532209,39.6681842 89.7246371,39.7866075 C89.8829637,39.8562683 90.0412903,39.911997 90.0865266,39.911997 C90.1317629,39.911997 90.2976283,40.0164882 90.4559549,40.1558098 C90.6519784,40.3229957 90.7349114,40.4623173 90.7349114,40.608605 C90.7349114,40.7270284 90.7876864,40.9847733 90.8555405,41.1798236 C90.9158558,41.3818399 90.9761704,41.6186866 90.9761704,41.7162117 C90.9761704,41.8207029 91.0968002,42.1341765 91.2475873,42.433718 C91.4511503,42.8238185 91.5717793,42.9770722 91.7074882,43.0049365 C91.9035117,43.0536991 92.4765021,43.6667142 92.4765021,43.826934 C92.4765021,43.9592895 92.1598496,44.3006274 92.0316802,44.3006274 C91.8884326,44.3006274 91.8884326,44.523542 92.0392197,44.8509478 C92.1673891,45.1365571 92.3030972,45.1644214 92.6423682,44.9763372 C92.8383917,44.871846 92.8911667,44.8648799 92.9439425,44.9484729 C92.9816393,44.9972355 92.9967183,45.1017267 92.9891788,45.1644214 C92.9740998,45.2340822 92.936403,45.4360985 92.9137852,45.6241827 C92.883628,45.8053007 92.8006949,46.0212492 92.7253013,46.0978761 C92.6423682,46.1814691 92.5368174,46.3138246 92.4840416,46.3974176 C92.3784908,46.5855017 92.3709513,47.219415 92.4689634,47.6164816 C92.5518957,47.9229891 92.4614239,48.2503949 92.3106367,48.2503949 C92.2654004,48.2434288 92.0467593,48.1041072 91.8356568,47.9229891 C91.3832954,47.5468208 90.9761704,47.393567 90.7499897,47.5119904 C90.6142816,47.5746851 90.3428646,47.9438873 89.9583573,48.5847667 C89.8603459,48.7589187 89.385366,48.9261046 89.1968821,48.8634099 C89.1365676,48.8425117 89.0536345,48.7380205 89.0008595,48.6404954 C88.9405442,48.5081398 88.8726901,48.4663433 88.7671393,48.5011738 C88.3373957,48.6265632 88.2243053,48.2225305 88.5560368,47.7349049 C88.6691272,47.5746851 88.7595998,47.3448045 88.7595998,47.2263811 C88.7595998,47.0104326 88.5258796,46.7108912 88.3600142,46.7108912 C88.1564513,46.7108912 87.9679674,47.0313308 87.8322593,47.5886173 C87.7568657,47.9299552 87.6513141,48.2085984 87.5909995,48.2294966 C87.4402124,48.2782592 86.904918,48.0483785 86.6862768,47.8324301 C86.4827139,47.6373798 86.105746,47.6025494 86.0303525,47.7767014 C85.8871049,48.1250054 86.0001952,48.5360042 86.3470058,48.9261046 C86.663659,49.2744086 86.5581074,49.3231712 85.5629129,49.302273 C85.0803942,49.2883408 84.4772457,49.2535104 84.235986,49.2326122 C83.911794,49.1977818 83.7308488,49.2117139 83.5649835,49.2953069 C83.4368141,49.3510355 83.1503189,49.4276624 82.9392164,49.4485606 C82.43408,49.5112554 82.2229776,49.6018144 81.808313,49.9431523 C81.4313452,50.2566259 81.2956371,50.2775242 80.956366,50.08944 C80.7528031,49.9710167 80.5417014,49.9501184 79.5238883,49.9501184 C78.0612532,49.9431523 77.9029267,49.8943898 77.3902505,49.2326122 C76.9605072,48.6822918 76.8021807,48.5708346 76.2216503,48.4733094 C75.6561986,48.3757843 75.4903327,48.2921913 75.3395456,48.0344464 C75.2339946,47.8463622 75.1812191,47.825464 74.713779,47.7975997 C74.2161815,47.7627693 74.2011028,47.7627693 73.7412021,47.3239062 L73.2662226,46.8850432 L72.6856922,46.8850432 C72.0448469,46.8920092 71.9769927,46.9477379 72.1654766,47.2821097 C72.301185,47.5259225 72.7158496,47.7349049 73.0701994,47.7349049 C73.2511439,47.7349049 73.4094704,47.8115318 73.6431904,48.0274803 C73.824135,48.1877001 73.9975402,48.3200557 74.0276976,48.3200557 C74.057855,48.3200557 74.1483273,48.4315129 74.2312602,48.5638685 C74.4875983,49.0096976 74.163406,49.7132717 73.6959659,49.7132717 C73.5904149,49.7132717 73.3868523,49.7898986 73.2360652,49.8943898 C73.0928174,49.9919149 72.9269516,50.0755079 72.8817155,50.0755079 C72.82894,50.0755079 72.5801412,50.1591008 72.3388818,50.2566259 C71.6528004,50.5352691 71.2607539,50.5004387 71.0647306,50.1451687 C70.9817977,50.0058471 70.8687073,49.9292202 70.6802234,49.9013559 C70.5294363,49.8734915 70.3635705,49.8038307 70.310795,49.741136 C70.1901653,49.6087805 69.571938,49.6018144 69.4513083,49.7341699 C69.3985329,49.7898986 69.3834541,49.8525933 69.4060722,49.8734915 C69.4362296,49.9013559 69.4286903,49.9570845 69.3985329,50.0058471 C69.3608361,50.0615757 69.2703638,50.0197792 69.1195767,49.8874237 C68.9310928,49.7202378 68.8481598,49.6993395 68.5993611,49.7341699 C68.4410346,49.7550682 68.237472,49.8386611 68.1394604,49.915288 C67.9886732,50.0406775 67.9434371,50.0476435 67.5966267,49.9501184 C67.2799737,49.8595594 67.2121195,49.8107968 67.1744228,49.6366448 C67.136726,49.4694589 67.0688718,49.4137302 66.8803879,49.3788998 C66.6240497,49.3371034 66.0661374,49.483391 65.7344057,49.6784413 C65.5157644,49.8177629 65.1764933,49.8316951 64.8749191,49.7272038 C64.7542894,49.6854074 64.3697822,49.6296787 64.0154325,49.6087805 C63.4725988,49.5809162 63.3519691,49.5948483 63.1257884,49.7202378 C62.8920684,49.8595594 62.8242142,49.8665255 62.5226399,49.7829325 C62.334156,49.7341699 62.100436,49.7063056 61.994885,49.7202378 C61.8139404,49.7481021 61.8139404,49.7481021 62.0702786,50.0197792 C62.2210657,50.173033 62.4020102,50.2984224 62.5000219,50.2984224 C63.0503949,50.2984224 63.1936426,50.5422352 62.8015961,50.7999802 C62.6658877,50.8905392 62.5527974,51.043793 62.5226399,51.1831146 C62.4321677,51.5941133 62.2587625,51.7682653 61.9722669,51.740401 C61.7385469,51.7195028 61.7234682,51.7055706 61.7234682,51.4199613 C61.7234682,51.2597415 61.6706927,51.0646912 61.6028385,50.9880643 C61.5274449,50.9044714 61.4822088,50.6815568 61.4746694,50.3541511 C61.4671301,49.9292202 61.4897481,49.8316951 61.6103778,49.7620342 C61.8139404,49.6436109 61.7988617,49.5112554 61.5576023,49.1908157 C61.2786461,48.8146474 61.3465004,48.5011738 61.7310075,48.34792 C61.8742553,48.2921913 62.0024243,48.1946662 62.0024243,48.1319715 C62.0024243,48.0692768 61.8365585,47.8811926 61.6405352,47.7209728 C61.444512,47.5537869 61.2861855,47.3657027 61.2861855,47.303008 C61.2861855,47.2403133 61.3615791,47.045263 61.4595907,46.8780771 L61.6405352,46.5715696 L61.4143546,46.3556211 L61.1957132,46.1396726 L61.4143546,45.9585545 L61.6254565,45.7704703 L61.4897481,45.3455395 C61.4068152,45.1086927 61.2786461,44.8509478 61.2032526,44.7743209 C61.1203197,44.6907279 60.99969,44.5026438 60.9318358,44.34939 C60.788588,44.0428825 60.577486,43.8896287 60.1628214,43.8199679 C59.8838652,43.7712054 59.5672123,43.8617644 59.4465826,44.0359164 C59.3334922,44.1891702 59.3862677,44.8370156 59.5521336,45.4012681 C59.7330781,46.0212492 59.8461685,46.1396726 60.3513053,46.2302316 C60.7131944,46.2859603 60.8112061,46.439214 60.8112061,46.9059414 C60.8112061,47.5607529 60.5247105,47.8324301 59.9517194,47.7209728 C59.687842,47.6652441 59.5747516,47.5955833 59.4541219,47.4005331 C59.2580987,47.0940256 58.9866818,47.0661612 58.7303437,47.3239062 C58.6323321,47.4214313 58.4363088,47.6095155 58.3006004,47.7488371 C58.1573526,47.8881587 58.0442623,48.0553446 58.0442623,48.1110733 C58.0442623,48.1668019 58.2327462,48.4454451 58.4664663,48.7240883 C58.6926469,49.0096976 58.9037489,49.302273 58.9339063,49.3719338 C58.9640638,49.4415946 58.9188276,49.6854074 58.8283554,49.915288 C58.7454224,50.1382026 58.6700289,50.4934727 58.6700289,50.7024551 C58.6700289,50.9114375 58.6247927,51.134352 58.5569385,51.2109789 C58.4966237,51.2945719 58.4438482,51.4478256 58.4363088,51.5592829 C58.4363088,51.7055706 58.3684546,51.7961296 58.1799707,51.9075869 C57.8030029,52.1165693 57.5542041,52.088705 57.2224725,51.7891636 C56.9359769,51.5383847 56.9359769,51.5314186 56.6871782,51.649842 C56.3479071,51.8100618 54.990823,51.8727565 54.757103,51.7334349 C54.3952139,51.5174864 54.0634822,51.4547917 53.8749983,51.5732151 C53.6563569,51.7055706 53.4075582,51.7125367 53.0532084,51.6010794 C52.8496458,51.5383847 52.6460832,51.5453508 52.0730921,51.6428759 C51.1834481,51.7961296 51.0025035,51.7543332 50.8743345,51.3503005 L50.7914016,51.0646912 L50.0827021,51.0855895 C49.6906555,51.0925555 49.2609122,51.134352 49.1252038,51.1691824 C48.8311689,51.2388432 48.6502244,51.1622164 48.5899095,50.9253696 C48.5597521,50.8139123 48.4542011,50.7163872 48.2883353,50.6676247 C47.9716823,50.5631335 46.9010937,50.5631335 46.8332395,50.6606586 C46.757846,50.786048 46.9538692,50.9462679 47.2403648,50.9950304 C47.7379623,51.0786234 47.4967029,51.3154701 46.9764873,51.2527754 C46.9237118,51.2458093 46.7729247,51.2876058 46.6447556,51.3503005 C46.335642,51.5035543 46.335642,51.5035543 46.2828665,51.2040128 C46.2150123,50.8905392 45.9888316,50.7303194 45.5967851,50.7372855 C45.2198173,50.7372855 45.1670418,50.8278445 45.3329076,51.1761485 C45.4083012,51.3294023 45.4535373,51.5035543 45.4309193,51.5592829 C45.4007618,51.6289437 45.0991876,51.7055706 44.5638933,51.7821975 C44.1039925,51.8448922 43.3952931,51.998146 42.9806285,52.1235354 C42.0532876,52.3952125 41.7894102,52.4021786 41.5632295,52.1583658 C41.3295094,51.914553 41.2390372,51.9284852 41.2691946,52.2071284 L41.299352,52.437009 L40.6283493,52.6041949 C40.2513815,52.694754 39.7990201,52.8201434 39.6029969,52.8898042 C39.1657142,53.0360919 39.1204781,53.0291258 39.1204781,52.8619399 C39.1204781,52.5832967 38.9169154,52.5275681 37.914181,52.5415002 C37.3261113,52.5484663 36.9265254,52.5902628 36.8586712,52.6390253 C36.7983563,52.6877879 36.7455808,52.8549738 36.7455808,53.0151937 C36.7455808,53.3356333 36.5872543,53.4470906 36.3384556,53.307769 C36.1273536,53.1823796 36.0368813,53.2032778 36.0368813,53.3634977 C36.0368813,53.5585479 35.7730039,53.6700052 35.4186541,53.6421409 C35.1547767,53.6282087 35.1246192,53.6003444 35.056765,53.3495655 C35.0115289,53.1754135 34.8984385,53.0151937 34.7250333,52.8967703 C34.4988527,52.7365505 34.4460772,52.6390253 34.400841,52.3394839 C34.3556049,52.0260103 34.3254475,51.9772477 34.1746603,51.9772477 C33.9258616,51.9772477 33.8429287,52.1026372 33.7976925,52.5415002 C33.7750745,52.8131773 33.7901532,52.9524989 33.8655467,53.0082276 C34.0012551,53.1127188 34.0087945,53.4610228 33.8806254,53.4261924 C33.8278499,53.4052941 33.7298383,53.307769 33.6619841,53.2032778 C33.5941299,53.0987866 33.4282641,52.9246346 33.2925557,52.8201434 C33.1417685,52.7086861 33.0135995,52.5275681 32.9683633,52.3603821 C32.9155878,52.1444336 32.8401943,52.0608407 32.6140136,51.9633156 C32.0636406,51.7195028 31.9279322,51.7195028 31.8299205,51.9493834 C31.7469876,52.1513997 31.7997631,52.5345341 31.9505502,52.8758721 C32.0485619,53.0709223 31.8751567,53.0221597 31.777145,52.8201434 C31.7243695,52.7226183 31.5585037,52.5902628 31.4001772,52.5345341 C31.0609062,52.4021786 31.0005913,52.2767892 31.121221,51.9493834 C31.1966146,51.740401 31.1890752,51.649842 31.0835243,51.4617578 C30.9628946,51.2458093 30.9478158,51.2388432 30.8422649,51.3642327 C30.6990171,51.5453508 30.7065564,51.83096 30.8498042,52.0120781 C31.0307488,52.2349927 30.993052,52.353416 30.7593319,52.3325178 C30.5331513,52.3046535 30.5256119,52.2976874 30.2617344,51.7195028 C30.1486441,51.4896221 29.997857,51.308504 29.8546092,51.2318772 C29.3494723,50.9671661 29.4851807,50.7094211 30.1863409,50.5770656 C30.7065564,50.4865066 30.7744107,50.3680832 30.4351396,50.173033 C30.3145099,50.1033722 30.0958686,49.9501184 29.9601602,49.8316951 C29.7565976,49.657543 29.681204,49.6296787 29.6058104,49.6993395 C29.5304169,49.7620342 29.5379562,49.8316951 29.6435072,49.998881 C29.8018337,50.2357277 29.8018337,50.2357277 29.2137639,50.3262867 C28.6633909,50.4098797 28.2185689,51.0995216 28.708627,51.0995216 C28.8217174,51.0995216 28.9800439,51.1691824 29.0705161,51.2527754 C29.1609884,51.3363684 29.3570117,51.4478256 29.5002594,51.5035543 C29.7038221,51.5801812 29.7716763,51.6637741 29.8093731,51.8518583 C29.892306,52.262857 29.8169124,52.34645 29.3494723,52.34645 C28.814178,52.34645 28.6709303,52.4788055 28.6784696,52.9733972 C28.686009,53.565514 28.79156,54.0183092 28.9574258,54.1367326 C29.1006736,54.2342577 29.1006736,54.2412238 28.9423471,54.2412238 C28.6709303,54.2481898 28.4372102,53.9486484 28.4372102,53.6142765 C28.4296709,53.4470906 28.4070528,53.0151937 28.3844347,52.6529575 L28.3316592,51.9911799 L27.8491404,52.0260103 C27.5852629,52.0399424 27.1329016,52.088705 26.846406,52.1374676 C26.4166627,52.2001623 26.2884937,52.1931962 26.0924704,52.1096032 C25.7984355,51.9702816 25.3460741,52.0608407 25.3460741,52.262857 C25.3460741,52.4161108 25.5873335,52.6390253 25.7531994,52.6390253 C25.9115259,52.6390253 26.062313,52.785313 26.062313,52.9385668 C26.062313,53.1614813 25.6928845,53.830225 25.4742432,54.0183092 C25.3083774,54.1645969 25.2480625,54.178529 25.1500509,54.1019022 C25.0821967,54.0461735 25.0294212,53.913818 25.0294212,53.8093268 C25.0294212,53.5585479 24.9163308,53.4679889 24.4941269,53.3774298 C24.2377888,53.3286673 24.1397771,53.3356333 24.0719229,53.4122602 C23.9965294,53.4958532 24.0116081,53.5585479 24.1623952,53.6978695 C24.2604068,53.7953946 24.3885759,53.8789876 24.433812,53.8789876 C24.5619811,53.8789876 24.8333979,54.1576308 24.7655437,54.2203255 C24.7353863,54.2481898 24.644914,54.2063934 24.5544417,54.1367326 C24.3961152,54.004377 24.3810365,54.004377 23.9437539,54.1436986 C23.6044828,54.2481898 23.4612351,54.3317828 23.3858415,54.4850366 C23.2727512,54.694019 23.2425937,54.7079511 22.8128504,54.6870529 C22.3604891,54.6591886 22.2775561,54.5825617 22.2172413,54.1019022 C22.1870839,53.8580894 22.1041509,53.5933783 22.0362967,53.5097853 C21.9081277,53.3704637 21.8855096,53.3634977 21.5613173,53.4679889 C21.3803727,53.5306836 21.1768101,53.565514 21.1164953,53.5446157 C20.9807869,53.4958532 20.8978539,53.6073105 20.9581688,53.7605642 C20.9958656,53.8511233 21.0411017,53.8580894 21.154192,53.8023607 C21.2748217,53.7466321 21.3275972,53.7675303 21.4180695,53.8929198 C21.7121044,54.3178506 21.6065534,54.7497476 21.2899005,54.3944775 C21.1617314,54.2412238 21.1240346,54.2342577 20.9355507,54.3108846 C20.8224604,54.3596471 20.70937,54.3735793 20.6792126,54.3387489 C20.6490552,54.3108846 20.5435042,54.004377 20.4379532,53.6630391 C20.264548,53.0639562 20.0383673,52.7086861 19.8423441,52.7086861 C19.7895686,52.7086861 19.6840176,52.6459914 19.608624,52.5623985 C19.3824433,52.3325178 19.1261052,52.3743143 19.0130149,52.6529575 C18.847149,53.0360919 18.5380354,53.3774298 18.2515399,53.4888871 C17.9801231,53.5933783 17.9047295,53.7744964 18.0705953,53.9347162 C18.1233708,53.9765127 18.1384495,54.0670718 18.1158315,54.1297665 C18.0479773,54.2969524 17.5805372,54.2760542 17.1658726,54.08797 C16.751208,53.8998858 16.5174879,53.9416823 16.6079602,54.1924612 C16.7738261,54.6522225 16.7436686,54.6731207 15.5599897,54.8333406 C15.0473135,54.8960353 14.888987,54.8960353 14.7608179,54.8263745 C14.6401882,54.7567137 14.5270979,54.7497476 14.3310746,54.8054762 C14.127512,54.8612049 14.0068823,54.8542388 13.810859,54.7636798 C13.577139,54.6661546 13.5092848,54.6661546 13.1624744,54.7706458 C12.815664,54.875137 12.7402704,54.875137 12.5442472,54.7776119 C12.370842,54.694019 12.15974,54.6800868 11.5641309,54.7218833 L10.8026559,54.7706458 L10.4633848,55.1677124 C10.0939564,55.5926433 9.90547248,55.6762363 9.46065046,55.6135415 C9.1439975,55.564779 8.87258067,55.6414059 8.64639999,55.8503883 C8.48053415,56.003642 8.13372376,56.0524046 8.0583302,55.9339812 Z M8.0055547,54.0461735 C8.0055547,53.9416823 7.79445273,53.7326999 7.70398045,53.7326999 C7.59089011,53.7326999 7.59089011,53.7744964 7.6964411,53.9556145 C7.77183466,54.0949361 8.01309406,54.1576308 8.0055547,54.0461735 Z M28.9875832,51.7612992 C28.9875832,51.649842 28.9348077,51.6150116 28.7990993,51.6150116 C28.5729186,51.6150116 28.369356,51.7961296 28.5276825,51.8518583 C28.7764812,51.9493834 28.9875832,51.9006208 28.9875832,51.7612992 Z M97.5504893,45.3525055 C97.8294451,45.22015 97.8520636,45.045998 97.5881861,44.9902694 C97.1207457,44.8788121 96.7814747,45.1504892 97.1132062,45.3734038 C97.2866119,45.4918271 97.2639933,45.4918271 97.5504893,45.3525055 Z M59.8612472,41.6674492 C59.9517194,41.5838562 60.0195736,41.4654328 60.0195736,41.4097042 C60.0195736,41.2355522 59.7255388,41.0056716 59.5068974,41.0056716 C59.2580987,41.0056716 59.1676264,41.2773487 59.3108742,41.5908223 C59.4239645,41.8485672 59.6350665,41.8764316 59.8612472,41.6674492 Z M59.8612472,40.8175874 C59.8612472,40.7548927 59.6727633,40.5459103 59.4465826,40.3438939 C59.0620754,40.0095221 58.8358947,39.8980648 58.8358947,40.0443525 C58.8358947,40.1070472 59.1751657,40.5528763 59.4239645,40.8036552 C59.5747516,40.9638751 59.8612472,40.9708412 59.8612472,40.8175874 Z M57.0113705,38.9646101 C57.0113705,38.874051 56.8605834,38.783492 56.8002685,38.8322546 C56.7399537,38.8879832 56.8455047,39.0342709 56.9359769,39.0342709 C56.9812131,39.0342709 57.0113705,38.9994405 57.0113705,38.9646101 Z M56.5590091,38.4491202 C56.7851898,38.4491202 56.7097962,38.3028325 56.4233007,38.177443 C56.0764903,38.0241893 55.8729277,37.6062245 56.0387935,37.3763438 C56.2046594,37.1464632 56.091569,36.9723112 55.7975341,37.0001755 L55.5487354,37.0210737 L55.5261173,37.5226315 L55.4959599,38.0311554 L55.8352309,38.344629 C56.1368052,38.6302382 56.1820413,38.6511365 56.302671,38.5536114 C56.3705252,38.4978827 56.4911549,38.4491202 56.5590091,38.4491202 Z M55.8276916,36.3383979 C55.8276916,36.2339067 55.8955458,36.0458225 55.986018,35.9204331 C56.2498955,35.5442648 56.1368052,35.0984356 55.7824554,35.1680964 C55.5788928,35.2029268 55.307476,35.99706 55.4205663,36.2269406 C55.4658025,36.3244657 55.5110386,36.4707534 55.5110386,36.5473803 C55.5110386,36.6727697 55.5336567,36.6797358 55.6693651,36.6170411 C55.7673767,36.5682785 55.8276916,36.4637873 55.8276916,36.3383979 Z M96.6683843,35.2447233 C96.6683843,35.216859 96.6382271,35.1402321 96.5929908,35.0845035 C96.502519,34.9521479 96.3969674,35.0357409 96.4648222,35.1889947 C96.5100577,35.300452 96.6759239,35.3492145 96.6683843,35.2447233 Z M13.5319029,33.1897297 C13.6148358,33.1409671 13.6148358,33.1131028 13.5319029,33.0504081 C13.4037338,32.952883 13.1926318,33.0504081 13.2680254,33.1688314 C13.3358796,33.2663566 13.3961944,33.2733226 13.5319029,33.1897297 Z M37.024537,32.6672737 C37.0471551,32.6254772 37.0320764,32.5976129 36.9868402,32.5976129 C36.9416041,32.5976129 36.9039073,32.6254772 36.9039073,32.6672737 C36.9039073,32.7090702 36.918986,32.7439006 36.9416041,32.7439006 C36.9566828,32.7439006 36.9943796,32.7090702 37.024537,32.6672737 Z M48.3637288,30.7516016 C48.3184927,30.6192461 48.1450875,30.5913818 48.1450875,30.7237373 C48.1450875,30.786432 48.197863,30.8421607 48.2732566,30.8421607 C48.3411108,30.8421607 48.3788076,30.8003642 48.3637288,30.7516016 Z M74.0653944,30.521721 C74.1332486,30.4172298 74.1030912,30.3545351 73.9146073,30.2152135 C73.7864382,30.1176884 73.6658085,30.0549936 73.6507298,30.0689258 C73.6356511,30.082858 73.6658085,30.2291456 73.7261234,30.3963316 C73.824135,30.7098052 73.9221466,30.7376695 74.0653944,30.521721 Z" id="Shape" fill="#FFFFFF"></path>
                        <path d="M18.6457175,54.2188493 C18.6245273,54.1773396 18.723415,54.0735655 18.8646831,53.9836278 C19.1048389,53.8314257 19.1260291,53.7968344 19.0836486,53.5546947 C19.055395,53.3679012 19.0765852,53.2710453 19.1542827,53.2018625 C19.3026142,53.0842518 19.5003895,53.1534346 19.5003895,53.3125549 C19.5003895,53.3955743 19.54277,53.4232474 19.6416576,53.3955743 C19.8111794,53.3540646 19.9736377,53.513185 19.9171304,53.6653871 C19.8959402,53.7276516 19.7546721,53.8245075 19.6063406,53.886772 C19.4580091,53.9421182 19.246107,54.0597289 19.1260291,54.1427482 C18.9000001,54.3018686 18.7163516,54.3295417 18.6457175,54.2188493 Z" id="Shape" fill="#FFFFFF"></path>
                        <path d="M31.5,53.7164625 C31.5,53.6253691 31.7745686,53.6253691 32.0491372,53.7164625 C32.2100912,53.7655127 32.1722197,53.7795271 31.8692474,53.7795271 C31.6704219,53.7865342 31.5,53.7514984 31.5,53.7164625 Z" id="Shape" fill="#FFFFFF"></path>
                        <path d="M64.3149051,50.9667509 C64.416886,50.3663634 64.4824452,50.2857143 64.8976533,50.2857143 C65.2982927,50.2857143 65.3857049,50.3394803 65.5095389,50.6441546 C65.655226,50.9757119 65.553245,51.056361 65.1016152,50.9846729 C64.7228288,50.9309069 64.6864071,50.9398679 64.5625731,51.1728541 C64.3440425,51.5850605 64.2274928,51.4864894 64.3149051,50.9667509 Z" id="Shape" fill="#FFFFFF"></path>
                        <path d="M95.9779372,45.5687216 C95.7645477,45.4274581 95.7516147,45.4072776 95.8292113,45.2761043 C95.9262066,45.10457 96.0490673,45.0995249 96.2301256,45.2559238 C96.3982504,45.4022324 96.4629139,45.5384509 96.4111833,45.6393534 C96.3529863,45.7553913 96.2430579,45.7402559 95.9779372,45.5687216 Z" id="Shape" fill="#FFFFFF"></path>
                        <path d="M3.09642462,42.3705059 C3.09642462,42.33547 3.14933221,42.2583911 3.21735624,42.2023336 C3.33072964,42.1182475 3.34584609,42.1252547 3.32317141,42.2443767 C3.29293851,42.3845203 3.09642462,42.4966351 3.09642462,42.3705059 Z" id="Shape" fill="#FFFFFF"></path>
                        <path d="M93.4596259,42.2172874 C93.3159173,42.1390255 93.1650232,41.6694545 93.2296919,41.5058161 C93.2512487,41.4488984 93.3590301,41.384866 93.4668115,41.3564071 C93.5745929,41.335063 93.7901557,41.2710306 93.9482346,41.2069982 C94.2140957,41.1145069 94.2428372,41.1145069 94.3865458,41.2568012 C94.5302543,41.3990954 94.5374399,41.484472 94.4081025,41.9469283 C94.3362482,42.2172874 93.7470429,42.3880405 93.4596259,42.2172874 Z" id="Shape" fill="#FFFFFF"></path>
                        <path d="M92.0841056,41.1958282 C91.8305683,41.0626918 91.8939526,40.9786056 92.2235515,41.0066344 C92.3756744,41.0206487 92.5404731,41.0907205 92.5658274,41.1607923 C92.6165346,41.307943 92.3122901,41.3289645 92.0841056,41.1958282 Z" id="Shape" fill="#FFFFFF"></path>
                        <path d="M3.1069334,34.8731271 C3.1069334,34.8030553 3.15984099,34.7540051 3.22786502,34.7540051 C3.37147132,34.7540051 3.34123842,34.9151702 3.19763212,34.9572133 C3.14472453,34.9712276 3.1069334,34.9361917 3.1069334,34.8731271 Z" id="Shape" fill="#FFFFFF"></path>
                        <path d="M45.648929,26.6113099 C45.4831004,26.2432811 45.1966692,26.1088091 44.8951626,26.2503586 C44.7670223,26.3069784 44.3750637,26.3565207 43.9831051,26.3635982 L43.28964,26.3848306 L43.086123,26.1300415 C42.7846164,25.7620128 42.8524554,25.6133858 43.334866,25.6063083 C43.5459206,25.6063083 43.7720505,25.5921533 43.8248142,25.5921533 C44.0057181,25.5709209 43.9228038,25.3515191 43.6288349,25.0684201 C43.4630063,24.9127156 43.1690373,24.6154616 42.973058,24.4031374 C42.6187878,24.0138762 42.3775825,23.921869 42.2871306,24.1341933 C42.2645176,24.1978905 42.3022059,24.3040527 42.3700449,24.3819049 C42.5283358,24.5376094 42.5509488,24.7428562 42.4001955,24.6296166 C42.1062266,24.4172923 41.4429121,24.5446869 41.1564808,24.8702508 C41.0961795,24.9410255 40.9529639,25.0259552 40.8549742,25.0684201 C40.6966833,25.1179624 40.636382,25.09673 40.4705533,24.9056382 C40.342413,24.7711661 40.1388961,24.650849 39.9203038,24.6013067 C39.7167869,24.5517643 39.5735712,24.4739121 39.5735712,24.4172923 C39.5735712,24.3606725 39.6037219,24.3182076 39.6489479,24.3182076 C39.6941739,24.3182076 39.7318622,24.2615878 39.7318622,24.1978905 C39.7318622,24.1341933 39.7770882,23.9289465 39.8449272,23.7307771 C40.0182935,23.192889 40.0484441,22.6762332 39.9127661,22.6266909 C39.8449272,22.6054584 39.7620129,22.6196134 39.7167869,22.6620782 C39.6564855,22.7186981 39.5584959,22.6974656 39.3851296,22.598381 C39.0308594,22.4002116 38.5484488,22.4143666 38.1941786,22.6408458 L37.9077473,22.8248602 L37.9077473,22.6550008 C37.9077473,22.3860567 37.8323707,22.3719017 37.4630251,22.5771485 C37.1615185,22.7399305 37.0635289,22.7611629 36.7243339,22.7186981 C36.407752,22.6762332 36.2871494,22.6196134 36.1590091,22.449754 C36.0685571,22.3294369 35.9554921,22.2374297 35.9027285,22.2374297 C35.8499648,22.2374297 35.7067492,22.1312675 35.5936842,22.003873 C35.2318763,21.6146118 35.103736,21.7207739 35.081123,22.4285215 C35.05851,23.0584169 35.103736,23.1575016 35.4127803,23.2141214 C35.5183076,23.2282763 35.5786089,23.3061286 35.5936842,23.4335231 C35.6162972,23.6033826 35.5861466,23.6387699 35.3826296,23.6812348 C35.126349,23.7307771 34.8097671,23.9855663 34.5308735,24.353595 C34.4328839,24.4739121 34.3348942,24.5517643 34.2972059,24.516377 C34.2670552,24.4880671 34.3198189,24.3819049 34.4253462,24.2757428 C34.5760995,24.1200383 34.5987125,24.056341 34.5384112,23.8581717 C34.4856475,23.6883123 34.4027332,23.6033826 34.2369046,23.5609177 C34.1163019,23.5326078 33.8977097,23.3769033 33.7469564,23.2211989 L33.4756004,22.9380998 L33.3097718,23.1221142 C33.2042445,23.2424313 33.1665562,23.3556709 33.2042445,23.4547556 C33.3248471,23.8157068 33.3323848,24.0421861 33.2193198,24.3040527 C32.9705769,24.8844057 32.8273613,25.4222939 32.8725872,25.5992308 C32.9102756,25.7549353 32.8801249,25.7974001 32.6841456,25.8752524 C32.4127897,25.9814145 32.427865,25.988492 32.3223377,25.691238 C32.2695741,25.5355335 32.1715844,25.4435263 32.0132935,25.4010615 C31.8625402,25.3585966 31.7268622,25.245357 31.6590232,25.1038075 C31.5007323,24.8065535 31.0710854,24.5376094 30.7394281,24.5376094 C30.5434488,24.5376094 30.4379215,24.4880671 30.3097812,24.3182076 C30.1891786,24.1554257 30.0761136,24.0917284 29.9178227,24.0917284 C29.6163161,24.0917284 29.1565185,23.7873969 29.1866692,23.6033826 C29.2017445,23.5255303 29.2469705,23.2778187 29.2921965,23.0584169 C29.3901861,22.5417612 29.2469705,22.3294369 28.696721,22.1808099 C28.3876767,22.0958802 28.2972247,22.0321829 28.2067727,21.8269361 C28.1464714,21.6853866 28.0937078,21.5013722 28.0937078,21.4235199 C28.0937078,21.2111957 27.9580298,21.1616533 27.7318999,21.3032029 C27.6263726,21.3669001 27.4982323,21.4022875 27.4605439,21.3810551 C27.324866,21.2961254 27.3776296,21.126266 27.5736089,21.0059489 C27.8298895,20.8502444 27.9128038,20.4892931 27.7394375,20.3052787 C27.6414479,20.2061941 27.6188349,20.1000319 27.6640609,19.9018626 C27.6942115,19.7532356 27.6942115,19.6329185 27.6791362,19.6329185 C27.6565232,19.6329185 27.4153179,19.8381653 27.1364243,20.0929544 L26.6389385,20.5459129 L26.7746164,20.7653147 C26.9329074,21.0271813 26.8876814,21.1191885 26.6012501,21.1191885 C26.4881852,21.1191885 26.3072812,21.1758083 26.2092916,21.2395056 L26.0283876,21.3598227 L26.1942163,21.4730623 C26.3449695,21.5650695 26.3600449,21.6358442 26.3298942,21.9614081 C26.2771306,22.4780639 26.1942163,22.7540854 26.0283876,22.9805647 C25.953011,23.0796493 25.8700967,23.313206 25.839946,23.5042979 C25.8022577,23.7873969 25.8248707,23.8794041 25.9680863,24.056341 C26.2168292,24.3465175 26.2017539,24.7145463 25.9379356,24.948103 C25.6891927,25.1675048 25.7193434,25.3090543 26.043463,25.4293714 C26.1716033,25.4789137 26.2922059,25.5496885 26.3148189,25.5850758 C26.3675825,25.6629281 25.885172,25.5072236 25.6665797,25.3727516 C25.5685901,25.3161318 25.3952238,25.2807444 25.2670835,25.2948993 C25.0937172,25.3090543 25.0258782,25.3727516 24.9505016,25.5779984 L24.8449743,25.839865 L24.8977379,25.5213786 C24.9354262,25.2382795 24.9278886,25.2099696 24.7771353,25.2099696 C24.5886937,25.2099696 24.2118104,25.6841605 24.2193481,25.9318722 C24.2193481,26.0380343 24.1665844,26.1017316 24.0836701,26.1017316 C24.0082935,26.1017316 23.9706051,26.0804992 24.0007558,26.0521893 C24.0987454,25.9601821 23.8123142,25.5709209 23.4957323,25.3585966 C23.1339244,25.110885 22.9379451,25.1321174 22.6892021,25.4364489 C22.5987502,25.5567659 22.3952332,25.691238 22.2444799,25.7337028 C22.0861889,25.7832452 21.9203603,25.8540199 21.8675967,25.8894073 C21.8072954,25.9318722 21.7093057,25.9247947 21.5962407,25.8752524 C21.4681004,25.8044776 21.3474978,25.8115551 21.0761419,25.8823298 L20.7218716,25.974337 L20.4128274,25.6558506 C20.0208688,25.259512 19.8173518,25.2665894 19.8399648,25.6841605 C19.8701155,26.1088091 19.7872012,26.1583514 19.1012737,26.137119 C18.6188631,26.1158866 18.4681099,26.0804992 18.3173566,25.9531046 C18.1666033,25.8115551 18.1138396,25.8044776 17.9555486,25.8752524 C17.744494,25.9814145 17.1339432,25.9318722 16.553543,25.7549353 L16.1465091,25.6346182 L15.8676155,25.8681749 C15.7093245,25.9955695 15.5661089,26.0946541 15.5434959,26.1017316 C15.4455063,26.1017316 14.8952567,25.8044776 14.8123424,25.7053929 C14.7595788,25.6416957 14.5937502,25.5709209 14.4505345,25.5496885 C14.1490279,25.4930687 13.945511,25.3090543 13.855059,25.0118003 C13.7721447,24.7074688 13.6515421,24.7216238 13.6364667,25.0401102 C13.6213914,25.259512 13.6666174,25.3656741 13.8701343,25.5638434 L14.1264149,25.8115551 L13.6515421,25.7549353 C13.3877238,25.7195479 12.9279262,25.7053929 12.618882,25.7195479 C11.8349648,25.7620128 11.4957699,25.7549353 10.9982841,25.677083 L10.5610995,25.6133858 L10.5234112,25.2878219 C10.4706475,24.8419409 10.2972812,24.7428562 9.96562398,24.9764129 L9.71688105,25.1462723 L9.54351476,24.9905679 C9.40783679,24.8702508 9.30984715,24.8490183 9.09125487,24.8844057 C8.8500496,24.9197931 8.76713528,24.8914832 8.56361834,24.7003913 C8.41286504,24.5659193 8.19427276,24.4597572 8.00583114,24.4314473 C7.80231416,24.3960599 7.61387254,24.3040527 7.48573224,24.1625032 C7.37266727,24.0421861 7.21437631,23.9431014 7.13899966,23.9360239 C7.06362301,23.9360239 6.87518139,23.921869 6.7244281,23.9147915 C6.49076049,23.907714 6.4455345,23.8723267 6.37769552,23.6670798 C6.32493186,23.4972204 6.24201755,23.4052132 6.0611136,23.3485934 C5.64654203,23.2211989 4.90785089,23.0513394 4.76463526,23.0513394 C4.68925861,23.0513394 4.53850531,22.9805647 4.43297801,22.9027124 C4.31991303,22.8248602 4.13147141,22.7540854 4.01086878,22.7540854 C3.75458818,22.7540854 3.73197518,22.6408458 3.96564279,22.5276062 C4.13147141,22.4426765 4.13900908,22.3435918 3.98825578,21.7490838 C3.90534147,21.409365 3.80735183,21.3456677 3.4078556,21.3456677 C2.96313337,21.3456677 1.95308629,20.9210191 1.81740833,20.6733075 C1.76464467,20.5813003 1.74203168,20.4043634 1.75710701,20.2769688 C1.81740833,19.8877076 1.68926803,19.5833762 1.41791209,19.491369 C1.28977179,19.4489041 1.18424449,19.3993618 1.18424449,19.3781294 C1.18424449,19.3568969 1.31238479,19.2861222 1.46313808,19.2295024 C1.98323695,19.0242556 1.89278497,18.7553115 1.19178215,18.4439025 C0.686758611,18.2245008 0.588768969,18.019254 0.656607952,17.2973514 C0.71690927,16.5896038 0.754597594,16.5259065 1.05610418,16.4975966 C1.28223413,16.4763642 1.30484712,16.4480543 1.31238479,16.2144976 C1.32746012,15.789849 1.33499778,15.7827715 1.56112772,15.7544616 C1.74203168,15.7332292 1.77972,15.6907644 1.802333,15.492595 C1.83248366,15.2378059 1.55359006,14.6574529 1.40283676,14.6432979 C1.35007311,14.6362204 1.16163149,14.6432979 0.995802866,14.6503754 L0.686758611,14.6716078 L0.747059929,14.183262 C0.792285917,13.7798458 0.769672924,13.6382963 0.626457293,13.3056549 C0.528467651,13.0862532 0.362639026,12.8243866 0.264649383,12.7182244 C0.159122077,12.6120623 0.0762077639,12.4917452 0.0762077639,12.4563578 C0.0762077639,12.413893 0.219423395,12.251111 0.392789685,12.0883291 C0.739522264,11.7698426 0.769672924,11.6424481 0.581231304,11.2885743 C0.490779327,11.1328698 0.453091003,10.8851581 0.460628668,10.5595942 C0.468166332,10.2127979 0.430478009,10.035861 0.355101361,9.97216373 C0.234498724,9.88015654 0.249574054,9.08040175 0.392789685,8.63452076 C0.528467651,8.2098722 0.407865014,7.16948322 0.189272736,6.80145447 C0.0837454288,6.63159504 -0.00670654864,6.47589057 0.000391414345,6.45465814 C0.000391414345,6.43342571 0.166659741,6.41927076 0.377714355,6.41927076 C0.87520023,6.43342571 1.74956934,6.01585463 1.81740833,5.73983306 C1.85509665,5.60536102 1.91539797,5.55581868 2.02092528,5.56997364 C2.61640079,5.66198082 3.3852426,5.6407484 3.61137254,5.52750878 C3.85257782,5.41426916 3.89026614,5.42134664 4.16915974,5.54874121 C4.37267669,5.6407484 4.68925861,5.69029073 5.17920682,5.70444568 C5.82744599,5.72567811 5.90282264,5.71152316 6.11387725,5.54874121 C6.30231887,5.39303674 6.42292151,5.36472683 6.84503073,5.36472683 C7.11638667,5.36472683 7.61387254,5.40011421 7.94552982,5.44257907 C8.36763905,5.49919888 9.48321344,5.49919888 11.6314479,5.44965654 C14.2319422,5.38595926 14.7445035,5.35764935 14.9555581,5.25148721 C15.0987737,5.18778993 15.4681193,5.10993769 15.7771635,5.08870527 C16.3349507,5.04624041 16.3500261,5.05331789 16.6063067,5.28687459 C16.8475119,5.5204313 16.8701249,5.52750878 17.0058029,5.40719169 C17.1113302,5.3151845 17.2620835,5.28687459 17.5409771,5.30810702 C17.8877097,5.32226197 17.925398,5.3434944 17.948011,5.5204313 C17.9630863,5.62659344 17.9178603,5.75398801 17.8500213,5.81060782 C17.6917304,5.93092491 17.6917304,6.22817891 17.8500213,6.28479871 C18.083689,6.36972843 18.4228839,6.32726357 18.5962502,6.19279153 C18.7470035,6.07955191 18.7620788,6.03708705 18.6867021,5.89553753 C18.5434865,5.65490335 18.7545411,5.36472683 19.0861984,5.36472683 C19.1314244,5.36472683 19.342479,5.53458626 19.5610712,5.73275558 C19.9907181,6.13617172 20.2394611,6.199869 20.397752,5.95923482 C20.4731287,5.8459952 20.5861937,5.81060782 20.8650873,5.81060782 C21.1289055,5.81060782 21.2871965,5.76814296 21.4077991,5.65490335 C21.5510147,5.53458626 21.7545317,5.4921214 22.3500072,5.43550159 C23.7218622,5.3151845 25.0334159,4.95423322 26.2771306,4.35264776 C26.6464761,4.17571086 26.9932087,4.02708386 27.0459724,4.02708386 C27.1514997,4.02708386 27.5434582,4.69944408 27.5434582,4.86930351 C27.5434582,5.01793051 28.0183311,5.21609983 28.3726014,5.21609983 C28.5308923,5.21609983 28.7645599,5.15948003 28.8851626,5.08870527 C29.0736042,4.9896206 29.1640562,4.98254313 29.4127991,5.04624041 C30.1364149,5.24440974 30.3097812,5.26564217 30.6942021,5.23733226 C31.1389243,5.19486741 31.1615373,5.1665575 30.9881711,4.95423322 C30.9203321,4.86930351 30.8675684,4.73483146 30.8675684,4.64282428 C30.8675684,4.49419728 30.9052567,4.47296485 31.214301,4.47296485 C31.7343999,4.47296485 31.9605298,4.17571086 31.7193245,3.81475958 C31.6740985,3.73690734 31.6514856,3.62366773 31.6816362,3.55289297 C31.7343999,3.41134345 32.0585194,3.39011102 32.1866598,3.51750559 C32.2544987,3.58120287 32.360026,3.56704792 32.6012313,3.48211821 C33.0761042,3.29810383 33.3022341,3.31933626 33.4002238,3.55289297 C33.4680628,3.72982987 33.5057511,3.74398482 33.7695694,3.69444249 C33.9278603,3.66613258 34.1615279,3.55997044 34.2896682,3.46088578 C34.4781098,3.31933626 34.5987125,3.28394888 34.9303697,3.29810383 C35.148962,3.30518131 35.6389102,3.26979393 36.0082558,3.22025159 C36.452978,3.15655431 37.1087549,3.14239936 37.9454356,3.17070926 C39.8449272,3.23440655 40.1388961,3.22732907 41.4278368,3.11408945 C42.2720552,3.04331469 42.8524554,3.03623722 43.4102426,3.07870207 C43.9228038,3.12116693 44.525817,3.12116693 45.1439055,3.06454712 C46.0333499,2.98669488 46.0936513,2.99377236 46.3574695,3.13532188 C46.6740515,3.31225878 46.8624931,3.2768714 47.043397,3.02208226 L47.1715373,2.83806789 L48.392639,2.87345527 C49.6062031,2.91592012 49.9378603,2.96546246 50.1941409,3.18486421 C50.3675072,3.33349121 50.5710241,3.26271645 50.5182605,3.07870207 C50.4730345,2.90884265 50.6765515,2.68944089 50.8800684,2.68944089 C50.955445,2.68944089 51.0534347,2.64697604 51.1061983,2.60451118 C51.181575,2.53373642 51.272027,2.56204632 51.4981569,2.73898322 C51.7544375,2.93715255 51.7921258,3.00084984 51.7695128,3.22732907 C51.7544375,3.43257587 51.7845882,3.51750559 51.9278038,3.60951278 C52.1765467,3.77229472 52.417752,3.75813977 52.5911183,3.58120287 C52.6815703,3.48211821 52.8323236,3.43257587 53.0358405,3.43257587 C53.3071965,3.43257587 53.3448848,3.41134345 53.3448848,3.25563897 C53.3448848,2.97961741 53.5484017,2.82391294 53.880059,2.85222284 C54.1589526,2.87345527 54.1740279,2.88761022 54.2343292,3.24148402 C54.3247812,3.72982987 54.4227708,3.85014696 54.6187501,3.68736501 C54.6941268,3.61659025 54.9127191,3.54581549 55.1011607,3.52458306 C55.3951296,3.49627316 55.4780439,3.52458306 55.7569375,3.72982987 C56.0282934,3.93507667 56.1112078,3.96338658 56.3901014,3.92092172 C56.5634676,3.89261182 56.8725119,3.85722444 57.0760288,3.84306948 C57.2870835,3.82183706 57.5961277,3.73690734 57.769494,3.65905511 C58.1162266,3.48919568 58.6363255,3.46088578 58.9076814,3.58828035 C58.9981334,3.63782268 59.2468763,3.82183706 59.4428556,4.00585143 C59.8498895,4.37388019 60.0910948,4.40926757 60.1363207,4.09785862 C60.1513961,3.99877396 60.2041597,3.87137939 60.2493857,3.81475958 C60.4152143,3.62366773 60.9051626,3.4538083 61.4101861,3.40426597 C61.6890797,3.37595607 61.952898,3.32641373 61.9905863,3.29102635 C62.0282746,3.25563897 61.9981239,3.05039217 61.930285,2.81683546 C61.8322953,2.51250399 61.81722,2.29310223 61.8699836,1.94630591 C61.9378226,1.40841773 62.1262643,1.23855831 62.1262643,1.70567172 C62.1262643,2.05954552 62.3825449,2.32141214 62.7292774,2.32141214 C62.8875684,2.31433466 63.0383217,2.3921869 63.1966126,2.54081389 C63.3925919,2.73190575 63.4830439,2.76729313 63.8297765,2.76729313 C64.0559064,2.76729313 64.380026,2.71067332 64.5533923,2.63989856 C64.7795223,2.54789137 65.0433405,2.52665894 65.6086654,2.54081389 C66.0232369,2.55496885 66.9805204,2.5691238 67.7493622,2.57620128 C68.5106663,2.57620128 69.3021211,2.61158866 69.5056381,2.64697604 C69.799607,2.69651837 69.9202096,2.68236342 70.0785006,2.58327875 C70.2518669,2.47711661 70.2820175,2.41341933 70.2820175,2.02415814 C70.2820175,1.52165735 70.3724695,1.44380511 70.8021164,1.61366453 C71.194075,1.76229153 71.7518622,1.6844393 71.9176908,1.45088259 C72.0307558,1.28810064 72.0910571,1.27394569 72.520704,1.29517811 L73.0031145,1.31641054 L73.1011042,1.71982668 C73.1915561,2.10908786 73.2895458,2.23648243 73.6513537,2.43465175 C73.7870317,2.51250399 73.7945693,2.54081389 73.689042,2.84514536 C73.621203,3.03623722 73.5684394,3.48211821 73.5684394,3.91384424 C73.5609017,4.55081709 73.5382887,4.69236661 73.3950731,4.88345846 C73.2593951,5.06039536 73.2217068,5.25148721 73.1915561,5.81060782 C73.1463302,6.57497523 73.1011042,6.69529232 72.6488443,7.2331805 C72.4151767,7.51627954 72.3473377,7.66490654 72.3021117,8.04001277 C72.2418104,8.55666852 72.294574,8.66990814 72.6488443,8.73360542 C72.8297482,8.7689928 72.9126625,8.85392251 73.0483405,9.12994408 C73.2292445,9.50505031 73.2292445,9.76691692 73.0558782,10.7152987 C72.8523612,11.8335399 72.8448236,11.6990679 73.1764808,11.9750894 C73.3498471,12.116639 73.5458264,12.3218858 73.621203,12.4351254 C73.8774836,12.831464 74.3900448,12.6474497 74.1563772,12.2369561 C74.0659253,12.0812516 74.0810006,12.0387867 74.2543669,11.8406174 C74.3598942,11.7203003 74.4880345,11.4725886 74.5483358,11.2956517 C74.6463254,10.9700878 74.6387878,10.9488554 74.2845175,10.2835727 C74.0810006,9.90846644 73.9227096,9.56874759 73.9227096,9.52628274 C73.9227096,9.48381788 74.0131616,9.41304312 74.1262266,9.37765574 C74.3146682,9.30688098 74.3297435,9.27857108 74.2845175,8.99547203 C74.2543669,8.82561261 74.1413019,8.58497842 74.0282369,8.46466133 C73.8774836,8.29480191 73.8397953,8.18863977 73.8774836,8.04709025 C74.0131616,7.5870543 73.9754733,7.04208865 73.7870317,6.66698242 C73.6815044,6.44758066 73.6061277,6.15032667 73.6061277,5.95923482 C73.6061277,5.65490335 73.6362784,5.58412859 73.960398,5.29395207 C74.1563772,5.10993769 74.3146682,4.90469089 74.3146682,4.8409936 C74.3146682,4.77729632 74.4051202,4.64282428 74.5106475,4.55081709 C74.6237125,4.45173242 74.7367774,4.23233067 74.7820034,4.01292891 C74.902606,3.51750559 75.0684347,3.23440655 75.3247153,3.10701198 C75.5357699,3.00084984 75.5433076,2.97961741 75.5433076,2.4204968 C75.5433076,1.61366453 75.6563725,1.40841773 76.1764714,1.33056549 C76.3950637,1.29517811 77.4729497,1.26686821 78.5809865,1.26686821 L80.5935428,1.25979073 L80.7970601,1.49334744 C81.0382649,1.76936901 81.1061045,1.77644648 81.4076111,1.55704473 C81.6035897,1.40841773 81.754343,1.3871853 82.7417773,1.34472045 C83.9854919,1.28810064 84.7317206,1.16070607 85.8699081,0.799754791 L86.6462881,0.55204313 L86.9101064,0.700670127 C87.0533218,0.785599839 87.271914,0.92714936 87.3925167,1.01915655 C87.716636,1.27394569 88.3422627,1.33056549 88.7945226,1.13947364 C88.9829642,1.0616214 89.1864806,1.01207907 89.2467824,1.0333115 C89.4201484,1.09700878 89.721655,0.8563746 89.774419,0.615740415 C89.8271822,0.360951278 90.0005489,0.318486421 90.2492915,0.495423322 C90.3548187,0.566198082 90.4603458,0.580353034 90.6412504,0.530810702 C90.7769281,0.488345846 90.9578319,0.48126837 91.0407463,0.502500798 C91.1914996,0.55204313 91.3874791,0.573275558 92.1940087,0.636972843 C92.4276765,0.658205271 92.6538064,0.707747603 92.6990326,0.750212459 C92.7517966,0.792677315 92.895012,0.835142172 93.0231519,0.835142172 C93.1437547,0.835142172 93.3924981,0.870529552 93.565864,0.920071884 C93.8824463,1.0050016 93.8899833,1.0050016 94.1085762,0.764367411 C94.2593295,0.594507987 94.4251577,0.495423322 94.6211371,0.467113418 C94.7945031,0.438803514 94.9527942,0.360951278 95.0055582,0.276021565 C95.0507843,0.191091853 95.0884726,0.120317093 95.0884726,0.113239616 C95.0884726,0.113239616 95.2392259,0.0849297124 95.4201297,0.0566198082 L95.7517868,-8.52651283e-13 L95.6613345,0.233556709 C95.5482696,0.509578274 95.6537975,0.608662939 96.0532934,0.608662939 C96.1965089,0.608662939 96.3246495,0.636972843 96.3472622,0.672360223 C96.3698757,0.700670127 96.4301767,1.01915655 96.4754028,1.37303035 C96.520629,1.72690415 96.6487688,2.34972204 96.7618337,2.7460607 C96.912587,3.26979393 96.9804259,3.70859744 97.0030393,4.32433785 C97.0181142,4.79145127 97.0407277,5.33641693 97.0633403,5.53458626 C97.1010287,5.89553753 97.0105772,6.18571405 96.7166076,6.58913018 C96.6261561,6.71652475 96.5583173,6.93592651 96.5583173,7.09870846 C96.5507795,7.53751197 96.3924883,8.03293529 96.2040467,8.17448481 C96.1135944,8.24525958 95.9854546,8.40096405 95.9326906,8.52835862 C95.8799274,8.65575319 95.6236462,8.9459297 95.3673658,9.17240894 C94.8849554,9.60413497 94.7568148,9.83769168 94.8472671,10.1561781 C94.8849554,10.3048051 94.9452564,10.34727 95.126161,10.34727 C95.3899792,10.34727 95.4352046,10.4251222 95.3673658,10.8002284 C95.3296774,10.9771653 95.2166125,11.1470247 95.0281708,11.3098067 C94.8698797,11.4372013 94.6965138,11.656603 94.6437498,11.7981525 C94.5834488,11.953857 94.5005343,12.0458642 94.4251577,12.0317093 C94.3045549,12.0175543 94.2442539,12.2015687 94.1311889,13.0225559 C94.0935006,13.277345 94.1161133,13.3835072 94.2141034,13.4613594 C94.3874693,13.5958315 94.3950072,14.7423826 94.2216412,14.8768546 C94.1538016,14.9263969 94.1010384,15.0113267 94.1010384,15.0679465 C94.1010384,15.1174888 94.0331996,15.1882636 93.9427473,15.209496 C93.852295,15.2378059 93.7844562,15.3227356 93.7844562,15.4076653 C93.7844562,15.5775247 94.1462645,15.9455535 94.2517917,15.8818562 C94.3799315,15.8110815 94.4251577,16.087103 94.3045549,16.2074201 C94.2442539,16.2711174 94.0482744,16.5896038 93.8673706,16.9080902 C93.4980252,17.573373 93.4301864,18.0829513 93.6940047,18.2174233 C93.7769183,18.2598882 93.8673706,18.2669656 93.8899833,18.2457332 C93.9201346,18.2174233 94.0256618,18.2528107 94.1387267,18.3235854 C94.4703838,18.5288322 94.3799315,18.9039385 93.9804356,18.9747132 C93.731693,19.0171781 93.5357135,19.4630591 93.5960145,19.8593977 C93.6337029,20.1566517 93.618628,20.2274265 93.4377234,20.4185183 L93.2266691,20.6379201 L93.0457653,20.4326733 C92.9025499,20.2698914 92.8045597,20.2274265 92.5332036,20.2274265 C92.2769232,20.2274265 92.1487834,20.1849616 91.9980301,20.0434121 C91.8925021,19.9443275 91.8095885,19.8310878 91.8095885,19.7957005 C91.8095885,19.7603131 91.6211468,19.639996 91.4025539,19.5267564 C91.0181337,19.3498195 90.9804453,19.342742 90.8070786,19.4489041 C90.6638631,19.5338338 90.4301953,19.8027779 90.3397438,19.9797148 C90.3397438,19.9938698 90.2568294,19.9797148 90.1663771,19.9584824 C90.0457743,19.9301725 89.9553228,19.8027779 89.8648705,19.5409113 C89.7518055,19.2436573 89.7065794,19.17996 89.5784395,19.2082699 C89.4427611,19.2436573 89.4352241,19.2224249 89.4729124,19.0030231 C89.5106007,18.8402412 89.4804494,18.6774592 89.3899979,18.5075998 C89.2769329,18.3094305 89.2467824,18.0475639 89.2392446,17.2902739 C89.2317068,16.7594632 89.2543195,16.23573 89.2920078,16.1295679 C89.3447718,15.9738634 89.3070834,15.8252364 89.111104,15.4218203 C88.6588441,14.5088259 88.2367347,14.1620295 88.1161327,14.614988 C88.0709066,14.8060799 88.1085949,15.3722779 88.2065842,15.7190743 C88.2518104,15.8889337 88.2216599,15.9667859 88.0482931,16.1366453 C87.8372388,16.3418922 87.8372388,16.3772795 87.882465,16.8585479 C87.9352281,17.3115064 87.9201533,17.3893586 87.7769378,17.5662955 C87.6864855,17.6724576 87.6111089,17.7927747 87.6111089,17.8352396 C87.6111089,17.8777045 87.5131195,17.9838666 87.3849789,18.0617188 C87.2643761,18.1466485 87.098548,18.3660503 87.0231713,18.5500647 C86.9477947,18.7411565 86.8573424,18.8897835 86.8196541,18.8897835 C86.6689008,18.8897835 86.2392536,19.3073546 86.0206614,19.6612284 C85.8699081,19.9160175 85.7945315,20.1424968 85.7945315,20.3548211 C85.7945315,20.5246805 85.7719188,20.7157723 85.7417683,20.7794696 C85.6814665,20.9280966 85.3196589,20.9351741 85.1161417,20.7936246 C84.9653884,20.6874624 84.9653884,20.680385 85.1462922,20.4963706 C85.2518201,20.3972859 85.3121211,20.2840463 85.2895084,20.2415814 C85.2593571,20.2061941 85.0030767,20.1778842 84.7091079,20.1849616 L84.1739336,20.1920391 L84.0533308,20.4892931 C83.9854919,20.6520751 83.8422765,20.9210191 83.7367493,21.0838011 C83.6236844,21.246583 83.4653932,21.543837 83.3749409,21.7420064 C83.1789623,22.1949648 83.0055955,22.3152819 82.8020791,22.138345 C82.7191646,22.0675703 82.5985618,22.0109505 82.530723,22.0109505 C82.3573562,22.0109505 82.1538397,22.2586621 82.1538397,22.4709864 C82.1538397,22.6974656 81.7844943,22.9239449 81.6789664,22.7611629 C81.6262032,22.6762332 81.5659014,22.6833107 81.3548471,22.7823953 C81.2116316,22.8460926 80.9779639,22.9027124 80.8347484,22.9027124 C80.6538446,22.9027124 80.4880157,22.9734872 80.3071119,23.1221142 C80.1186702,23.2778187 79.9226908,23.3556709 79.6362598,23.3910583 L79.2367631,23.4406006 L78.9804827,23.0230295 C78.8448047,22.7965503 78.5734488,22.4780639 78.3850072,22.3223594 C78.1438019,22.1171126 78.0684253,22.0109505 78.1287266,21.9543306 C78.1814902,21.8977108 78.1513396,21.841091 78.0081239,21.7490838 C77.895059,21.6853866 77.781994,21.5226046 77.7518433,21.39521 C77.7216927,21.260738 77.6086277,21.0554912 77.5031004,20.9351741 C76.7945599,20.1212644 76.7568716,20.0151022 76.9679262,19.625841 C77.0885288,19.4205942 77.0734535,19.3710519 76.8020976,18.6491493 C76.5307416,17.9343243 76.523204,17.8918594 76.6588819,17.7998522 C76.7342586,17.7432324 76.9000872,17.7007676 77.0206899,17.7007676 C77.4126484,17.7007676 77.4427991,17.4813658 77.1262172,16.8939353 C76.9754639,16.6037588 76.8096352,16.3489696 76.7644093,16.3277372 C76.6287313,16.2428075 76.4402897,16.4409768 76.500591,16.6037588 C76.5608923,16.7948506 76.319687,17.3893586 76.1312454,17.4813658 C76.0483311,17.5238307 75.8448141,17.5309081 75.6714479,17.5096757 C75.3850166,17.4672108 75.3322529,17.4813658 75.1136607,17.707845 C74.9855204,17.8493945 74.8724554,17.9980215 74.8724554,18.0475639 C74.8649177,18.1891134 75.106123,18.3235854 75.4453179,18.3660503 C75.7543622,18.4014377 75.7769752,18.4226701 75.8598895,18.7411565 C75.9126531,18.9251709 76.0106428,19.1870375 76.0860194,19.3215096 C76.2669234,19.6541509 76.1463207,19.9443275 75.7242115,20.2061941 C75.4076296,20.4043634 75.3925543,20.4397508 75.4151673,20.977639 C75.4302426,21.246583 75.3925543,21.3598227 75.2267256,21.5509145 L75.015671,21.7844712 L75.1890373,22.2161973 C75.3473283,22.6054584 75.3473283,22.6833107 75.264414,23.1291917 L75.1664243,23.61046 L75.4227049,23.9643338 C75.6563725,24.2969752 75.6714479,24.3465175 75.6111465,24.6720814 L75.5433076,25.0188778 L75.1438113,25.0471877 C74.925219,25.0542651 74.7141644,25.09673 74.6764761,25.1391949 C74.6312501,25.1745822 74.4126578,25.2099696 74.1865279,25.2099696 L73.7719563,25.2099696 L73.7191927,24.9127156 C73.689042,24.7499337 73.7041174,24.5588418 73.756881,24.4739121 C73.9076343,24.204968 73.8548706,23.7307771 73.6287407,23.3627484 C73.3196964,22.8531701 72.9805015,22.5417612 72.6714573,22.4851413 C72.4604027,22.449754 72.3774883,22.3789792 72.2870364,22.1808099 C72.1965844,21.989718 72.1362831,21.9401757 72.0307558,21.9684856 C71.8121635,22.0321829 71.5257322,21.9047883 70.9377944,21.4942947 C70.3573942,21.0838011 70.2141786,21.0484137 70.0031239,21.2678155 C69.8372953,21.4376749 69.5885524,21.4589073 69.3624224,21.3173578 C69.1212172,21.1545759 68.5709676,21.097956 68.4654403,21.2253506 C68.3900637,21.3102803 68.405139,21.3598227 68.5483546,21.4801398 C68.6463443,21.5650695 68.7895599,21.6570767 68.8724742,21.6853866 C69.0006145,21.7207739 68.9855392,21.7561613 68.7217209,21.9755631 C68.5558923,22.1171126 68.3297624,22.2303522 68.2242351,22.2303522 C68.0207181,22.2374297 67.9604168,22.2798945 67.3498659,22.8390151 C67.0408217,23.1221142 66.9579074,23.164579 66.6413255,23.164579 C66.3548942,23.164579 66.2644422,23.192889 66.2116786,23.313206 C66.1212266,23.4972204 65.4729874,23.7944744 65.1564055,23.7944744 C64.9604262,23.7944744 64.8624366,23.7307771 64.651382,23.461833 C64.5006287,23.2778187 64.357413,23.1291917 64.3272624,23.1291917 C64.2971117,23.1291917 64.2594234,23.2848961 64.2443481,23.475988 C64.2217351,23.8298618 64.2217351,23.8298618 63.8976155,23.8723267 C63.4830439,23.921869 63.1966126,24.1058834 63.030784,24.4102148 C62.9554074,24.5376094 62.8574177,24.6720814 62.8046541,24.7003913 C62.6086748,24.8277859 62.3147059,24.7570112 62.1111889,24.5376094 C61.8699836,24.2757428 61.7644563,24.2615878 61.6513914,24.4668346 C61.5910901,24.5659193 61.5910901,24.6579265 61.6513914,24.7640886 C61.7343057,24.9127156 61.6287784,24.9834904 61.5307887,24.8348634 C61.5081757,24.7923985 61.3951108,24.7640886 61.2895835,24.7640886 C61.1765185,24.7640886 60.9956145,24.7003913 60.8825496,24.6296166 C60.7317963,24.5376094 60.4378273,24.4951445 59.7066739,24.4668346 C59.1714997,24.4456022 58.7117021,24.4031374 58.6740138,24.36775 C58.6438631,24.3394401 58.7267774,24.3182076 58.8624554,24.3182076 C59.3524036,24.3182076 59.6689855,23.8510942 59.6689855,23.1150367 C59.6765232,22.7399305 59.2845646,22.4143666 58.9227567,22.4992963 C58.7946164,22.5276062 58.5609488,22.5559161 58.4026578,22.5629936 C58.2519046,22.5700711 58.0408499,22.6266909 57.9353226,22.6974656 C57.8222577,22.7682404 57.6488914,22.8319377 57.5358264,22.8319377 C57.4227614,22.8319377 57.2644705,22.8744025 57.1740185,22.9310223 C56.9554262,23.0725719 56.4504027,23.1575016 56.3298,23.0725719 C56.2770364,23.0371845 56.0584441,22.9451773 55.8549272,22.8744025 C55.4328179,22.7257755 55.2443763,22.5205287 55.2443763,22.2091198 C55.2443763,22.0958802 55.1991503,21.9330982 55.1539243,21.8481685 C55.0408594,21.6499992 55.1313113,21.2111957 55.3122153,21.126266 C55.5534206,20.9988714 55.7720128,21.112111 55.9076908,21.4235199 C55.9755298,21.5863019 56.0358311,21.7915487 56.0358311,21.8835559 C56.0358311,22.1100351 56.1715091,22.2374297 56.442865,22.2374297 C56.7066833,22.2374297 56.7368339,22.3789792 56.5031663,22.5700711 L56.3373377,22.7116206 L56.5182417,22.7682404 C56.646382,22.8177827 56.7669846,22.7823953 57.0006522,22.6408458 C57.3699978,22.4072891 57.4378368,22.2728171 57.2720081,22.0958802 C57.1966315,22.0180279 57.1438678,21.8340136 57.1438678,21.6499992 C57.1438678,21.4518298 57.0534159,21.1758083 56.9026626,20.8927092 C56.7745223,20.6520751 56.668995,20.4043634 56.668995,20.3477436 C56.668995,20.234504 56.5710053,20.1566517 56.0207558,19.8240104 C55.8323142,19.7107707 55.6966362,19.6753834 55.6287972,19.7178482 C55.5684959,19.7532356 55.3800543,19.7603131 55.2142256,19.7390806 C54.980558,19.7036933 54.8071918,19.7320032 54.5207605,19.8593977 L54.1363396,20.0292572 L53.6690044,19.7532356 C53.1564432,19.4630591 52.7644846,19.4064393 52.508204,19.5975311 C52.3574507,19.7036933 52.3574507,19.7107707 52.5911183,19.8947851 C53.3674978,20.5105255 53.3825731,20.5388354 53.0810665,20.8643993 C52.9227756,21.0342588 52.8850872,21.0484137 52.6891079,20.963484 C52.417752,20.8502444 52.2368481,20.9210191 52.2368481,21.1474984 C52.2368481,21.4730623 52.4328273,21.5792244 52.9378509,21.5226046 C53.2845835,21.4872172 53.4127238,21.5013722 53.4805627,21.5863019 C53.6388537,21.7632388 53.5182511,21.8977108 53.0659912,22.0746477 C52.508204,22.2940495 52.4328273,22.3860567 52.6137313,22.6125359 C52.8473989,22.9027124 53.2619705,23.7166222 53.4654874,24.3040527 C53.5785524,24.6083842 53.7594563,25.0047228 53.8725213,25.1887372 C54.0911136,25.542611 54.0685006,25.5992308 53.676542,25.6983155 C53.4277991,25.7620128 53.2619705,25.6063083 53.2619705,25.3090543 C53.2619705,25.1675048 53.2092068,24.9693354 53.1338302,24.8702508 C53.0659912,24.7711661 53.0358405,24.6579265 53.0584535,24.6154616 C53.0886042,24.5800743 53.0735289,24.4809896 53.0283029,24.4102148 C52.9906145,24.3394401 52.9378509,24.1837356 52.9077002,24.0775735 C52.8247859,23.7024672 52.1614714,23.7236997 52.0333311,24.0988059 C51.9881051,24.2332779 52.0408688,24.3252851 52.304687,24.5517643 C52.485591,24.7145463 52.6288066,24.8914832 52.6288066,24.948103 C52.6288066,25.0047228 52.7343339,25.1675048 52.8700119,25.3090543 C53.0735289,25.528456 53.0961418,25.5992308 53.0283029,25.7195479 C52.9227756,25.8964848 52.7041833,25.9672596 52.440365,25.9106397 C52.1463961,25.839865 51.9202661,25.9318722 51.9127285,26.122964 C51.9127285,26.2786685 51.9051908,26.2786685 51.7468999,26.1017316 C51.4755439,25.7903227 51.204188,25.2241246 51.204188,24.962258 C51.204188,24.7570112 51.272027,24.650849 51.5584582,24.3960599 C51.8599648,24.1271158 51.9127285,24.056341 51.8675025,23.8864816 C51.8373518,23.773242 51.8072012,23.6670798 51.7921258,23.6529249 C51.7770505,23.6387699 51.8222765,23.5255303 51.8901155,23.4052132 C52.0031805,23.1858115 52.0031805,23.1575016 51.7242869,22.6479233 C51.5283076,22.2798945 51.4227803,21.9614081 51.3700166,21.5721469 C51.2795646,20.8856318 51.1740373,20.7794696 50.5031852,20.7157723 L50.0056993,20.66623 L50.0584629,20.8997867 C50.1036889,21.1050335 50.0810759,21.1616533 49.8926343,21.3032029 C49.674042,21.4659848 49.674042,21.4730623 49.8021823,21.6641541 C49.877559,21.7703163 50.1564526,21.9614081 50.4202708,22.0888027 C50.8800684,22.3082044 50.9026814,22.3294369 50.8574554,22.5346837 C50.7971541,22.8460926 50.8649931,22.9664097 51.2117257,23.1291917 C51.6036842,23.3202835 51.6262972,23.3627484 51.4680063,23.6812348 C51.3624789,23.8935591 51.2871023,23.9431014 51.1061983,23.9431014 C50.9855957,23.9431014 50.7971541,23.8935591 50.6916268,23.8298618 C50.5333358,23.7307771 50.4504215,23.7236997 50.1639902,23.7944744 C49.9755486,23.8440167 49.7720317,23.9147915 49.719268,23.9572564 C49.5835901,24.0634185 49.5986654,24.502222 49.741881,24.6154616 C49.80972,24.665004 49.8474083,24.7570112 49.8247953,24.813631 C49.8021823,24.8702508 49.832333,24.9905679 49.900172,25.0825751 C49.9604733,25.1675048 50.0207746,25.2948993 50.0207746,25.3585966 C50.0207746,25.5213786 49.2670081,26.2220487 49.0258029,26.2786685 C48.7921353,26.3352883 48.4755533,26.1937388 48.2041974,25.9247947 L48.0157558,25.7337028 L48.2494234,25.379829 C48.3775637,25.1887372 48.5886183,24.9764129 48.7167586,24.9056382 C48.8825872,24.8207084 48.9579639,24.7216238 48.9730392,24.5446869 C49.0031899,24.2332779 48.8901249,24.1129608 48.5132417,24.056341 C48.2117351,24.0067987 47.4956569,24.1625032 47.2770646,24.3252851 C47.2167633,24.36775 47.1866127,24.6437715 47.1941503,25.0613426 L47.201688,25.7266254 L47.4504309,25.8044776 C47.5936466,25.8469425 47.7670128,25.9460271 47.8423895,26.0238794 C48.0308311,26.2220487 47.8951531,26.2149712 47.6765609,26.0168019 C47.4655063,25.8327875 47.3298283,25.8823298 47.3298283,26.137119 C47.3298283,26.2503586 47.3825919,26.3282108 47.4956569,26.3635982 C47.7443999,26.434373 47.5785712,26.5051477 46.7720411,26.6537747 C46.4026955,26.7245495 46.0258123,26.8094792 45.942898,26.8377891 C45.80722,26.8873314 45.761994,26.8519441 45.648929,26.6113099 Z M24.0384441,25.1179624 C24.1891974,24.9764129 24.1515091,24.6296166 23.9781428,24.4668346 C23.8650778,24.353595 23.7143245,24.3182076 23.4278933,24.3182076 C23.209301,24.3182076 23.028397,24.3465175 23.028397,24.3819049 C23.028397,24.5871517 23.2017633,24.8348634 23.3374413,24.8348634 C23.4278933,24.8348634 23.5560336,24.9197931 23.6314102,25.0188778 C23.7746259,25.2241246 23.8952285,25.2524345 24.0384441,25.1179624 Z M22.7268905,23.5821501 C22.7118151,23.3556709 22.6590515,23.1221142 22.6138255,23.0725719 C22.4178462,22.8390151 22.1238773,23.2848961 22.2067916,23.7095447 C22.2746306,24.070496 22.2746306,24.070496 22.5384488,24.0351086 C22.7570411,24.0067987 22.7645788,23.9997212 22.7268905,23.5821501 Z M66.1815279,23.0725719 C66.2870552,22.9522548 66.2870552,22.9097899 66.1589149,22.6266909 C66.0760006,22.449754 65.978011,22.3082044 65.9403226,22.3082044 C65.7669563,22.3082044 65.706655,22.8107052 65.8498707,23.0584169 C65.9478603,23.2353538 66.0232369,23.2353538 66.1815279,23.0725719 Z M25.7570317,21.4942947 C25.7871824,21.4518298 25.749494,21.4164425 25.681655,21.4164425 C25.6138161,21.4164425 25.5610524,21.4518298 25.5610524,21.4942947 C25.5610524,21.5296821 25.5912031,21.5650695 25.6364291,21.5650695 C25.6741174,21.5650695 25.7344187,21.5296821 25.7570317,21.4942947 Z" id="Shape" fill-opacity="0.9" fill="#D92B2B"></path>
                        <path d="M77.3997813,29.5163391 C77.2518873,29.4046769 77.1335721,29.267637 77.1434317,29.2067304 C77.1434317,29.1153704 77.1631509,29.1204459 77.2518873,29.2321081 C77.3011853,29.3031659 77.4687985,29.4452814 77.6068329,29.5417169 C77.7547269,29.6381524 77.8237441,29.7142857 77.7645865,29.7142857 C77.7054289,29.7142857 77.5378157,29.6229257 77.3997813,29.5163391 Z" id="Shape" fill="#FFFFFF"></path>
                        <path d="M83.7137572,29.206088 C83.634686,29.1640449 83.5714286,29.0939732 83.5714286,29.0519301 C83.5714286,29.0028798 83.6188715,29.009887 83.6979427,29.0659444 C83.7612001,29.1149947 83.9114353,29.1430234 84.0300421,29.1220019 C84.1644626,29.1009803 84.2277201,29.1149947 84.2119055,29.1710521 C84.1723699,29.2761598 83.8956207,29.3041885 83.7137572,29.206088 Z" id="Shape" fill="#FFFFFF"></path>
                        <path d="M55.2063529,23.432075 C55.2063529,23.390032 55.2365858,23.3549961 55.2819352,23.3549961 C55.3272845,23.3549961 55.3650757,23.390032 55.3650757,23.432075 C55.3650757,23.4671109 55.3272845,23.5021468 55.2819352,23.5021468 C55.2365858,23.5021468 55.2063529,23.4671109 55.2063529,23.432075 Z" id="Shape" fill="#FFFFFF"></path>
                        <path d="M59.6797165,6.2888456 C59.7175076,6.12768051 59.8535557,6.12067333 59.8913468,6.27483125 C59.9064633,6.35891738 59.8686721,6.40796763 59.7855316,6.40796763 C59.7099494,6.40796763 59.6646,6.35891738 59.6797165,6.2888456 Z" id="Shape" fill="#FFFFFF"></path>
                        <path d="M56.4693068,5.70515099 C56.5297726,5.67552139 56.6129131,5.67552139 56.6733789,5.70515099 C56.7262865,5.72490405 56.6809371,5.75453365 56.5751219,5.75453365 C56.4617485,5.75453365 56.4163992,5.72490405 56.4693068,5.70515099 Z" id="Shape" fill="#FFFFFF"></path>
                        <path d="M73.4807584,4.94180082 C73.3401668,4.83155136 73.2536489,4.697677 73.2969079,4.65042723 C73.41587,4.50867792 73.5132027,4.54805273 73.7835711,4.84730128 C74.0863838,5.19379961 73.8809038,5.24892434 73.4807584,4.94180082 Z" id="Shape" fill="#FFFFFF"></path>
                    </g>
                </g>
                <g id="train" transform="translate(11.000000, 0.000000)" fill="#FFFFFF">
                    <g id="Group" transform="translate(42.500000, 43.500000) scale(-1, 1) rotate(-180.000000) translate(-42.500000, -43.500000) translate(-0.000000, -0.000000)">
                        <path d="M12.0249905,86.1052227 C11.0999913,85.5445564 9.86665888,85.1707789 9.2499927,85.1084827 C8.57165991,85.1084827 7.89332711,84.6724089 7.70832726,84.1117428 C7.46166078,83.5510765 6.53666151,82.678929 5.61166224,82.1805589 C3.26833076,80.9969303 2.0349984,76.449304 1.35666559,66.481904 C1.23333236,64.6753127 0.92499927,61.9965739 0.678332798,60.5637602 C0.431666326,59.1309465 0.184999854,50.7832489 0.123333236,42.061774 L0,26.1762301 L1.23333236,26.4877114 L2.46666472,26.7991926 L1.97333178,24.3696389 C1.7266653,23.0614176 1.35666559,19.3859389 1.23333236,16.1465339 L0.986665888,10.3529827 L3.45333061,7.79883641 C5.30332915,5.92994892 7.39999416,4.74632016 11.4083244,3.31350642 C14.4299886,2.25447017 18.253319,1.44461891 19.9183176,1.38232266 C21.6449829,1.38232266 23.0016485,1.07084141 23.0016485,0.759360164 C23.0016485,0.198693913 33.1766405,0.0118051634 48.2849619,0.260990163 C52.1699589,0.323286413 57.781621,0.260990163 62.8382838,0.0118051634 C64.6266157,-0.0504910866 67.64828,0.136397664 69.6216118,0.510175164 C72.4582762,1.00854516 74.1232748,1.81839642 77.2682723,4.37254266 C79.7349371,6.36602267 81.4616024,8.23491017 81.6466023,9.23165017 C81.8316021,10.1037977 82.2016019,11.6612039 82.509935,12.5956476 C82.818268,13.5923877 82.9416012,15.648164 82.7566013,17.2055702 C82.5716015,18.7629765 82.818268,23.2483064 83.1882677,27.2352664 C84.113267,35.5206677 84.2366003,39.4453315 83.6816007,40.3797752 C83.0032678,41.4388114 83.0649344,46.547104 83.7432673,51.2816189 C84.113267,53.7111727 84.2366003,57.4489477 84.0516004,59.6293165 C83.8049339,62.1834627 83.9899338,64.1146464 84.4832666,65.1113864 C85.1615995,66.3573115 85.1615995,67.6655327 84.5449333,71.4656039 C84.113267,74.0820465 83.3116009,76.947674 82.818268,77.6952289 C81.5849356,79.7510052 75.9116068,83.5510765 75.6032736,82.6166327 C75.2949406,81.7444852 72.8899425,81.4953002 72.8282759,82.3051515 C72.8282759,82.8035215 54.9449566,83.5510765 47.4216292,83.3641877 C44.6466315,83.3018915 43.7216321,83.4887802 43.7216321,84.2363353 C43.7216321,84.9215939 43.2899659,84.9838902 41.9333002,84.6724089 C39.5899688,83.9871503 29.4766434,84.0494465 27.8733113,84.7347052 C27.133312,84.9838902 24.1116476,85.3576677 21.0899833,85.5445564 C18.0066525,85.7314452 15.2933212,86.167519 14.9233216,86.4790002 C14.1216555,87.2265552 13.9366557,87.2265552 12.0249905,86.1052227 Z M34.9649724,78.5050802 C39.9599684,78.1313027 48.4699618,78.0067102 53.8966242,78.1935989 C59.8782861,78.3804877 63.8866163,78.2558952 64.1332828,77.8821177 C64.3182826,77.5706364 66.2916144,77.2591553 68.5116126,77.2591553 C72.9516091,77.2591553 76.03494,75.8263415 77.4532722,73.209899 C78.0699384,72.0885664 78.2549383,67.4163477 78.131605,55.0193939 C78.0699384,45.8618452 77.6999387,34.5239277 77.3299389,29.8517089 C76.8982727,25.1794902 76.6516062,19.3859389 76.6516062,17.0809777 L76.7749395,12.7825364 L74.9866075,10.0415014 C72.7049426,6.49061516 70.2999445,5.68076392 63.8249496,6.24143017 C61.1732851,6.42831891 48.8399614,6.92668892 36.4449712,7.30046642 C19.7333178,7.73654017 13.4433227,8.11031767 11.8399906,8.79557642 C10.6683249,9.29394642 8.87999299,10.6021677 7.89332711,11.7235002 L6.04332857,13.7169802 L6.41332828,25.6778602 C6.59832813,32.2812627 6.78332798,38.4485914 6.78332798,39.320739 C6.72166136,41.4388114 6.72166136,41.1273302 7.09166107,57.8227252 C7.27666093,67.6032364 7.64666064,72.5869365 8.26332681,73.7705652 C8.69499314,74.7050089 9.86665888,76.0755265 10.8533248,76.8230815 C12.8266566,78.3181914 20.9666501,79.937894 23.9883144,79.5018202 C25.0366469,79.3149315 29.9699763,78.8788577 34.9649724,78.5050802 Z" id="Shape"></path>
                        <path d="M30.1549762,70.9049377 C29.5999766,70.7180489 28.3049777,69.970494 27.3183118,69.222939 C25.9616461,68.2884952 25.5916465,67.5409402 25.8383129,66.5442002 C26.0233128,65.7966452 25.8383129,64.1769427 25.4066467,62.993314 C24.7899804,61.1867227 24.7899804,60.7506489 25.5916465,60.252279 C26.146646,59.8785015 26.9483121,59.753909 27.3799784,59.9407977 C27.8116447,60.0653902 28.1816444,59.8785015 28.1816444,59.504724 C28.1816444,59.0686502 27.5033117,58.9440577 26.5783124,59.1309465 C25.6533131,59.255539 24.9133137,59.255539 24.8516471,59.006354 C24.7283138,58.5079839 24.3583141,49.786509 24.3583141,48.4782877 C24.3583141,47.9176214 24.4816473,44.9896977 24.6049806,41.9371814 C24.9749803,32.094374 25.2833134,31.0353377 27.9966446,29.6025239 C29.0449771,29.0418577 29.4766434,28.2320064 29.4766434,26.9237852 C29.4766434,25.1171939 28.0583112,22.9991214 26.8866455,22.9991214 C26.0849794,22.9991214 22.5083155,18.2023102 22.2616491,16.7694964 C22.0766493,15.7104602 22.3233157,15.4612752 23.6183147,15.648164 C24.4816473,15.7104602 25.5916465,16.4580151 26.146646,17.2678664 C26.7016456,18.0777177 28.3049777,19.9466051 29.7233099,21.5040114 L32.2516412,24.3073427 L41.1316342,24.0581577 L50.0116272,23.8089727 L52.4166253,22.0023815 C53.8349576,20.8810489 54.9449566,19.3859389 55.1916231,18.2023102 C55.376623,17.2055702 56.0549557,16.1465339 56.6099553,16.0219414 C57.1649549,15.8350526 58.1516208,15.398979 58.8299536,15.0252014 C59.5082863,14.6514239 60.1866192,14.5268314 60.4332857,14.7760164 C60.9882853,15.3366827 58.7066204,19.5105314 56.5482887,22.0023815 C55.6232895,23.1237139 54.6366235,24.8680089 54.3899571,25.864749 L53.8966242,27.6713402 L56.4866221,30.0385976 L59.0766201,32.4681515 L59.5082863,39.071554 C59.8166194,43.2454026 59.6932862,46.297919 59.26162,47.4815477 C58.768287,48.789769 58.768287,49.9733977 59.3232866,51.5931002 C59.7549528,52.8390252 60.1249526,56.514504 60.1866192,59.753909 L60.371619,65.6097565 L58.274954,67.8524214 L56.178289,70.0950865 L52.4166253,70.1573827 C50.3199603,70.219679 46.2499635,70.3442715 43.4132991,70.4065677 C40.5766346,70.4065677 36.6299711,70.6557528 34.6566393,70.9049377 C32.6833076,71.1541227 30.6483092,71.1541227 30.1549762,70.9049377 Z M44.5849648,67.1048665 C44.399965,66.6064965 43.906632,66.1704227 43.5982989,66.1704227 C43.1666326,66.1704227 43.2282993,66.5442002 43.7216321,67.1048665 C44.1532985,67.6655327 44.6466315,68.1016064 44.7699647,68.1016064 C44.8932979,68.1016064 44.8316313,67.6655327 44.5849648,67.1048665 Z M45.6949639,64.4884239 C46.003297,64.3015352 46.8666297,64.4261277 47.6066291,64.7999052 C49.4566276,65.7966452 55.3149564,63.8031653 55.9932891,61.9342777 C56.671622,60.1899827 56.3016222,54.7702089 55.376623,53.0882102 C55.0066233,52.4029515 53.7116243,51.3439152 52.4782919,50.7209527 C50.9366265,49.9733977 49.4566276,49.786509 47.4216292,50.0979901 C45.5099641,50.4094714 44.3382984,50.2848789 44.0299652,49.786509 C43.7216321,49.288139 43.2899659,49.3504352 42.4266332,50.1602864 C41.5633006,50.9078414 40.6383013,51.0947302 39.2199691,50.7832489 C36.5066378,50.1602864 30.3399761,51.5308039 29.7233099,52.9013215 C29.1683104,54.1472464 29.0449771,54.8948014 28.9216439,58.5079839 C28.8599773,60.4391678 28.5516442,61.1244264 27.5649782,61.3736114 C26.8249788,61.5605002 26.2699793,61.8719814 26.2699793,61.9965739 C26.2699793,62.1834627 26.639979,62.744129 27.133312,63.242499 C27.8116447,63.9277578 28.1199778,63.9277578 28.3666443,63.3670915 C28.4899775,62.8687215 29.1683104,63.0556102 30.4016427,64.0523502 L32.2516412,65.485164 L38.6649695,65.1736827 C42.2416333,64.9867939 45.3866308,64.6753127 45.6949639,64.4884239 Z M34.5333061,44.8651052 C35.2733055,44.3044389 35.9516383,43.1831065 35.9516383,42.4355515 C35.9516383,40.6912564 34.1633064,38.6977765 32.621641,38.6977765 C30.9566423,38.6977765 28.8599773,41.0027377 28.8599773,42.809329 C28.8599773,45.7372527 31.7583083,46.7962889 34.5333061,44.8651052 Z M55.3149564,44.4290314 C56.0549557,42.310959 55.376623,40.0059976 53.6499577,38.8846652 C52.4166253,38.0125177 51.7382925,37.9502214 50.5049602,38.5731839 C47.2366294,40.0682939 49.3332944,45.8618452 53.1566247,45.8618452 C54.2049572,45.8618452 54.9449566,45.3634752 55.3149564,44.4290314 Z" id="Shape"></path>
                    </g>
                </g>
            </g>
        </g>
    </g>
</svg>