<?xml version="1.0" encoding="UTF-8"?>
<svg width="35px" height="46px" viewBox="0 0 35 46" version="1.1" xmlns="http://www.w3.org/2000/svg" xmlns:xlink="http://www.w3.org/1999/xlink">
    <title>winery-pin</title>
    <g id="Page-1" stroke="none" stroke-width="1" fill="none" fill-rule="evenodd">
        <g id="winery-pin" fill-rule="nonzero">
            <path d="M17.5,46 C17.5,46 35,29.6527497 35,17.2499997 C35,7.72308791 27.164983,0 17.5,0 C7.83501698,0 0,7.72308791 0,17.2499997 C0,29.6527497 17.5,46 17.5,46 Z" id="Shape" fill="#0B93BF"></path>
            <g id="iconmonstr-eye-9" transform="translate(6, 10)" fill="#FFFFFF">
                <path d="M15,8 C15,9.654 13.654,11 12,11 C10.346,11 9,9.654 9,8 C9,6.346 10.346,5 12,5 C13.654,5 15,6.346 15,8 Z M24,7.551 C24,7.551 19.748,16 12.015,16 C4.835,16 0,7.551 0,7.551 C0,7.551 4.446,0 12.015,0 C19.709,0 24,7.551 24,7.551 Z M17,8 C17,5.243 14.757,3 12,3 C9.243,3 7,5.243 7,8 C7,10.757 9.243,13 12,13 C14.757,13 17,10.757 17,8 Z" id="Shape"></path>
            </g>
        </g>
    </g>
</svg>