<?xml version="1.0" encoding="UTF-8"?>
<svg xmlns="http://www.w3.org/2000/svg" width="250px" height="250px" viewBox="0 0 283.46 283.46">
	<title>Paris transit icons - Tram T10</title>
	<rect fill="#9F9825" width="283.46" height="42.52" rx="14.17"/>
	<rect fill="#9F9825" width="283.46" height="42.52" rx="14.17" y="240.94"/>
	<path fill="#25303B" d="M67.45,107.45V197H43.32V107.45H9.75V87.81H101v19.64ZM155.42,197V111.16c-6.65,5.26-17.17,10.36-24.44,13.61l-7.43-16.71c11.45-4.79,25.22-12,36-20.25h19V197ZM233.65,199.94c-33,0-39.44-32.48-39.44-57.69s7.11-57.69,40.06-57.69,39.44,32.48,39.44,57.69S266.59,199.94,233.65,199.94Zm.31-97c-15.78,0-16.24,28.15-16.24,39.29s.77,39.44,16.24,39.44,16.09-28.61,16.09-39.44C250.05,130.8,249.58,103,234,103Z"/>
</svg>