<?xml version="1.0" encoding="UTF-8"?>
<svg xmlns="http://www.w3.org/2000/svg" width="250px" height="250px" viewBox="0 0 283.46 283.46">
	<title>Paris transit icons - Tram T12 Express</title>
	<rect fill="#B90845" width="283.46" height="42.52" rx="14.17"/>
	<rect fill="#B90845" width="283.46" height="42.52" rx="14.17" y="240.94"/>
	<path fill="#25303B" d="M70.39,107.46V197H46.26V107.46H12.69V87.81h91.25v19.65ZM158.36,197V111.17c-6.65,5.26-17.17,10.36-24.44,13.61l-7.43-16.71c11.45-4.79,25.22-12,36-20.26h19V197ZM199.94,197V182.63c2.78-12.69,15.31-24.28,29.85-37,7.27-6.34,15.15-14.23,15.15-24.75,0-9.43-6.19-17.32-18.09-17.32-9.59,0-16.24,7-18.88,9.9L196.53,98.33c10.52-9.12,20.26-13.46,35-13.46,19.18,0,37.27,11.15,37.27,33.41,0,18.72-11.9,27.53-25,39.45-5.57,5.1-16.55,14.69-17.94,21h45V197Z"/>
</svg>