<?xml version="1.0" encoding="UTF-8"?>
<svg xmlns="http://www.w3.org/2000/svg" width="250px" height="250px" viewBox="0 0 283.46 283.46">
	<title>Paris transit icons - Tram T13 Express</title>
	<rect fill="#8D5E2A" width="283.46" height="42.52" rx="14.17"/>
	<rect fill="#8D5E2A" width="283.46" height="42.52" rx="14.17" y="240.94"/>
	<path fill="#25303B" d="M70.31,107.46V197H46.18V107.46H12.61V87.81h91.26v19.65ZM158.28,197V111.17c-6.65,5.25-17.17,10.36-24.44,13.61l-7.42-16.71c11.44-4.79,25.21-12.06,36-20.26h19V197ZM228.32,199.64c-15.62,0-24.28-3.87-31.55-8.2l8.5-16.86a38.06,38.06,0,0,0,21.5,7.11c12.69,0,20.57-7.42,20.57-16.7,0-12.52-9.58-16.85-20.72-16.85H215.33V130h11.44c10.67,0,17.32-5.56,17.32-13.92,0-7-5.25-13.3-16.7-13.3a30.22,30.22,0,0,0-20.26,7.9l-7.89-16.09c9.28-6.19,19.34-9.75,33.1-9.75,22.27,0,35,13.3,35,27.84,0,11.3-6,20.26-17.63,24.59v.32c12.07,2.31,21.19,11.6,21.19,26.9C270.85,183.71,253.68,199.64,228.32,199.64Z"/>
</svg>