<?xml version="1.0" encoding="UTF-8"?>
<svg xmlns="http://www.w3.org/2000/svg" width="250px" height="250px" viewBox="0 0 283.46 283.46" fill="#00A88F">
	<title>Paris transit icons - Tram T14</title>
	<path fill="#FFF" d="M0,28.35h283.46v226.76H0z"/>
	<rect width="283.46" height="42.52" rx="14.17"/>
	<rect width="283.46" height="42.52" rx="14.17" y="240.94"/>
	<path fill="#25303B" d="M67.06,107.45V197H42.93v-89.55H9.37V87.81h91.24v19.64H67.06zM155.02,197v-85.84c-6.65,5.25-17.16,10.05-24.43,13.62l-7.43-16.71c11.45-4.8,25.21-12.06,36.03-20.26h19.03v109.18h-23.2ZM261.26,174.26v22.73h-21.66v-22.73h-49.17v-20.26l42.37-66.19h28.46v69.43h12.84v17.01h-12.84ZM239.6,106.99h-.31c-.45,1.84-3.55,8.5-7.88,15.32l-22.27,34.94h30.46v-50.25Z"/>
</svg>