<?xml version="1.0" encoding="UTF-8"?>
<svg xmlns="http://www.w3.org/2000/svg" width="250px" height="250px" viewBox="0 0 283.46 283.46">
	<title>Paris transit icons - Tram T3b</title>
	<rect fill="#00814F" width="283.46" height="42.52" rx="14.17"/>
	<rect fill="#00814F" width="283.46" height="42.52" rx="14.17" y="240.94"/>
	<path fill="#25303B" d="M69.93,107.54v89.55H45.8V107.54H12.23V87.89h91.25v19.65ZM156.82,199.73c-15.63,0-24.29-3.86-31.56-8.19l8.51-16.87a38,38,0,0,0,21.5,7.12c12.69,0,20.57-7.43,20.57-16.71,0-12.53-9.58-16.86-20.72-16.86H143.83v-18.1h11.44c10.67,0,17.32-5.57,17.32-13.92,0-7-5.25-13.3-16.7-13.3a30.2,30.2,0,0,0-20.26,7.89L127.74,94.7C137,88.51,147.08,85,160.84,85c22.27,0,35,13.3,35,27.85,0,11.29-6,20.26-17.64,24.59v.31c12.07,2.32,21.2,11.6,21.2,26.92C199.36,183.8,182.19,199.73,156.82,199.73ZM243.33,176.47c-4.66,0-10.15-1.87-13.29-4.78v2.8H214.18V88.21h16.44v32.18c4.2-6.06,9-10.14,16.91-10.14,16.32,0,23.08,17.37,23.08,32.41C270.61,156.65,263.26,176.47,243.33,176.47Zm-2.1-52a10.6,10.6,0,0,0-7.58,3.15c-2.8,2.68-3.15,4.43-3.15,8v21.11c0,4.31,2.57,8.15,10,8.15,10.5,0,13.06-11.31,13.06-19.81S251.6,124.47,241.23,124.47Z"/>
</svg>