<?xml version="1.0" encoding="UTF-8"?>
<svg xmlns="http://www.w3.org/2000/svg" width="250px" height="250px" viewBox="0 0 283.46 283.46">
	<title>Paris transit icons - Tram T9</title>
	<rect fill="#5291CE" width="283.46" height="42.52" rx="14.17"/>
	<rect fill="#5291CE" width="283.46" height="42.52" rx="14.17" y="240.94"/>
	<path fill="#25303B" d="M104.63,107.45V197H80.5V107.45H46.93V87.8h91.26v19.65ZM183.79,199.94a72.71,72.71,0,0,1-16.4-1.86l3.41-18.56a42.07,42.07,0,0,0,15,2.62c15.31,0,26.45-12.21,28-34.17-3.71,3.24-10.83,7.43-22.58,7.43-18.09,0-32.64-11.92-32.64-32.34,0-21.8,14.55-37.89,37.43-37.89,29.86,0,40.53,20.73,40.53,49.65C236.53,172.72,218.74,199.94,183.79,199.94Zm13.14-97.6c-10.83,0-16.39,8.82-16.39,18.25,0,10.21,6.81,17.64,17.63,17.64,7,0,12.53-2.63,14.69-6,1.24-1.86,1.24-6.19,1.24-9.44C214.1,112.39,208.07,102.34,196.93,102.34Z"/>
</svg>