<?xml version="1.0" encoding="UTF-8" standalone="no"?>
<svg
   xmlns:dc="http://purl.org/dc/elements/1.1/"
   xmlns:cc="http://creativecommons.org/ns#"
   xmlns:rdf="http://www.w3.org/1999/02/22-rdf-syntax-ns#"
   xmlns:svg="http://www.w3.org/2000/svg"
   xmlns="http://www.w3.org/2000/svg"
   viewBox="0 0 377.94666 377.94666"
   height="377.94666"
   width="377.94666"
   xml:space="preserve"
   id="svg2"
   version="1.1"><metadata
     id="metadata8"><rdf:RDF><cc:Work
         rdf:about=""><dc:format>image/svg+xml</dc:format><dc:type
           rdf:resource="http://purl.org/dc/dcmitype/StillImage" /></cc:Work></rdf:RDF></metadata><defs
     id="defs6"><clipPath
       id="clipPath18"
       clipPathUnits="userSpaceOnUse"><path
         id="path16"
         d="M 0,283.46 H 283.46 V 0 H 0 Z" /></clipPath></defs><g
     transform="matrix(1.3333333,0,0,-1.3333333,0,377.94667)"
     id="g10"><g
       id="g12"><g
         clip-path="url(#clipPath18)"
         id="g14"><g
           transform="translate(86.3145,171.4908)"
           id="g20"><path
             id="path22"
             style="fill:#1f262f;fill-opacity:1;fill-rule:nonzero;stroke:none"
             d="M 0,0 C -1.096,0 -1.984,-0.889 -1.984,-1.984 V -85.89 c 0,-1.095 0.888,-1.984 1.984,-1.984 h 25.796 c 1.096,0 1.984,0.889 1.984,1.984 V -1.984 C 27.78,-0.889 26.892,0 25.796,0 H 0 m 68.315,-87.874 c 1.096,0 1.985,0.889 1.985,1.984 V -1.984 C 70.3,-0.889 69.411,0 68.315,0 H 42.521 C 41.425,0 40.536,-0.889 40.536,-1.984 V -85.89 c 0,-1.095 0.889,-1.984 1.985,-1.984 h 25.794 m 62.199,83.12 C 127.717,-1.705 123.746,0 119.609,0 H 85.04 c -1.096,0 -1.984,-0.889 -1.984,-1.984 v -54.85 c 0,-1.097 0.888,-1.985 1.984,-1.985 h 59.113 c 6.94,0 11.071,5.464 9.302,12.173 -4.1,15.561 -11.911,29.87 -22.941,41.892 M -57.968,-58.819 h 41.243 c 1.096,0 1.985,0.888 1.985,1.985 v 54.85 C -14.74,-0.889 -15.629,0 -16.725,0 H -57.968 V 12.756 H 6.405 L 31.642,33.497 -0.101,59.574 c -1.371,1.127 -1.569,3.151 -0.443,4.522 l 2.04,2.483 c 1.127,1.371 3.151,1.569 4.522,0.442 L 42.157,37.33 c 2.415,-1.984 2.416,-5.681 0.001,-7.665 L 21.584,12.756 h 98.025 c 7.776,0 15.183,-3.286 20.43,-9.024 15.446,-16.89 25.269,-37.771 28.406,-60.389 0.997,-7.196 -0.097,-14.304 -3.167,-20.561 -7.085,-14.441 -21.471,-23.412 -37.546,-23.412 h -185.7 z m 222.803,-65.053 c 2.191,0 3.969,1.776 3.969,3.968 v 3.969 c 0,2.191 -1.778,3.968 -3.969,3.968 H -57.968 v -11.905 h 222.803 m 32.315,-38.411 v 0 c 0,5.088 -4.125,9.213 -9.213,9.213 H -77.102 c -5.088,0 -9.212,-4.125 -9.212,-9.213 0,-5.088 4.124,-9.213 9.212,-9.213 h 265.039 c 5.088,0 9.213,4.125 9.213,9.213 M 187.937,93.544 H -77.102 c -5.088,0 -9.212,4.124 -9.212,9.213 0,5.088 4.124,9.212 9.212,9.212 h 265.039 c 5.088,0 9.213,-4.124 9.213,-9.212 0,-5.089 -4.125,-9.213 -9.213,-9.213" /></g></g></g></g></svg>