<?xml version="1.0" encoding="UTF-8"?>
<svg xmlns="http://www.w3.org/2000/svg" width="250px" height="250px" viewBox="0 0 283.46 283.46">
	<title>Paris transit icons - RER B</title>
	<rect fill="#5291CE" width="283.46" height="283.46" rx="63.78"/>
	<path fill="#FFF" d="M138.22 216.67H83.57V66.54h57c28.07 0 54.44 7.65 54.44 38.06 0 15.53-12.34 27.22-24 29.35v.42c15.73 2.13 28.93 14.46 28.93 35.73-.04 37.9-33.22 46.57-61.72 46.57zm-5.1-125h-16.37v34.45h16.79c17.44 0 28.93-2.76 28.93-17 0-13.87-10.21-17.49-29.35-17.49zm1.49 58.27h-17.86v41.89h19.56c21.05 0 29.34-6.59 29.34-22.54 0-16.63-15.94-19.39-31.04-19.39z"/>
</svg>