<?xml version="1.0" encoding="UTF-8"?>
<svg xmlns="http://www.w3.org/2000/svg" width="250px" height="250px" viewBox="0 0 283.46 283.46">
	<title>Paris transit icons - RER C</title>
	<rect fill="#FFCE00" width="283.46" height="283.46" rx="63.78"/>
	<path fill="#25303B" d="M148.27 220.28c-38.07 0-74.43-25.09-74.43-77 0-44.86 26.15-80.8 74.43-80.8 18.5 0 32.11 3.82 42.95 8.72l-10.84 27.45A63.32 63.32 0 0 0 150 90.57c-23 0-41.67 15.1-41.67 51.25 0 34.45 22.54 50.4 44.23 50.4a59.35 59.35 0 0 0 30-8.09l8.93 25.74c-11.49 6.13-27.92 10.41-43.22 10.41z"/>
</svg>