<?xml version="1.0" encoding="UTF-8"?>
<svg xmlns="http://www.w3.org/2000/svg" width="250px" height="250px" viewBox="0 0 283.46 283.46">
	<title>Paris transit icons - RER</title>
	<rect width="265.015" height="265.015" rx="54.565" x="9.2225" y="9.2225" fill="none" stroke="#25303B" stroke-width="18.445"/>
	<path fill="#25303B" d="M243.43,119.77c0-19.13-14.18-28-28-28H188.86c-5,0-7.79,3.89-7.79,8.15V183.2c0,5,5,7.43,9.56,7.43,5.32,0,9.57-2.47,9.57-7.43V151h8.15l15.94,35.78a7,7,0,0,0,6.74,3.89c5.66,0,13.82-5.31,10.63-11.68l-15.24-31.89c9.21-4.62,17-12.76,17-27.29M171.5,181.42c0-4.26-2.84-8.85-7.8-8.85H136.77V148.12h22.32a7.93,7.93,0,0,0,7.8-8.15c0-4.25-2.84-8.16-7.8-8.16H136.77V109.49h24.81c5,0,7.79-5,7.79-8.85,0-4.26-2.83-8.86-7.79-8.86H125.43c-5,0-7.79,3.89-7.79,8.15v82.91c0,5,5,7.44,9.57,7.44H163.7c5,0,7.8-5,7.8-8.86m-65.21-61.65c0-19.13-14.16-28-28-28H51.73c-4.95,0-7.79,3.89-7.79,8.15V183.2c0,5,5,7.43,9.56,7.43,5.31,0,9.56-2.47,9.56-7.43V151h8.16l16,35.78a7,7,0,0,0,6.73,3.89c5.67,0,13.81-5.31,10.63-11.68L89.29,147.06c9.22-4.62,17-12.76,17-27.29m117.29,2.13c0,12-11,14.87-17.71,14.87H200.2v-28.7h6.72c8.87,0,16.66,3.91,16.66,13.83m-137.12,0c0,12-11,14.87-17.72,14.87H63.06v-28.7h6.75c8.85,0,16.65,3.91,16.65,13.83"/>
</svg>