<?xml version="1.0" encoding="UTF-8"?>
<svg xmlns="http://www.w3.org/2000/svg" width="250px" height="250px" viewBox="0 0 283.46 283.46">
	<title>Paris transit icons - Tram T2</title>
	<rect fill="#C04191" width="283.46" height="42.52" rx="14.17"/>
	<rect fill="#C04191" width="283.46" height="42.52" rx="14.17" y="240.94"/>
	<path fill="#25303B" d="M106,107.41V197H81.82V107.41H48.25V87.77H139.5v19.64zM164.38,197V182.58c2.78-12.68,15.31-24.28,29.85-37,7.27-6.34,15.15-14.24,15.15-24.76,0-9.42-6.19-17.32-18.09-17.32-9.59,0-16.24,7-18.88,9.9L161,98.29c10.52-9.13,20.26-13.46,35-13.46,19.18,0,37.27,11.14,37.27,33.41,0,18.71-11.9,27.53-25,39.44-5.57,5.1-16.55,14.69-17.94,21h45V197z"/>
</svg>