<?xml version="1.0" encoding="UTF-8"?>
<svg xmlns="http://www.w3.org/2000/svg" width="250px" height="250px" viewBox="0 0 283.46 283.46">
	<title>Paris transit icons - Tram T5</title>
	<rect fill="#662483" width="283.46" height="42.52" rx="14.17"/>
	<rect fill="#662483" width="283.46" height="42.52" rx="14.17" y="240.94"/>
	<path fill="#25303B" d="M105.87,107.41V197H81.74V107.41H48.17V87.77h91.26v19.64zM193.84,199.59c-12.69,0-22.42-2.78-30.78-7.88l8.82-17c6,4.18,12.22,7,20.73,7s19.17-5.1,19.17-17.94c0-7.89-5.25-18.72-25.36-19-6.19,0-13.46-.15-17-.15l4.33-56.76h57.39V106H191.83l-1.55,20.72c.62,0,2,.16,3.1.16,29.85,1.39,41.91,18.25,41.91,34.64C235.29,182.42,218.74,199.59,193.84,199.59z"/>
</svg>