<?xml version="1.0" encoding="UTF-8"?>
<svg xmlns="http://www.w3.org/2000/svg" width="250px" height="250px" viewBox="0 0 283.46 283.46">
	<title>Paris transit icons - Tram T6</title>
	<rect fill="#E3051C" width="283.46" height="42.52" rx="14.17"/>
	<rect fill="#E3051C" width="283.46" height="42.52" rx="14.17" y="240.94"/>
	<path fill="#25303B" d="M103.7,107.41V197H79.57V107.41H46V87.77h91.25v19.64zM200,199.59c-29.86,0-40.53-20.72-40.53-49.64,0-37.9,17.79-65.12,52.74-65.12a72.75,72.75,0,0,1,16.4,1.85l-3.4,18.57a41.86,41.86,0,0,0-15-2.63c-15.32,0-26.45,12.22-28,34.18,3.71-3.25,10.83-7.42,22.58-7.42,18.1,0,32.64,11.9,32.64,32.32C237.46,183.51,222.92,199.59,200,199.59Zm-2.17-53.05c-7,0-12.52,2.64-14.69,6-1.23,1.85-1.23,6.18-1.23,9.43,0,10.36,6,20.41,17.16,20.41,10.83,0,16.39-8.81,16.39-18.24C215.49,154,208.69,146.54,197.86,146.54z"/>
</svg>