<?xml version="1.0" encoding="UTF-8"?>
<svg xmlns="http://www.w3.org/2000/svg" width="250px" height="250px" viewBox="0 0 283.46 283.46">
	<title>Paris transit icons - Tram T8</title>
	<rect fill="#9F9825" width="283.46" height="42.52" rx="14.17"/>
	<rect fill="#9F9825" width="283.46" height="42.52" rx="14.17" y="240.94"/>
	<path fill="#25303B" d="M104.4,107.41V197H80.27V107.41H46.7V87.76H138v19.65ZM197.79,199.9c-24.28,0-38-14.54-38-31.09,0-14.53,8.19-23.66,18.71-29.08-9.44-5.87-15.31-13.29-15.31-24.59,0-18.1,16.39-30.63,35.11-30.63,19.17,0,35.11,9.44,35.11,28.16,0,10.21-5.26,18.87-15.46,25,10,4.79,18.86,14.08,18.86,28.46C236.76,186.91,220.21,199.9,197.79,199.9Zm-1.86-52.58c-7.12,2.78-14.23,10.51-14.23,19,0,9,5.88,17.48,16.4,17.48,10.36,0,16.08-7.27,16.08-15.92C214.18,158,205.21,152,195.93,147.32Zm2.63-47c-8.51,0-13.92,5.26-13.92,12.84,0,9,9,14.54,15.93,17.48,5.72-2.63,11.91-9.75,11.91-16.55C212.48,106.48,207.53,100.29,198.56,100.29Z"/>
</svg>