<?xml version="1.0" encoding="UTF-8"?>
<svg width="35px" height="46px" viewBox="0 0 35 46" version="1.1" xmlns="http://www.w3.org/2000/svg" xmlns:xlink="http://www.w3.org/1999/xlink">
    <title>bar-pin</title>
    <g id="Page-1" stroke="none" stroke-width="1" fill="none" fill-rule="evenodd">
        <g id="bar-pin" fill-rule="nonzero">
            <path d="M17.5,46 C17.5,46 35,29.6527497 35,17.2499997 C35,7.72308791 27.164983,0 17.5,0 C7.83501698,0 0,7.72308791 0,17.2499997 C0,29.6527497 17.5,46 17.5,46 Z" id="Shape" fill="#0B93BF"></path>
            <g id="iconmonstr-coffee-20" transform="translate(9, 6)" fill="#FFFFFF">
                <path d="M12,24 L5,24 C2.436,20.517 0,14.218 0,8 L17,8 C17,14.167 14.5,20.625 12,24 Z M18.088,10 C18.037,10.688 17.973,11.356 17.896,12 L19.603,12 C19.282,13.635 18.14,15.331 16.847,16.677 C16.489,17.96 16.075,19.116 15.694,19.906 C18.847,18.453 21.681,13.517 22,10 L18.088,10 L18.088,10 Z M9.598,6.999 C11.118,6.647 12.153,5.723 12.064,4.6 C11.947,3.115 8.93,1.882 9.744,0 C5.009,3.817 11.508,3.902 9.598,6.999 L9.598,6.999 Z M6.391,7 C7.914,6.71 8.223,5.933 8.223,5.467 C8.223,4.422 5.944,3.465 6.695,1.672 C3.047,4.766 7.69,4.76 6.391,7 L6.391,7 Z" id="Shape"></path>
            </g>
        </g>
    </g>
</svg>