<?xml version="1.0" encoding="UTF-8"?>
<svg width="35px" height="46px" viewBox="0 0 35 46" version="1.1" xmlns="http://www.w3.org/2000/svg" xmlns:xlink="http://www.w3.org/1999/xlink">
    <title>bar-pin</title>
    <g id="Page-1" stroke="none" stroke-width="1" fill="none" fill-rule="evenodd">
        <g id="bar-pin">
            <path d="M17.5,46 C17.5,46 35,29.6527497 35,17.2499997 C35,7.72308791 27.164983,0 17.5,0 C7.83501698,0 0,7.72308791 0,17.2499997 C0,29.6527497 17.5,46 17.5,46 Z" id="Shape" fill="#0B93BF" fill-rule="nonzero"></path>
            <g id="Group" transform="translate(5, 11)" fill="#FFFFFF">
                <rect id="Rectangle" x="0" y="6" width="25" height="2" rx="1"></rect>
                <rect id="Rectangle" x="3" y="0" width="19" height="2" rx="1"></rect>
                <rect id="Rectangle" x="3" y="0" width="19" height="2" rx="1"></rect>
                <path d="M-0.0956716802,6.00817376 L12.7470899,6.00817376 C13.3031504,6.00817376 13.7539266,6.45894991 13.7539266,7.01501047 C13.7539266,7.57107103 13.3031504,8.02184718 12.7470899,8.02184718 L-0.0956716802,8.02184718 C-0.65173224,8.02184718 -1.10250839,7.57107103 -1.10250839,7.01501047 C-1.10250839,6.45894991 -0.65173224,6.00817376 -0.0956716802,6.00817376 Z" id="Rectangle" transform="translate(6.3257, 7.015) rotate(-61) translate(-6.3257, -7.015)"></path>
                <path d="M11.2703961,6.00817376 L24.1131576,6.00817376 C24.6692182,6.00817376 25.1199943,6.45894991 25.1199943,7.01501047 C25.1199943,7.57107103 24.6692182,8.02184718 24.1131576,8.02184718 L11.2703961,8.02184718 C10.7143355,8.02184718 10.2635593,7.57107103 10.2635593,7.01501047 C10.2635593,6.45894991 10.7143355,6.00817376 11.2703961,6.00817376 Z" id="Rectangle" transform="translate(17.6918, 7.015) scale(-1, 1) rotate(-61) translate(-17.6918, -7.015)"></path>
            </g>
        </g>
    </g>
</svg>