<?xml version="1.0" encoding="UTF-8"?>
<svg width="43px" height="54px" viewBox="0 0 43 54" version="1.1" xmlns="http://www.w3.org/2000/svg" xmlns:xlink="http://www.w3.org/1999/xlink">
    <title>starting-point-pin</title>
    <defs>
        <path d="M17.5,46 C17.5,46 35,29.6527498 35,17.2499998 C35,7.72308791 27.164983,0 17.5,0 C7.83501699,0 0,7.72308791 0,17.2499998 C0,29.6527498 17.5,46 17.5,46 Z M17.5,22.9999998 C14.278339,22.9999998 11.6666667,20.425637 11.6666667,17.2499998 C11.6666667,14.0743624 14.278339,11.4999998 17.5,11.4999998 C20.721661,11.4999998 23.3333333,14.0743624 23.3333333,17.2499998 C23.3333333,20.425637 20.721661,22.9999998 17.5,22.9999998 Z" id="path-1"></path>
        <filter x="-15.7%" y="-12.0%" width="137.1%" height="128.3%" filterUnits="objectBoundingBox" id="filter-2">
            <feOffset dx="1" dy="1" in="SourceAlpha" result="shadowOffsetOuter1"></feOffset>
            <feGaussianBlur stdDeviation="2" in="shadowOffsetOuter1" result="shadowBlurOuter1"></feGaussianBlur>
            <feColorMatrix values="0 0 0 0 0   0 0 0 0 0   0 0 0 0 0  0 0 0 0.319278744 0" type="matrix" in="shadowBlurOuter1"></feColorMatrix>
        </filter>
    </defs>
    <g id="Page-1" stroke="none" stroke-width="1" fill="none" fill-rule="evenodd">
        <g id="starting-point-pin" transform="translate(3.000000, 3.000000)" fill-rule="nonzero">
            <g id="Shape">
                <use fill="black" fill-opacity="1" filter="url(#filter-2)" xlink:href="#path-1"></use>
                <use fill="#80BF0B" xlink:href="#path-1"></use>
            </g>
        </g>
    </g>
</svg>