<?xml version="1.0" encoding="UTF-8"?>
<svg width="55px" height="84px" viewBox="0 0 55 84" version="1.1" xmlns="http://www.w3.org/2000/svg" xmlns:xlink="http://www.w3.org/1999/xlink">
    <!-- Generator: Sketch 43.2 (39069) - http://www.bohemiancoding.com/sketch -->
    <title>hiker</title>
    <desc>Created with Sketch.</desc>
    <defs></defs>
    <g id="Page-1" stroke="none" stroke-width="1" fill="none" fill-rule="evenodd">
        <g id="hiker" transform="translate(-1.000000, 0.000000)" fill="#000000">
            <path d="M42.3,9.1 C42.3,13.8 38.5,17.5 33.9,17.5 C29.3,17.5 25.5,13.7 25.5,9.1 C25.5,4.5 29.3,0.7 33.9,0.7 C38.5,0.7 42.3,4.5 42.3,9.1 Z M21.9,20.9 C22.4,19.2 21.3,16.9 19.1,16.8 C17.9,16.8 15.4,16.7 13.5,16.7 C11.6,16.7 9.9,17 9.4,18.7 L1.4,40.8 C0.9,42.5 9.6,47.3 9.6,47.3 C11.3,47.9 13.2,47 13.7,45.3 L21.9,20.9 Z M53.4,39.3 L52.6,38.9 L49.6,37.4 L43,34.3 L34.8,22.9 C33.5,20.3 31.1,18.3 27.2,18.9 C23.6,19.4 22.3,23.4 21.4,27.8 L19,39.5 L17,48.6 C16.9,49 16.9,49.3 16.9,49.6 L14.8,60 L2.5,75.5 C1.1,77.2 1.4,79.8 3.2,81.1 C3.9,81.7 4.7,81.9 5.6,82 C6.8,82 8,81.5 8.8,80.5 L21.6,64.2 C22,63.7 22.2,63.2 22.4,62.6 L24.4,53.4 L32.1,63.6 L32.9,79.6 C33,81.7 34.7,83.4 36.8,83.4 L37.1,83.4 C39.3,83.3 41,81.4 40.9,79.2 L40,61.9 C40,61.1 39.7,60.3 39.2,59.7 L31.9,50 L35.3,33.9 L38.5,38.4 C38.8,38.8 39.2,39.1 39.6,39.4 L49.5,44.1 L52.5,44.9 C53.4,44.8 54.3,44.2 54.7,43.2 C55.5,41.8 54.9,40 53.4,39.3 Z" id="Shape" fill-rule="nonzero"></path>
            <rect id="Rectangle" transform="translate(48.000000, 57.762903) rotate(11.000000) translate(-48.000000, -57.762903) " x="45.890821" y="31.9277865" width="4.21835803" height="51.6702322"></rect>
        </g>
    </g>
</svg>