<?xml version="1.0" encoding="UTF-8"?>
<svg width="212px" height="212px" viewBox="0 0 212 212" version="1.1" xmlns="http://www.w3.org/2000/svg" xmlns:xlink="http://www.w3.org/1999/xlink">
    <title>logo</title>
    <defs>
        <circle id="path-1" cx="106" cy="106" r="106"></circle>
    </defs>
    <g id="Page-1" stroke="none" stroke-width="1" fill="none" fill-rule="evenodd">
        <g id="logo">
            <circle id="Oval" fill="#97887C" fill-rule="nonzero" cx="106" cy="106" r="106"></circle>
            <g id="Oval" fill="#7D7772" fill-rule="nonzero">
                <circle id="path-1" cx="106" cy="106" r="106"></circle>
            </g>
            <g id="logo-Clipped">
                <mask id="mask-2" fill="white">
                    <use xlink:href="#path-1"></use>
                </mask>
                <g id="path-1"></g>
                <g id="logo" mask="url(#mask-2)">
                    <g transform="translate(3.5065, 35)" id="Group">
                        <g transform="translate(-0, 0)">
                            <g id="Untitled" transform="translate(0, 119)" fill="#ACC928" fill-rule="nonzero">
                                <g id="Group" transform="translate(103.2468, 33.75) scale(-1, 1) rotate(-180) translate(-103.2468, -33.75)translate(0, 0)">
                                    <path d="M1.62459113,66.8894421 C1.43189383,66.5540271 1.32178108,66.2409741 1.40436564,66.1738911 C1.70717569,65.9279201 2.75324675,66.6211101 2.75324675,67.0459681 C2.75324675,67.7167971 2.03751392,67.6273531 1.62459113,66.8894421 Z" id="Shape"></path>
                                    <path d="M11.7497287,67.3408471 C11.7012941,67.2568811 11.7981634,67.0553631 11.991902,66.8874301 C12.2340753,66.6523251 12.3147997,66.3332541 12.3147997,65.7454911 C12.3147997,64.7882771 12.1533508,64.4524121 11.7497287,64.6035511 C11.572135,64.6707241 11.3299617,64.5867581 11.1200783,64.3852391 C10.9263396,64.2173071 10.5227175,64.0661681 10.2321096,64.0493751 C9.8446324,64.0493751 9.71547333,63.9654081 9.7477631,63.7974761 C9.79619775,63.5623711 9.82848752,61.7319091 9.79619775,61.1777321 C9.78005287,61.0098001 9.61860403,60.9762141 9.1342575,61.0601801 C8.63376609,61.1441461 8.34315818,61.0937661 7.87495654,60.7914881 C7.16458164,60.3716571 6.66409023,60.5060031 6.47035162,61.1945261 C6.40577208,61.3960441 6.05058463,62.0341871 5.67925229,62.5883641 C5.14647112,63.3944391 4.88815297,63.6295441 4.4522411,63.7135101 C4.12934342,63.7806831 3.66114178,64.0661681 3.40282363,64.3348591 C2.78931803,65.0065891 2.49871012,64.9897951 1.99821871,64.2341001 C1.78833521,63.8982361 1.4977273,63.6295441 1.36856823,63.6295441 C1.0941052,63.6295441 1.0941052,63.6631301 1.30398869,61.5303901 C1.41700288,60.2876911 1.53001707,59.8342741 1.75604545,59.6495491 C2.15966755,59.3472711 2.1112329,57.8694661 1.65917614,57.0633911 C1.17482962,56.2069371 1.06181543,55.3001021 1.35242334,54.6955461 C1.57845172,54.2589221 1.57845172,54.0741971 1.38471311,53.5200201 C1.27169892,53.1505691 1.12639496,52.1933551 1.06181543,51.4040731 C0.997235892,50.5979981 0.916511471,49.5064381 0.851931934,48.9354691 L0.755062629,47.9278751 L1.53001707,47.9278751 C2.09508801,47.9278751 2.4179857,47.8103221 2.80546292,47.4912511 C3.25751967,47.0882131 4.67826948,46.5340371 6.00214998,46.2485521 C6.64794534,46.1142061 6.71252488,45.7951351 6.22817835,45.2913381 C5.80841137,44.8547141 5.45322392,44.8379211 3.88717015,45.2409581 C3.01534641,45.4592701 2.66015896,45.6272031 2.66015896,45.8287211 C2.66015896,46.4668641 1.72375568,46.7859351 1.53001707,46.2149661 C1.46543753,46.0470331 1.27169892,45.7279621 1.0941052,45.5096501 C0.803497282,45.1905791 0.722772861,44.6699891 0.545179135,42.2517641 C0.432164946,40.6732001 0.36758541,39.2793622 0.416020062,39.1618096 C0.464454715,39.0274637 0.658193324,38.9434976 0.868076818,38.9434976 C1.32013357,38.9434976 1.64303126,38.6244262 1.64303126,38.1878023 C1.64303126,37.7679716 2.03050848,37.6168325 2.46642035,37.8687309 C2.75702826,38.01987 2.85389757,37.9862835 2.99920153,37.6840054 C3.14450548,37.3985205 3.1283606,37.2305882 2.9184771,36.8947237 C2.75702826,36.6428252 2.66015896,36.0886487 2.66015896,35.4672992 C2.66015896,34.6780175 2.57943454,34.3757393 2.28882662,34.056668 C1.99821871,33.7208034 1.91749429,33.4185253 1.9013494,32.3773451 C1.88520452,31.6720295 1.78833521,30.9163342 1.67532103,30.6980222 C1.400858,30.1774321 1.41700288,29.6736353 1.73990056,29.4049436 C1.93363917,29.2370113 1.98207382,29.0186993 1.9013494,28.6324551 C1.83676987,28.330177 1.78833521,27.8599666 1.8044801,27.5576884 C1.82062498,26.9195457 0.964946123,25.760813 0.416020062,25.6768468 C-0.229775304,25.5760874 -0.116761114,24.9883244 0.706627977,23.9471442 C1.65917614,22.754825 1.86905964,22.0159229 1.78833521,20.0007355 C1.72375568,18.4389652 1.73990056,18.4053787 2.15966755,18.3046194 C2.514855,18.2206532 2.57943454,18.0863074 2.66015896,17.3306121 C2.74088338,16.4741574 2.75702826,16.4573642 3.27366456,16.5077439 C3.90331504,16.5749168 4.21006784,16.222259 3.77415596,15.9703605 C3.49969293,15.8192215 3.51583782,15.7688418 3.95174969,15.4665637 C4.22621272,15.2818382 4.61368994,15.1306991 4.80742855,15.1306991 C5.01731204,15.1306991 5.22719554,15.0635262 5.27563019,14.9627668 C5.32406484,14.8788007 5.69539718,14.6940752 6.09901928,14.5429361 C6.4864965,14.4085903 7.1000021,14.1566918 7.47133443,13.9887595 L8.1171298,13.7032747 L8.77907005,14.4421767 C9.32799611,15.0635262 9.47330007,15.1474923 9.69932845,14.9459736 C9.92535682,14.7444548 9.92535682,14.6772819 9.58631426,14.3078309 C9.0373882,13.7032747 9.32799611,13.3002372 10.312834,13.2330643 C11.3461066,13.1658913 13.3319274,12.1750908 13.4449416,11.6545007 C13.5095211,11.4361888 13.6548251,11.2514632 13.800129,11.2514632 C13.9777227,11.2514632 14.0261574,11.3690159 13.9615779,11.6377075 C13.8485637,12.1079179 14.1068818,12.4941622 14.5750835,12.4941622 C14.7688221,12.4941622 15.333893,12.2758502 15.8343844,12.0239518 C16.722353,11.5705346 16.7707877,11.5537414 17.3358586,11.8392263 C17.6587563,12.0071585 18.2884068,12.1415044 18.7404636,12.1415044 C19.4185487,12.1415044 19.6122873,12.2086773 19.9836196,12.6620945 C20.4841111,13.2666507 20.8392985,13.3170304 21.8079916,12.9139929 C22.3730625,12.6788877 22.5022216,12.5445419 22.5022216,12.1415044 C22.5022216,11.4697752 22.6313806,11.4026023 23.2287414,11.7216737 C23.6807981,11.9735721 24.0359856,11.9735721 26.1348205,11.8056398 L28.5081185,11.6041211 L29.5252462,12.1582976 C30.2679108,12.5445419 30.5585188,12.6453012 30.6069534,12.477369 C30.7361125,12.0575382 31.7209504,11.2514632 32.0922828,11.2514632 C32.5604844,11.2514632 33.0125412,10.8148393 33.0125412,10.3278357 C33.0125412,9.99197112 33.0771207,9.97517792 33.9327995,10.059144 C34.5785949,10.1431101 34.9014926,10.0927305 35.0306517,9.94159142 C35.3051147,9.60572682 36.0154896,9.50496752 36.241518,9.77365913 C36.3545322,9.92479822 36.6128503,9.95838463 36.9680378,9.89121172 C37.629978,9.77365913 39.2767562,8.66530602 39.2767562,8.34623472 C39.2767562,7.97678362 39.9386964,7.82564463 40.2615941,8.12792272 C40.423043,8.26226852 40.8266651,8.43020082 41.1495628,8.49737372 C41.4886053,8.56454662 41.9245172,8.81644512 42.1344007,9.05155033 C42.5380228,9.53855392 43.0546591,9.60572682 43.6843096,9.21948262 C44.1686561,8.93399772 45.1373491,8.88361802 45.298798,9.13551642 C45.4763917,9.43779452 46.2352013,9.33703523 46.5419541,8.98437742 C46.9132864,8.54775342 49.5126127,8.17830242 50.2875672,8.44699403 C50.7073342,8.59813312 50.9656523,8.54775342 51.8536209,8.14471592 C53.2259361,7.52336652 53.3228054,7.43940033 52.9191833,7.12032902 C52.4994163,6.80125762 52.5801407,6.73408472 53.516544,6.58294563 C54.210774,6.48218632 54.2914985,6.49897953 54.4529473,6.86843053 C54.5498166,7.10353572 54.7919899,7.30505452 55.0180182,7.33864092 C55.2763364,7.37222742 55.3732057,7.33864092 55.3086262,7.20429512 C55.2440466,7.10353572 55.2601915,7.01956962 55.3570608,7.01956962 C55.5346545,7.01956962 56.0674357,8.27906172 56.0674357,8.69889252 C56.0674357,9.05155033 57.0199839,9.63931332 57.423606,9.53855392 C57.6011997,9.48817423 57.7626485,9.37062162 57.7626485,9.28665552 C57.7626485,9.06834352 59.4094267,9.10193002 59.5385858,9.32024192 C59.7000346,9.58893363 60.2489607,9.52176072 61.0077703,9.11872322 C61.605131,8.79965182 61.7504349,8.78285862 62.2024917,8.98437742 C62.5253894,9.11872322 62.7998524,9.42100132 62.9613012,9.82403882 C63.3003438,10.6804935 63.8008352,11.2178768 64.3981959,11.3522226 C64.6565141,11.4026023 65.0439913,11.6880872 65.2538748,11.9735721 C65.5606276,12.3934028 65.7382213,12.4941622 66.335582,12.4941622 C67.2074058,12.4941622 67.3365648,12.2254705 67.1589711,10.7476664 C67.0621018,9.87441853 67.0943916,9.70648622 67.4011444,9.42100132 C67.7886216,9.05155033 68.2083886,9.01796383 69.7905872,9.30344873 C70.7754252,9.47138102 70.9207291,9.45458782 71.0983229,9.18589612 C71.2274819,9.03475702 71.3243512,8.71568572 71.3243512,8.51416702 C71.3243512,7.94319722 71.9055671,7.47298682 72.5997971,7.48978002 C73.310172,7.52336652 73.6976492,7.80885133 73.6976492,8.34623472 C73.6815043,8.61492632 73.8429532,8.79965182 74.2142855,8.96758412 C74.6663422,9.16910292 74.8116462,9.13551642 75.392862,8.79965182 C75.9902227,8.44699403 76.1193818,8.43020082 76.7490323,8.63171962 C77.3948277,8.83323832 77.4755521,8.81644512 77.7015805,8.51416702 C77.8307395,8.32944142 77.9760435,7.87602432 78.040623,7.48978002 C78.1536372,6.75087792 78.5411144,6.38142692 79.4129382,6.21349463 C79.8972847,6.11273523 79.9618642,6.14632173 79.9618642,6.48218632 C79.9618642,7.06994932 80.4462108,7.12032902 81.3664692,6.59973892 C82.1091338,6.17990812 82.2544378,6.16311492 82.367452,6.39822013 C82.4481764,6.54935922 82.7549292,6.78446442 83.0293922,6.93560342 C83.5298836,7.20429512 83.5460285,7.20429512 83.6428978,6.85163732 C83.7397671,6.43180663 84.0303751,6.36463372 84.0303751,6.76767122 C84.0303751,7.15391543 84.450142,7.25467483 84.9021988,7.00277643 C85.4026902,6.71729153 89.5357805,6.78446442 89.9878373,7.06994932 C90.2300106,7.23788162 90.3914594,7.22108832 90.7627917,6.98598312 C91.279428,6.66691182 92.6678881,6.54935922 93.3944079,6.75087792 C93.6850158,6.83484412 94.5245497,6.71729153 95.7354161,6.41501332 L97.6243675,5.96159623 L98.0441345,6.31425402 C98.2863078,6.49897953 98.5930605,6.66691182 98.7222196,6.66691182 C98.8513787,6.66691182 98.9321031,6.76767122 98.8998133,6.88522382 C98.8190889,7.33864092 100.255984,7.25467483 101.256966,6.75087792 C101.983486,6.39822013 102.370963,6.31425402 102.82302,6.38142692 C104.518233,6.66691182 104.824986,6.68370503 105.277043,6.49897953 C105.648375,6.34784042 105.729099,6.23028782 105.63223,5.94480292 C105.535361,5.59214512 105.535361,5.59214512 105.971273,5.87763002 C106.310315,6.11273523 106.471764,6.14632173 106.617068,5.99518262 C106.746227,5.84404362 106.843096,5.86083682 106.9884,6.04556232 C107.279008,6.44859982 109.006511,6.14632173 109.571582,5.59214512 L110.007494,5.17231442 L109.813755,5.57535193 C109.539292,6.11273523 109.733031,7.82564463 110.152798,8.53096022 C110.330391,8.83323832 110.475695,9.37062162 110.475695,9.72327942 C110.475695,10.1431101 110.620999,10.5125612 110.895462,10.8484258 L111.315229,11.3354294 L111.315229,10.7140799 C111.315229,10.3110424 111.444388,9.95838463 111.638127,9.77365913 C111.896445,9.53855392 111.97717,9.11872322 112.057894,7.50657322 C112.154763,5.35703993 112.316212,4.98758892 113.33334,4.26548012 C114.02757,3.76168322 117.014373,3.54337122 119.129353,3.84564932 C119.920453,3.96320193 120.679262,4.04716812 120.824566,4.04716812 C121.72868,4.03037492 125.070671,3.86244262 125.571162,3.81206293 C125.89406,3.77847643 126.346116,3.61054412 126.572145,3.44261182 C127.040346,3.10674732 129.187616,3.00598792 129.381355,3.32505922 C129.558948,3.61054412 129.99486,3.50978482 130.09173,3.14033372 C130.140164,2.93881502 130.220889,2.78767592 130.285468,2.78767592 C130.527641,2.80446922 131.560914,3.47619832 131.367175,3.49299152 C131.060423,3.49299152 131.108857,4.03037492 131.41561,4.03037492 C131.544769,4.03037492 131.673928,3.91282233 131.673928,3.77847643 C131.673928,3.44261182 132.271289,3.30826602 134.725311,3.12354052 C137.66368,2.92202182 137.776694,2.92202182 137.776694,3.22429992 C137.776694,3.82885612 139.84324,3.77847643 140.311441,3.19071342 C140.456745,3.00598792 140.747353,2.80446922 140.957237,2.73729622 C141.280134,2.65333012 141.328569,2.70370982 141.2317,2.97240142 C141.118685,3.39223222 141.441583,3.42581862 141.82906,3.05636762 C142.055089,2.85484882 142.248827,2.83805562 142.862333,2.98919472 C143.863316,3.25788632 143.992475,3.40902542 143.604998,3.86244262 C143.2821,4.23189362 143.2821,4.23189362 143.750302,4.65172432 C144.266938,5.12193472 144.815864,5.20590093 144.945023,4.85324312 C144.993458,4.73569053 145.041892,4.90362282 145.041892,5.22269412 C145.058037,5.54176543 144.977313,5.94480292 144.896588,6.12952852 C144.783574,6.34784042 144.815864,6.54935922 144.993458,6.81805082 C145.267921,7.22108832 145.510094,7.28826122 145.881426,7.03636282 C146.075165,6.90201702 146.075165,6.81805082 145.849136,6.48218632 C145.380935,5.79366392 145.768412,5.59214512 146.75325,5.97838942 C147.44748,6.24708113 147.818812,6.28066752 148.739071,6.17990812 C149.788488,6.06235552 149.901502,6.01197592 149.982227,5.60893842 C150.030661,5.37383322 150.240545,4.87003632 150.466573,4.50058532 C150.773326,3.97999522 150.902485,3.87923583 151.080079,4.03037492 C151.209238,4.13113422 151.467556,4.18151392 151.64515,4.11434102 C151.822744,4.06396133 152.032627,4.09754783 152.081062,4.19830712 C152.161786,4.31585973 152.37167,4.28227332 152.694567,4.09754783 C152.985175,3.94640872 153.372652,3.87923583 153.614826,3.94640872 C154.083027,4.06396133 156.908382,3.56016442 157.1667,3.29147282 C157.441163,3.02278112 158.086959,3.12354052 158.716609,3.54337122 C159.152521,3.82885612 159.362404,4.14792752 159.539998,4.76927692 C159.798316,5.65931812 160.73472,7.01956962 161.089907,7.01956962 C161.202921,7.01956962 161.348225,6.91881022 161.39666,6.80125762 C161.493529,6.58294563 161.445095,7.27146802 161.235211,8.88361802 C161.138342,9.67289973 161.170631,9.84083202 161.541964,10.277456 C162.203904,11.083531 164.415753,11.4026023 165.093838,10.7980461 L165.481315,10.4621815 L165.174562,10.8316325 C164.9001,11.1674971 164.9001,11.2178768 165.158417,11.3186362 C165.610475,11.5033617 166.240125,11.4361888 166.272416,11.2010836 C166.369284,10.3110424 166.143255,9.23627582 165.642764,8.12792272 C165.319866,7.42260712 165.061549,6.59973892 165.061549,6.26387432 C165.061549,5.64252483 166.450008,2.97240142 166.772906,2.97240142 C166.869775,2.95560822 166.934354,3.22429992 166.918211,3.54337122 C166.869775,4.45020563 166.902066,4.51737852 167.386412,4.76927692 C167.677019,4.90362282 167.870759,5.15552122 167.903048,5.44100612 C168.032208,6.44859982 168.694148,7.42260712 169.017046,7.06994932 C169.226929,6.85163732 169.130059,5.30666022 168.887886,5.08834832 C168.758727,4.98758892 168.629567,4.60134463 168.581133,4.23189362 C168.532699,3.87923583 168.451975,3.45940512 168.387394,3.29147282 C168.290526,3.07316082 168.468118,2.90522852 169.178495,2.55257072 C170.45394,1.89763482 170.712259,1.93122132 171.08359,2.80446922 C171.487212,3.74489002 171.632516,3.81206293 172.084574,3.22429992 C172.423615,2.78767592 172.520485,2.75408952 173.198571,2.87164212 C173.779787,2.97240142 174.102684,3.17392022 174.603174,3.72809672 L175.24897,4.46699882 L175.652592,3.92961552 C176.7343,2.53577752 176.556706,2.61974362 178.687831,2.61974362 C180.253884,2.61974362 180.786666,2.53577752 181.432461,2.25029262 C181.868372,2.06556712 182.255851,1.93122132 182.28814,1.96480772 C182.352719,2.03198062 181.787648,2.33425872 181.287158,2.50219102 C180.86739,2.63653692 181.077273,2.97240142 181.577765,2.97240142 C181.932953,2.97240142 181.981387,3.07316082 182.045966,3.84564932 C182.094402,4.36623942 182.271994,4.88682952 182.449588,5.08834832 C182.707907,5.39062643 182.724052,5.50817902 182.562603,5.79366392 C182.449588,5.97838942 182.352719,6.24708113 182.352719,6.38142692 C182.352719,6.70049822 183.305268,7.55695292 183.660455,7.55695292 C184.128656,7.54015973 186.146767,6.65011862 186.566534,6.24708113 C187.373778,5.49138583 187.954994,4.51737852 187.954994,3.87923583 C187.954994,3.19071342 188.245602,1.30987182 188.455486,0.755695225 C188.53621,0.537383325 188.875253,0.319071325 189.391889,0.151139025 C190.102263,-0.050379675 190.263712,-0.050379675 190.570466,0.151139025 C190.780349,0.302278125 191.183971,0.570969725 191.490724,0.755695225 C192.007361,1.09155982 192.023506,1.15873272 191.926636,1.91442803 C191.862057,2.43501813 191.910491,2.80446922 192.055795,3.02278112 C192.265679,3.32505922 192.330258,3.32505922 192.911474,3.08995402 C193.492689,2.82126242 194.05776,2.04877393 194.05776,1.47780413 C194.041616,1.34345823 194.267644,1.05797342 194.558252,0.856454625 C195.042598,0.487003625 195.091034,0.487003625 195.995146,0.772488525 C196.511783,0.923627525 197.012275,0.990800425 197.109144,0.940420825 C197.206012,0.873247825 197.383606,1.09155982 197.52891,1.44421762 C197.690359,1.84725512 198.013256,2.19991292 198.497603,2.46860462 C199.320992,2.93881502 199.64389,3.47619832 199.64389,4.43341232 C199.64389,4.97079572 199.724614,5.13872802 199.982933,5.20590093 C200.4027,5.32345352 200.483425,6.31425402 200.063657,6.31425402 C199.74076,6.31425402 199.74076,7.01956962 200.047512,7.47298682 C200.192816,7.67450552 200.257397,8.02716332 200.192816,8.39661432 C200.079803,9.16910292 200.483425,14.7780413 200.693308,15.1810788 C200.790177,15.3658043 201.064641,15.5841163 201.322958,15.6848757 L201.791161,15.8528079 L201.920319,18.2374464 C202.017189,20.2862204 202.356232,22.3517875 202.775997,23.4433474 C202.856722,23.6280729 202.775997,23.7624187 202.51768,23.8295916 C202.227072,23.8967646 202.194783,23.9807307 202.340086,24.2662156 C202.436956,24.4677343 202.775997,24.7196328 203.082751,24.8203921 C203.550953,24.9883244 203.74469,25.2570161 204.455067,26.7684067 C205.165441,28.2797973 205.246166,28.5652822 205.052426,28.8171806 C204.890977,29.0186993 204.664949,29.069079 204.261327,29.0019061 C203.954575,28.9515264 203.583241,28.9515264 203.454083,29.0019061 C203.131185,29.1194587 203.131185,30.2446051 203.454083,30.8323681 C203.599387,31.0674733 203.696256,31.6048566 203.712402,32.0078941 C203.712402,32.4109316 203.84156,33.1162472 203.986864,33.5696644 C204.132169,34.0230815 204.212893,34.5772581 204.180603,34.8123633 C204.067588,35.3497466 205.133151,36.5588591 205.85967,36.7267914 C206.570045,36.8779304 206.699205,37.2641747 206.166423,37.6336257 C205.649788,37.9862835 205.633642,38.3557346 206.117989,38.8931179 C206.602335,39.413708 206.360162,39.9007121 205.649788,39.9007121 C205.278454,39.9007121 205.149296,39.7999521 205.068571,39.4808809 C204.955557,38.9602908 204.535791,38.6580127 204.164458,38.8091518 C203.712402,38.9938773 203.84156,39.6656061 204.438921,40.3037491 C204.939413,40.8411321 204.987847,40.9922711 205.003992,42.1006251 L205.020138,43.3265301 L203.87385,43.6791881 C203.2442,43.8807071 202.646839,44.0486391 202.549969,44.0486391 C202.404666,44.0486391 202.017189,43.0074591 202.017189,42.5876281 C202.017189,42.5036621 201.742725,42.0838311 201.403682,41.6640011 C200.757887,40.8243391 200.160527,38.9099111 200.160527,37.6168325 C200.160527,37.1298289 200.031367,36.7939643 199.74076,36.4748929 C199.369428,36.0718555 198.562184,34.6948107 197.75494,33.1162472 C197.577346,32.7803826 197.448185,32.3269654 197.448185,32.1086535 C197.448185,31.8735482 197.254448,31.5880634 196.996129,31.4201311 C196.608653,31.1514394 196.431058,31.1346462 195.623814,31.3193717 C194.525963,31.5544769 194.299933,31.4537175 193.621849,30.5300899 C193.347385,30.1606389 193.056778,29.8079811 192.976054,29.7408082 C192.879184,29.6736353 192.265679,29.656842 191.603738,29.7072217 C190.053829,29.8079811 189.811656,29.656842 190.199133,28.8003874 C190.635045,27.8431733 190.58661,27.0203051 190.053829,26.6508541 C188.520065,25.5257078 188.326326,25.1226703 188.713805,23.7960052 C188.955978,22.973137 188.923687,22.7044453 188.568499,22.7212385 C188.261747,22.7212385 185.404103,26.0295046 185.404103,26.3821624 C185.420247,27.0706848 186.049899,28.1286582 186.631113,28.4141431 C186.970156,28.5820754 187.309199,28.7164212 187.406069,28.7164212 C187.502938,28.7164212 187.858125,28.9683197 188.197168,29.3041842 C188.616935,29.7072217 188.794529,30.0430863 188.794529,30.3957441 C188.794529,30.681229 188.907542,31.3025785 189.052846,31.7727889 C189.182006,32.2597925 189.311164,32.8307623 189.311164,33.0658675 C189.311164,33.3177659 189.569483,34.0734612 189.89238,34.7955701 C190.328293,35.7359909 190.58661,36.1054419 190.877219,36.1726148 C191.296986,36.2901674 192.523996,37.7679716 192.523996,38.1542158 C192.523996,38.4732872 191.845912,39.2961554 191.571448,39.2961554 C191.264696,39.2961554 191.264696,39.8335391 191.587593,40.6228201 C191.862057,41.3113431 192.152664,41.3785161 192.879184,40.9250981 C193.298951,40.6732001 193.411964,40.6564071 193.524979,40.8579261 C193.605704,40.9754781 193.637994,41.2273771 193.621849,41.3785161 C193.589559,41.5464481 193.508834,42.0334521 193.4604,42.4868691 C193.395821,42.9234931 193.218227,43.4440831 193.056778,43.6288081 C192.879184,43.8303271 192.653156,44.1493981 192.540141,44.3509171 C192.314113,44.8043341 192.297968,46.3325181 192.507852,47.2897321 C192.685445,48.0286341 192.491707,48.8179161 192.168809,48.8179161 C192.07194,48.8011231 191.603738,48.4652581 191.151681,48.0286341 C190.182988,47.1218001 189.311164,46.7523491 188.826818,47.0378341 C188.53621,47.1889731 187.954994,48.0790141 187.131605,49.6239911 C186.921722,50.0438221 185.904593,50.4468591 185.500971,50.2957201 C185.371813,50.2453401 185.194219,49.9934421 185.081206,49.7583371 C184.952046,49.4392651 184.806742,49.3385061 184.580714,49.4224721 C183.660455,49.7247501 183.418282,48.7507431 184.128656,47.5752171 C184.370829,47.1889731 184.564569,46.6347961 184.564569,46.3493111 C184.564569,45.8287211 184.064077,45.1066121 183.70889,45.1066121 C183.272978,45.1066121 182.869356,45.8791011 182.578749,47.2225591 C182.4173,48.0454281 182.19127,48.7171571 182.062112,48.7675361 C181.739214,48.8850891 180.592927,48.3309121 180.124725,47.8103221 C179.688813,47.3401121 178.881569,47.2561461 178.72012,47.6759761 C178.413367,48.5156381 178.655541,49.5064381 179.398206,50.4468591 C180.076292,51.2865211 179.850262,51.4040731 177.719138,51.3536941 C176.685866,51.3201071 175.394275,51.2361411 174.877638,51.1857611 C174.183409,51.1017951 173.79593,51.1353821 173.440744,51.3369001 C173.16628,51.4712461 172.552775,51.6559721 172.100717,51.7063511 C171.019011,51.8574901 170.566953,52.0758021 169.678985,52.8986711 C168.871741,53.6543661 168.581133,53.7047461 167.854614,53.2513281 C167.418701,52.9658441 166.966645,52.9154641 164.787086,52.9154641 C161.654978,52.8986711 161.315935,52.7811181 160.218083,51.1857611 C159.297825,49.8590961 158.958782,49.5904051 157.715626,49.3552991 C156.50476,49.1201941 156.149573,48.9186751 155.826675,48.2973261 C155.600646,47.8439091 155.487632,47.7935291 154.486649,47.7263561 C153.421087,47.6423901 153.388797,47.6423901 152.403959,46.5844171 L151.386832,45.5264431 L150.143676,45.5264431 C148.77136,45.5432361 148.626057,45.6775821 149.029679,46.4836571 C149.320287,47.0714201 150.208255,47.5752171 150.967065,47.5752171 C151.354542,47.5752171 151.693585,47.7599431 152.194076,48.2805331 C152.581553,48.6667771 152.952885,48.9858481 153.017465,48.9858481 C153.082045,48.9858481 153.275783,49.2545401 153.453377,49.5736111 C154.002303,50.6483781 153.308073,52.3444941 152.30709,52.3444941 C152.081062,52.3444941 151.64515,52.5292201 151.322252,52.7811181 C151.015499,53.0162231 150.660312,53.2177421 150.563443,53.2177421 C150.450428,53.2177421 149.917647,53.4192611 149.401011,53.6543661 C147.931826,54.3260951 147.092293,54.2421291 146.672526,53.3856741 C146.494932,53.0498101 146.252759,52.8650841 145.849136,52.7979111 C145.526239,52.7307381 145.171051,52.5628061 145.058037,52.4116671 C144.799719,52.0925961 143.475838,52.0758021 143.21752,52.3948741 C143.104506,52.5292201 143.072216,52.6803591 143.120651,52.7307381 C143.185231,52.7979111 143.169086,52.9322571 143.104506,53.0498101 C143.023782,53.1841561 142.830043,53.0833961 142.507145,52.7643251 C142.103523,52.3612871 141.92593,52.3109081 141.393148,52.3948741 C141.054106,52.4452531 140.618194,52.6467721 140.40831,52.8314981 C140.085413,53.1337761 139.988543,53.1505691 139.245879,52.9154641 C138.567794,52.6971521 138.42249,52.5795991 138.341765,52.1597691 C138.261041,51.7567311 138.115737,51.6223851 137.712115,51.5384191 C137.163189,51.4376601 135.968467,51.7903181 135.258092,52.2605281 C134.789891,52.5963931 134.063371,52.6299791 133.417576,52.3780811 C133.159258,52.2773211 132.335868,52.1429751 131.577059,52.0925961 C130.414627,52.0254231 130.156309,52.0590091 129.671963,52.3612871 C129.171471,52.6971521 129.026167,52.7139451 128.380372,52.5124261 C127.97675,52.3948741 127.476258,52.3277011 127.25023,52.3612871 C126.862753,52.4284601 126.862753,52.4284601 127.411679,53.0833961 C127.734576,53.4528471 128.122054,53.7551251 128.331937,53.7551251 C129.510514,53.7551251 129.817266,54.3428881 128.977733,54.9642381 C128.687125,55.1825501 128.444951,55.5520011 128.380372,55.8878651 C128.186633,56.8786661 127.815301,57.2984971 127.201795,57.2313241 C126.701304,57.1809441 126.669014,57.1473581 126.669014,56.4588351 C126.669014,56.0725911 126.556,55.6023801 126.410696,55.4176551 C126.249247,55.2161361 126.152378,54.6787531 126.136233,53.8894711 C126.120088,52.8650841 126.168523,52.6299791 126.426841,52.4620471 C126.862753,52.1765621 126.830463,51.8574901 126.313827,51.0850021 C125.716466,50.1781681 125.86177,49.4224721 126.685159,49.0530211 C126.991912,48.9186751 127.266375,48.6835701 127.266375,48.5324311 C127.266375,48.3812921 126.911187,47.9278751 126.49142,47.5416311 C126.071653,47.1385931 125.732611,46.6851761 125.732611,46.5340371 C125.732611,46.3828981 125.89406,45.9126871 126.103943,45.5096501 L126.49142,44.7707481 L126.007074,44.2501581 L125.538872,43.7295681 L126.007074,43.2929441 L126.459131,42.8395271 L126.168523,41.8151401 C125.990929,41.2441701 125.716466,40.6228201 125.555017,40.4380951 C125.377423,40.2365761 125.119105,39.7831591 124.973801,39.413708 C124.667048,38.6748059 124.214992,38.3053549 123.327023,38.1374226 C122.729662,38.01987 122.051577,38.238182 121.793259,38.6580127 C121.551086,39.0274637 121.6641,40.5892341 122.019287,41.9494851 C122.406765,43.4440831 122.648938,43.7295681 123.730645,43.9478801 C124.5056,44.0822261 124.715483,44.4516771 124.715483,45.5768231 C124.715483,47.1553861 124.101977,47.8103221 122.874966,47.5416311 C122.309895,47.4072851 122.067722,47.2393531 121.809404,46.7691421 C121.389637,46.0302401 120.808421,45.9630671 120.259495,46.5844171 C120.049612,46.8195221 119.629845,47.2729391 119.339237,47.6088041 C119.032484,47.9446681 118.790311,48.3477061 118.790311,48.4820511 C118.790311,48.6163971 119.193933,49.2881261 119.694424,49.9598561 C120.178771,50.6483781 120.630827,51.3536941 120.695407,51.5216261 C120.759986,51.6895581 120.663117,52.2773211 120.469379,52.8314981 C120.291785,53.3688811 120.130336,54.2253361 120.130336,54.7291331 C120.130336,55.2329291 120.033467,55.7703131 119.888163,55.9550381 C119.759004,56.1565571 119.645989,56.5260081 119.629845,56.7947001 C119.629845,57.1473581 119.484541,57.3656701 119.080919,57.6343611 C118.273674,58.1381581 117.740893,58.0709851 117.030518,57.3488761 C116.417013,56.7443201 116.417013,56.7275271 115.884231,57.0130121 C115.157712,57.3992561 112.251633,57.5503951 111.751141,57.2145301 C110.976187,56.6939401 110.265812,56.5428011 109.86219,56.8282861 C109.393988,57.1473581 108.861207,57.1641511 108.102397,56.8954591 C107.666485,56.7443201 107.230574,56.7611131 106.003562,56.9962181 C104.098466,57.3656701 103.710989,57.2649101 103.436526,56.2909031 L103.258932,55.6023801 L101.741313,55.6527601 C100.901779,55.6695531 99.9815206,55.7703131 99.6909127,55.8542791 C99.0612622,56.0222111 98.673785,55.8374861 98.5446259,55.2665161 C98.4800464,54.9978241 98.254018,54.7627191 97.8988305,54.6451661 C97.2207454,54.3932681 94.9281718,54.3932681 94.7828679,54.6283731 C94.621419,54.9306511 95.041186,55.3168961 95.6546916,55.4344481 C96.720254,55.6359671 96.2036177,56.2069371 95.0896207,56.0557981 C94.9766065,56.0390041 94.6537088,56.1397641 94.3792458,56.2909031 C93.7173055,56.6603541 93.7173055,56.6603541 93.6042913,55.9382451 C93.4589874,55.1825501 92.9746409,54.7963051 92.1351069,54.8130991 C91.3278627,54.8130991 91.2148485,55.0314111 91.5700359,55.8710721 C91.7314848,56.2405231 91.8283541,56.6603541 91.7799194,56.7947001 C91.7153399,56.9626321 91.0695445,57.1473581 89.9232578,57.3320831 C88.9384198,57.4832221 87.4208007,57.8526731 86.5328321,58.1549511 C84.5470113,58.8098871 83.9819404,58.8266801 83.4975939,58.2389171 C82.9971025,57.6511541 82.8033639,57.6847411 82.8679434,58.3564701 L82.9325229,58.9106471 L81.4956282,59.3136841 C80.688384,59.5319961 79.719691,59.8342741 79.299924,60.0022061 C78.3635207,60.3548641 78.2666514,60.3380711 78.2666514,59.9350341 C78.2666514,59.2633041 77.8307395,59.1289591 75.6834699,59.1625451 C74.424169,59.1793381 73.5684901,59.2800981 73.4231862,59.3976501 C73.2940271,59.5152031 73.1810129,59.9182401 73.1810129,60.3044851 C73.1810129,61.0769731 72.8419703,61.3456651 72.3091892,61.0098001 C71.8571324,60.7075221 71.6633938,60.7579021 71.6633938,61.1441461 C71.6633938,61.6143561 71.0983229,61.8830481 70.3395133,61.8158751 C69.7744424,61.7822891 69.7098628,61.7151161 69.5645589,61.1105601 C69.4676896,60.6907291 69.2255163,60.3044851 68.854184,60.0190001 C68.3698374,59.6327551 68.2568232,59.3976501 68.1599539,58.6755411 C68.0630846,57.9198461 67.9985051,57.8022931 67.6756074,57.8022931 C67.1428262,57.8022931 66.9652325,58.1045721 66.8683632,59.1625451 C66.8199286,59.8174811 66.8522183,60.1533451 67.0136672,60.2876911 C67.3042751,60.5395901 67.32042,61.3792511 67.0459569,61.2952851 C66.9329427,61.2449051 66.7230592,61.0098001 66.5777553,60.7579021 C66.4324513,60.5060031 66.0772639,60.0861731 65.786656,59.8342741 C65.4637583,59.5655821 65.1892953,59.1289591 65.0924259,58.7259211 C64.9794118,58.2053311 64.8179629,58.0038121 64.3336164,57.7687071 C63.1550399,57.1809441 62.8644319,57.1809441 62.6545484,57.7351211 C62.4769547,58.2221241 62.5899689,59.1457521 62.9128666,59.9686201 C63.1227501,60.4388301 62.7514177,60.3212781 62.5415343,59.8342741 C62.4285201,59.5991691 62.0733326,59.2800981 61.73429,59.1457521 C61.0077703,58.8266801 60.8786112,58.5244021 61.1369293,57.7351211 C61.2983782,57.2313241 61.2822333,57.0130121 61.0562049,56.5595951 C60.7978868,56.0390041 60.765597,56.0222111 60.5395686,56.3244891 C60.2328158,56.7611131 60.2489607,57.4496361 60.5557135,57.8862601 C60.9431907,58.4236431 60.8624663,58.7091281 60.3619749,58.6587481 C59.8776284,58.5915751 59.8614835,58.5747821 59.2964125,57.1809441 C59.0542393,56.6267671 58.7313416,56.1901431 58.4245888,56.0054181 C57.3428816,55.3672751 57.6334895,54.7459261 59.1349637,54.4268541 C60.2489607,54.2085421 60.3942647,53.9230581 59.6677449,53.4528471 C59.4094267,53.2849151 58.9412251,52.9154641 58.6506172,52.6299791 C58.2147053,52.2101481 58.0532565,52.1429751 57.8918076,52.3109081 C57.7303588,52.4620471 57.7465037,52.6299791 57.972532,53.0330161 C58.3115746,53.6039861 58.3115746,53.6039861 57.0522736,53.8222981 C55.8736971,54.0238171 54.9211489,55.6863471 55.9705664,55.6863471 C56.2127397,55.6863471 56.5517822,55.8542791 56.7455208,56.0557981 C56.9392595,56.2573161 57.3590264,56.5260081 57.6657792,56.6603541 C58.1016911,56.8450791 58.2469951,57.0465981 58.3277195,57.5000151 C58.5053132,58.4908161 58.3438644,58.6923351 57.3428816,58.6923351 C56.1965948,58.6923351 55.889842,59.0114061 55.9059869,60.2037251 C55.9221318,61.6311501 56.1481601,62.7227091 56.5033476,63.0081941 C56.8101004,63.2433001 56.8101004,63.2600931 56.4710578,63.2600931 C55.889842,63.2768861 55.3893506,62.5547771 55.3893506,61.7487021 C55.3732057,61.3456651 55.324771,60.3044851 55.2763364,59.4312371 L55.1633222,57.8358801 L54.1300496,57.9198461 C53.5649787,57.9534331 52.5962856,58.0709851 51.98278,58.1885381 C51.0625216,58.3396771 50.7880586,58.3228841 50.3682916,58.1213651 C49.7386411,57.7855001 48.7699481,58.0038121 48.7699481,58.4908161 C48.7699481,58.8602671 49.2865844,59.3976501 49.6417718,59.3976501 C49.9808144,59.3976501 50.3037121,59.7503081 50.3037121,60.1197591 C50.3037121,60.6571421 49.5126127,62.2692921 49.0444111,62.7227091 C48.6892237,63.0753671 48.5600646,63.1089541 48.3501811,62.9242281 C48.2048771,62.7898821 48.0918629,62.4708111 48.0918629,62.2189131 C48.0918629,61.6143561 47.8496897,61.3960441 46.9455762,61.1777321 C46.3966501,61.0601801 46.1867666,61.0769731 46.0414627,61.2616991 C45.8800138,61.4632171 45.9123036,61.6143561 46.2352013,61.9502211 C46.4450848,62.1853261 46.7195478,62.3868451 46.8164171,62.3868451 C47.0908801,62.3868451 47.672096,63.0585741 47.526792,63.2097131 C47.4622125,63.2768861 47.2684739,63.1761271 47.0747352,63.0081941 C46.7356927,62.6891231 46.7034029,62.6891231 45.7669996,63.0249881 C45.0404798,63.2768861 44.733727,63.4784051 44.5722782,63.8478561 C44.3301049,64.3516531 44.2655254,64.3852391 43.345267,64.3348591 C42.376574,64.2676871 42.1989802,64.0829611 42.0698212,62.9242281 C42.0052416,62.3364651 41.8276479,61.6983231 41.6823439,61.4968041 C41.4078809,61.1609391 41.3594463,61.1441461 40.6652162,61.3960441 C40.277739,61.5471831 39.8418271,61.6311501 39.7126681,61.5807701 C39.4220602,61.4632171 39.2444664,61.7319091 39.3736255,62.1013601 C39.4543499,62.3196721 39.5512192,62.3364651 39.7933925,62.2021191 C40.0517106,62.0677741 40.1647248,62.1181531 40.3584634,62.4204311 C40.9881139,63.4448181 40.7620855,64.4859991 40.0840004,63.6295441 C39.8095374,63.2600931 39.728813,63.2433001 39.3251909,63.4280251 C39.0830176,63.5455781 38.8408443,63.5791641 38.7762648,63.4951981 C38.7116853,63.4280251 38.4856569,62.6891231 38.2596285,61.8662551 C37.8882962,60.4220371 37.4039496,59.5655821 36.9841827,59.5655821 C36.8711685,59.5655821 36.6451401,59.4144431 36.4836912,59.2129251 C35.9993447,58.6587481 35.4504187,58.7595071 35.2082454,59.4312371 C34.8530579,60.3548641 34.1911177,61.1777321 33.5776121,61.4464241 C32.9963963,61.6983231 32.8349474,62.1349461 33.1901349,62.5211911 C33.3031491,62.6219501 33.3354388,62.8402621 33.2870042,62.9914011 C33.1417002,63.3944391 32.1407174,63.3440591 31.2527488,62.8906421 C30.3647802,62.4372251 29.8642887,62.5379841 30.0580274,63.1425401 C30.4132148,64.2508931 30.3486353,64.3012731 27.8138885,64.6875171 C26.7160363,64.8386561 26.3769938,64.8386561 26.1025307,64.6707241 C25.8442126,64.5027921 25.6020393,64.4859991 25.1822723,64.6203441 C24.7463605,64.7546901 24.4880423,64.7378971 24.0682753,64.5195851 C23.5677839,64.2844801 23.42248,64.2844801 22.6798153,64.5363781 C21.9371506,64.7882771 21.7757018,64.7882771 21.3559348,64.5531711 C20.9846025,64.3516531 20.5325457,64.3180661 19.2570999,64.4188261 L17.6264666,64.5363781 L16.8999468,65.4935921 C16.1088475,66.5179791 15.7052253,66.7194981 14.7526772,66.5683591 C14.074592,66.4508061 13.4933762,66.6355321 13.0090297,67.1393291 C12.6538422,67.5087801 11.9111776,67.6263321 11.7497287,67.3408471 Z M11.6367145,62.7898821 C11.6367145,62.5379841 11.1846578,62.0341871 10.9909192,62.0341871 C10.7487459,62.0341871 10.7487459,62.1349461 10.9747743,62.5715701 C11.1362231,62.9074351 11.6528594,63.0585741 11.6367145,62.7898821 Z M56.5679271,57.2817031 C56.5679271,57.0130121 56.4549129,56.9290461 56.164305,56.9290461 C55.6799585,56.9290461 55.2440466,57.3656701 55.5830892,57.5000151 C56.1158704,57.7351211 56.5679271,57.6175681 56.5679271,57.2817031 Z M203.389504,41.8319331 C203.986864,41.5128611 204.035299,41.0930311 203.470228,40.9586851 C202.469245,40.6899931 201.742725,41.3449291 202.4531,41.8823131 C202.824433,42.1677971 202.775997,42.1677971 203.389504,41.8319331 Z M122.681228,32.9483149 C122.874966,32.7467961 123.02027,32.4613113 123.02027,32.3269654 C123.02027,31.9071347 122.39062,31.3529582 121.922418,31.3529582 C121.389637,31.3529582 121.195898,32.0078941 121.502651,32.7635894 C121.744824,33.3849388 122.196881,33.4521118 122.681228,32.9483149 Z M122.681228,30.899541 C122.681228,30.7484019 122.277606,30.2446051 121.793259,29.7576014 C120.96987,28.9515264 120.485523,28.6828348 120.485523,29.0354926 C120.485523,29.1866316 121.212043,30.2613983 121.744824,30.8659545 C122.067722,31.2521988 122.681228,31.268992 122.681228,30.899541 Z M116.578461,26.4325421 C116.578461,26.2142301 116.255564,25.9959182 116.126405,26.1134708 C115.997246,26.2478166 116.223274,26.6004744 116.417013,26.6004744 C116.513882,26.6004744 116.578461,26.5165083 116.578461,26.4325421 Z M115.609768,25.1898432 C116.094115,25.1898432 115.932666,24.8371854 115.319161,24.5349073 C114.576496,24.1654562 114.140584,23.1578625 114.495771,22.6036859 C114.850959,22.0495094 114.608786,21.6296787 113.979135,21.6968516 L113.446354,21.7472313 L113.397919,22.9563437 L113.33334,24.1822494 L114.05986,24.9379447 C114.705655,25.6264671 114.802524,25.6768468 115.060842,25.4417416 C115.206146,25.3073958 115.464464,25.1898432 115.609768,25.1898432 Z M114.043715,20.1014948 C114.043715,19.8495964 114.189019,19.3961792 114.382757,19.0939011 C114.947828,18.1870668 114.705655,17.1123001 113.946845,17.2802324 C113.510933,17.3641985 112.929718,19.2786266 113.171891,19.8328032 C113.26876,20.0679084 113.36563,20.4205662 113.36563,20.6052917 C113.36563,20.9075698 113.414064,20.9243631 113.704672,20.773224 C113.914556,20.6556714 114.043715,20.403773 114.043715,20.1014948 Z M201.500552,17.4649579 C201.500552,17.397785 201.435973,17.2130595 201.339103,17.0787137 C201.145365,16.7596423 200.919336,16.9611611 201.064641,17.3306121 C201.161509,17.5993037 201.516697,17.7168563 201.500552,17.4649579 Z M23.4709146,12.5109554 C23.6485083,12.3934028 23.6485083,12.3262299 23.4709146,12.1750908 C23.1964516,11.9399856 22.7443948,12.1750908 22.9058437,12.4605757 C23.0511476,12.6956809 23.1803067,12.7124742 23.4709146,12.5109554 Z M73.7783736,11.2514632 C73.8268083,11.1507039 73.7945185,11.083531 73.6976492,11.083531 C73.6007799,11.083531 73.5200555,11.1507039 73.5200555,11.2514632 C73.5200555,11.3522226 73.5523452,11.4361888 73.6007799,11.4361888 C73.6330697,11.4361888 73.7137941,11.3522226 73.7783736,11.2514632 Z M98.0602794,6.63332532 C97.9634101,6.31425402 97.5920777,6.24708112 97.5920777,6.56615242 C97.5920777,6.71729152 97.7050919,6.85163732 97.8665408,6.85163732 C98.0118447,6.85163732 98.0925691,6.75087792 98.0602794,6.63332532 Z M153.098189,6.07914882 C153.243493,5.82725032 153.178914,5.67611132 152.775292,5.34024672 C152.500829,5.10514152 152.242511,4.95400242 152.210221,4.98758892 C152.177931,5.02117542 152.242511,5.37383322 152.37167,5.77687072 C152.581553,6.53256592 152.791437,6.59973892 153.098189,6.07914882 Z" id="Shape"></path>
                                    <path d="M34.4217097,63.2061541 C34.3763327,63.1060861 34.5880921,62.8559171 34.8906056,62.6391031 C35.4048786,62.2721871 35.4502556,62.1887971 35.3595016,61.6050671 C35.2989989,61.1547621 35.3443759,60.9212701 35.5107583,60.7544901 C35.8283975,60.4709641 36.2519164,60.6377441 36.2519164,61.0213381 C36.2519164,61.2214741 36.3426705,61.2881851 36.5544299,61.2214741 C36.9174461,61.1214061 37.2653367,61.5049991 37.1443313,61.8719151 C37.0989542,62.0220171 36.7964407,62.2555091 36.4788015,62.4056111 C36.1611624,62.5390351 35.7073921,62.8225611 35.4502556,63.0226961 C34.966234,63.4062901 34.5729664,63.4730021 34.4217097,63.2061541 Z" id="Shape"></path>
                                    <path d="M61.9480519,61.9950431 C61.9480519,61.7754431 62.536017,61.7754431 63.1239821,61.9950431 C63.4686513,62.1132891 63.3875527,62.1470741 62.7387636,62.1470741 C62.3129958,62.1639661 61.9480519,62.0795051 61.9480519,61.9950431 Z" id="Shape"></path>
                                    <path d="M132.218354,55.3662741 C132.436737,53.9189121 132.577126,53.7244901 133.466259,53.7244901 C134.324194,53.7244901 134.51138,53.8541041 134.77656,54.5885871 C135.088536,55.3878771 134.870152,55.5822991 133.903026,55.4094791 C133.091887,55.2798651 133.013893,55.3014671 132.748713,55.8631301 C132.280749,56.8568421 132.031168,56.6192151 132.218354,55.3662741 Z" id="Shape"></path>
                                    <path d="M200.022018,42.3531681 C199.565063,42.0126221 199.537368,41.9639731 199.703535,41.6477511 C199.911242,41.2342311 200.174337,41.2220691 200.562058,41.5991021 C200.922083,41.9518101 201.060554,42.2801941 200.949778,42.5234411 C200.825154,42.8031751 200.589752,42.7666881 200.022018,42.3531681 Z" id="Shape"></path>
                                    <path d="M1.12423397,34.6431838 C1.12423397,34.5587223 1.23753102,34.372907 1.38319865,34.2377686 C1.62597804,34.0350609 1.65834863,34.0519532 1.60979275,34.3391224 C1.54505158,34.6769685 1.12423397,34.9472453 1.12423397,34.6431838 Z" id="Shape"></path>
                                    <path d="M194.629271,34.2738177 C194.321532,34.0851508 193.998405,32.9531492 194.136887,32.5586638 C194.183049,32.4214514 194.413854,32.2670876 194.644658,32.1984814 C194.875463,32.1470268 195.337072,31.992663 195.675585,31.8382991 C196.244903,31.6153291 196.306451,31.6153291 196.61419,31.9583599 C196.92193,32.3013907 196.937317,32.5072091 196.660352,33.6220592 C196.506483,34.2738177 195.24475,34.6854547 194.629271,34.2738177 Z" id="Shape"></path>
                                    <path d="M191.683713,31.8113714 C191.140784,31.4904176 191.276516,31.28771 191.982324,31.3552792 C192.308082,31.3890638 192.660984,31.5579868 192.715278,31.7269099 C192.823863,32.0816483 192.17235,32.1323252 191.683713,31.8113714 Z" id="Shape"></path>
                                    <path d="M1.14673762,16.5691457 C1.14673762,16.4002226 1.26003467,16.2819765 1.4057023,16.2819765 C1.71322286,16.2819765 1.64848169,16.6704995 1.34096113,16.7718533 C1.22766408,16.8056379 1.14673762,16.7211764 1.14673762,16.5691457 Z" id="Shape"></path>
                                </g>
                            </g>
                            <g id="train" transform="translate(52.4935, -0)" fill="#FFFFFF" fill-rule="nonzero">
                                <g id="Group" transform="translate(52.5, 53.5) scale(-1, 1) rotate(-180) translate(-52.5, -53.5)translate(0, 0)">
                                    <path d="M14.8544,105.899527 C13.7117539,105.209972 12.1882257,104.750268 11.4264616,104.673651 C10.5885211,104.673651 9.75058055,104.137331 9.52205132,103.447776 C9.21734567,102.75822 8.07469951,101.685579 6.93205335,101.072641 C4.03734976,99.6169142 2.51382155,94.0238566 1.67588103,81.7651003 C1.52352821,79.5432007 1.14264616,76.2486599 0.837940516,74.4864638 C0.533234874,72.7242675 0.228529232,62.457559 0.152352821,51.7311473 L0,32.1937543 L1.52352821,32.5768405 L3.04705642,32.9599266 L2.43764514,29.9718547 C2.13293949,28.362893 1.67588103,23.8424766 1.52352821,19.8583808 L1.21882257,12.7329787 L4.26587899,9.59167237 C6.5511713,7.29315557 9.14116926,5.83742825 14.092636,4.07523203 C17.8252801,2.77273917 22.5482175,1.77671521 24.6049806,1.70009799 C26.7379201,1.70009799 28.4138011,1.31701185 28.4138011,0.933925719 C28.4138011,0.244370675 40.9829088,0.0145189941 59.6461294,0.320987902 C64.4452433,0.397605129 71.3772966,0.320987902 77.6237623,0.0145189941 C79.8328782,-0.062098233 83.5655223,0.167753449 86.0031675,0.627456811 C89.5072823,1.24039463 91.5640454,2.23641858 95.4490423,5.37772489 C98.4960988,7.82947615 100.629038,10.127993 100.857567,11.3538686 C101.086097,12.4265098 101.543155,14.3419404 101.924037,15.4911988 C102.304919,16.7170745 102.457272,19.245443 102.228743,21.1608737 C102.000214,23.0763044 102.304919,28.5927447 102.761978,33.4962472 C103.904624,43.6863384 104.056977,48.5132238 103.371389,49.6624822 C102.533448,50.9649749 102.609625,57.2475876 103.447565,63.0704968 C103.904624,66.0585688 104.056977,70.6556024 103.828448,73.3372053 C103.523742,76.4785116 103.752271,78.8536456 104.361682,80.0795212 C105.199623,81.6118658 105.199623,83.2208276 104.437859,87.8944784 C103.904624,91.112402 102.914331,94.6367944 102.304919,95.5562011 C100.781391,98.0845696 93.7731613,102.75822 93.3922792,101.608962 C93.0113973,100.536321 90.0405172,100.229852 89.9643408,101.225876 C89.9643408,101.838814 67.8731817,102.75822 58.5796596,102.528369 C55.1517212,102.451752 54.009075,102.681603 54.009075,103.60101 C54.009075,104.443799 53.4758402,104.520417 51.7999591,104.137331 C48.9052556,103.294541 36.4123242,103.371158 34.4317375,104.213948 C33.5176207,104.520417 29.7849764,104.98012 26.0523324,105.209972 C22.2435119,105.439823 18.8917498,105.976144 18.4346914,106.35923 C17.444398,107.278637 17.2158688,107.278637 14.8544,105.899527 Z M43.1920247,96.5522251 C49.3623139,96.0925218 59.8746587,95.9392873 66.5781828,96.1691389 C73.9672946,96.3989907 78.9187613,96.2457562 79.2234669,95.7860529 C79.4519962,95.4029667 81.8896413,95.0198806 84.631992,95.0198806 C90.1166936,95.0198806 93.9255141,93.2576844 95.6775715,90.0397608 C96.4393357,88.6606506 96.6678649,82.9143587 96.5155121,67.6675304 C96.4393357,56.4047981 95.9822772,42.4604628 95.5252187,36.7141708 C94.9919839,30.9678787 94.6872783,23.8424766 94.6872783,21.0076393 L94.8396311,15.7210506 L92.6305152,12.3498925 C89.811988,7.9827106 86.8411079,6.98668666 78.8425849,7.6762417 C75.5669993,7.90609338 60.331717,8.5190312 45.0202585,8.97873456 C24.3764514,9.51505515 16.6064574,9.97475851 14.6258708,10.817548 C13.178519,11.4304858 10.9694031,13.0394476 9.75058055,14.4185577 L7.46528823,16.870309 L7.92234669,31.5808165 C8.15087592,39.7022426 8.37940516,47.287348 8.37940516,48.3599893 C8.30322874,50.9649749 8.30322874,50.5818889 8.76028721,71.1153057 C8.98881644,83.1442103 9.4458749,89.2735886 10.207639,90.7293158 C10.7408739,91.8785742 12.1882257,93.5641533 13.4070483,94.48356 C15.8446934,96.3223734 25.8999795,98.3144213 29.6326236,97.7781007 C30.9276227,97.5482491 37.0217355,97.0119284 43.1920247,96.5522251 Z" id="Shape"></path>
                                    <path d="M37.2502647,87.2049234 C36.564677,86.9750717 34.9649724,86.055665 33.7461499,85.1362583 C32.0702688,83.9869999 31.6132104,83.0675932 31.9179159,81.8417174 C32.1464452,80.9223108 31.9179159,78.9302629 31.3846812,77.4745356 C30.622917,75.252636 30.622917,74.7163154 31.6132104,74.1033776 C32.298798,73.6436742 33.2890914,73.4904398 33.8223263,73.7202914 C34.3555611,73.8735258 34.8126196,73.6436742 34.8126196,73.1839709 C34.8126196,72.6476502 33.9746791,72.4944158 32.8320329,72.7242675 C31.6893868,72.877502 30.7752698,72.877502 30.6990934,72.5710331 C30.5467406,71.9580951 30.0896821,61.2316834 30.0896821,59.6227217 C30.0896821,58.9331666 30.2420349,55.3321569 30.3943878,51.5779127 C30.8514463,39.472391 31.2323283,38.1698981 34.5840903,36.4077019 C35.8790894,35.7181468 36.4123242,34.7221228 36.4123242,33.1131611 C36.4123242,30.8912614 34.6602667,28.2862758 33.212915,28.2862758 C32.2226216,28.2862758 27.8043898,22.3867493 27.4996841,20.6245531 C27.271155,19.3220602 27.5758605,19.0155913 29.1755653,19.245443 C30.2420349,19.3220602 31.6132104,20.2414669 32.298798,21.2374909 C32.9843857,22.2335149 34.9649724,24.5320316 36.7170298,26.4474623 L39.8402627,29.8952376 L50.8096658,29.5887687 L61.7790689,29.2822998 L64.7499489,27.0604002 C66.5020064,25.68129 67.8731817,23.8424766 68.1778874,22.3867493 C68.4064166,21.1608737 69.2443571,19.8583808 69.9299448,19.7051464 C70.6155326,19.4752946 71.8343551,18.9389741 72.6722956,18.4792707 C73.5102361,18.0195673 74.3481766,17.8663329 74.6528823,18.1728018 C75.33847,18.8623568 72.5199428,23.9957111 69.8537684,27.0604002 C68.7111223,28.4395102 67.4922997,30.5847925 67.187594,31.8106683 L66.5781828,34.0325678 L69.777592,36.9440224 L72.9770013,39.9320943 L73.5102361,48.0535204 C73.8911181,53.1868745 73.7387653,56.9411187 73.2055305,58.3968461 C72.5961192,60.0058078 72.5961192,61.461535 73.2817069,63.453583 C73.8149417,64.9859275 74.2720002,69.506344 74.3481766,73.4904398 L74.5767059,80.6924591 L71.9867079,83.4506792 L69.3967099,86.2088994 L64.7499489,86.2855166 C62.159951,86.3621339 57.1323079,86.5153683 53.628193,86.5919855 C50.1240781,86.5919855 45.2487878,86.8984545 42.8111426,87.2049234 C40.3734976,87.5113923 37.859676,87.5113923 37.2502647,87.2049234 Z M55.0755448,82.5312725 C54.8470156,81.9183347 54.2376042,81.3820141 53.8567222,81.3820141 C53.3234874,81.3820141 53.3996638,81.8417174 54.009075,82.5312725 C54.5423099,83.2208276 55.1517212,83.7571481 55.304074,83.7571481 C55.4564269,83.7571481 55.3802505,83.2208276 55.0755448,82.5312725 Z M56.4467201,79.313349 C56.8276022,79.0834974 57.894072,79.2367318 58.8081889,79.6964352 C61.0934812,80.9223108 68.3302402,78.4705596 69.1681807,76.1720427 C70.0061212,74.0267603 69.5490627,67.3610615 68.4064166,65.2923964 C67.9493582,64.449607 66.3496536,63.1471141 64.8261253,62.3809419 C62.921715,61.461535 61.0934812,61.2316834 58.5796596,61.6147695 C56.2181909,61.9978557 54.7708391,61.8446212 54.3899571,61.2316834 C54.009075,60.6187456 53.4758402,60.6953628 52.4093704,61.6913868 C51.3429007,62.6107935 50.2002545,62.8406452 48.4481971,62.457559 C45.096435,61.6913868 37.478794,63.3769657 36.7170298,65.0625448 C36.0314422,66.5948893 35.8790894,67.514296 35.7267366,71.9580951 C35.6505601,74.3332293 35.2696781,75.1760187 34.0508554,75.4824876 C33.1367386,75.7123393 32.4511508,76.0954254 32.4511508,76.2486599 C32.4511508,76.4785116 32.9082093,77.1680667 33.5176207,77.7810045 C34.3555611,78.623794 34.7364432,78.623794 35.0411488,77.9342389 C35.1935017,77.3213011 36.0314422,77.5511527 37.5549704,78.7770285 L39.8402627,80.5392247 L47.7626094,80.1561385 C52.1808412,79.9262868 56.0658381,79.5432007 56.4467201,79.313349 Z M42.6587899,55.1789225 C43.5729068,54.4893674 44.4108474,53.1102574 44.4108474,52.1908507 C44.4108474,50.0455682 42.2017314,47.5938171 40.2973212,47.5938171 C38.2405581,47.5938171 35.6505601,50.4286544 35.6505601,52.650554 C35.6505601,56.2515636 39.2308514,57.5540565 42.6587899,55.1789225 Z M68.3302402,54.6426019 C69.2443571,52.0376162 68.4064166,49.2027787 66.2734772,47.8236687 C64.7499489,46.7510275 63.9120084,46.6744102 62.3884803,47.4405825 C58.3511304,49.279396 60.9411284,56.4047981 65.6640658,56.4047981 C66.9590648,56.4047981 67.8731817,55.7918603 68.3302402,54.6426019 Z" id="Shape"></path>
                                </g>
                            </g>
                        </g>
                    </g>
                </g>
            </g>
        </g>
    </g>
</svg>