<?xml version="1.0" encoding="UTF-8" standalone="yes"?>
<!DOCTYPE svg PUBLIC "-//W3C//DTD SVG 1.1//EN" "http://www.w3.org/Graphics/SVG/1.1/DTD/svg11.dtd">

<svg xmlns="http://www.w3.org/2000/svg" xmlns:xlink="http://www.w3.org/1999/xlink" width="200" height="200">

<circle cx="100" cy="100" r="100" fill="#427DBD"/>
<circle cx="100" cy="100" r="87.5" fill="#FFFFFF"/>

<path id="B" fill="#427DBD" d="M100,100 m 41.02 17.67 c 0 -13.55 -8.23 -21.39 -18.41 -22.78 l 0 -0.25 c 7.48 -1.37 15.26 -8.83 15.26 -18.71 c 0 -20.74 -19 -24.26 -34.57 -24.26 l -35.77 0 l 0 95.68 l 34.27 0 c 18.12 0 39.22 -5.57 39.22 -29.68 m -23.21 -38.9 c 0 11 -11.23 10.85 -18.41 10.85 l -10.62 0 l 0 -21.95 l 10.32 0 c 6.89 0 18.71 -0.28 18.71 11.1 m 1.95 38.34 c 0 12.48 -8.68 14.38 -18.55 14.38 l -12.43 0 l 0 -26.7 l 11.23 0 c 7.03 0.01 19.75 0.42  19.75 12.32"/>

</svg>
