<?xml version="1.0" encoding="UTF-8" standalone="yes"?>
<!DOCTYPE svg PUBLIC "-//W3C//DTD SVG 1.1//EN" "http://www.w3.org/Graphics/SVG/1.1/DTD/svg11.dtd">

<svg xmlns="http://www.w3.org/2000/svg" xmlns:xlink="http://www.w3.org/1999/xlink" width="200" height="200">

<circle cx="100" cy="100" r="100" fill="#FCD946"/>
<circle cx="100" cy="100" r="87.5" fill="#FFFFFF"/>

<path id="C" fill="#FCD946" d="M100,100 m 31.82 43.78 l -5.4 -16.5 c -4.87 2.86 -11.78 5.19 -19.37 5.19 c -15.16 0 -28.38 -11.73 -28.4 -31.77 c -0.01 -15.25 6.83 -32.75 26.84 -32.73 c 6.16 0 13.08 1.79 19.4 5.22 l 6.93 -17.59 c -6.96 -3.16 -15.65 -5.57 -27.53 -5.6 c -32.3 0 -47.75 24.41 -47.75 51.26 c 0.03 28.34 18.47 49.22 47.75 49.23 c 9.41 -0.03 20.57 -3.18 27.53 -6.71"/>

</svg>
