<?xml version="1.0" encoding="UTF-8" standalone="yes"?>
<!DOCTYPE svg PUBLIC "-//W3C//DTD SVG 1.1//EN" "http://www.w3.org/Graphics/SVG/1.1/DTD/svg11.dtd">

<svg xmlns="http://www.w3.org/2000/svg" xmlns:xlink="http://www.w3.org/1999/xlink" width="200" height="200">

<rect x="0" y="0" width="200" height="200" rx="35" fill="#E4B4D1"/>
<rect x="15" y="15" width="170" height="170" rx="20" fill="#ffffff"/>

<path id="L" fill="#E4B4D1" d="M100,100 m -33 46.29 l 20.59 0 l 0 -36.14 l 6.27 0 c 4.16 -0.04 7.39 1 9.68 3.12 c 2.29 2.12 4.02 5.99 5.18 11.61 c 1.37 5.67 2.59 10.32 3.66 13.93 c 1.08 3.61 1.99 6.11 2.74 7.48 l 21.27 0 c -0.91 -1.98 -2.02 -5.45 -3.34 -10.4 c -1.32 -4.95 -2.7 -10.12 -4.16 -15.51 c -1.13 -4.25 -2.66 -7.85 -4.6 -10.79 c -1.94 -2.94 -4.5 -5.07 -7.67 -6.39 l 0 -0.41 c 4.14 -1.46 7.83 -4.13 11.08 -7.99 c 3.25 -3.87 4.97 -8.75 5.15 -14.64 c -0.01 -4.23 -0.74 -7.94 -2.18 -11.15 c -1.44 -3.2 -3.53 -5.9 -6.27 -8.08 c -3.25 -2.57 -7.32 -4.42 -12.2 -5.56 c -4.89 -1.14 -10.73 -1.69 -17.52 -1.67 c -5.57 0.01 -10.73 0.19 -15.48 0.55 c -4.75 0.35 -8.82 0.81 -12.2 1.36 l 0 90.68 m 20.59 -76.5 c 0.73 -0.15 1.86 -0.3 3.37 -0.44 c 1.52 -0.15 3.53 -0.23 6.03 -0.24 c 4.81 0.07 8.55 1.16 11.22 3.29 c 2.66 2.13 4.02 5.3 4.06 9.53 c -0.04 4.07 -1.49 7.28 -4.36 9.63 c -2.87 2.35 -6.91 3.55 -12.14 3.6 l -8.18 0 l 0 -25.36"/>

</svg>
