<?xml version="1.0" encoding="UTF-8" standalone="yes"?>
<!DOCTYPE svg PUBLIC "-//W3C//DTD SVG 1.1//EN" "http://www.w3.org/Graphics/SVG/1.1/DTD/svg11.dtd">

<svg xmlns="http://www.w3.org/2000/svg" xmlns:xlink="http://www.w3.org/1999/xlink" width="200" height="200">

<circle cx="100" cy="100" r="100" fill="#050D9E"/>
<circle cx="100" cy="100" r="87.5" fill="#FFFFFF"/>

<path id="R1" fill="#050D9E" d="M50,100 m 23.76 -15.5 c 0 -13.5 -10 -19.75 -19.76 -19.75 l -18.74 0 c -3.5 0 -5.51 2.76 -5.51 5.75 l 0 58.74 c 0 3.52 3.51 5.26 6.75 5.26 c 3.74 0 6.75 -1.75 6.75 -5.26 l 0 -22.74 l 5.75 0 l 11.26 25.26 c 0.99 1.99 2.74 2.75 4.75 2.75 c 4 0 9.75 -3.75 7.5 -8.26 l -10.76 -22.5 c 6.5 -3.25 12.01 -9 12.01 -19.25 m -14 1.5 c 0 8.5 -7.75 10.49 -12.5 10.49 l -4.01 0 l 0 -20.24 l 4.75 0 c 6.26 0 11.76 2.75 11.76 9.75"/>
<path id="E" fill="#050D9E" d="M100,100 m21 28 c 0 -3.01 -2 -6.25 -5.49 -6.25 l -19.01 0 l 0 -17.25 l 15.76 0 c 3.49 0 5.49 -3 5.49 -5.75 c 0 -2.99 -1.99 -5.75 -5.49 -5.75 l -15.76 0 l 0 -15.76 l 17.51 0 c 3.49 0 5.49 -3.49 5.49 -6.24 c 0 -3 -2 -6.25 -5.49 -6.25 l -25.51 0 c -3.5 0 -5.5 2.76 -5.5 5.75 l 0 58.5 c 0 3.5 3.5 5.25 6.75 5.25 l 25.75 0 c 3.5 0 5.5 -3.49 5.5 -6.25"/>
<path id="R2" fill="#050D9E" d="M150,100 m 23.76 -15.5 c 0 -13.5 -10 -19.75 -19.76 -19.75 l -18.74 0 c -3.5 0 -5.51 2.76 -5.51 5.75 l 0 58.74 c 0 3.52 3.51 5.26 6.75 5.26 c 3.74 0 6.75 -1.75 6.75 -5.26 l 0 -22.74 l 5.75 0 l 11.26 25.26 c 0.99 1.99 2.74 2.75 4.75 2.75 c 4 0 9.75 -3.75 7.5 -8.26 l -10.76 -22.5 c 6.5 -3.25 12.01 -9 12.01 -19.25 m -14 1.5 c 0 8.5 -7.75 10.49 -12.5 10.49 l -4.01 0 l 0 -20.24 l 4.75 0 c 6.26 0 11.76 2.75 11.76 9.75"/>

</svg>
