<?xml version="1.0" standalone="no"?>
<!DOCTYPE svg PUBLIC "-//W3C//DTD SVG 20010904//EN"
 "http://www.w3.org/TR/2001/REC-SVG-20010904/DTD/svg10.dtd">
<svg version="1.0" xmlns="http://www.w3.org/2000/svg"
 width="1658.000000pt" height="1658.000000pt" viewBox="0 0 1658.000000 1658.000000"
 preserveAspectRatio="xMidYMid meet">
<metadata>
Created by potrace 1.11, written by Peter Selinger 2001-2013
</metadata>
<g transform="translate(0.000000,1658.000000) scale(0.100000,-0.100000)"
fill="#000000" stroke="none">
<path d="M6084 16570 c-17 -4 -78 -32 -135 -63 -111 -59 -227 -102 -298 -111
-67 -8 -112 -37 -144 -91 -38 -65 -89 -113 -189 -179 -96 -63 -114 -80 -162
-160 -58 -97 -122 -284 -151 -441 -18 -102 -45 -267 -49 -310 -10 -91 -16
-140 -20 -175 -9 -66 -21 -206 -31 -340 -3 -47 -7 -105 -10 -130 -2 -25 -7
-79 -11 -120 -3 -41 -8 -83 -9 -92 -2 -9 -6 -44 -10 -77 -3 -33 -8 -68 -10
-79 -2 -10 -6 -43 -10 -73 -4 -30 -8 -56 -10 -59 -10 -17 -29 -437 -40 -895
-4 -182 -15 -1182 -20 -1827 -4 -568 -10 -519 69 -497 21 6 47 13 57 15 33 7
53 12 81 19 l26 7 -18 -84 c-11 -45 -22 -99 -25 -118 -28 -171 -30 -187 -45
-350 -19 -225 -28 -357 -36 -550 -3 -85 -7 -184 -9 -220 -2 -36 -4 -102 -6
-148 l-2 -83 152 -155 c167 -169 248 -235 397 -318 209 -117 623 -262 919
-322 155 -31 249 -45 350 -50 153 -7 275 -31 275 -55 0 -44 415 -62 1410 -58
1453 4 1885 3 2100 -6 443 -18 652 -10 905 31 228 38 361 88 535 202 47 31 90
60 95 64 6 5 53 42 105 84 117 93 206 172 287 255 121 124 150 176 179 324 2
11 18 70 35 130 46 164 57 247 52 403 -10 289 -4 631 12 762 2 19 7 73 10 120
5 87 14 175 20 220 2 14 7 61 10 105 4 44 9 89 11 99 2 11 6 51 9 90 3 39 8
82 10 96 2 14 7 67 10 119 4 52 9 104 11 115 9 42 12 442 4 491 -4 28 -17 76
-29 108 -12 32 -25 84 -28 115 -14 115 -6 549 11 652 3 14 7 52 10 85 3 33 8
69 10 80 2 11 7 49 11 85 4 36 9 73 11 83 17 95 22 398 13 852 -4 213 6 282
56 390 13 28 26 68 30 90 10 67 6 214 -10 315 -11 77 -16 108 -19 135 -9 70
-61 299 -92 409 -47 163 -81 229 -156 305 -158 160 -427 343 -561 382 -25 7
-33 4 -55 -21 -34 -36 -84 -58 -142 -61 -70 -3 -79 -1 -106 26 -27 27 -79 38
-239 50 -44 3 -102 8 -130 10 -27 2 -99 7 -160 10 -60 3 -141 8 -180 10 -38 2
-144 7 -235 10 -91 4 -205 8 -255 10 -252 10 -685 18 -1070 19 -496 2 -495 1
-515 78 -7 24 -17 46 -24 50 -17 12 -71 9 -144 -7 -149 -32 -282 -40 -662 -40
-398 0 -540 9 -655 39 -49 14 -134 29 -225 41 -25 4 -56 8 -70 10 -24 3 -105
11 -215 20 -27 3 -90 7 -140 10 -49 3 -108 7 -130 10 -22 2 -70 7 -107 10 -37
3 -75 8 -86 10 -10 2 -43 6 -73 10 -100 12 -194 37 -224 60 -48 35 -68 42
-101 35z m976 -705 c102 -11 132 -14 175 -19 22 -3 72 -7 110 -11 39 -3 88 -8
110 -10 22 -3 72 -7 110 -10 66 -5 110 -8 245 -20 49 -4 88 -7 265 -20 498
-37 910 -43 2130 -31 517 5 618 0 683 -33 68 -35 173 -49 420 -56 86 -3 168
-7 182 -10 14 -2 45 -7 70 -10 182 -24 375 -111 483 -219 90 -91 130 -164 142
-262 4 -27 8 -60 11 -74 5 -30 14 -186 19 -335 10 -274 4 -1553 -10 -2040 -3
-104 -7 -271 -10 -370 -3 -99 -7 -232 -10 -295 -2 -63 -7 -185 -10 -270 -3
-85 -8 -186 -10 -225 -2 -38 -7 -117 -10 -175 -3 -58 -8 -123 -10 -145 -2 -22
-7 -80 -10 -130 -4 -49 -9 -103 -11 -120 -2 -16 -6 -77 -9 -135 -4 -58 -8
-130 -10 -160 -3 -30 -7 -116 -11 -190 -3 -74 -7 -171 -9 -215 -6 -126 -6
-396 0 -558 l5 -147 -117 -178 c-142 -214 -230 -308 -343 -365 -160 -80 -349
-103 -665 -82 -66 4 -138 9 -160 10 -52 3 -331 17 -415 20 -36 2 -139 6 -230
9 -91 4 -203 9 -250 11 -47 2 -168 7 -270 10 -102 3 -232 8 -290 10 -243 10
-893 31 -1223 40 -364 10 -560 15 -687 20 -74 3 -205 7 -290 10 -85 3 -200 7
-255 10 -55 3 -145 7 -200 10 -321 16 -546 35 -670 57 -195 34 -353 145 -625
438 l-50 55 5 225 c4 124 8 272 10 330 2 58 6 204 10 325 3 121 8 272 10 335
2 63 7 221 10 350 4 129 9 282 11 340 2 58 5 305 8 550 5 411 9 661 21 1155 2
105 7 303 10 440 6 327 14 612 21 755 9 209 14 314 18 365 3 28 7 88 11 135 3
47 8 96 10 110 3 14 7 45 10 70 18 161 66 253 204 391 97 97 156 132 317 185
96 32 305 85 384 98 19 3 46 8 60 11 14 3 43 7 65 10 22 3 51 7 65 10 49 10
107 15 210 21 58 4 106 8 108 9 2 2 18 2 35 0 18 -2 61 -6 97 -10z"/>
<path d="M7758 15075 c-2 -1 -25 -5 -53 -9 -110 -13 -372 -177 -447 -280 l-30
-41 7 -105 c8 -122 -3 -203 -45 -340 -42 -137 -46 -179 -20 -213 42 -53 155
-90 210 -69 45 17 88 -15 73 -54 -5 -14 -57 -31 -76 -26 -25 7 -189 14 -210 8
-28 -7 -33 -30 -42 -231 -3 -60 -8 -146 -10 -190 -24 -439 -24 -647 0 -1175 2
-41 6 -145 10 -230 23 -564 63 -761 173 -866 20 -20 69 -54 107 -77 135 -79
167 -126 171 -254 2 -61 -2 -97 -16 -138 -47 -136 -121 -225 -207 -246 -36
-10 -61 -26 -109 -73 -114 -113 -284 -352 -330 -465 -26 -63 -31 -133 -11
-150 37 -30 155 -15 234 30 55 32 74 51 260 274 64 77 122 145 127 151 6 6 54
57 106 115 52 57 122 133 155 169 l60 65 80 -1 c77 -1 480 -12 710 -19 61 -2
225 -6 365 -10 140 -4 296 -9 345 -10 50 -2 113 -4 141 -4 49 -1 58 -6 190
-104 206 -154 309 -274 348 -403 39 -131 91 -216 142 -228 15 -4 84 -34 154
-67 126 -59 189 -74 212 -51 46 46 -137 391 -342 647 -152 190 -207 293 -260
490 l-21 79 39 36 c21 19 61 55 88 79 51 46 205 189 307 284 65 60 59 40 72
247 4 58 8 125 10 150 1 25 6 92 10 150 3 58 8 123 11 145 9 92 12 556 3 630
-5 44 -21 120 -35 169 -37 125 -35 198 9 366 20 74 38 160 42 191 3 31 7 65 9
75 2 11 7 57 11 104 4 47 9 102 11 124 4 44 11 221 20 516 3 113 7 230 8 260
l2 55 -70 75 c-39 41 -101 106 -137 145 -37 38 -96 100 -130 137 l-64 67 -300
6 c-165 4 -354 8 -420 10 -66 2 -239 6 -385 10 -373 8 -663 20 -735 30 -16 2
-66 7 -110 10 -43 4 -88 9 -100 11 -11 3 -78 7 -150 10 -71 3 -138 7 -147 8
-9 2 -18 3 -20 1z m1280 -332 c-25 -91 -115 -170 -134 -118 -8 19 15 53 76
117 55 57 74 57 58 1z m-1023 -208 c88 -3 185 -8 215 -10 30 -2 120 -7 200
-10 80 -4 163 -8 185 -10 186 -13 243 -17 265 -20 14 -2 54 -7 90 -10 36 -4
88 -12 115 -18 62 -13 137 -13 173 2 74 29 88 34 107 38 180 35 547 -81 686
-217 77 -75 84 -108 84 -365 -1 -175 -6 -237 -30 -370 -21 -109 -60 -190 -116
-242 -23 -21 -47 -43 -54 -50 -6 -6 -38 -28 -70 -48 -129 -83 -252 -123 -385
-126 -62 -1 -211 11 -223 18 -5 3 -50 7 -100 8 -104 4 -154 -9 -197 -50 -35
-33 -59 -28 -130 30 -98 80 -176 97 -320 71 -76 -14 -261 -14 -355 -1 -214 29
-451 104 -519 164 -26 23 -52 78 -70 147 -19 75 -25 129 -32 284 -14 339 -25
367 -146 409 -30 10 -69 26 -86 35 -32 17 -32 17 -16 47 24 47 119 139 143
139 11 0 30 -13 43 -30 29 -40 53 -38 124 8 67 43 230 168 239 183 4 5 9 7 13
5 4 -2 79 -7 167 -11z m-120 -1861 c158 -41 278 -157 299 -289 13 -81 -50
-215 -138 -291 -92 -81 -184 -97 -282 -49 -77 38 -172 136 -214 222 -29 59
-34 78 -34 143 1 206 159 319 369 264z m2035 -1 c84 -34 130 -118 138 -254 10
-188 -71 -329 -241 -420 -76 -40 -137 -42 -218 -6 -146 65 -204 192 -163 359
36 148 141 269 277 319 61 22 155 23 207 2z"/>
<path d="M2503 7608 c-16 -20 -23 -48 -13 -48 14 0 40 30 40 46 0 17 -14 18
-27 2z"/>
<path d="M3040 7598 c0 -7 7 -22 15 -32 31 -40 13 -128 -24 -121 -11 2 -25 -3
-32 -11 -6 -8 -20 -14 -29 -14 -46 0 -50 -9 -50 -94 l0 -83 -32 3 c-18 2 -50
-4 -70 -13 -54 -23 -79 -12 -111 49 -38 73 -58 95 -109 118 -23 11 -56 30 -71
42 l-28 23 -35 -38 c-19 -20 -40 -37 -45 -37 -19 0 5 -192 27 -225 21 -29 17
-96 -9 -156 -24 -56 -26 -73 -13 -126 4 -18 3 -56 -3 -85 -11 -60 -18 -110
-27 -220 l-6 -78 39 0 c21 0 49 -7 63 -15 51 -30 112 -55 167 -69 77 -20 85
-31 49 -63 -30 -25 -36 -26 -115 -9 -58 13 -89 28 -94 46 -7 29 -35 35 -58 14
-46 -41 -56 -85 -65 -271 -6 -124 -5 -133 12 -139 37 -11 49 -21 52 -43 3 -20
15 -25 58 -22 28 3 37 -24 20 -57 -8 -15 -15 -50 -17 -77 -1 -28 -10 -64 -20
-80 -10 -17 -20 -59 -23 -93 -3 -35 -10 -81 -16 -102 -8 -31 -8 -46 3 -67 11
-21 13 -43 7 -85 -9 -66 -37 -110 -80 -128 -37 -15 -34 -32 16 -101 53 -72 62
-104 62 -208 0 -88 2 -95 26 -115 16 -14 26 -33 28 -56 3 -32 6 -35 36 -38 30
-3 33 -6 28 -27 -7 -26 7 -40 49 -51 17 -4 35 -10 40 -14 6 -4 45 -22 89 -39
l78 -31 32 35 c32 34 66 46 66 23 0 -6 -7 -19 -15 -28 -25 -28 -8 -47 54 -59
72 -14 157 -56 178 -87 20 -31 28 -30 31 2 4 53 24 56 108 19 52 -23 58 -24
90 -10 39 16 33 15 83 15 29 0 47 8 72 30 28 25 40 30 68 26 49 -7 81 -32 81
-62 0 -24 3 -26 28 -19 34 9 187 10 265 1 49 -5 65 -2 107 19 63 32 69 31 103
-5 16 -17 41 -33 55 -36 35 -9 52 -23 63 -52 8 -21 14 -23 51 -19 26 3 54 -1
74 -10 22 -11 41 -13 60 -8 16 5 37 8 46 8 20 0 128 -63 128 -74 0 -4 7 -14
15 -23 14 -14 21 -13 73 6 31 12 73 32 92 45 41 27 55 28 94 8 32 -17 82 -20
91 -5 9 15 52 12 69 -5 26 -27 171 -46 238 -32 18 4 48 -5 94 -27 62 -29 66
-33 50 -48 -19 -19 -15 -23 35 -32 30 -5 39 -2 57 19 23 27 48 33 54 13 2 -6
10 3 16 20 7 18 17 45 23 61 6 16 24 36 42 44 27 14 33 14 53 0 25 -16 88 -15
115 1 12 7 33 4 70 -11 69 -26 90 -18 131 48 21 33 46 58 73 71 22 12 50 31
62 44 15 16 33 24 56 24 50 0 60 -18 52 -94 -6 -62 -5 -66 20 -82 25 -16 88
-16 172 0 27 6 53 -17 53 -45 0 -10 9 -28 20 -39 36 -36 120 -19 120 25 0 18
40 45 60 41 8 -2 30 -10 49 -18 25 -12 44 -13 75 -6 46 10 61 -1 72 -58 6 -34
36 -73 57 -75 7 0 20 -2 31 -4 11 -2 20 3 23 15 8 29 31 32 81 9 49 -23 45
-23 109 18 20 13 23 12 34 -8 l12 -23 9 23 c7 19 12 22 31 15 35 -13 287 -14
314 -1 19 8 29 8 46 -3 15 -9 57 -15 127 -16 66 -1 138 -10 193 -23 49 -12 91
-21 93 -21 2 0 2 11 -2 25 -5 19 -2 25 11 25 14 0 15 -3 5 -15 -19 -23 3 -18
44 10 46 31 69 31 149 1 46 -17 75 -22 108 -18 111 14 172 1 152 -32 -4 -6 1
-6 13 -2 10 5 36 9 57 11 21 1 40 5 43 7 11 12 100 -14 122 -34 l23 -23 -9 25
c-14 37 -6 110 17 161 11 24 21 55 21 69 0 14 10 41 22 60 l22 35 6 -37 c4
-20 12 -44 19 -52 15 -18 19 -40 25 -140 6 -91 28 -143 72 -168 44 -26 150
-37 266 -30 57 4 183 6 280 5 147 -1 185 -4 230 -20 62 -23 153 -30 173 -13
18 15 45 6 45 -15 0 -19 4 -19 41 1 23 11 29 20 24 35 -4 13 -2 19 9 19 9 0
16 -5 16 -10 0 -23 69 -36 258 -45 84 -5 102 -3 102 9 0 37 91 35 153 -4 26
-16 48 -27 48 -25 1 3 2 10 3 17 2 17 22 20 35 5 8 -11 22 -12 52 -7 54 10 66
22 51 55 -11 23 -9 27 21 45 17 11 40 19 49 16 15 -3 17 3 15 51 -1 42 2 58
15 66 21 14 55 -10 38 -27 -15 -15 -12 -46 4 -46 7 0 31 6 52 13 43 15 151 12
171 -5 7 -5 15 -20 19 -31 4 -12 15 -34 26 -50 16 -23 25 -26 55 -23 19 3 38
7 41 10 3 3 11 1 18 -5 7 -5 32 -10 56 -11 59 -1 210 -28 225 -40 15 -12 58
-3 91 18 12 8 36 43 52 78 37 77 73 121 93 113 12 -5 15 1 11 26 -2 18 -6 53
-9 79 -8 59 4 81 58 107 47 23 145 29 164 10 8 -8 11 -6 10 7 -2 15 5 19 28
19 28 0 30 -3 33 -41 2 -29 -7 -68 -28 -124 -45 -116 -46 -129 -9 -202 36 -72
64 -110 73 -101 3 3 6 24 6 45 0 31 5 41 25 50 18 8 29 24 36 54 12 45 44 88
60 79 14 -9 11 -83 -6 -115 -9 -16 -18 -50 -22 -75 l-6 -45 57 -26 c31 -14 63
-23 71 -20 8 3 23 23 35 45 14 28 25 39 35 35 8 -4 15 -10 15 -15 0 -5 12 -14
26 -20 37 -13 81 3 126 47 l37 35 49 -50 48 -51 101 0 c59 0 120 -6 148 -15
27 -8 51 -12 53 -10 2 2 -7 7 -22 11 -32 8 -34 31 -4 36 18 2 24 12 30 47 4
24 15 55 24 69 13 20 14 28 4 48 -11 19 -10 27 4 48 35 55 77 56 177 5 88 -44
132 -105 143 -199 18 -154 27 -169 110 -186 15 -3 88 30 115 52 2 1 4 28 6 59
2 60 14 76 46 68 25 -7 79 -69 79 -91 0 -18 47 -59 65 -57 6 1 37 7 70 14 50
11 63 18 73 39 7 15 32 40 57 57 46 31 65 65 65 116 0 16 5 29 10 29 6 0 16
11 22 25 9 20 8 28 -5 43 -15 17 -16 49 -3 71 3 4 8 69 11 142 2 74 7 154 10
179 15 125 19 134 60 144 23 6 25 11 26 69 1 65 2 73 13 172 8 78 13 100 30
158 13 44 13 48 -4 60 -22 16 -10 36 36 60 23 12 41 37 71 99 23 46 43 91 46
100 8 23 -16 40 -50 35 -62 -9 -74 17 -49 107 19 65 46 205 46 234 0 26 52 78
97 97 34 14 44 41 19 51 -25 10 -27 35 -5 70 23 38 20 50 -16 56 -20 4 -30 -1
-47 -26 -12 -17 -23 -33 -24 -34 -1 -2 -12 -1 -24 3 -17 6 -20 12 -15 33 3 14
17 39 31 55 26 31 26 28 28 109 l2 57 -45 14 c-104 33 -111 31 -125 -28 -4
-16 -22 -52 -40 -80 -46 -71 -56 -100 -71 -191 -11 -68 -21 -91 -59 -147 -50
-73 -100 -168 -109 -208 -8 -32 -50 -51 -92 -43 -74 14 -77 13 -129 -41 l-51
-52 -71 4 c-86 6 -105 -7 -80 -56 32 -62 22 -91 -50 -151 -44 -36 -52 -56 -43
-104 11 -55 11 -86 0 -86 -19 0 -191 189 -191 210 0 43 57 116 99 125 36 8 90
60 97 93 3 15 7 36 10 47 2 11 11 50 19 87 22 102 52 156 127 229 37 36 68 74
68 84 0 10 -16 32 -35 51 -29 27 -34 37 -29 63 4 16 15 38 25 47 18 17 21 17
55 0 20 -9 38 -15 41 -13 18 19 -15 177 -37 177 -21 0 -32 75 -25 169 8 111 0
127 -43 92 -117 -92 -154 -103 -197 -54 -13 15 -25 31 -25 36 0 13 -54 92 -70
102 -43 29 -90 21 -102 -16 -2 -7 -17 -12 -32 -13 -49 -2 -53 -25 -22 -105 25
-62 27 -74 16 -100 -13 -32 -31 -44 -55 -35 -13 5 -55 100 -55 126 0 26 -25
78 -38 78 -17 0 -72 -28 -97 -50 -52 -46 -95 -32 -95 30 0 40 10 65 48 118
l23 32 -23 9 c-23 8 -173 6 -259 -3 -27 -4 -67 0 -95 9 -27 8 -64 17 -83 20
-50 9 -94 29 -132 62 -46 41 -72 47 -110 28 -24 -13 -68 -18 -178 -21 -199 -6
-211 -11 -291 -116 -41 -54 -78 -79 -129 -85 -52 -7 -95 -29 -120 -63 -17 -24
-29 -30 -61 -30 -57 0 -86 -14 -145 -73 l-53 -54 -67 2 c-37 2 -71 7 -77 13
-25 25 59 102 110 102 33 0 57 15 113 68 33 33 49 57 53 80 6 43 -16 95 -46
108 -13 6 -52 25 -88 42 -93 43 -176 72 -210 72 -21 0 -38 -9 -57 -30 -14 -17
-51 -41 -80 -55 -48 -22 -70 -24 -125 -16 -5 0 -8 10 -8 21 0 25 -15 25 -48 0
-28 -23 -68 -20 -111 7 -41 26 -131 -3 -131 -43 0 -38 -72 -36 -158 3 -56 26
-82 27 -177 8 -66 -14 -122 -11 -167 6 -41 16 -55 17 -98 7 -27 -6 -53 -8 -57
-5 -15 15 35 63 82 78 27 8 50 20 52 25 2 6 -10 26 -27 45 -16 19 -34 49 -39
66 -11 40 -33 63 -60 63 -24 0 -31 -11 -38 -53 -2 -18 -10 -50 -18 -72 -15
-48 -12 -134 6 -145 20 -13 19 -41 -1 -70 -11 -15 -22 -41 -25 -58 -4 -26 0
-35 37 -65 l42 -35 -47 -51 c-26 -27 -47 -55 -47 -60 0 -6 10 -31 22 -56 l22
-45 -27 -28 -27 -28 27 -26 26 -26 -18 -54 c-9 -29 -36 -83 -58 -120 -52 -84
-87 -102 -164 -86 -48 11 -54 61 -23 206 13 58 51 112 80 112 38 0 70 22 75
54 8 40 2 95 -14 123 -25 48 -104 42 -155 -12 -18 -19 -40 -35 -49 -35 -15 0
-82 65 -113 108 -18 25 -13 36 53 126 44 62 51 92 33 141 -6 15 -13 50 -16 78
-3 29 -14 83 -26 120 -16 53 -27 71 -49 82 -42 22 -64 18 -104 -17 -36 -31
-37 -31 -88 -18 -85 22 -197 21 -246 -1 -46 -20 -96 -25 -106 -10 -3 6 -29 7
-58 4 -74 -7 -116 -7 -167 2 -111 19 -127 13 -147 -50 -9 -29 -11 -30 -69 -28
-47 2 -141 10 -174 15 -13 2 -40 -15 -40 -27 0 -28 -40 -48 -109 -53 -38 -2
-81 -2 -95 2 -23 6 -25 9 -16 26 6 11 15 20 20 20 5 0 21 5 36 10 34 13 22 27
-31 32 -22 3 -50 10 -62 16 -30 17 -31 16 -39 -22 -4 -26 -14 -38 -39 -50 -18
-9 -42 -16 -53 -16 -28 0 -46 24 -34 47 5 10 12 30 16 44 6 28 -4 34 -69 46
-87 15 -186 38 -233 53 -104 34 -142 35 -181 6 -19 -14 -37 -26 -39 -26 -2 0
-2 14 0 31 l3 32 -115 33 c-63 18 -125 36 -137 40 -19 5 -23 2 -23 -15 0 -32
-34 -43 -139 -42 -144 1 -160 7 -161 61 -1 44 -15 56 -51 43 -28 -11 -32 -10
-36 7 -6 22 -52 43 -84 38 -14 -2 -30 -17 -44 -43 -11 -22 -33 -52 -48 -67
-15 -15 -27 -33 -28 -40 -1 -28 -10 -63 -17 -70 -12 -12 -51 3 -56 21 -11 35
-9 97 4 117 8 12 10 29 6 40 -7 19 -8 19 -21 0 -8 -10 -29 -34 -47 -54 -18
-20 -42 -54 -53 -76 -20 -40 -58 -68 -107 -80 -22 -5 -28 -2 -34 16 -16 46
-13 70 12 133 5 14 -5 10 -37 -17 -24 -21 -51 -44 -60 -52 -12 -10 -15 -23
-10 -52 8 -41 -4 -94 -20 -94 -5 0 -15 12 -21 26 -10 21 -9 31 5 56 22 38 22
58 0 58 -27 0 -37 -11 -62 -65 -13 -27 -41 -66 -63 -86 -51 -46 -46 -63 24
-84 56 -16 86 -31 78 -39 -3 -2 -32 -25 -64 -50 -60 -46 -89 -49 -67 -8 18 34
13 40 -43 56 -34 10 -62 26 -75 42 -27 34 -27 64 -2 64 10 0 46 18 79 40 45
30 62 48 67 71 9 41 -6 56 -66 61 -27 3 -56 11 -62 17 -7 7 -12 40 -11 79 0
89 6 117 28 141 19 21 19 21 -1 21 -50 0 -68 -67 -72 -270 -1 -35 -1 -36 -43
-34 -24 1 -70 6 -103 10 -57 8 -74 8 -174 2 -32 -2 -46 1 -54 14 -14 21 13 55
46 60 39 6 43 47 11 112 -47 96 -104 120 -104 44 0 -24 -6 -32 -35 -44 -39
-16 -81 -18 -89 -5 -8 12 32 61 49 61 15 0 48 41 40 49 -3 2 -13 -3 -23 -12
-17 -16 -23 -16 -70 -2 -31 10 -60 26 -76 45 -20 25 -32 30 -69 30 -54 0 -72
-18 -82 -80 -4 -25 -14 -57 -21 -72 -14 -27 -14 -27 -61 -13 -25 8 -51 11 -56
8 -9 -5 -27 14 -27 30 0 4 13 7 29 7 23 0 32 7 45 34 9 19 13 41 10 50 -6 15
-10 14 -38 -3 -22 -14 -36 -17 -46 -11 -8 6 -18 10 -22 10 -4 0 -19 -37 -33
-82 -26 -87 -57 -148 -75 -148 -6 0 -24 -10 -40 -21 -35 -27 -54 -21 -76 26
-17 36 -62 86 -105 116 -21 15 -22 19 -11 44 11 23 11 30 0 36 -21 14 -54 10
-110 -12 -29 -11 -55 -21 -57 -21 -12 0 -18 28 -11 48 15 38 -10 55 -104 71
-52 8 -228 2 -277 -10 -15 -4 -44 -1 -65 7 -31 10 -45 11 -69 1 -16 -7 -57
-11 -90 -10 -33 2 -76 3 -96 4 -29 1 -41 8 -68 44 -44 59 -79 78 -140 76 -40
-2 -59 4 -90 24 -43 29 -81 35 -81 15z m-10 -255 c0 -10 -32 -43 -42 -43 -13
0 -9 17 8 34 16 16 34 21 34 9z m2645 -313 c0 -18 -33 -26 -47 -12 -6 6 -7 15
-3 22 10 16 50 8 50 -10z m8666 -876 c46 -23 19 -64 -35 -50 -35 9 -44 33 -20
51 24 18 19 18 55 -1z m-4769 -496 c30 -24 31 -54 2 -77 -34 -26 -50 -27 -64
-1 -17 31 6 90 34 90 7 0 19 -6 28 -12z m4 -120 c7 -12 -96 -118 -115 -118
-17 0 1 35 42 85 38 45 60 55 73 33z m-356 -257 c0 -12 -20 -25 -27 -18 -7 7
6 27 18 27 5 0 9 -4 9 -9z m-73 -63 c18 -7 33 -14 33 -18 -1 -3 -18 -17 -40
-32 -43 -30 -58 -67 -42 -103 15 -33 -6 -60 -40 -52 -23 6 -25 11 -27 73 -2
65 -1 68 35 105 44 45 38 43 81 27z m-81 -285 c3 -16 15 -46 25 -69 25 -53 24
-81 -3 -95 -18 -10 -24 -8 -39 12 -16 20 -27 58 -32 104 0 6 3 25 7 43 9 39
33 42 42 5z m5164 -162 c0 -5 -7 -14 -15 -21 -16 -14 -18 -10 -9 14 6 17 24
22 24 7z m-10505 -282 c10 -15 -1 -23 -20 -15 -9 3 -13 10 -10 16 8 13 22 13
30 -1z m7649 -358 c9 -14 -2 -35 -25 -49 -28 -18 -31 -12 -18 26 11 31 32 42
43 23z"/>
<path d="M4400 7409 c0 -6 14 -22 31 -36 24 -20 29 -31 24 -52 -7 -33 14 -65
38 -55 9 3 17 13 17 21 0 9 6 13 15 9 16 -6 48 21 43 36 -3 9 -45 35 -118 75
-30 16 -50 17 -50 2z"/>
<path d="M6040 7271 c0 -4 12 -7 26 -5 38 4 42 14 6 14 -18 0 -32 -4 -32 -9z"/>
<path d="M10130 6936 c0 -31 18 -78 33 -88 27 -17 88 -8 112 16 38 38 24 58
-35 51 -42 -5 -51 -3 -74 19 -31 32 -36 32 -36 2z"/>
<path d="M14111 6191 c-17 -16 -31 -34 -31 -39 0 -12 28 -42 39 -42 22 0 62
73 54 98 -7 20 -29 14 -62 -17z"/>
<path d="M2410 5801 c0 -5 7 -14 15 -21 16 -14 18 -10 9 14 -6 17 -24 22 -24
7z"/>
<path d="M13795 5741 c-27 -11 -47 -74 -31 -95 13 -18 88 -46 121 -46 23 0 44
32 40 60 -5 25 -23 68 -32 73 -18 11 -79 16 -98 8z"/>
<path d="M13650 5620 c-8 -15 -8 -20 3 -20 14 0 37 19 37 32 0 16 -30 7 -40
-12z"/>
<path d="M2432 4741 c2 -7 7 -12 11 -12 12 1 9 15 -3 20 -7 2 -11 -2 -8 -8z"/>
<path d="M11772 4033 c-10 -15 -23 -39 -27 -53 -4 -15 6 -5 25 24 33 52 36 76
2 29z"/>
<path d="M12611 3932 c-14 -12 -13 -13 9 -8 14 3 33 6 43 6 10 0 16 4 12 9 -8
13 -44 9 -64 -7z"/>
<path d="M7810 3580 c-14 -22 -30 -41 -37 -41 -7 -1 -19 -2 -25 -3 -7 -1 -21
1 -30 6 -10 5 -58 11 -107 13 l-90 5 -25 -33 c-42 -55 -36 -65 46 -73 29 -3
54 -7 57 -9 2 -3 -3 -15 -12 -28 -20 -30 -157 -177 -166 -177 -3 0 -13 5 -21
10 -13 8 -13 13 3 39 23 39 22 41 -11 29 -37 -14 -95 -3 -129 26 -54 45 -67
47 -96 20 -15 -14 -47 -33 -72 -44 -39 -17 -61 -40 -37 -40 12 0 44 -151 40
-190 -3 -30 -6 -35 -27 -32 -14 1 -40 -5 -59 -14 -41 -19 -102 -13 -143 16
l-29 21 0 -25 c0 -31 -5 -32 -64 -6 -25 12 -58 19 -73 16 -16 -2 -33 -5 -40
-5 -7 -1 -27 -14 -45 -30 -96 -85 -109 -94 -120 -83 -14 14 -19 141 -7 164 5
10 16 18 24 18 17 0 39 36 30 50 -4 6 -21 16 -39 24 -18 7 -52 34 -76 60 -47
50 -65 55 -30 9 17 -24 19 -34 11 -56 -6 -15 -21 -31 -34 -36 -13 -5 -40 -26
-61 -47 l-38 -38 -18 24 c-10 13 -16 34 -14 47 2 13 6 35 9 49 2 15 -7 59 -21
98 -14 39 -27 91 -30 116 -5 40 -24 70 -46 70 -4 0 -14 -13 -23 -30 -8 -16
-28 -36 -44 -44 -15 -8 -36 -27 -46 -43 -28 -42 -56 -62 -99 -69 -23 -4 -52
-19 -69 -36 -17 -15 -39 -28 -49 -28 -32 0 -77 -29 -83 -53 -3 -12 -2 -44 3
-72 4 -27 6 -60 3 -73 -6 -22 -60 -62 -84 -62 -25 0 -57 -41 -63 -80 -7 -43
-25 -51 -65 -30 -32 18 -37 -17 -6 -46 35 -32 42 -60 22 -90 -11 -18 -14 -35
-9 -62 l7 -37 -49 44 c-72 66 -85 83 -78 100 20 49 17 58 -24 64 -52 9 -68 28
-42 50 17 15 19 25 14 75 -3 31 -17 82 -31 112 -32 72 -36 120 -12 156 25 38
24 85 -1 117 -28 35 -25 52 12 68 17 7 27 14 20 17 -6 2 -31 -6 -56 -17 -58
-27 -70 -26 -95 5 l-20 26 2 -29 c1 -15 -2 -28 -8 -28 -23 0 -58 36 -70 71
-14 41 -35 57 -35 27 -1 -34 -77 -103 -113 -103 -12 0 -37 15 -57 34 -43 41
-107 67 -136 56 -12 -5 -40 -4 -64 2 -41 11 -42 10 -86 -33 -42 -41 -46 -43
-59 -26 -7 10 -12 28 -9 40 7 41 -10 51 -84 51 -47 0 -78 -6 -95 -17 -18 -11
-42 -15 -88 -13 -41 2 -89 -3 -132 -16 l-69 -19 -34 31 c-19 16 -38 30 -42 30
-4 0 -25 -11 -47 -25 -22 -13 -63 -35 -91 -48 -37 -18 -55 -34 -68 -61 -9 -20
-21 -36 -26 -36 -20 0 -9 59 15 88 14 17 25 31 25 33 0 6 -272 1 -353 -5 -80
-7 -87 -10 -87 -39 -1 -68 -26 -88 -71 -56 -28 20 -31 20 -49 4 -11 -10 -35
-17 -56 -17 -25 0 -49 -9 -70 -25 -18 -13 -48 -28 -67 -34 -19 -5 -52 -23 -72
-39 -22 -18 -50 -30 -66 -30 -16 0 -32 0 -36 -1 -14 -1 -43 -32 -43 -45 0 -19
-44 -39 -130 -58 -41 -10 -91 -26 -111 -37 -20 -10 -46 -19 -58 -19 -26 0 -27
-12 -1 -35 21 -19 21 -45 -1 -112 -9 -27 -17 -33 -47 -38 -94 -15 -182 -51
-214 -88 -12 -13 -18 -37 -18 -71 0 -53 -20 -96 -45 -96 -28 0 -25 -21 4 -31
46 -16 57 -43 29 -69 -13 -12 -40 -30 -60 -41 -61 -31 -72 -57 -65 -151 7 -84
17 -108 48 -108 17 0 41 -29 38 -47 -5 -32 3 -53 21 -53 27 0 43 -41 30 -77
-25 -69 -30 -73 -86 -73 -40 0 -52 -3 -48 -13 24 -63 1 -175 -51 -242 -28 -38
-26 -53 15 -90 34 -31 42 -61 26 -100 -8 -19 -16 -60 -17 -92 -1 -32 -8 -74
-14 -93 -13 -38 -12 -119 3 -172 17 -65 3 -197 -29 -260 -11 -21 -19 -39 -19
-41 0 -2 21 -5 46 -5 60 -3 138 -37 171 -76 26 -31 27 -31 122 -32 53 -1 108
-7 123 -12 21 -9 37 -8 70 5 26 9 77 16 128 16 72 1 91 -2 123 -22 36 -22 43
-23 140 -15 125 9 458 10 707 1 208 -8 211 -8 296 -31 91 -24 125 -21 169 14
31 25 41 28 53 18 20 -17 99 -19 112 -2 9 9 7 22 -6 50 -26 54 1 85 61 70 35
-9 57 -34 46 -54 -10 -21 -4 -43 17 -59 25 -20 34 -16 87 32 63 57 78 62 111
36 16 -12 41 -21 62 -21 19 0 49 -8 66 -19 28 -17 50 -22 164 -37 79 -10 102
-15 175 -34 92 -24 200 -66 298 -116 82 -41 85 -40 126 43 38 79 97 101 177
68 32 -14 43 -14 94 0 73 18 142 24 170 14 21 -8 21 -9 5 -37 -23 -40 -12 -62
31 -62 18 0 44 -8 57 -19 22 -17 22 -21 10 -61 -10 -35 -10 -44 1 -51 17 -11
25 -11 47 0 11 6 37 4 75 -7 l59 -16 22 28 c19 24 27 27 53 21 17 -3 43 -16
58 -27 17 -14 44 -22 78 -24 28 -2 85 -6 126 -10 41 -4 208 -9 370 -10 435 -5
819 -12 871 -17 31 -3 58 1 84 13 44 20 62 17 89 -17 18 -23 21 -24 140 -19
162 7 201 13 246 36 49 25 50 25 50 -3 0 -27 28 -57 53 -57 9 0 19 -5 22 -10
7 -12 30 -1 63 30 14 13 22 32 22 54 0 37 12 51 53 61 20 5 33 2 47 -10 11
-10 37 -21 58 -24 29 -5 38 -11 40 -29 6 -40 62 -62 98 -39 7 4 15 27 18 52 4
24 12 47 17 51 5 3 29 -2 54 -11 49 -19 82 -13 135 25 21 15 39 19 67 16 21
-3 57 -8 81 -11 23 -2 58 -11 77 -19 49 -21 116 -29 145 -18 14 5 43 26 65 47
66 61 104 66 105 13 0 -29 69 -66 145 -78 87 -14 96 -21 84 -63 -22 -70 -14
-197 11 -197 6 0 10 14 10 30 0 38 39 80 73 80 13 0 41 14 62 30 44 35 90 39
170 14 41 -12 96 -14 316 -10 146 3 289 8 316 12 68 9 93 -14 93 -84 0 -64 10
-73 65 -57 24 8 51 12 62 10 10 -2 25 -4 34 -4 9 -1 28 -12 42 -25 25 -24 58
-27 140 -17 4 1 7 11 7 24 1 35 36 104 58 111 27 9 35 33 22 71 -6 18 -12 75
-14 126 -3 81 -1 97 17 121 24 32 16 49 -12 24 -17 -16 -19 -15 -34 16 -8 18
-18 71 -21 117 -6 86 -8 90 -79 205 -22 35 -29 59 -30 103 -2 57 -2 58 35 75
64 31 82 94 65 227 -4 30 -10 64 -12 75 -19 90 -18 94 42 161 59 65 81 76 102
51 9 -11 10 -20 1 -35 -11 -22 -3 -48 26 -81 7 -8 17 -34 22 -58 9 -39 7 -49
-34 -133 -24 -50 -44 -94 -44 -98 0 -4 11 -13 24 -19 34 -15 27 -62 -20 -142
-8 -15 -12 -35 -8 -50 12 -44 5 -116 -16 -179 -29 -87 -27 -123 13 -168 67
-78 102 -137 121 -204 11 -39 27 -68 52 -92 34 -33 37 -39 39 -104 1 -37 6
-80 9 -94 14 -52 45 -57 414 -60 l213 -2 30 34 30 34 38 -22 c39 -22 83 -29
235 -38 112 -7 208 -26 335 -69 l100 -34 51 35 c94 63 123 69 225 44 22 -5 52
-12 66 -15 18 -4 32 -17 43 -40 18 -38 42 -52 61 -36 7 6 37 10 67 10 29 -1
71 1 93 4 22 3 61 8 87 10 27 3 56 9 65 15 10 5 37 11 60 14 22 4 52 9 65 12
19 5 35 -2 67 -29 24 -20 50 -36 59 -36 9 0 27 -11 41 -24 29 -26 86 -43 95
-27 4 5 2 12 -4 16 -16 10 -12 42 6 49 9 3 26 6 39 6 12 0 27 6 32 13 8 10 27
102 48 237 2 14 8 37 13 51 18 46 30 171 33 345 1 72 -3 88 -29 140 -17 33
-32 82 -35 109 -3 28 -12 67 -21 85 -20 44 -79 125 -121 167 -86 85 -101 155
-35 164 22 4 25 9 24 46 0 33 -8 50 -36 82 -20 21 -42 50 -48 63 -7 12 -21 30
-31 38 -10 8 -20 29 -23 45 -17 106 -17 121 -2 150 24 46 21 149 -6 194 -12
20 -28 40 -35 44 -7 4 -13 15 -13 23 0 20 48 67 60 59 21 -13 9 37 -21 85 -65
105 -88 209 -51 229 18 10 24 11 47 11 20 0 38 36 30 61 -4 10 -21 25 -39 33
-36 15 -56 65 -51 127 2 26 -4 45 -20 65 l-23 29 -29 -27 c-21 -21 -39 -28
-67 -28 -31 0 -44 -7 -69 -36 -34 -39 -94 -74 -126 -74 -11 0 -35 19 -54 42
-30 36 -37 40 -51 29 -9 -8 -25 -33 -36 -57 -11 -25 -26 -44 -35 -44 -11 0
-15 -7 -12 -27 2 -16 -2 -45 -11 -66 -14 -35 -20 -207 -12 -323 5 -65 -85
-224 -126 -224 -25 0 -28 67 -10 185 2 11 -7 32 -20 48 -20 24 -23 37 -21 100
1 79 -8 101 -70 167 -18 19 -33 40 -33 48 0 7 -27 40 -61 73 -67 67 -98 124
-99 185 0 22 -5 45 -12 52 -16 16 -50 15 -73 -2 -18 -13 -18 -14 3 -41 12 -16
20 -30 18 -32 -7 -7 -124 -10 -133 -4 -5 3 -38 63 -73 133 -36 70 -70 130 -77
132 -7 3 -26 -2 -43 -12 -30 -17 -32 -16 -51 7 -10 13 -19 31 -19 41 0 27 -35
54 -56 42 -12 -7 -28 -5 -50 4 -18 8 -44 14 -57 14 -13 0 -45 14 -71 30 -26
17 -67 33 -90 36 -42 6 -43 6 -74 -42 -17 -27 -49 -69 -72 -94 -22 -24 -40
-52 -40 -62 0 -10 -6 -21 -14 -24 -8 -3 -23 -27 -34 -53 -12 -26 -34 -62 -51
-81 -50 -57 -66 -98 -52 -135 16 -45 14 -62 -18 -157 -16 -49 -25 -91 -21 -98
4 -7 25 -16 46 -19 50 -8 54 -31 20 -103 -49 -103 -77 -112 -82 -28 -3 47 -30
97 -56 104 -11 2 -30 2 -44 0 -30 -6 -78 21 -95 52 -16 31 2 52 52 60 45 8 50
13 73 79 33 92 32 117 -5 153 -18 18 -36 32 -40 32 -13 0 -22 43 -20 85 2 30
-5 51 -24 79 l-26 38 20 58 c18 50 19 65 9 124 -9 55 -8 69 3 84 38 45 52 99
38 140 -8 24 -16 28 -51 31 -23 1 -49 6 -59 11 -26 15 -116 12 -122 -2 -2 -7
-2 -33 1 -58 11 -94 6 -136 -23 -187 -31 -52 -82 -103 -104 -103 -7 0 -29 -17
-49 -37 -21 -23 -45 -38 -63 -39 -15 -1 -64 -27 -110 -58 -45 -31 -86 -56 -91
-56 -5 0 -21 9 -35 20 -31 24 -45 25 -85 4 -34 -18 -95 -21 -110 -6 -6 6 4 20
27 40 l37 30 -29 26 c-15 15 -44 31 -63 36 -20 5 -54 27 -75 47 -69 65 -81 73
-124 79 -24 3 -52 15 -63 26 -26 26 -96 57 -128 58 -17 0 -36 -14 -61 -42 -20
-24 -39 -41 -42 -38 -3 3 -7 19 -10 37 -7 45 -12 50 -54 58 -47 9 -66 22 -103
73 -37 52 -65 54 -116 10 -35 -31 -37 -31 -50 -13 -7 10 -11 29 -8 41 l6 23
-69 -25 c-38 -14 -101 -27 -143 -30 -41 -3 -88 -7 -105 -9 -16 -2 -37 -4 -45
-5 -8 0 2 -7 23 -15 45 -16 63 -36 78 -90 20 -72 -8 -144 -57 -147 -43 -3
-139 14 -158 28 -11 8 -30 14 -41 14 -11 0 -32 7 -47 14 -55 29 -94 28 -161
-4 -37 -17 -68 -39 -74 -52 -14 -31 -32 -111 -29 -128 7 -40 19 -58 41 -62 32
-7 51 15 66 77 16 62 25 75 55 75 34 0 39 18 13 46 l-22 24 35 0 c26 0 45 -8
67 -29 31 -29 32 -31 17 -60 -9 -17 -16 -43 -16 -58 0 -15 -12 -55 -26 -88
-14 -33 -28 -70 -31 -82 -3 -13 -28 -38 -57 -57 -48 -32 -57 -34 -120 -31 -37
1 -85 11 -108 21 -32 14 -43 15 -56 6 -50 -37 -124 -64 -157 -58 -19 4 -37 12
-41 18 -4 6 19 33 50 60 31 28 56 57 56 65 0 7 -11 25 -24 38 -20 20 -30 23
-48 16 -13 -5 -27 -10 -32 -11 -12 -3 -26 21 -26 47 0 27 51 46 102 38 26 -4
40 -1 52 11 22 21 11 33 -59 68 -30 14 -55 33 -55 41 0 8 13 37 29 64 17 28
51 103 76 168 26 65 53 128 61 140 19 31 18 50 -6 63 -30 16 -59 3 -66 -28 -3
-15 -10 -40 -16 -57 -5 -16 -12 -41 -14 -55 -11 -60 -27 -92 -51 -101 -34 -13
-40 -12 -63 11 -27 27 -26 34 14 77 18 21 40 52 49 69 9 17 23 36 31 43 19 16
21 57 4 68 -7 4 -35 8 -63 8 -40 0 -51 4 -60 21 -9 19 -11 19 -27 4 -25 -23
-68 -120 -68 -153 0 -18 13 -42 41 -71 22 -25 40 -53 39 -63 -1 -46 0 -60 6
-89 4 -24 -2 -48 -24 -97 -17 -36 -33 -87 -37 -114 -15 -109 -30 -125 -129
-139 l-49 -7 6 31 c5 26 2 36 -19 56 -22 20 -24 27 -15 45 7 12 36 35 66 52
59 33 80 53 71 68 -15 23 8 61 50 86 40 24 43 27 33 52 -21 55 -49 66 -99 40
-29 -15 -71 -12 -109 8 -29 14 -38 54 -23 90 32 73 42 97 42 105 0 13 -66 86
-100 110 -34 25 -84 13 -124 -29 -26 -27 -27 -30 -13 -58 9 -16 36 -48 60 -72
35 -34 44 -50 43 -73 -4 -52 -58 -64 -164 -36 -54 14 -62 33 -61 132 l1 72 41
20 c22 10 43 26 45 33 3 9 -6 6 -24 -8 l-29 -22 -9 20 c-7 16 -5 26 8 40 16
17 16 19 0 25 -16 6 -192 46 -204 46 -3 0 -16 -18 -30 -40z m-2718 -205 c23
-50 -21 -95 -92 -95 -16 0 -31 4 -34 8 -11 18 7 51 33 62 15 6 34 20 41 30 19
27 38 25 52 -5z m-170 -187 c-4 -62 -11 -78 -32 -78 -20 0 -37 40 -34 78 1 12
2 28 3 36 1 17 30 26 51 15 10 -5 14 -20 12 -51z m5486 -70 c17 -17 15 -38 -9
-77 -16 -27 -23 -31 -30 -20 -12 19 -11 66 1 90 12 22 21 24 38 7z m-5108
-218 c0 -5 -4 -10 -10 -10 -5 0 -10 5 -10 10 0 6 5 10 10 10 6 0 10 -4 10 -10z"/>
<path d="M8970 3190 c0 -5 5 -10 11 -10 5 0 7 5 4 10 -3 6 -8 10 -11 10 -2 0
-4 -4 -4 -10z"/>
</g>
</svg>
