<?xml version="1.0" encoding="UTF-8"?>
<svg width="1249px" height="1658px" viewBox="0 0 1249 1658" version="1.1" xmlns="http://www.w3.org/2000/svg" xmlns:xlink="http://www.w3.org/1999/xlink">
    <!-- Generator: Sketch 43.2 (39069) - http://www.bohemiancoding.com/sketch -->
    <title>logo</title>
    <desc>Created with Sketch.</desc>
    <defs></defs>
    <g id="Page-1" stroke="none" stroke-width="1" fill="none" fill-rule="evenodd">
        <g id="logo" fill-rule="nonzero" fill="#FFFFFF">
            <g id="Untitled" transform="translate(0.000000, 895.000000)">
                <g id="Group" transform="translate(624.952280, 381.131225) scale(-1, 1) rotate(-180.000000) translate(-624.952280, -381.131225) translate(0.952280, 0.131225)">
                    <path d="M44.190432,758.523094 C43.523766,757.094524 43.142814,755.761192 43.428528,755.475478 C44.476146,754.42786 48.09519,757.380238 48.09519,759.18976 C48.09519,762.0469 45.619002,761.665948 44.190432,758.523094 Z" id="Shape"></path>
                    <path d="M98.666568,759.284998 C98.380854,758.808808 98.952282,757.665952 100.095138,756.713572 C101.523708,755.38024 101.999898,753.570718 101.999898,750.237388 C101.999898,744.808822 101.047518,742.904062 98.666568,743.761204 C97.61895,744.142156 96.19038,743.665966 94.952286,742.52311 C93.80943,741.57073 91.42848,740.713588 89.714196,740.61835 C87.428484,740.61835 86.66658,740.14216 86.857056,739.18978 C87.14277,737.856448 87.333246,727.475506 87.14277,724.332652 C87.047532,723.380272 86.095152,723.189796 83.238012,723.665986 C80.285634,724.142176 78.57135,723.856462 75.809448,722.142178 C71.618976,719.761228 68.666598,720.523132 67.523742,724.42789 C67.14279,725.570746 65.047554,729.18979 62.85708,732.332644 C59.714226,736.904068 58.190418,738.2374 55.618992,738.71359 C53.714232,739.094542 50.95233,740.713588 49.428522,742.237396 C45.809478,746.046916 44.095194,745.951678 41.142816,741.665968 C39.904722,739.761208 38.190438,738.2374 37.428534,738.2374 C35.809488,738.2374 35.809488,738.427876 37.047582,726.33265 C37.714248,719.285038 38.380914,716.713612 39.714246,715.665994 C42.095196,713.95171 41.809482,705.570766 39.142818,700.999342 C36.285678,696.142204 35.619012,690.999352 37.333296,687.570784 C38.666628,685.094596 38.666628,684.046978 37.523772,680.904124 C36.857106,678.808888 35.999964,673.380322 35.619012,668.904136 C35.23806,664.332712 34.76187,658.142242 34.380918,654.90415 L33.80949,649.18987 L38.380914,649.18987 C41.714244,649.18987 43.619004,648.523204 45.904716,646.713682 C48.57138,644.42797 56.952324,641.285116 64.76184,639.66607 C68.57136,638.904166 68.952312,637.094644 66.095172,634.237504 C63.618984,631.761316 61.523748,631.666078 52.285662,633.95179 C47.14281,635.189884 45.047574,636.142264 45.047574,637.28512 C45.047574,640.904164 39.52377,642.713686 38.380914,639.475594 C37.999962,638.523214 36.857106,636.713692 35.809488,635.475598 C34.095204,633.666076 33.619014,630.713698 32.571396,616.999426 C31.90473,608.047054 31.523778,600.1423 31.809492,599.475634 C32.095206,598.71373 33.238062,598.23754 34.476156,598.23754 C37.14282,598.23754 39.04758,596.428018 39.04758,593.95183 C39.04758,591.57088 41.333292,590.713738 43.904718,592.142308 C45.619002,592.99945 46.19043,592.808974 47.047572,591.09469 C47.904714,589.475644 47.809476,588.523264 46.571382,586.618504 C45.619002,585.189934 45.047574,582.04708 45.047574,578.523274 C45.047574,574.047088 44.571384,572.332804 42.8571,570.523282 C41.142816,568.618522 40.666626,566.904238 40.571388,560.999482 C40.47615,556.999486 39.904722,552.713776 39.238056,551.475682 C37.61901,548.523304 37.714248,545.666164 39.619008,544.142356 C40.761864,543.189976 41.047578,541.951882 40.571388,539.761408 C40.190436,538.047124 39.904722,535.38046 39.99996,533.666176 C40.095198,530.047132 35.047584,523.47571 31.809492,522.99952 C27.999972,522.428092 28.666638,519.094762 33.523776,513.190006 C39.142818,506.428108 40.380912,502.237636 39.904722,490.809076 C39.52377,481.951942 39.619008,481.761466 42.095196,481.190038 C44.190432,480.713848 44.571384,479.951944 45.047574,475.666234 C45.523764,470.809096 45.619002,470.713858 48.666618,470.999572 C52.3809,471.380524 54.190422,469.380526 51.618996,467.951956 C49.99995,467.094814 50.095188,466.8091 52.666614,465.094816 C54.28566,464.047198 56.571372,463.190056 57.714228,463.190056 C58.952322,463.190056 60.190416,462.809104 60.47613,462.237676 C60.761844,461.761486 62.952318,460.713868 65.333268,459.856726 C67.61898,459.094822 71.238024,457.666252 73.428498,456.713872 L77.238018,455.094826 L81.142776,459.285298 C84.380868,462.809104 85.23801,463.285294 86.571342,462.142438 C87.904674,460.999582 87.904674,460.61863 85.904676,458.523394 C82.666584,455.094826 84.380868,452.809114 90.190386,452.428162 C96.285618,452.04721 107.999892,446.428168 108.666558,443.47579 C109.04751,442.237696 109.904652,441.190078 110.761794,441.190078 C111.809412,441.190078 112.095126,441.856744 111.714174,443.380552 C111.047508,446.047216 112.571316,448.23769 115.333218,448.23769 C116.476074,448.23769 119.809404,446.999596 122.761782,445.571026 C127.999872,442.9996 128.285586,442.904362 131.618916,444.523408 C133.523676,445.475788 137.237958,446.237692 139.904622,446.237692 C143.904618,446.237692 145.047474,446.618644 147.237948,449.19007 C150.190326,452.618638 152.285562,452.904352 157.999842,450.61864 C161.333172,449.285308 162.095076,448.523404 162.095076,446.237692 C162.095076,442.428172 162.85698,442.04722 166.380786,443.856742 C169.04745,445.285312 171.142686,445.285312 183.523626,444.332932 L197.523612,443.190076 L203.523606,446.33293 C207.904554,448.523404 209.618838,449.094832 209.904552,448.142452 C210.666456,445.761502 216.475974,441.190078 218.666448,441.190078 C221.42835,441.190078 224.095014,438.71389 224.095014,435.951988 C224.095014,434.047228 224.475966,433.95199 229.52358,434.42818 C233.3331,434.90437 235.23786,434.618656 235.999764,433.761514 C237.61881,431.856754 241.809282,431.285326 243.142614,432.809134 C243.80928,433.666276 245.333088,433.856752 247.428324,433.4758 C251.333082,432.809134 261.047358,426.523426 261.047358,424.713904 C261.047358,422.618668 264.952116,421.761526 266.856876,423.47581 C267.809256,424.237714 270.190206,425.190094 272.094966,425.571046 C274.094964,425.951998 276.66639,427.380568 277.904484,428.7139 C280.285434,431.475802 283.33305,431.856754 287.047332,429.66628 C289.904472,428.047234 295.618752,427.76152 296.571132,429.19009 C297.61875,430.904374 302.094936,430.332946 303.904458,428.332948 C306.094932,425.85676 321.42825,423.761524 325.999674,425.285332 C328.475862,426.142474 329.99967,425.85676 335.23776,423.571048 C343.33299,420.047242 343.904418,419.571052 341.523468,417.76153 C339.04728,415.952008 339.52347,415.571056 345.047274,414.713914 C349.142508,414.142486 349.618698,414.237724 350.571078,416.33296 C351.142506,417.666292 352.571076,418.809148 353.904408,418.999624 C355.428216,419.1901 355.999644,418.999624 355.618692,418.23772 C355.23774,417.666292 355.332978,417.190102 355.904406,417.190102 C356.952024,417.190102 360.094878,424.332952 360.094878,426.713902 C360.094878,428.7139 365.71392,432.04723 368.09487,431.475802 C369.142488,431.190088 370.094868,430.523422 370.094868,430.047232 C370.094868,428.809138 379.809144,428.999614 380.571048,430.237708 C381.523428,431.761516 384.76152,431.380564 389.237706,429.094852 C392.761512,427.28533 393.618654,427.190092 396.285318,428.332948 C398.190078,429.094852 399.809124,430.809136 400.761504,433.094848 C402.761502,437.951986 405.71388,440.999602 409.237686,441.761506 C410.761494,442.04722 413.047206,443.666266 414.2853,445.285312 C416.094822,447.666262 417.14244,448.23769 420.666246,448.23769 C425.809098,448.23769 426.571002,446.713882 425.523384,438.332938 C424.951956,433.380562 425.142432,432.428182 426.951954,430.809136 C429.237666,428.7139 431.713854,428.523424 441.047178,430.14247 C446.856696,431.09485 447.713838,430.999612 448.761456,429.475804 C449.52336,428.618662 450.094788,426.80914 450.094788,425.666284 C450.094788,422.428192 453.523356,419.761528 457.61859,419.856766 C461.809062,420.047242 464.094774,421.666288 464.094774,424.713904 C463.999536,426.237712 464.951916,427.28533 467.14239,428.23771 C469.809054,429.380566 470.666196,429.19009 474.094764,427.28533 C477.61857,425.285332 478.380474,425.190094 482.094756,426.33295 C485.904276,427.475806 486.380466,427.380568 487.713798,425.666284 C488.475702,424.618666 489.332844,422.04724 489.713796,419.856766 C490.380462,415.666294 492.666174,413.571058 497.809026,412.618678 C500.666166,412.04725 501.047118,412.237726 501.047118,414.142486 C501.047118,417.475816 503.904258,417.76153 509.332824,414.809152 C513.713772,412.428202 514.570914,412.332964 515.23758,413.666296 C515.71377,414.523438 517.523292,415.85677 519.142338,416.713912 C522.094716,418.23772 522.189954,418.23772 522.761382,416.237722 C523.33281,413.856772 525.047094,413.47582 525.047094,415.761532 C525.047094,417.952006 527.523282,418.523434 530.189946,417.094864 C533.142324,415.475818 557.523252,415.85677 560.189916,417.475816 C561.618486,418.428196 562.570866,418.332958 564.76134,416.999626 C567.808956,415.190104 575.999424,414.523438 580.285134,415.666294 C581.999418,416.142484 586.951794,415.475818 594.094644,413.761534 L605.23749,411.190108 L607.713678,413.190106 C609.142248,414.237724 610.95177,415.190104 611.713674,415.190104 C612.475578,415.190104 612.951768,415.761532 612.761292,416.428198 C612.285102,418.999624 620.761284,418.523434 626.66604,415.666294 C630.95175,413.666296 633.237462,413.190106 635.904126,413.571058 C645.904116,415.190104 647.713638,415.285342 650.380302,414.237724 C652.570776,413.380582 653.046966,412.713916 652.475538,411.09487 C651.90411,409.094872 651.90411,409.094872 654.475536,410.713918 C656.475534,412.04725 657.427914,412.237726 658.285056,411.380584 C659.04696,410.523442 659.618388,410.61868 660.47553,411.666298 C662.189814,413.95201 672.38028,412.237726 675.71361,409.094872 L678.285036,406.713922 L677.14218,408.999634 C675.523134,412.04725 676.66599,421.761526 679.142178,425.761522 C680.189796,427.475806 681.046938,430.523422 681.046938,432.52342 C681.046938,434.90437 681.90408,436.999606 683.523126,438.904366 L685.999314,441.666268 L685.999314,438.142462 C685.999314,435.85675 686.761218,433.856752 687.904074,432.809134 C689.427882,431.475802 689.904072,429.094852 690.380262,419.952004 C690.95169,407.76154 691.90407,405.666304 697.904064,401.57107 C701.999298,398.71393 719.618328,397.475836 732.094506,399.19012 C736.761168,399.856786 741.237354,400.332976 742.094496,400.332976 C747.427824,400.237738 767.14209,399.285358 770.094468,398.999644 C771.999228,398.809168 774.665892,397.856788 775.999224,396.904408 C778.761126,394.999648 791.42778,394.42822 792.570636,396.237742 C793.618254,397.856788 796.18968,397.28536 796.761108,395.190124 C797.046822,394.047268 797.523012,393.190126 797.903964,393.190126 C799.332534,393.285364 805.427766,397.094884 804.28491,397.190122 C802.475388,397.190122 802.761102,400.237738 804.570624,400.237738 C805.332528,400.237738 806.094432,399.571072 806.094432,398.809168 C806.094432,396.904408 809.618238,396.142504 824.094414,395.094886 C841.42773,393.95203 842.094396,393.95203 842.094396,395.666314 C842.094396,399.094882 854.28486,398.809168 857.046762,395.475838 C857.903904,394.42822 859.618188,393.285364 860.856282,392.904412 C862.761042,392.428222 863.046756,392.713936 862.475328,394.237744 C861.808662,396.618694 863.713422,396.80917 865.999134,394.713934 C867.332466,393.571078 868.475322,393.47584 872.094366,394.332982 C877.999122,395.85679 878.761026,396.713932 876.475314,399.285358 C874.570554,401.380594 874.570554,401.380594 877.332456,403.761544 C880.380072,406.428208 883.618164,406.904398 884.380068,404.9044 C884.665782,404.237734 884.951496,405.190114 884.951496,406.999636 C885.046734,408.809158 884.570544,411.09487 884.094354,412.142488 C883.427688,413.380582 883.618164,414.523438 884.665782,416.047246 C886.284828,418.332958 887.713398,418.71391 889.903872,417.28534 C891.046728,416.523436 891.046728,416.047246 889.713396,414.142486 C886.951494,410.237728 889.237206,409.094872 895.046724,411.285346 C899.141958,412.809154 901.332432,412.99963 906.760998,412.428202 C912.951468,411.761536 913.618134,411.475822 914.094324,409.19011 C914.380038,407.856778 915.618132,404.999638 916.951464,402.904402 C918.760986,399.952024 919.52289,399.380596 920.570508,400.237738 C921.332412,400.809166 922.85622,401.09488 923.903838,400.713928 C924.951456,400.428214 926.18955,400.61869 926.475264,401.190118 C926.951454,401.856784 928.189548,401.666308 930.094308,400.61869 C931.808592,399.761548 934.094304,399.380596 935.522874,399.761548 C938.284776,400.428214 954.951426,397.571074 956.475234,396.047266 C958.09428,394.523458 961.9038,395.094886 965.618082,397.475836 C968.189508,399.094882 969.427602,400.904404 970.47522,404.42821 C971.999028,409.475824 977.522832,417.190102 979.618068,417.190102 C980.284734,417.190102 981.141876,416.618674 981.42759,415.952008 C981.999018,414.713914 981.713304,418.618672 980.47521,427.76152 C979.903782,432.237706 980.094258,433.190086 982.284732,435.666274 C986.18949,440.237698 999.237096,442.04722 1003.23709,438.618652 L1005.5228,436.713892 L1003.71328,438.809128 C1002.09424,440.713888 1002.09424,440.999602 1003.61804,441.57103 C1006.28471,442.618648 1009.99899,442.237696 1010.18947,440.904364 C1010.76089,435.85675 1009.42756,429.761518 1006.47518,423.47581 C1004.57042,419.475814 1003.04662,414.809152 1003.04662,412.904392 C1003.04662,409.380586 1011.23708,394.237744 1013.14184,394.237744 C1013.71327,394.142506 1014.09422,395.666314 1013.99899,397.475836 C1013.71327,402.618688 1013.90375,402.99964 1016.76089,404.42821 C1018.47517,405.190114 1019.61803,406.618684 1019.8085,408.23773 C1020.57041,413.95201 1024.47517,419.475814 1026.37993,417.475816 C1027.61802,416.237722 1027.04659,407.475826 1025.61802,406.237732 C1024.85612,405.666304 1024.09421,403.47583 1023.8085,401.380594 C1023.52279,399.380596 1023.0466,396.999646 1022.66564,396.047266 C1022.09422,394.809172 1023.14183,393.856792 1027.33231,391.856794 C1034.85611,388.142512 1036.37992,388.332988 1038.57039,393.285364 C1040.95134,398.618692 1041.80848,398.999644 1044.47515,395.666314 C1046.47514,393.190126 1047.04657,392.99965 1051.04657,393.666316 C1054.47514,394.237744 1056.3799,395.3806 1059.33227,398.523454 L1063.14179,402.713926 L1065.52274,399.66631 C1071.90369,391.761556 1070.85607,392.237746 1083.42749,392.237746 C1092.66557,392.237746 1095.80843,391.761556 1099.61795,390.14251 C1102.18937,389.094892 1104.47509,388.332988 1104.66556,388.523464 C1105.04651,388.904416 1101.71318,390.6187 1098.76081,391.57108 C1096.28462,392.332984 1097.52271,394.237744 1100.47509,394.237744 C1102.57033,394.237744 1102.85604,394.809172 1103.23699,399.19012 C1103.52271,402.142498 1104.57032,405.094876 1105.61794,406.237732 C1107.14175,407.952016 1107.23699,408.618682 1106.28461,410.237728 C1105.61794,411.285346 1105.04651,412.809154 1105.04651,413.571058 C1105.04651,415.38058 1110.66556,420.237718 1112.76079,420.237718 C1115.52269,420.14248 1127.42744,415.094866 1129.90363,412.809154 C1134.66553,408.523444 1138.0941,402.99964 1138.0941,399.380596 C1138.0941,395.475838 1139.80838,384.809182 1141.04648,381.666328 C1141.52267,380.428234 1143.52267,379.19014 1146.57028,378.23776 C1150.76075,377.094904 1151.71313,377.094904 1153.52266,378.23776 C1154.76075,379.094902 1157.1417,380.61871 1158.95122,381.666328 C1161.99884,383.571088 1162.09408,383.95204 1161.52265,388.23775 C1161.1417,391.190128 1161.42741,393.285364 1162.28455,394.523458 C1163.52265,396.237742 1163.9036,396.237742 1167.33217,394.90441 C1170.76073,393.380602 1174.09406,388.999654 1174.09406,385.761562 C1173.99883,384.999658 1175.33216,383.380612 1177.04644,382.237756 C1179.90358,380.14252 1180.1893,380.14252 1185.52262,381.761566 C1188.57024,382.618708 1191.52262,382.99966 1192.09405,382.713946 C1192.66547,382.332994 1193.71309,383.571088 1194.57023,385.571086 C1195.52261,387.856798 1197.42737,389.856796 1200.28451,391.380604 C1205.14165,394.047268 1207.04641,397.094884 1207.04641,402.52345 C1207.04641,405.571066 1207.5226,406.523446 1209.04641,406.904398 C1211.5226,407.571064 1211.99879,413.190106 1209.5226,413.190106 C1207.61784,413.190106 1207.61784,417.190102 1209.42736,419.761528 C1210.2845,420.904384 1210.66546,422.904382 1210.2845,424.999618 C1209.61784,429.380566 1211.99879,461.190058 1213.23688,463.47577 C1213.80831,464.523388 1215.42736,465.761482 1216.95116,466.33291 L1219.71307,467.28529 L1220.47497,480.809086 C1221.0464,492.428122 1223.0464,504.142396 1225.52258,510.332866 C1225.99877,511.380484 1225.52258,512.142388 1223.99878,512.52334 C1222.28449,512.904292 1222.09402,513.380482 1222.95116,514.999528 C1223.52259,516.142384 1225.52258,517.570954 1227.33211,518.142382 C1230.09401,519.094762 1231.23686,520.61857 1235.42734,529.18999 C1239.61781,537.76141 1240.094,539.380456 1238.95114,540.809026 C1237.99876,541.951882 1236.66543,542.237596 1234.28448,541.856644 C1232.47496,541.57093 1230.28448,541.57093 1229.52258,541.856644 C1227.61782,542.52331 1227.61782,548.904256 1229.52258,552.237586 C1230.37972,553.570918 1230.95115,556.618534 1231.04639,558.904246 C1231.04639,561.189958 1231.80829,565.189954 1232.66543,567.76138 C1233.52258,570.332806 1233.99877,573.47566 1233.80829,574.808992 C1233.14162,577.856608 1239.42733,584.713744 1243.71304,585.666124 C1247.90351,586.523266 1248.66542,588.71374 1245.52256,590.808976 C1242.47495,592.808974 1242.37971,594.90421 1245.23685,597.951826 C1248.09399,600.904204 1246.66542,603.666106 1242.47495,603.666106 C1240.28447,603.666106 1239.52257,603.094678 1239.04638,601.285156 C1238.37971,598.332778 1235.90353,596.618494 1233.71305,597.475636 C1231.04639,598.523254 1231.80829,602.332774 1235.3321,605.951818 C1238.28448,608.999434 1238.57019,609.856576 1238.66543,616.142284 L1238.76067,623.094658 L1231.99877,625.094656 C1228.28449,626.237512 1224.76068,627.189892 1224.18925,627.189892 C1223.33211,627.189892 1221.0464,621.285136 1221.0464,618.904186 C1221.0464,618.427996 1219.42735,616.047046 1217.42735,613.666096 C1213.61783,608.904196 1210.09403,598.047064 1210.09403,590.713738 C1210.09403,587.951836 1209.33212,586.047076 1207.61784,584.237554 C1205.42737,581.951842 1200.66547,574.142326 1195.90357,565.189954 C1194.85595,563.285194 1194.09404,560.713768 1194.09404,559.475674 C1194.09404,558.142342 1192.95119,556.523296 1191.42738,555.570916 C1189.14167,554.047108 1188.09405,553.95187 1183.33215,554.999488 C1176.85597,556.33282 1175.52263,555.761392 1171.52264,550.523302 C1169.90359,548.428066 1168.18931,546.428068 1167.71312,546.047116 C1167.14169,545.666164 1163.52265,545.570926 1159.61789,545.85664 C1150.47504,546.428068 1149.04647,545.570926 1151.33218,540.713788 C1153.90361,535.285222 1153.61789,530.61856 1150.47504,528.523324 C1141.42743,522.142378 1140.28457,519.856666 1142.57029,512.332864 C1143.99886,507.666202 1143.80838,506.142394 1141.71314,506.237632 C1139.90362,506.237632 1123.0465,524.999518 1123.0465,526.999516 C1123.14173,530.904274 1126.85602,536.904268 1130.28458,538.523314 C1132.28458,539.475694 1134.28458,540.237598 1134.85601,540.237598 C1135.42744,540.237598 1137.52267,541.666168 1139.52267,543.570928 C1141.99886,545.85664 1143.04648,547.7614 1143.04648,549.761398 C1143.04648,551.380444 1143.71314,554.90425 1144.57028,557.570914 C1145.33219,560.332816 1146.09409,563.570908 1146.09409,564.90424 C1146.09409,566.33281 1147.6179,570.61852 1149.52266,574.713754 C1152.09409,580.047082 1153.61789,582.142318 1155.33218,582.52327 C1157.80837,583.189936 1165.04645,591.57088 1165.04645,593.761354 C1165.04645,595.570876 1161.04646,600.237538 1159.42741,600.237538 C1157.61789,600.237538 1157.61789,603.285154 1159.52265,607.76134 C1161.1417,611.666098 1162.85598,612.04705 1167.14169,609.475624 C1169.61788,608.047054 1170.28454,607.951816 1170.95121,609.094672 C1171.4274,609.761338 1171.61788,611.189908 1171.52264,612.04705 C1171.33216,612.99943 1170.85597,615.761332 1170.57026,618.332758 C1170.18931,620.808946 1169.14169,623.761324 1168.18931,624.808942 C1167.14169,625.951798 1165.80836,627.76132 1165.14169,628.904176 C1163.80836,631.475602 1163.71312,640.14226 1164.95122,645.570826 C1165.99883,649.761298 1164.85598,654.237484 1162.95122,654.237484 C1162.37979,654.142246 1159.61789,652.237486 1156.95122,649.761298 C1151.23694,644.618446 1146.09409,642.52321 1143.23695,644.142256 C1141.52267,644.999398 1138.0941,650.047012 1133.23696,658.808908 C1131.99887,661.189858 1125.99887,663.47557 1123.61792,662.618428 C1122.85602,662.332714 1121.8084,660.904144 1121.14174,659.570812 C1120.37983,657.76129 1119.52269,657.189862 1118.18936,657.666052 C1112.76079,659.380336 1111.33222,653.856532 1115.52269,647.189872 C1116.95126,644.999398 1118.09412,641.856544 1118.09412,640.237498 C1118.09412,637.28512 1115.14174,633.189886 1113.04651,633.189886 C1110.47508,633.189886 1108.09413,637.570834 1106.37985,645.189874 C1105.42747,649.856536 1104.09413,653.666056 1103.33223,653.95177 C1101.42747,654.618436 1094.66557,651.475582 1091.90367,648.523204 C1089.33224,645.85654 1084.57034,645.38035 1083.61796,647.7613 C1081.80844,652.5232 1083.23701,658.142242 1087.61796,663.47557 C1091.61796,668.23747 1090.28462,668.904136 1077.71321,668.618422 C1071.61798,668.427946 1063.99894,667.951756 1060.95132,667.666042 C1056.85609,667.189852 1054.57037,667.380328 1052.47514,668.523184 C1050.85609,669.285088 1047.23705,670.332706 1044.57038,670.61842 C1038.18944,671.475562 1035.52277,672.713656 1030.28468,677.380318 C1025.52278,681.666028 1023.8085,681.951742 1019.52279,679.380316 C1016.95136,677.76127 1014.2847,677.475556 1001.42757,677.475556 C982.951398,677.380318 980.9514,676.713652 974.475216,667.666042 C969.04665,660.14224 967.046652,658.618432 959.713326,657.2851 C952.570476,655.951768 950.47524,654.808912 948.57048,651.285106 C947.237148,648.71368 946.570482,648.427966 940.665726,648.047014 C934.380018,647.570824 934.189542,647.570824 928.380024,641.57083 L922.38003,635.570836 L915.046704,635.570836 C906.951474,635.666074 906.094332,636.427978 908.475282,640.999402 C910.189566,644.332732 915.427656,647.189872 919.903842,647.189872 C922.189554,647.189872 924.189552,648.23749 927.14193,651.189868 C929.427642,653.380342 931.618116,655.189864 931.999068,655.189864 C932.38002,655.189864 933.522876,656.713672 934.570494,658.523194 C937.808586,664.618426 933.713352,674.237464 927.808596,674.237464 C926.475264,674.237464 923.903838,675.285082 921.999078,676.713652 C920.189556,678.046984 918.09432,679.18984 917.522892,679.18984 C916.856226,679.18984 913.713372,680.332696 910.665756,681.666028 C901.999098,685.475548 897.046722,684.999358 894.570534,680.14222 C893.522916,678.23746 892.094346,677.189842 889.713396,676.80889 C887.808636,676.427938 885.7134,675.475558 885.046734,674.618416 C883.522926,672.808894 875.71341,672.713656 874.189602,674.523178 C873.522936,675.285082 873.33246,676.142224 873.618174,676.427938 C873.999126,676.80889 873.903888,677.570794 873.522936,678.23746 C873.046746,678.999364 871.90389,678.427936 869.99913,676.618414 C867.61818,674.332702 866.570562,674.046988 863.427708,674.523178 C861.42771,674.808892 858.856284,675.951748 857.61819,676.999366 C855.71343,678.71365 855.142002,678.808888 850.761054,677.475556 C846.761058,676.237462 845.903916,675.570796 845.427726,673.189846 C844.951536,670.904134 844.094394,670.14223 841.713444,669.66604 C838.475352,669.094612 831.42774,671.09461 827.237268,673.761274 C824.475366,675.666034 820.189656,675.85651 816.380136,674.42794 C814.856328,673.856512 809.99919,673.094608 805.523004,672.808894 C798.665868,672.427942 797.14206,672.618418 794.28492,674.332702 C791.332542,676.237462 790.4754,676.3327 786.66588,675.189844 C784.28493,674.523178 781.332552,674.142226 779.99922,674.332702 C777.713508,674.713654 777.713508,674.713654 780.9516,678.427936 C782.85636,680.523172 785.142072,682.237456 786.380166,682.237456 C793.33254,682.237456 795.142062,685.570786 790.189686,689.094592 C788.475402,690.332686 787.046832,692.427922 786.66588,694.332682 C785.523024,699.951724 783.33255,702.332674 779.713506,701.951722 C776.761128,701.666008 776.570652,701.475532 776.570652,697.570774 C776.570652,695.3803 775.903986,692.713636 775.046844,691.666018 C774.094464,690.523162 773.523036,687.475546 773.427798,682.99936 C773.33256,677.189842 773.618274,675.85651 775.142082,674.90413 C777.713508,673.285084 777.523032,671.475562 774.475416,667.094614 C770.95161,661.951762 771.808752,657.666052 776.66589,655.570816 C778.475412,654.808912 780.094458,653.47558 780.094458,652.618438 C780.094458,651.761296 777.999222,649.18987 775.523034,646.999396 C773.046846,644.713684 771.046848,642.142258 771.046848,641.285116 C771.046848,640.427974 771.999228,637.76131 773.237322,635.475598 L775.523034,631.285126 L772.665894,628.332748 L769.903992,625.38037 L772.665894,622.904182 L775.332558,620.332756 L773.618274,614.523238 C772.570656,611.285146 770.95161,607.76134 769.99923,606.713722 C768.951612,605.570866 767.427804,602.99944 766.570662,600.904204 C764.76114,596.713732 762.094476,594.618496 756.856386,593.666116 C753.33258,592.99945 749.332584,594.237544 747.808776,596.618494 C746.380206,598.71373 747.046872,607.570864 749.142108,615.285142 C751.42782,623.761324 752.85639,625.38037 759.237336,626.618464 C763.80876,627.380368 765.046854,629.475604 765.046854,635.85655 C765.046854,644.808922 761.42781,648.523204 754.189722,646.999396 C750.856392,646.237492 749.427822,645.285112 747.904014,642.618448 C745.427826,638.427976 741.999258,638.047024 738.761166,641.57083 C737.523072,642.904162 735.046884,645.475588 733.3326,647.380348 C731.523078,649.285108 730.094508,651.57082 730.094508,652.332724 C730.094508,653.094628 732.475458,656.904148 735.427836,660.713668 C738.284976,664.618426 740.95164,668.618422 741.332592,669.570802 C741.713544,670.523182 741.142116,673.856512 739.99926,676.999366 C738.951642,680.046982 737.999262,684.90412 737.999262,687.76126 C737.999262,690.6184 737.427834,693.666016 736.570692,694.713634 C735.808788,695.85649 735.142122,697.951726 735.046884,699.475534 C735.046884,701.475532 734.189742,702.713626 731.808792,704.237434 C727.046892,707.094574 723.904038,706.713622 719.713566,702.618388 C716.094522,699.18982 716.094522,699.094582 712.951668,700.713628 C708.665958,702.904102 691.523118,703.761244 688.57074,701.856484 C683.999316,698.904106 679.808844,698.046964 677.427894,699.66601 C674.665992,701.475532 671.523138,701.57077 667.046952,700.046962 C664.475526,699.18982 661.9041,699.285058 654.666012,700.61839 C643.427928,702.713626 641.142216,702.142198 639.52317,696.618394 L638.475552,692.713636 L629.52318,692.99935 C624.570804,693.094588 619.142238,693.666016 617.427954,694.142206 C613.713672,695.094586 611.42796,694.046968 610.666056,690.808876 C610.285104,689.285068 608.951772,687.951736 606.856536,687.28507 C602.85654,685.8565 589.332744,685.8565 588.475602,687.189832 C587.523222,688.904116 589.99941,691.09459 593.618454,691.761256 C599.904162,692.904112 596.856546,696.142204 590.285124,695.285062 C589.618458,695.189824 587.713698,695.761252 586.094652,696.618394 C582.189894,698.71363 582.189894,698.71363 581.523228,694.618396 C580.666086,690.332686 577.808946,688.142212 572.85657,688.23745 C568.09467,688.23745 567.428004,689.475544 569.52324,694.237444 C570.47562,696.33268 571.047048,698.71363 570.761334,699.475534 C570.380382,700.427914 566.570862,701.475532 559.808964,702.52315 C553.999446,703.380292 545.047074,705.475528 539.808984,707.189812 C528.09471,710.904094 524.76138,710.999332 521.90424,707.666002 C518.951862,704.332672 517.809006,704.523148 518.189958,708.332668 L518.57091,711.475522 L510.094728,713.761234 C505.332828,714.999328 499.618548,716.713612 497.14236,717.665992 C491.618556,719.66599 491.047128,719.570752 491.047128,717.28504 C491.047128,713.47552 488.475702,712.713616 475.809048,712.904092 C468.380484,712.99933 463.33287,713.570758 462.475728,714.237424 C461.713824,714.90409 461.047158,717.189802 461.047158,719.380276 C461.047158,723.761224 459.04716,725.285032 455.904306,723.380272 C453.237642,721.665988 452.094786,721.951702 452.094786,724.142176 C452.094786,726.80884 448.761456,728.332648 444.28527,727.951696 C440.95194,727.76122 440.570988,727.380268 439.713846,723.9517 C439.142418,721.57075 437.713848,719.380276 435.523374,717.76123 C432.666234,715.570756 431.999568,714.237424 431.42814,710.14219 C430.856712,705.85648 430.47576,705.189814 428.571,705.189814 C425.428146,705.189814 424.380528,706.904098 423.8091,712.904092 C423.523386,716.618374 423.713862,718.523134 424.666242,719.285038 C426.380526,720.713608 426.475764,725.475508 424.856718,724.999318 C424.190052,724.713604 422.951958,723.380272 422.094816,721.951702 C421.237674,720.523132 419.142438,718.142182 417.428154,716.713612 C415.523394,715.189804 413.904348,712.713616 413.33292,710.427904 C412.666254,707.475526 411.713874,706.33267 408.856734,704.999338 C401.90436,701.666008 400.190076,701.666008 398.951982,704.808862 C397.904364,707.570764 398.57103,712.808854 400.47579,717.475516 C401.713884,720.14218 399.52341,719.475514 398.285316,716.713612 C397.61865,715.38028 395.523414,713.570758 393.523416,712.808854 C389.237706,710.999332 388.475802,709.285048 389.99961,704.808862 C390.95199,701.951722 390.856752,700.713628 389.52342,698.142202 C387.999612,695.189824 387.809136,695.094586 386.475804,696.80887 C384.666282,699.285058 384.76152,703.189816 386.571042,705.666004 C388.856754,708.71362 388.380564,710.332666 385.428186,710.046952 C382.571046,709.666 382.475808,709.570762 379.142478,701.666008 C377.713908,698.523154 375.809148,696.046966 373.999626,694.999348 C367.61868,691.380304 369.332964,687.856498 378.190098,686.046976 C384.76152,684.808882 385.618662,683.189836 381.332952,680.523172 C379.809144,679.570792 377.047242,677.475556 375.332958,675.85651 C372.761532,673.47556 371.809152,673.094608 370.856772,674.046988 C369.904392,674.90413 369.99963,675.85651 371.332962,678.142222 C373.33296,681.380314 373.33296,681.380314 365.904396,682.618408 C358.952022,683.761264 353.33298,693.189826 359.52345,693.189826 C360.95202,693.189826 362.952018,694.142206 364.094874,695.285062 C365.23773,696.427918 367.713918,697.951726 369.52344,698.71363 C372.094866,699.761248 372.952008,700.904104 373.428198,703.47553 C374.475816,709.094572 373.523436,710.237428 367.61868,710.237428 C360.856782,710.237428 359.04726,712.04695 359.142498,718.808848 C359.237736,726.904078 360.571068,733.094548 362.666304,734.713594 C364.475826,736.046926 364.475826,736.142164 362.475828,736.142164 C359.04726,736.237402 356.094882,732.142168 356.094882,727.570744 C355.999644,725.285032 355.71393,719.380276 355.428216,714.4279 L354.76155,705.38029 L348.666318,705.85648 C345.332988,706.046956 339.618708,706.713622 335.999664,707.380288 C330.571098,708.23743 328.952052,708.142192 326.475864,706.999336 C322.761582,705.094576 317.047302,706.33267 317.047302,709.094572 C317.047302,711.189808 320.094918,714.237424 322.190154,714.237424 C324.190152,714.237424 326.094912,716.237422 326.094912,718.332658 C326.094912,721.380274 321.42825,730.523122 318.666348,733.094548 C316.571112,735.094546 315.809208,735.285022 314.571114,734.237404 C313.713972,733.4755 313.047306,731.665978 313.047306,730.237408 C313.047306,726.80884 311.618736,725.570746 306.285408,724.332652 C303.047316,723.665986 301.809222,723.761224 300.95208,724.808842 C299.9997,725.951698 300.190176,726.80884 302.094936,728.7136 C303.33303,730.046932 304.952076,731.189788 305.523504,731.189788 C307.14255,731.189788 310.571118,734.999308 309.713976,735.85645 C309.333024,736.237402 308.190168,735.665974 307.047312,734.713594 C305.047314,732.904072 304.856838,732.904072 299.333034,734.808832 C295.047324,736.237402 293.237802,737.380258 292.285422,739.475494 C290.856852,742.332634 290.4759,742.52311 285.047334,742.237396 C279.333054,741.856444 278.285436,740.808826 277.523532,734.237404 C277.14258,730.904074 276.094962,727.28503 275.23782,726.142174 C273.618774,724.237414 273.33306,724.142176 269.237826,725.570746 C266.952114,726.427888 264.380688,726.904078 263.618784,726.618364 C261.9045,725.951698 260.856882,727.475506 261.618786,729.570742 C262.094976,730.808836 262.666404,730.904074 264.094974,730.14217 C265.618782,729.380266 266.285448,729.66598 267.428304,731.380264 C271.142586,737.189782 269.809254,743.094538 265.809258,738.2374 C264.190212,736.142164 263.714022,736.046926 261.333072,737.094544 C259.904502,737.76121 258.475932,737.951686 258.09498,737.475496 C257.714028,737.094544 256.380696,732.904072 255.047364,728.23741 C252.85689,720.046942 249.99975,715.189804 247.523562,715.189804 C246.856896,715.189804 245.523564,714.332662 244.571184,713.189806 C241.714044,710.046952 238.475952,710.61838 237.047382,714.4279 C234.952146,719.66599 231.047388,724.332652 227.428344,725.85646 C223.999776,727.28503 223.047396,729.761218 225.142632,731.951692 C225.809298,732.52312 225.999774,733.761214 225.71406,734.618356 C224.856918,736.904068 218.952162,736.618354 213.714072,734.046928 C208.475982,731.475502 205.523604,732.04693 206.66646,735.475498 C208.761696,741.761206 208.380744,742.04692 193.428378,744.237394 C186.952194,745.094536 184.952196,745.094536 183.33315,744.142156 C181.809342,743.189776 180.380772,743.094538 177.904584,743.856442 C175.333158,744.618346 173.80935,744.523108 171.333162,743.285014 C168.380784,741.951682 167.523642,741.951682 163.142694,743.380252 C158.761746,744.808822 157.809366,744.808822 155.333178,743.47549 C153.142704,742.332634 150.47604,742.142158 142.952238,742.713586 L133.3332,743.380252 L129.04749,748.808818 C124.380828,754.618336 121.999878,755.761192 116.380836,754.90405 C112.38084,754.237384 108.952272,755.285002 106.095132,758.142142 C103.999896,760.237378 99.618948,760.904044 98.666568,759.284998 Z M97.999902,733.4755 C97.999902,732.04693 95.333238,729.18979 94.190382,729.18979 C92.761812,729.18979 92.761812,729.761218 94.095144,732.237406 C95.047524,734.142166 98.09514,734.999308 97.999902,733.4755 Z M363.047256,702.237436 C363.047256,700.713628 362.38059,700.237438 360.666306,700.237438 C357.809166,700.237438 355.23774,702.713626 357.237738,703.47553 C360.380592,704.808862 363.047256,704.142196 363.047256,702.237436 Z M1229.14163,614.618476 C1232.66543,612.808954 1232.95115,610.428004 1229.61782,609.6661 C1223.71306,608.142292 1219.42735,611.856574 1223.61782,614.90419 C1225.8083,616.523236 1225.52258,616.523236 1229.14163,614.618476 Z M753.046866,564.237574 C754.189722,563.094718 755.046864,561.475672 755.046864,560.713768 C755.046864,558.332818 751.332582,555.189964 748.57068,555.189964 C745.427826,555.189964 744.28497,558.904246 746.094492,563.189956 C747.523062,566.713762 750.189726,567.094714 753.046866,564.237574 Z M753.046866,552.618538 C753.046866,551.761396 750.665916,548.904256 747.808776,546.142354 C742.951638,541.57093 740.094498,540.047122 740.094498,542.04712 C740.094498,542.904262 744.380208,548.999494 747.523062,552.428062 C749.427822,554.618536 753.046866,554.713774 753.046866,552.618538 Z M717.046902,527.28523 C717.046902,526.047136 715.142142,524.809042 714.380238,525.475708 C713.618334,526.237612 714.951666,528.23761 716.094522,528.23761 C716.66595,528.23761 717.046902,527.76142 717.046902,527.28523 Z M711.332622,520.237618 C714.189762,520.237618 713.237382,518.23762 709.618338,516.523336 C705.23739,514.4281 702.665964,508.71382 704.7612,505.570966 C706.856436,502.428112 705.427866,500.047162 701.713584,500.428114 L698.57073,500.713828 L698.285016,507.570964 L697.904064,514.523338 L702.189774,518.809048 C705.999294,522.713806 706.570722,522.99952 708.09453,521.666188 C708.951672,520.904284 710.47548,520.237618 711.332622,520.237618 Z M702.094536,491.380504 C702.094536,489.951934 702.951678,487.380508 704.094534,485.666224 C707.427864,480.523372 705.999294,474.42814 701.523108,475.38052 C698.951682,475.85671 695.523114,486.713842 696.951684,489.856696 C697.523112,491.190028 698.09454,493.190026 698.09454,494.237644 C698.09454,495.951928 698.380254,496.047166 700.094538,495.190024 C701.332632,494.523358 702.094536,493.094788 702.094536,491.380504 Z M1217.99878,476.428138 C1217.99878,476.047186 1217.61783,474.999568 1217.0464,474.237664 C1215.90355,472.428142 1214.57021,473.570998 1215.42736,475.666234 C1215.99878,477.190042 1218.09402,477.856708 1217.99878,476.428138 Z M167.809356,448.332928 C168.856974,447.666262 168.856974,447.28531 167.809356,446.428168 C166.19031,445.094836 163.523646,446.428168 164.476026,448.047214 C165.333168,449.380546 166.095072,449.475784 167.809356,448.332928 Z M464.570964,441.190078 C464.856678,440.61865 464.666202,440.237698 464.094774,440.237698 C463.523346,440.237698 463.047156,440.61865 463.047156,441.190078 C463.047156,441.761506 463.237632,442.237696 463.523346,442.237696 C463.713822,442.237696 464.190012,441.761506 464.570964,441.190078 Z M607.808916,414.999628 C607.237488,413.190106 605.047014,412.809154 605.047014,414.618676 C605.047014,415.475818 605.71368,416.237722 606.66606,416.237722 C607.523202,416.237722 607.999392,415.666294 607.808916,414.999628 Z M932.475258,411.856774 C933.3324,410.428204 932.951448,409.571062 930.570498,407.666302 C928.951452,406.33297 927.427644,405.475828 927.237168,405.666304 C927.046692,405.85678 927.427644,407.856778 928.189548,410.14249 C929.427642,414.4282 930.665736,414.809152 932.475258,411.856774 Z" id="Shape"></path>
                    <path d="M234.571194,740.237398 C234.28548,739.66597 235.618812,738.2374 237.523572,736.999306 C240.761664,734.90407 241.047378,734.42788 240.47595,731.09455 C240.094998,728.523124 240.380712,727.189792 241.42833,726.237412 C243.428328,724.618366 246.094992,725.570746 246.094992,727.76122 C246.094992,728.904076 246.66642,729.285028 247.999752,728.904076 C250.285464,728.332648 252.475938,730.523122 251.714034,732.618358 C251.42832,733.4755 249.52356,734.808832 247.523562,735.665974 C245.523564,736.427878 242.666424,738.046924 241.047378,739.18978 C237.999762,741.380254 235.523574,741.761206 234.571194,740.237398 Z" id="Shape"></path>
                    <path d="M399.04722,726.237412 C399.04722,724.999318 401.809122,724.999318 404.571024,726.237412 C406.19007,726.904078 405.809118,727.094554 402.761502,727.094554 C400.761504,727.189792 399.04722,726.713602 399.04722,726.237412 Z" id="Shape"></path>
                    <path d="M808.284906,690.427924 C809.618238,684.046978 810.47538,683.189836 815.903946,683.189836 C821.142036,683.189836 822.284892,683.761264 823.903938,686.999356 C825.808698,690.523162 824.475366,691.380304 818.57061,690.6184 C813.618234,690.046972 813.142044,690.14221 811.522998,692.618398 C808.665858,696.999346 807.14205,695.951728 808.284906,690.427924 Z" id="Shape"></path>
                    <path d="M1205.99879,618.332758 C1202.85594,615.666094 1202.66546,615.285142 1203.80832,612.808954 C1205.23689,609.570862 1207.04641,609.475624 1209.71308,612.428002 C1212.18926,615.189904 1213.14164,617.76133 1212.37974,619.66609 C1211.5226,621.856564 1209.90355,621.57085 1205.99879,618.332758 Z" id="Shape"></path>
                    <path d="M36.095202,579.380416 C36.095202,578.904226 36.761868,577.856608 37.61901,577.094704 C39.04758,575.951848 39.238056,576.047086 38.952342,577.666132 C38.57139,579.570892 36.095202,581.0947 36.095202,579.380416 Z" id="Shape"></path>
                    <path d="M1173.80835,573.094708 C1171.90359,572.04709 1169.90359,565.761382 1170.76073,563.570908 C1171.04645,562.809004 1172.47502,561.951862 1173.90359,561.57091 C1175.33216,561.285196 1178.1893,560.428054 1180.28453,559.570912 C1183.80834,558.332818 1184.18929,558.332818 1186.09405,560.237578 C1187.99881,562.142338 1188.09405,563.285194 1186.37977,569.475664 C1185.42739,573.094708 1177.61787,575.38042 1173.80835,573.094708 Z" id="Shape"></path>
                    <path d="M1160.28455,561.951862 C1158.37979,560.14234 1158.85598,558.999484 1161.33217,559.380436 C1162.47503,559.570912 1163.71312,560.523292 1163.9036,561.475672 C1164.28455,563.47567 1161.99884,563.761384 1160.28455,561.951862 Z" id="Shape"></path>
                    <path d="M38.0952,472.809094 C38.0952,471.856714 38.761866,471.190048 39.619008,471.190048 C41.42853,471.190048 41.047578,473.380522 39.238056,473.95195 C38.57139,474.142426 38.0952,473.666236 38.0952,472.809094 Z" id="Shape"></path>
                    <path d="M576.766884,358.09488 C574.671648,353.142504 571.052604,351.332982 567.243084,353.237742 C565.624038,353.999646 560.671662,354.666312 555.719286,354.76155 L546.95739,355.047264 L544.385964,351.618696 C540.576444,346.66632 541.433586,344.666322 547.528818,344.571084 C550.195482,344.571084 553.052622,344.380608 553.719288,344.380608 C556.005,344.094894 554.957382,341.142516 551.2431,337.332996 C549.147864,335.23776 545.433582,331.237764 542.957394,328.380624 C538.481208,323.142534 535.433592,321.90444 534.290736,324.76158 C534.005022,325.618722 534.481212,327.047292 535.338354,328.09491 C537.338352,330.190146 537.624066,332.952048 535.719306,331.42824 C532.005024,328.5711 523.62408,330.285384 520.005036,334.666332 C519.243132,335.618712 517.43361,336.761568 516.195516,337.332996 C514.195518,337.999662 513.433614,337.713948 511.338378,335.142522 C509.719332,333.333 507.147906,331.713954 504.386004,331.047288 C501.814578,330.380622 500.005056,329.333004 500.005056,328.5711 C500.005056,327.809196 500.386008,327.237768 500.957436,327.237768 C501.528864,327.237768 502.005054,326.475864 502.005054,325.618722 C502.005054,324.76158 502.576482,321.999678 503.433624,319.333014 C505.624098,312.094926 506.00505,305.142552 504.290766,304.475886 C503.433624,304.190172 502.386006,304.380648 501.814578,304.952076 C501.052674,305.71398 499.81458,305.428266 497.624106,304.094934 C493.14792,301.42827 487.052688,301.618746 482.576502,304.666362 L478.957458,307.14255 L478.957458,304.856838 C478.957458,301.237794 478.005078,301.047318 473.338416,303.80922 C469.528896,305.999694 468.290802,306.285408 464.005092,305.71398 C460.005096,305.142552 458.481288,304.380648 456.862242,302.094936 C455.719386,300.47589 454.290816,299.237796 453.62415,299.237796 C452.957484,299.237796 451.147962,297.809226 449.719392,296.094942 C445.147968,290.856852 443.528922,292.285422 443.243208,301.809222 C442.957494,310.285404 443.528922,311.618736 447.43368,312.38064 C448.767012,312.571116 449.528916,313.618734 449.719392,315.333018 C450.005106,317.61873 449.624154,318.09492 447.052728,318.666348 C443.814636,319.333014 439.81464,322.761582 436.290834,327.713958 C435.05274,329.333004 433.814646,330.380622 433.338456,329.904432 C432.957504,329.52348 433.62417,328.09491 434.957502,326.66634 C436.862262,324.571104 437.147976,323.713962 436.386072,321.047298 C435.719406,318.761586 434.671788,317.61873 432.576552,317.047302 C431.052744,316.66635 428.290842,314.571114 426.386082,312.475878 L422.957514,308.666358 L420.862278,311.142546 C419.528946,312.761592 419.052756,314.2854 419.528946,315.618732 C421.052754,320.47587 421.147992,323.523486 419.719422,327.047292 C416.576568,334.856808 414.767046,342.094896 415.338474,344.475846 C415.814664,346.571082 415.433712,347.14251 412.957524,348.190128 C409.528956,349.618698 409.719432,349.713936 408.3861,345.71394 C407.719434,343.618704 406.48134,342.38061 404.481342,341.809182 C402.576582,341.237754 400.862298,339.713946 400.005156,337.809186 C398.005158,333.80919 392.576592,330.190146 388.38612,330.190146 C385.909932,330.190146 384.5766,329.52348 382.957554,327.237768 C381.433746,325.047294 380.005176,324.190152 378.005178,324.190152 C374.195658,324.190152 368.38614,320.094918 368.767092,317.61873 C368.957568,316.571112 369.528996,313.237782 370.100424,310.285404 C371.338518,303.33303 369.528996,300.47589 362.576622,298.475892 C358.671864,297.333036 357.529008,296.475894 356.386152,293.713992 C355.624248,291.809232 354.957582,289.333044 354.957582,288.285426 C354.957582,285.428286 353.243298,284.76162 350.386158,286.66638 C349.052826,287.523522 347.43378,287.999712 346.95759,287.713998 C345.243306,286.571142 345.909972,284.28543 348.38616,282.666384 C351.624252,280.571148 352.67187,275.71401 350.481396,273.237822 C349.243302,271.90449 348.957588,270.47592 349.529016,267.809256 C349.909968,265.809258 349.909968,264.190212 349.719492,264.190212 C349.433778,264.190212 346.386162,266.952114 342.862356,270.380682 L336.576648,276.475914 L338.290932,279.428292 C340.29093,282.952098 339.719502,284.190192 336.100458,284.190192 C334.671888,284.190192 332.386176,284.952096 331.148082,285.809238 L328.86237,287.428284 L330.957606,288.952092 C332.862366,290.190186 333.052842,291.142566 332.67189,295.523514 C332.005224,302.475888 330.957606,306.19017 328.86237,309.237786 C327.90999,310.571118 326.862372,313.713972 326.48142,316.285398 C326.00523,320.094918 326.290944,321.333012 328.100466,323.713962 C331.24332,327.61872 331.052844,332.571096 327.719514,335.71395 C324.57666,338.666328 324.957612,340.571088 329.052846,342.190134 C330.671892,342.8568 332.1957,343.80918 332.481414,344.28537 C333.14808,345.332988 327.052848,343.237752 324.290946,341.42823 C323.052852,340.666326 320.862378,340.190136 319.243332,340.380612 C317.052858,340.571088 316.195716,341.42823 315.243336,344.190132 L313.910004,347.713938 L314.57667,343.428228 C315.05286,339.618708 314.957622,339.237756 313.052862,339.237756 C310.671912,339.237756 305.910012,345.618702 306.00525,348.952032 C306.00525,350.380602 305.338584,351.237744 304.290966,351.237744 C303.338586,351.237744 302.862396,350.95203 303.243348,350.571078 C304.481442,349.332984 300.862398,344.094894 296.862402,341.237754 C292.290978,337.904424 289.81479,338.190138 286.671936,342.285372 C285.52908,343.904418 282.957654,345.71394 281.052894,346.285368 C279.052896,346.952034 276.95766,347.904414 276.290994,348.380604 C275.52909,348.952032 274.290996,348.856794 272.862426,348.190128 C271.24338,347.237748 269.719572,347.332986 266.291004,348.285366 L261.814818,349.52346 L257.91006,345.23775 C252.957684,339.904422 250.386258,339.99966 250.671972,345.618702 C251.052924,351.332982 250.005306,351.999648 241.338648,351.713934 C235.243416,351.42822 233.338656,350.95203 231.433896,349.237746 C229.529136,347.332986 228.86247,347.237748 226.862472,348.190128 C224.195808,349.618698 216.48153,348.952032 209.148204,346.571082 L204.005352,344.952036 L200.481546,348.09489 C198.481548,349.809174 196.672026,351.142506 196.386312,351.237744 C195.148218,351.237744 188.195844,347.237748 187.148226,345.904416 C186.48156,345.047274 184.386324,344.094894 182.576802,343.80918 C178.767282,343.047276 176.195856,340.571088 175.053,336.571092 C174.005382,332.475858 172.481574,332.666334 172.291098,336.952044 C172.100622,339.904422 172.67205,341.332992 175.243476,343.999656 L178.481568,347.332986 L172.481574,346.571082 C169.148244,346.094892 163.338726,345.904416 159.433968,346.094892 C149.529216,346.66632 145.243506,346.571082 138.957798,345.523464 L133.433994,344.666322 L132.957804,340.285374 C132.291138,334.28538 130.100664,332.952048 125.910192,336.094902 L122.767338,338.380614 L120.576864,336.285378 C118.86258,334.666332 117.624486,334.380618 114.862584,334.856808 C111.814968,335.332998 110.76735,334.952046 108.195924,332.38062 C106.291164,330.571098 103.529262,329.142528 101.148312,328.761576 C98.5768856,328.285386 96.1959356,327.047292 94.5768896,325.142532 C93.1483196,323.523486 91.1483216,322.190154 90.1959416,322.094916 C89.2435616,322.094916 86.8626116,321.90444 84.9578516,321.809202 C82.0054736,321.713964 81.4340456,321.237774 80.5769036,318.475872 C79.9102376,316.19016 78.8626196,314.952066 76.5769076,314.190162 C71.3388176,312.475878 62.0054936,310.190166 60.1959716,310.190166 C59.2435916,310.190166 57.3388316,309.237786 56.0054996,308.190168 C54.5769296,307.14255 52.1959796,306.19017 50.6721716,306.19017 C47.4340796,306.19017 47.1483656,304.666362 50.1007436,303.142554 C52.1959796,301.999698 52.2912176,300.666366 50.3864576,292.666374 C49.3388396,288.09495 48.1007456,287.237808 43.0531316,287.237808 C37.4340896,287.237808 24.6721976,281.523528 22.9579136,278.190198 C22.2912476,276.952104 22.0055336,274.571154 22.1960096,272.85687 C22.9579136,267.61878 21.3388676,263.523546 17.9102996,262.285452 C16.2912536,261.714024 14.9579216,261.047358 14.9579216,260.761644 C14.9579216,260.47593 16.5769676,259.52355 18.4817276,258.761646 C25.0531496,255.999744 23.9102936,252.3807 15.0531596,248.190228 C8.67221361,245.23785 7.43411961,242.475948 8.29126161,232.761672 C9.05316561,223.237872 9.52935561,222.38073 13.3388756,221.999778 C16.1960156,221.714064 16.4817296,221.333112 16.5769676,218.190258 C16.7674436,212.475978 16.8626816,212.38074 19.7198216,211.999788 C22.0055336,211.714074 22.4817236,211.142646 22.7674376,208.475982 C23.1483896,205.047414 19.6245836,197.237898 17.7198236,197.047422 C17.0531576,196.952184 14.6722076,197.047422 12.5769716,197.14266 L8.67221361,197.428374 L9.43411761,190.856952 C10.0055456,185.428386 9.71983161,183.523626 7.91030961,179.04744 C6.67221561,176.095062 4.57697961,172.571256 3.33888561,171.142686 C2.00555361,169.714116 0.957935609,168.09507 0.957935609,167.61888 C0.957935609,167.047452 2.76745761,164.856978 4.95793161,162.666504 C9.33887961,158.380794 9.71983161,156.66651 7.33888161,151.90461 C6.19602561,149.809374 5.71983561,146.476044 5.81507361,142.095096 C5.91031161,137.428434 5.43412161,135.047484 4.48174161,134.190342 C2.95793361,132.952248 3.14840961,122.190354 4.95793161,116.19036 C6.67221561,110.47608 5.14840761,96.476094 2.38650561,91.523718 C1.05317361,89.238006 -0.0896823909,87.14277 0.00555560911,86.857056 C0.00555560911,86.571342 2.10079161,86.380866 4.76745561,86.380866 C11.0531636,86.571342 22.1007716,80.9523 22.9579136,77.238018 C23.4341036,75.428496 24.1960076,74.76183 25.5293396,74.952306 C33.0531416,76.1904 42.7674176,75.904686 45.6245576,74.380878 C48.6721736,72.85707 49.1483636,72.952308 52.6721696,74.666592 C55.2435956,75.904686 59.2435916,76.571352 65.4340616,76.761828 C73.6245296,77.047542 74.5769096,76.857066 77.2435736,74.666592 C79.6245236,72.571356 81.1483316,72.190404 86.4816596,72.190404 C89.9102276,72.190404 96.1959356,72.666594 100.386408,73.238022 C105.719736,73.999926 119.81496,73.999926 146.95779,73.33326 C179.8149,72.476118 186.291084,72.095166 188.957748,70.666596 C190.76727,69.809454 195.433932,68.761836 199.33869,68.476122 C206.386302,67.904694 206.576778,67.999932 209.81487,71.142786 C212.862486,74.28564 213.1482,74.380878 214.862484,72.761832 C216.195816,71.523738 218.100576,71.142786 221.624382,71.4285 C226.00533,71.618976 226.48152,71.90469 226.767234,74.28564 C226.95771,75.71421 226.386282,77.428494 225.52914,78.190398 C223.529142,79.809444 223.529142,83.80944 225.52914,84.571344 C228.481518,85.7142 232.767228,85.142772 234.957702,83.33325 C236.862462,81.809442 237.052938,81.238014 236.100558,79.333254 C234.291036,76.095162 236.9577,72.190404 241.148172,72.190404 C241.7196,72.190404 244.386264,74.476116 247.148166,77.14278 C252.576732,82.571346 255.719586,83.428488 257.719584,80.190396 C258.671964,78.666588 260.100534,78.190398 263.62434,78.190398 C266.95767,78.190398 268.957668,77.61897 270.481476,76.095162 C272.290998,74.476116 274.862424,73.904688 282.386226,73.142784 C299.719542,71.523738 316.290954,66.6666 332.005224,58.57137 C336.671886,56.19042 341.052834,54.190422 341.7195,54.190422 C343.052832,54.190422 348.005208,63.238032 348.005208,65.523744 C348.005208,67.523742 354.005202,70.190406 358.481388,70.190406 C360.481386,70.190406 363.433764,69.428502 364.957572,68.476122 C367.338522,67.14279 368.481378,67.047552 371.624232,67.904694 C380.76708,70.571358 382.957554,70.857072 387.814692,70.47612 C393.433734,69.904692 393.719448,69.52374 391.528974,66.6666 C390.671832,65.523744 390.005166,63.714222 390.005166,62.476128 C390.005166,60.47613 390.481356,60.190416 394.386114,60.190416 C400.957536,60.190416 403.814676,56.19042 400.76706,51.333282 C400.195632,50.285664 399.909918,48.761856 400.29087,47.809476 C400.957536,45.904716 405.05277,45.619002 406.671816,47.333286 C407.528958,48.190428 408.86229,47.999952 411.909906,46.857096 C417.9099,44.380908 420.76704,44.666622 422.005134,47.809476 C422.862276,50.190426 423.338466,50.380902 426.671796,49.714236 C428.671794,49.333284 431.624172,47.904714 433.243218,46.571382 C435.624168,44.666622 437.147976,44.190432 441.338448,44.380908 C444.10035,44.476146 450.29082,43.999956 454.957482,43.33329 C460.576524,42.476148 468.86223,42.285672 479.433648,42.666624 C503.433624,43.523766 507.147906,43.428528 523.433604,41.90472 C534.10026,40.95234 541.433586,40.857102 548.481198,41.42853 C554.957382,41.999958 562.576422,41.999958 570.385938,41.238054 C581.624022,40.190436 582.385926,40.285674 585.719256,42.190434 C589.719252,44.571384 592.100202,44.095194 594.385914,40.666626 L596.00496,38.190438 L611.433516,38.666628 C626.766834,39.238056 630.957306,39.904722 634.195398,42.8571 C636.385872,44.857098 638.957298,43.904718 638.290632,41.42853 C637.719204,39.142818 640.29063,36.19044 642.862056,36.19044 C643.814436,36.19044 645.05253,35.619012 645.719196,35.047584 C646.671576,34.095204 647.814432,34.476156 650.671572,36.857106 C653.909664,39.52377 654.385854,40.380912 654.10014,43.428528 C653.909664,46.19043 654.290616,47.333286 656.100138,48.57138 C659.242992,50.761854 662.290608,50.571378 664.481082,48.190428 C665.623938,46.857096 667.528698,46.19043 670.100124,46.19043 C673.528692,46.19043 674.004882,45.904716 674.004882,43.80948 C674.004882,40.095198 676.576308,37.999962 680.76678,38.380914 C684.290586,38.666628 684.481062,38.857104 685.242966,43.619004 C686.385822,50.190426 687.623916,51.809472 690.100104,49.618998 C691.052484,48.666618 693.814386,47.714238 696.195336,47.428524 C699.909618,47.047572 700.957236,47.428524 704.481042,50.190426 C707.90961,52.952328 708.957228,53.33328 712.481034,52.761852 C714.671508,52.3809 718.576266,51.90471 721.147692,51.714234 C723.814356,51.42852 727.719114,50.285664 729.909588,49.238046 C734.290536,46.952334 740.861958,46.571382 744.290526,48.285666 C745.433382,48.952332 748.576236,51.42852 751.052424,53.904708 C756.195276,58.857084 759.242892,59.333274 759.81432,55.142802 C760.004796,53.80947 760.671462,52.095186 761.24289,51.333282 C763.338126,48.761856 769.528596,46.476144 775.909542,45.809478 C779.433348,45.428526 782.766678,44.76186 783.242868,44.28567 C783.719058,43.80948 783.338106,41.047578 782.480964,37.904724 C781.24287,33.80949 781.052394,30.857112 781.71906,26.19045 C782.576202,18.952362 784.957152,16.66665 784.957152,22.952358 C784.957152,27.714258 788.195244,31.238064 792.576192,31.238064 C794.57619,31.142826 796.48095,32.190444 798.480948,34.190442 C800.957136,36.761868 802.099992,37.238058 806.48094,37.238058 C809.33808,37.238058 813.433314,36.476154 815.623788,35.523774 C818.480928,34.28568 821.814258,33.999966 828.957108,34.190442 C834.195198,34.380918 846.290424,34.571394 856.0047,34.666632 C865.623738,34.666632 875.623728,35.142822 878.195154,35.619012 C881.909436,36.285678 883.433244,36.095202 885.433242,34.76187 C887.623716,33.3333 888.004668,32.476158 888.004668,27.238068 C888.004668,20.47617 889.147524,19.428552 894.57609,21.714264 C899.528466,23.714262 906.576078,22.666644 908.671314,19.52379 C910.099884,17.333316 910.861788,17.14284 916.290354,17.428554 L922.385586,17.714268 L923.62368,23.142834 C924.766536,28.380924 926.00463,30.095208 930.576054,32.761872 C932.290338,33.80949 932.385576,34.190442 931.052244,38.285676 C930.195102,40.857102 929.528436,46.857096 929.528436,52.666614 C929.433198,61.238034 929.147484,63.142794 927.337962,65.71422 C925.623678,68.09517 925.147488,70.666596 924.766536,78.190398 C924.195108,88.476102 923.62368,90.095148 917.9094,97.333236 C914.957022,101.142756 914.09988,103.142754 913.528452,108.190368 C912.766548,115.142742 913.433214,116.66655 917.9094,117.523692 C920.195112,117.999882 921.24273,119.142738 922.957014,122.85702 C925.242726,127.904634 925.242726,131.42844 923.052252,144.190332 C920.480826,159.237936 920.385588,157.428414 924.57606,161.142696 C926.766534,163.047456 929.242722,165.809358 930.195102,167.333166 C933.433194,172.666494 939.909378,170.190306 936.957,164.666502 C935.814144,162.571266 936.00462,161.999838 938.195094,159.333174 C939.528426,157.714128 941.147472,154.380798 941.909376,151.999848 C943.14747,147.6189 943.052232,147.333186 938.576046,138.380814 C936.00462,133.3332 934.004622,128.761776 934.004622,128.190348 C934.004622,127.61892 935.147478,126.66654 936.576048,126.19035 C938.956998,125.23797 939.147474,124.857018 938.576046,121.047498 C938.195094,118.761786 936.766524,115.523694 935.337954,113.904648 C933.433194,111.618936 932.957004,110.190366 933.433194,108.285606 C935.147478,102.095136 934.671288,94.76181 932.290338,89.714196 C930.957006,86.761818 930.004626,82.761822 930.004626,80.190396 C930.004626,76.095162 930.385578,75.142782 934.480812,71.238024 C936.957,68.761836 938.956998,65.999934 938.956998,65.142792 C938.956998,64.28565 940.099854,62.476128 941.433186,61.238034 C942.861756,59.904702 944.290326,56.952324 944.861754,53.999946 C946.385562,47.333286 948.480798,43.523766 951.71889,41.809482 C954.385554,40.380912 954.480792,40.095198 954.480792,32.571396 C954.480792,21.714264 955.909362,18.952362 962.480784,17.904744 C965.242686,17.428554 978.86172,17.047602 992.861706,17.047602 L1018.29025,16.952364 L1020.86168,20.095218 C1023.90929,23.8095 1024.76644,23.904738 1028.57596,20.95236 C1031.05214,18.952362 1032.9569,18.666648 1045.43308,18.09522 C1061.14735,17.333316 1070.57591,15.619032 1084.95685,10.761894 L1094.76637,7.428564 L1098.0997,9.428562 C1099.90922,10.571418 1102.67112,12.476178 1104.19493,13.714272 C1108.29016,17.14284 1116.19492,17.904744 1121.9092,15.333318 C1124.29015,14.2857 1126.86157,13.619034 1127.62348,13.904748 C1129.81395,14.76189 1133.62347,11.523798 1134.29014,8.285706 C1134.9568,4.857138 1137.14728,4.28571 1140.29013,6.66666 C1141.62346,7.61904 1142.95679,7.809516 1145.24251,7.14285 C1146.95679,6.571422 1149.2425,6.476184 1150.29012,6.761898 C1152.19488,7.428564 1154.67107,7.714278 1164.86153,8.57142 C1167.81391,8.857134 1170.67105,9.5238 1171.24248,10.095228 C1171.90915,10.666656 1173.71867,11.238084 1175.33771,11.238084 C1176.86152,11.238084 1180.00438,11.714274 1182.19485,12.38094 C1186.19485,13.523796 1186.29008,13.523796 1189.05199,10.285704 C1190.95675,7.999992 1193.05198,6.66666 1195.52817,6.285708 C1197.71864,5.904756 1199.71864,4.857138 1200.38531,3.714282 C1200.95674,2.571426 1201.43293,1.619046 1201.43293,1.523808 C1201.43293,1.523808 1203.33769,1.142856 1205.6234,0.761904 L1209.81387,0 L1208.67101,3.142854 C1207.24244,6.857136 1208.57578,8.190468 1213.62339,8.190468 C1215.43291,8.190468 1217.05196,8.57142 1217.33767,9.04761 C1217.62339,9.428562 1218.38529,13.714272 1218.95672,18.476172 C1219.52815,23.238072 1221.14719,31.619016 1222.57576,36.952344 C1224.48052,43.999956 1225.33766,49.904712 1225.62338,58.190418 C1225.81385,64.476126 1226.09957,71.809452 1226.38528,74.476116 C1226.86147,79.333254 1225.71862,83.238012 1222.00433,88.666578 C1220.86148,90.380862 1220.00434,93.33324 1220.00434,95.523714 C1219.9091,101.42847 1217.9091,108.09513 1215.52815,109.99989 C1214.38529,110.95227 1212.76625,113.047506 1212.09958,114.76179 C1211.43292,116.476074 1208.19482,120.380832 1204.95673,123.428448 C1198.8615,129.237966 1197.24245,132.38082 1198.38531,136.66653 C1198.8615,138.666528 1199.6234,139.237956 1201.90912,139.237956 C1205.24245,139.237956 1205.81387,140.285574 1204.95673,145.333188 C1204.48054,147.714138 1203.05197,149.99985 1200.67102,152.190324 C1198.67102,153.904608 1196.48055,156.856986 1195.81388,158.761746 C1195.05198,160.856982 1194.00436,162.095076 1193.05198,161.9046 C1191.52817,161.714124 1190.76627,164.190312 1189.3377,175.23792 C1188.86151,178.666488 1189.14722,180.095058 1190.38532,181.142676 C1192.57579,182.952198 1192.67103,198.380754 1190.48056,200.190276 C1189.62341,200.856942 1188.95675,201.999798 1188.95675,202.761702 C1188.95675,203.428368 1188.09961,204.380748 1186.95675,204.666462 C1185.81389,205.047414 1184.95675,206.19027 1184.95675,207.333126 C1184.95675,209.618838 1189.52818,214.571214 1190.86151,213.714072 C1192.48055,212.761692 1193.05198,216.475974 1191.52817,218.09502 C1190.76627,218.952162 1188.29008,223.237872 1186.00437,227.523582 C1181.33771,236.475954 1180.48057,243.33309 1183.8139,245.142612 C1184.86151,245.71404 1186.00437,245.809278 1186.29008,245.523564 C1186.67104,245.142612 1188.00437,245.618802 1189.43294,246.571182 C1193.62341,249.333084 1192.48055,254.380698 1187.43294,255.333078 C1184.29009,255.904506 1181.8139,261.9045 1182.5758,267.237828 C1183.05199,271.237824 1182.86152,272.190204 1180.5758,274.76163 L1177.90914,277.714008 L1175.62343,274.952106 C1173.81391,272.761632 1172.57581,272.190204 1169.14724,272.190204 C1165.90915,272.190204 1164.29011,271.618776 1162.38535,269.714016 C1161.05201,268.380684 1160.0044,266.856876 1160.0044,266.380686 C1160.0044,265.904496 1157.62345,264.28545 1154.86154,262.761642 C1150.00441,260.380692 1149.52822,260.285454 1147.33774,261.714024 C1145.52822,262.85688 1142.57584,266.475924 1141.43299,268.856874 C1141.43299,269.04735 1140.38537,268.856874 1139.24251,268.57116 C1137.7187,268.190208 1136.57585,266.475924 1135.43299,262.952118 C1134.00442,258.952122 1133.43299,258.09498 1131.81395,258.475932 C1130.09966,258.952122 1130.00443,258.666408 1130.48062,255.71403 C1130.95681,253.523556 1130.57585,251.333082 1129.433,249.04737 C1128.00443,246.380706 1127.62348,242.8569 1127.52824,232.666434 C1127.433,225.523584 1127.71871,218.475972 1128.1949,217.047402 C1128.86157,214.952166 1128.38538,212.952168 1125.90919,207.523602 C1120.19491,195.2379 1114.86158,190.571238 1113.33778,196.66647 C1112.76635,199.237896 1113.24254,206.856936 1114.48063,211.523598 C1115.05206,213.80931 1114.67111,214.856928 1112.48063,217.14264 C1109.81397,219.904542 1109.81397,220.380732 1110.3854,226.856916 C1111.05206,232.952148 1110.86159,233.999766 1109.05207,236.380716 C1107.90921,237.809286 1106.95683,239.428332 1106.95683,239.99976 C1106.95683,240.571188 1105.71874,241.999758 1104.09969,243.047376 C1102.57588,244.190232 1100.48065,247.14261 1099.52827,249.618798 C1098.57589,252.190224 1097.43303,254.190222 1096.95684,254.190222 C1095.05208,254.190222 1089.62351,259.809264 1086.86161,264.571164 C1084.95685,267.999732 1084.00447,271.047348 1084.00447,273.904488 C1084.00447,276.1902 1083.71876,278.761626 1083.33781,279.618768 C1082.5759,281.618766 1078.00448,281.714004 1075.43305,279.809244 C1073.52829,278.380674 1073.52829,278.285436 1075.814,275.809248 C1077.14734,274.475916 1077.90924,272.952108 1077.62353,272.38068 C1077.24257,271.90449 1074.00448,271.523538 1070.2902,271.618776 L1063.5283,271.714014 L1062.00449,275.71401 C1061.14735,277.904484 1059.33783,281.523528 1058.0045,283.714002 C1056.57593,285.904476 1054.57593,289.904472 1053.43307,292.571136 C1050.95689,298.666368 1048.76641,300.285414 1046.19499,297.904464 C1045.14737,296.952084 1043.62356,296.19018 1042.76642,296.19018 C1040.57594,296.19018 1038.00452,299.52351 1038.00452,302.38065 C1038.00452,305.428266 1033.33786,308.475882 1032.00452,306.285408 C1031.33786,305.142552 1030.57595,305.23779 1027.90929,306.571122 C1026.09977,307.428264 1023.14739,308.190168 1021.33787,308.190168 C1019.05216,308.190168 1016.95692,309.142548 1014.67121,311.142546 C1012.29026,313.237782 1009.81407,314.2854 1006.19503,314.76159 L1001.14741,315.428256 L997.90932,309.809214 C996.195036,306.761598 992.766468,302.475888 990.385518,300.380652 C987.337902,297.61875 986.385522,296.19018 987.147426,295.428276 C987.814092,294.666372 987.43314,293.904468 985.623618,292.666374 C984.195048,291.809232 982.766478,289.618758 982.385526,287.904474 C982.004574,286.094952 980.576004,283.33305 979.242672,281.714004 C970.2903,270.761634 969.81411,269.333064 972.480774,264.094974 C974.004582,261.333072 973.814106,260.666406 970.385538,250.95213 C966.95697,241.333092 966.861732,240.761664 968.576016,239.52357 C969.528396,238.761666 971.623632,238.190238 973.14744,238.190238 C978.099816,238.190238 978.480768,235.23786 974.480772,227.333106 C972.576012,223.428348 970.480776,219.99978 969.909348,219.714066 C968.195064,218.57121 965.814114,221.237874 966.576018,223.428348 C967.337922,225.999774 964.290306,233.999766 961.909356,235.23786 C960.861738,235.809288 958.290312,235.904526 956.099838,235.618812 C952.480794,235.047384 951.814128,235.23786 949.052226,238.285476 C947.43318,240.190236 946.00461,242.190234 946.00461,242.8569 C945.909372,244.76166 948.956988,246.571182 953.242698,247.14261 C957.147456,247.6188 957.43317,247.904514 958.480788,252.190224 C959.147454,254.666412 960.385548,258.190218 961.337928,259.99974 C963.62364,264.475926 962.099832,268.380684 956.766504,271.90449 C952.766508,274.571154 952.576032,275.047344 952.861746,282.285432 C953.052222,285.904476 952.576032,287.428284 950.480796,289.99971 L947.814132,293.142564 L950.004606,298.952082 C952.004604,304.190172 952.004604,305.23779 950.956986,311.237784 L949.718892,317.713968 L952.956984,322.475868 C955.909362,326.952054 956.099838,327.61872 955.337934,331.999668 L954.480792,336.66633 L949.433178,337.047282 C946.671276,337.14252 944.004612,337.713948 943.528422,338.285376 C942.956994,338.761566 940.195092,339.237756 937.337952,339.237756 L932.099862,339.237756 L931.433196,335.23776 C931.052244,333.047286 931.24272,330.47586 931.909386,329.333004 C933.814146,325.71396 933.14748,319.333014 930.29034,314.380638 C926.385582,307.523502 922.099872,303.33303 918.195114,302.571126 C915.52845,302.094936 914.480832,301.142556 913.337976,298.475892 C912.19512,295.904466 911.433216,295.2378 910.099884,295.618752 C907.337982,296.475894 903.718938,294.76161 896.290374,289.237806 C888.957048,283.714002 887.147526,283.237812 884.480862,286.19019 C882.385626,288.475902 879.242772,288.761616 876.385632,286.856856 C873.338016,284.666382 866.385642,283.904478 865.05231,285.618762 C864.09993,286.761618 864.290406,287.428284 866.099928,289.04733 C867.338022,290.190186 869.147544,291.42828 870.195162,291.809232 C871.814208,292.285422 871.623732,292.761612 868.290402,295.71399 C866.195166,297.61875 863.338026,299.142558 862.004694,299.142558 C859.433268,299.237796 858.671364,299.809224 850.957086,307.333026 C847.052328,311.142546 846.00471,311.713974 842.004714,311.713974 C838.38567,311.713974 837.242814,312.094926 836.576148,313.713972 C835.433292,316.19016 827.242824,320.190156 823.242828,320.190156 C820.76664,320.190156 819.528546,319.333014 816.861882,315.71397 C814.957122,313.237782 813.1476,311.237784 812.766648,311.237784 C812.385696,311.237784 811.909506,313.33302 811.71903,315.904446 C811.433316,320.666346 811.433316,320.666346 807.338082,321.237774 C802.099992,321.90444 798.480948,324.380628 796.385712,328.475862 C795.433332,330.190146 794.195238,331.999668 793.528572,332.38062 C791.052384,334.094904 787.338102,333.142524 784.766676,330.190146 C781.71906,326.66634 780.385728,326.475864 778.957158,329.237766 C778.195254,330.571098 778.195254,331.809192 778.957158,333.237762 C780.004776,335.23776 778.671444,336.19014 777.43335,334.190142 C777.147636,333.618714 775.719066,333.237762 774.385734,333.237762 C772.957164,333.237762 770.671452,332.38062 769.242882,331.42824 C767.338122,330.190146 763.62384,329.618718 754.385754,329.237766 C747.623856,328.952052 741.814338,328.380624 741.338148,327.904434 C740.957196,327.523482 742.004814,327.237768 743.719098,327.237768 C749.909568,327.237768 753.909564,320.95206 753.909564,311.047308 C754.004802,305.999694 749.052426,301.618746 744.481002,302.761602 C742.861956,303.142554 739.909578,303.523506 737.90958,303.618744 C736.00482,303.713982 733.338156,304.475886 732.004824,305.428266 C730.576254,306.380646 728.38578,307.237788 726.95721,307.237788 C725.52864,307.237788 723.528642,307.809216 722.385786,308.57112 C719.623884,310.47588 713.242938,311.618736 711.71913,310.47588 C711.052464,309.99969 708.290562,308.761596 705.719136,307.809216 C700.385808,305.809218 698.004858,303.047316 698.004858,298.856844 C698.004858,297.333036 697.43343,295.142562 696.862002,293.999706 C695.433432,291.333042 696.576288,285.428286 698.862,284.28543 C701.909616,282.571146 704.671518,284.094954 706.385802,288.285426 C707.242944,290.4759 708.004848,293.237802 708.004848,294.475896 C708.004848,297.523512 709.719132,299.237796 713.1477,299.237796 C716.48103,299.237796 716.861982,301.142556 713.909604,303.713982 L711.814368,305.618742 L714.10008,306.380646 C715.719126,307.047312 717.242934,306.571122 720.195312,304.666362 C724.861974,301.523508 725.719116,299.713986 723.62388,297.333036 C722.6715,296.285418 722.004834,293.80923 722.004834,291.333042 C722.004834,288.666378 720.861978,284.952096 718.957218,281.142576 C717.338172,277.904484 716.00484,274.571154 716.00484,273.80925 C716.00484,272.285442 714.766746,271.237824 707.814372,266.761638 C705.433422,265.23783 703.719138,264.76164 702.861996,265.333068 C702.100092,265.809258 699.719142,265.904496 697.623906,265.618782 C694.671528,265.142592 692.481054,265.523544 688.86201,267.237828 L684.004872,269.52354 L678.100116,265.809258 C671.623932,261.9045 666.671556,261.142596 663.433464,263.714022 C661.528704,265.142592 661.528704,265.23783 664.481082,267.714018 C674.290596,275.999724 674.481072,276.380676 670.671552,280.761624 C668.671554,283.047336 668.195364,283.237812 665.719176,282.094956 C662.290608,280.571148 660.004896,281.523528 660.004896,284.571144 C660.004896,288.952092 662.481084,290.380662 668.86203,289.618758 C673.242978,289.142568 674.862024,289.333044 675.719166,290.4759 C677.719164,292.85685 676.195356,294.666372 670.481076,297.047322 C663.433464,299.9997 662.481084,301.237794 664.766796,304.28541 C667.719174,308.190168 672.957264,319.142538 675.52869,327.047292 C676.95726,331.142526 679.242972,336.475854 680.671542,338.952042 C683.433444,343.713942 683.14773,344.475846 678.195354,345.809178 C675.0525,346.66632 672.957264,344.571084 672.957264,340.571088 C672.957264,338.666328 672.290598,335.999664 671.338218,334.666332 C670.481076,333.333 670.100124,331.809192 670.385838,331.237764 C670.76679,330.761574 670.576314,329.428242 670.004886,328.475862 C669.528696,327.523482 668.86203,325.428246 668.481078,323.999676 C667.43346,318.952062 659.052516,319.237776 657.43347,324.28539 C656.862042,326.094912 657.528708,327.333006 660.862038,330.380622 C663.14775,332.571096 664.957272,334.952046 664.957272,335.71395 C664.957272,336.475854 666.290604,338.666328 668.004888,340.571088 C670.576314,343.523466 670.862028,344.475846 670.004886,346.094892 C668.671554,348.475842 665.909652,349.428222 662.576322,348.666318 C658.86204,347.713938 656.0049,348.952032 655.909662,351.523458 C655.909662,353.618694 655.814424,353.618694 653.814426,351.237744 C650.385858,347.047272 646.95729,339.428232 646.95729,335.904426 C646.95729,333.142524 647.814432,331.713954 651.433476,328.285386 C655.242996,324.666342 655.909662,323.713962 655.338234,321.42825 C654.957282,319.904442 654.57633,318.475872 654.385854,318.285396 C654.195378,318.09492 654.766806,316.571112 655.623948,314.952066 C657.052518,311.999688 657.052518,311.618736 653.528712,304.7616 C651.052524,299.809224 649.719192,295.523514 649.052526,290.285424 C647.90967,281.047338 646.576338,279.618768 638.100156,278.761626 L631.814448,278.09496 L632.481114,281.237814 C633.052542,283.999716 632.766828,284.76162 630.385878,286.66638 C627.623976,288.856854 627.623976,288.952092 629.243022,291.523518 C630.195402,292.952088 633.719208,295.523514 637.052538,297.237798 C642.862056,300.190176 643.14777,300.47589 642.576342,303.237792 C641.814438,307.428264 642.67158,309.04731 647.052528,311.237784 C652.004904,313.80921 652.290618,314.380638 650.29062,318.666348 C648.957288,321.523488 648.004908,322.190154 645.719196,322.190154 C644.195388,322.190154 641.814438,321.523488 640.481106,320.666346 C638.481108,319.333014 637.43349,319.237776 633.814446,320.190156 C631.433496,320.856822 628.86207,321.809202 628.195404,322.38063 C626.48112,323.8092 626.671596,329.713956 628.481118,331.237764 C629.33826,331.90443 629.81445,333.142524 629.528736,333.904428 C629.243022,334.666332 629.623974,336.285378 630.481116,337.523472 C631.24302,338.666328 632.004924,340.380612 632.004924,341.237754 C632.004924,343.428228 622.481124,352.85679 619.433508,353.618694 C616.48113,354.380598 612.481134,352.475838 609.052566,348.856794 L606.671616,346.285368 L609.623994,341.523468 C611.24304,338.952042 613.909704,336.094902 615.52875,335.142522 C617.623986,333.999666 618.576366,332.666334 618.766842,330.285384 C619.147794,326.094912 617.719224,324.475866 612.957324,323.713962 C609.147804,323.047296 600.100194,325.142532 597.338292,327.333006 C596.576388,327.904434 596.195436,331.618716 596.290674,337.237758 L596.385912,346.19013 L599.528766,347.237748 C601.338288,347.809176 603.528762,349.142508 604.481142,350.190126 C606.862092,352.85679 605.147808,352.761552 602.385906,350.094888 C599.719242,347.6187 598.004958,348.285366 598.004958,351.713934 C598.004958,353.237742 598.671624,354.28536 600.100194,354.76155 C603.243048,355.71393 601.147812,356.66631 590.957346,358.666308 C586.290684,359.618688 581.528784,360.761544 580.481166,361.142496 C578.766882,361.809162 578.195454,361.332972 576.766884,358.09488 Z M303.719538,337.999662 C305.624298,336.094902 305.148108,331.42824 302.957634,329.237766 C301.529064,327.713958 299.624304,327.237768 296.00526,327.237768 C293.243358,327.237768 290.957646,327.61872 290.957646,328.09491 C290.957646,330.856812 293.14812,334.190142 294.862404,334.190142 C296.00526,334.190142 297.624306,335.332998 298.576686,336.66633 C300.386208,339.428232 301.910016,339.809184 303.719538,337.999662 Z M287.148126,317.333016 C286.95765,314.2854 286.290984,311.142546 285.719556,310.47588 C283.243368,307.333026 279.529086,313.33302 280.576704,319.0473 C281.433846,323.904438 281.433846,323.904438 284.767176,323.428248 C287.529078,323.047296 287.624316,322.952058 287.148126,317.333016 Z M836.195196,310.47588 C837.528528,308.856834 837.528528,308.285406 835.909482,304.475886 C834.861864,302.094936 833.62377,300.190176 833.14758,300.190176 C830.957106,300.190176 830.195202,306.952074 832.004724,310.285404 C833.242818,312.666354 834.195198,312.666354 836.195196,310.47588 Z M325.433802,289.237806 C325.814754,288.666378 325.338564,288.190188 324.481422,288.190188 C323.62428,288.190188 322.957614,288.666378 322.957614,289.237806 C322.957614,289.713996 323.338566,290.190186 323.909994,290.190186 C324.386184,290.190186 325.148088,289.713996 325.433802,289.237806 Z" id="Shape"></path>
                    <path d="M971.618076,401.475832 C970.189506,399.380596 969.04665,396.80917 969.141888,395.666314 C969.141888,393.95203 969.332364,394.047268 970.189506,396.142504 C970.665696,397.475836 972.284742,400.1425 973.618074,401.952022 C975.046644,403.761544 975.71331,405.190114 975.141882,405.190114 C974.570454,405.190114 972.951408,403.47583 971.618076,401.475832 Z" id="Shape"></path>
                    <path d="M1056.76085,393.094888 C1055.80847,392.52346 1055.04656,391.57108 1055.04656,390.999652 C1055.04656,390.332986 1055.61799,390.428224 1056.57037,391.190128 C1057.33228,391.856794 1059.1418,392.237746 1060.57037,391.952032 C1062.18941,391.666318 1062.95132,391.856794 1062.76084,392.618698 C1062.28465,394.047268 1058.95132,394.42822 1056.76085,393.094888 Z" id="Shape"></path>
                    <path d="M692.094546,318.23782 C692.094546,317.666392 692.475498,317.190202 693.046926,317.190202 C693.618354,317.190202 694.094544,317.666392 694.094544,318.23782 C694.094544,318.71401 693.618354,319.1902 693.046926,319.1902 C692.475498,319.1902 692.094546,318.71401 692.094546,318.23782 Z" id="Shape"></path>
                    <path d="M753.237342,82.619008 C753.713532,80.428534 755.427816,80.333296 755.904006,82.428532 C756.094482,83.571388 755.618292,84.238054 754.570674,84.238054 C753.618294,84.238054 753.046866,83.571388 753.237342,82.619008 Z" id="Shape"></path>
                    <path d="M708.761196,77.571394 C709.5231,77.28568 710.570718,77.28568 711.332622,77.571394 C711.999288,77.76187 711.42786,78.047584 710.094528,78.047584 C708.665958,78.047584 708.09453,77.76187 708.761196,77.571394 Z" id="Shape"></path>
                    <path d="M929.141928,64.809502 C927.903834,63.47617 927.14193,61.857124 927.522882,61.285696 C928.5705,59.571412 929.427642,60.047602 931.808592,63.666646 C934.475256,67.857118 932.665734,68.523784 929.141928,64.809502 Z" id="Shape"></path>
                </g>
            </g>
            <g id="train" transform="translate(273.000000, 0.000000)">
                <g id="Group" transform="translate(405.654606, 411.213266) scale(-1, 1) rotate(-180.000000) translate(-405.654606, -411.213266) translate(0.154606, 0.213266)">
                    <path d="M114.612803,813.225462 C105.796434,807.933322 94.0412744,804.405229 88.1636948,803.817214 C81.6983572,803.817214 75.2330196,799.701105 73.4697457,794.408966 C71.1187138,789.116826 62.3023443,780.884609 53.4859748,776.180484 C31.1511722,765.00819 19.3960129,722.083057 12.9306752,628.000574 C11.7551593,610.948124 8.81636948,585.663456 6.46533762,572.1391 C4.11430576,558.614743 1.7632739,479.820663 1.17551593,397.498491 L0,247.554533 L11.7551593,250.494611 L23.5103186,253.434688 L18.8082549,230.502083 C16.457223,218.153757 12.9306752,183.460842 11.7551593,152.884035 L9.40412744,98.1985916 L32.9144461,74.0899553 C50.547185,56.4494898 70.5309558,45.2771949 108.735224,31.752838 C137.535364,21.7565742 173.976358,14.1123724 189.845823,13.5243569 C206.303046,13.5243569 219.233721,10.5842793 219.233721,7.64420174 C219.233721,2.35206207 316.213785,0.588015519 460.214487,2.94007759 C497.243239,3.52809311 550.729213,2.94007759 598.925367,0.588015519 C615.970348,9.99200722e-16 644.770488,1.76404656 663.578743,5.29213967 C690.615609,9.99626382 706.485074,17.6404656 736.46073,41.7491018 C759.971049,60.5655984 776.428272,78.206064 778.191546,87.6143123 C779.95482,95.8465295 783.481368,110.546917 786.420158,119.36715 C789.358947,128.775399 790.534463,148.179911 788.771189,162.880299 C787.007915,177.580687 789.358947,219.917804 792.885495,257.550797 C801.701865,335.756861 802.877381,372.801839 797.587559,381.622072 C791.122221,391.618335 791.709979,439.835608 798.175317,484.524787 C801.701865,507.457393 802.877381,542.738324 801.114107,563.318867 C798.763075,587.427503 800.526349,605.655984 805.228412,615.064232 C811.69375,626.824543 811.69375,639.172869 805.81617,675.041815 C801.701865,699.738467 794.061011,726.787181 789.358947,733.843367 C777.603788,753.247879 723.530055,789.116826 720.591265,780.296593 C717.652476,772.064376 694.729915,769.712314 694.142157,777.356516 C694.142157,782.06064 523.692347,789.116826 451.985875,787.352779 C425.536767,786.764764 416.720397,788.52881 416.720397,795.584997 C416.720397,802.053167 412.606092,802.641183 399.675416,799.701105 C377.340614,793.232935 280.948307,793.82095 265.6666,800.289121 C258.613505,802.641183 229.813364,806.169276 201.013224,807.933322 C171.625326,809.697369 145.763975,813.813478 142.237428,816.753555 C134.596574,823.809741 132.8333,823.809741 114.612803,813.225462 Z M333.258766,741.487569 C380.867161,737.959476 461.977761,736.783445 513.700462,738.547491 C570.712984,740.311538 608.917252,739.135507 611.268284,735.607414 C613.031558,732.667336 631.839813,729.727259 652.999099,729.727259 C695.317673,729.727259 724.705571,716.202902 738.224004,691.50625 C744.101584,680.92197 745.864858,636.820807 744.689342,519.805718 C744.101584,433.367437 740.575036,326.348613 737.048488,282.247449 C732.934183,238.146285 730.583151,183.460842 730.583151,161.704268 L731.758667,121.131197 L714.713686,95.258514 C692.966641,61.7416294 670.04408,54.0974277 608.329494,59.3895674 C583.055902,61.1536139 465.504308,65.8577381 347.364957,69.3858312 C188.082549,73.5019398 128.131236,77.0300329 112.849529,83.4982036 C101.682128,88.2023278 84.637147,100.550654 75.2330196,111.134933 L57.6002806,129.95143 L61.1268284,242.850409 C62.8901023,305.180054 64.6533762,363.39359 64.6533762,371.625808 C64.0656182,391.618335 64.0656182,388.678258 67.592166,546.266417 C69.3554399,638.584853 72.8819877,685.626095 78.7595673,696.798389 C82.8738731,705.618622 94.0412744,718.554964 103.445402,725.61115 C122.253657,739.723522 199.837708,755.011926 228.637848,750.895817 C238.629734,749.131771 285.650371,745.015662 333.258766,741.487569 Z" id="Shape"></path>
                    <path d="M287.413645,669.749676 C282.123823,667.985629 269.780906,660.929443 260.376779,653.873257 C247.446103,645.053024 243.919556,637.996838 246.270587,628.588589 C248.033861,621.532403 246.270587,606.244 242.156282,595.071705 C236.278702,578.019255 236.278702,573.903146 243.919556,569.199022 C249.209377,565.670929 256.850231,564.494898 260.964537,566.258944 C265.078842,567.434975 268.60539,565.670929 268.60539,562.142836 C268.60539,558.026727 262.140053,556.850696 253.323683,558.614743 C244.507314,559.790774 237.454218,559.790774 236.86646,557.438712 C235.690944,552.734587 232.164396,470.412415 232.164396,458.064089 C232.164396,452.771949 233.339912,425.13522 234.515428,396.322459 C238.041976,303.416008 240.980766,293.419744 266.842116,279.895387 C276.834002,274.603247 280.948307,266.959045 280.948307,254.61072 C280.948307,237.558269 267.429874,217.565742 256.262473,217.565742 C248.621619,217.565742 214.531657,172.288547 212.180625,158.76419 C210.417352,148.767926 212.768383,146.415864 225.111301,148.179911 C233.339912,148.767926 243.919556,155.824112 249.209377,163.468314 C254.499199,171.112516 269.780906,188.752981 283.299339,203.453369 L307.397416,229.914068 L392.034563,227.562006 L476.67171,225.209944 L499.59427,208.157494 C513.112704,197.573214 523.692347,183.460842 526.043379,172.288547 C527.806653,162.880299 534.27199,152.884035 539.561812,151.708004 C544.851634,149.943957 554.255761,145.827849 560.721099,142.299755 C567.186436,138.771662 573.651774,137.595631 576.002806,139.947693 C581.292628,145.239833 559.545583,184.636873 538.974054,208.157494 C530.157685,218.741773 520.753557,235.206207 518.402525,244.614456 L513.700462,261.666906 L538.386296,284.011495 L563.072131,306.944101 L567.186436,369.273746 C570.125226,408.670785 568.94971,437.483546 564.835405,448.655841 C560.133341,461.004167 560.133341,472.176461 565.423163,487.464865 C569.537468,499.225175 573.064016,533.918091 573.651774,564.494898 L575.415048,619.768357 L555.431277,640.936915 L535.447506,662.105474 L499.59427,662.693489 C479.6105,663.281505 440.818474,664.457536 413.781608,665.045551 C386.744741,665.045551 349.128231,667.397614 330.319976,669.749676 C311.511722,672.101738 292.115709,672.101738 287.413645,669.749676 Z M424.949009,633.880729 C423.185735,629.176605 418.483671,625.060496 415.544881,625.060496 C411.430576,625.060496 412.018334,628.588589 416.720397,633.880729 C420.834703,639.172869 425.536767,643.288977 426.712283,643.288977 C427.887799,643.288977 427.300041,639.172869 424.949009,633.880729 Z M435.528652,609.184077 C438.467442,607.420031 446.696054,608.596062 453.749149,612.124155 C471.381888,621.532403 527.218895,602.715907 533.684232,585.075441 C540.14957,568.611006 536.623022,517.453656 527.806653,501.577237 C524.280105,495.109067 511.937188,485.112803 500.182028,479.232648 C485.488079,472.176461 471.381888,470.412415 451.985875,473.352492 C433.765378,476.29257 422.597977,475.116539 419.659187,470.412415 C416.720397,465.708291 412.606092,466.296306 404.37748,473.940508 C396.148869,480.996694 387.332499,482.760741 373.814066,479.820663 C347.952715,473.940508 289.176919,486.876849 283.299339,499.813191 C278.009518,511.573501 276.834002,518.629687 275.658486,552.734587 C275.070728,570.963069 272.131938,577.431239 262.72781,579.783301 C255.674715,581.547348 250.384893,584.487425 250.384893,585.663456 C250.384893,587.427503 253.911441,592.719643 258.613505,597.423767 C265.078842,603.891938 268.017632,603.891938 270.368664,598.599798 C271.54418,593.895674 278.009518,595.65972 289.764677,605.067969 L307.397416,618.592326 L368.524244,615.652248 C402.614206,613.888201 432.589862,610.948124 435.528652,609.184077 Z M329.144461,423.959189 C336.197556,418.667049 342.662894,408.08277 342.662894,401.026584 C342.662894,384.562149 325.617913,365.745653 310.923964,365.745653 C295.054499,365.745653 275.070728,387.502227 275.070728,404.554677 C275.070728,432.191406 302.695352,442.18767 329.144461,423.959189 Z M527.218895,419.84308 C534.27199,399.850553 527.806653,378.093978 511.34943,367.509699 C499.59427,359.277482 493.128933,358.689466 481.373774,364.569621 C450.222601,378.681994 470.206372,433.367437 506.647366,433.367437 C516.639251,433.367437 523.692347,428.663313 527.218895,419.84308 Z" id="Shape"></path>
                </g>
            </g>
        </g>
    </g>
</svg>