<svg xmlns="http://www.w3.org/2000/svg" width="120" height="96"><g fill="none" fill-rule="evenodd"><path fill="#0082e6" d="M30 67.806c0 8.285-6.716 15-15 15s-15-6.715-15-15 6.716-15 15-15 15 6.716 15 15"/><path fill="#232323" d="m75.832 42.592 14.426-17.577V16H41.982v13.522h25.98l-14.28 16.76V56c2.953-1.465 6.36-2.253 9.541-2.253 8.86 0 15.676 6.197 15.676 14.422 0 8.45-7.384 14.31-14.881 14.31-6.02 0-11.473-3.267-14.766-7.887l-11.018 9.126C45.276 91.606 54.704 96 64.586 96c16.47 0 29.648-11.155 29.648-27.83 0-11.944-7.498-21.409-18.402-25.578"/></g></svg>