<?xml version="1.0" encoding="UTF-8" standalone="yes"?>
<!DOCTYPE svg PUBLIC "-//W3C//DTD SVG 1.1//EN" "http://www.w3.org/Graphics/SVG/1.1/DTD/svg11.dtd">

<svg xmlns="http://www.w3.org/2000/svg" xmlns:xlink="http://www.w3.org/1999/xlink" width="200" height="200">

<rect x="0" y="0" width="200" height="200" rx="35" fill="#F0B600"/>
<rect x="15" y="15" width="170" height="170" rx="20" fill="#ffffff"/>

<path id="L" fill="#F0B600" d="M100,100 m -33 46.29 l 20.59 0 l 0 -32.86 c 0.96 0.14 2.04 0.24 3.24 0.31 c 1.2 0.07 2.48 0.1 3.85 0.1 c 6.17 0.01 11.8 -0.76 16.87 -2.34 c 5.08 -1.57 9.41 -4.02 12.99 -7.35 c 2.74 -2.61 4.83 -5.77 6.27 -9.48 c 1.44 -3.7 2.17 -7.82 2.18 -12.34 c -0.04 -4.53 -0.95 -8.62 -2.71 -12.27 c -1.76 -3.65 -4.13 -6.65 -7.11 -9 c -3.05 -2.45 -6.9 -4.3 -11.54 -5.52 c -4.64 -1.23 -10.16 -1.84 -16.55 -1.84 c -6.32 0.01 -11.78 0.19 -16.4 0.55 c -4.61 0.35 -8.51 0.81 -11.69 1.36 l 0 90.68 m 20.59 -76.09 c 0.75 -0.21 1.84 -0.4 3.27 -0.56 c 1.43 -0.16 3.2 -0.25 5.32 -0.26 c 5.21 0.03 9.21 1.23 12 3.58 c 2.79 2.35 4.2 5.66 4.23 9.92 c -0.05 4.74 -1.65 8.42 -4.79 11.03 c -3.14 2.61 -7.5 3.93 -13.07 3.97 c -1.49 0 -2.8 -0.04 -3.94 -0.12 c -1.13 -0.08 -2.14 -0.22 -3.02 -0.43 l 0 -27.14"/>

</svg>
