<?xml version="1.0" standalone="no"?>
<!DOCTYPE svg PUBLIC "-//W3C//DTD SVG 20010904//EN"
 "http://www.w3.org/TR/2001/REC-SVG-20010904/DTD/svg10.dtd">
<svg version="1.0" xmlns="http://www.w3.org/2000/svg"
 width="260.000000pt" height="260.000000pt" viewBox="0 0 260.000000 260.000000"
 preserveAspectRatio="xMidYMid meet">
<metadata>
Created by potrace 1.11, written by Peter Selinger 2001-2013
</metadata>
<g transform="translate(0.000000,260.000000) scale(0.100000,-0.100000)"
fill="#000000" stroke="none">
<path d="M1 2430 c-1 -107 3 -170 9 -170 5 0 10 -7 10 -16 0 -8 -4 -12 -10 -9
-7 4 -10 -142 -10 -429 0 -429 0 -436 20 -436 11 0 20 -4 20 -10 0 -5 -9 -10
-20 -10 -19 0 -20 -7 -20 -106 0 -62 4 -103 9 -99 5 3 12 1 16 -5 3 -5 -1 -10
-9 -10 -14 0 -16 -50 -16 -449 1 -344 3 -451 13 -454 9 -4 9 -6 0 -6 -7 -1
-13 -6 -13 -12 0 -5 4 -7 10 -4 5 3 18 1 27 -5 16 -10 16 -11 1 -6 -12 3 -15
1 -11 -10 4 -11 13 -14 32 -9 14 4 28 10 31 14 3 5 13 7 23 5 9 -1 17 2 17 7
0 5 5 9 11 9 8 0 8 -5 -1 -15 -7 -8 -21 -15 -31 -15 -22 0 -24 -11 -7 -28 9
-9 7 -12 -9 -12 -24 0 -38 -15 -47 -51 -4 -19 -1 -29 10 -33 27 -10 34 -7 34
19 0 18 -4 23 -15 19 -9 -4 -15 0 -15 9 0 9 12 16 35 19 22 3 31 0 26 -7 -14
-18 -21 -46 -11 -40 6 3 10 1 10 -5 0 -6 -7 -13 -16 -17 -8 -3 -13 -12 -10
-19 3 -9 -6 -17 -27 -23 l-32 -10 40 2 c22 0 45 7 50 15 11 14 45 7 45 -9 0
-5 5 -9 10 -9 6 0 10 11 10 25 0 14 5 25 11 25 6 0 9 -7 5 -15 -7 -20 18 -20
34 0 17 20 35 14 35 -11 0 -16 9 -19 58 -22 39 -2 57 0 52 7 -3 6 -1 11 4 11
6 0 11 -4 11 -10 0 -5 7 -10 15 -10 9 0 12 6 9 15 -4 9 1 18 12 22 11 3 22 11
25 16 9 12 102 19 94 7 -3 -6 -18 -10 -32 -10 -15 0 -23 -3 -20 -7 4 -3 0 -15
-10 -25 -15 -17 -14 -18 46 -18 34 0 72 5 84 11 16 9 22 9 25 0 3 -8 213 -11
808 -11 l805 0 -4 53 c-3 28 -1 61 3 72 7 19 8 19 15 1 5 -11 3 -21 -5 -26 -9
-6 -9 -9 0 -15 6 -4 14 -5 17 -1 8 7 8 95 0 103 -4 3 -7 -1 -7 -10 0 -9 -4
-17 -10 -17 -18 0 -11 16 26 56 20 21 33 33 29 26 -4 -7 -1 -19 5 -27 7 -8 9
-15 6 -15 -4 0 -2 -9 4 -20 9 -16 7 -24 -6 -37 -12 -13 -13 -18 -4 -21 7 -3
16 1 20 8 4 6 10 -7 13 -32 7 -54 2 -59 -17 -17 -12 29 -15 30 -15 12 -1 -13
-7 -23 -16 -23 -8 0 -15 -4 -15 -10 0 -5 7 -10 15 -10 21 0 19 -9 -6 -29 -21
-17 -21 -17 14 -19 30 -2 36 1 40 20 l4 23 2 -22 c1 -19 6 -23 34 -22 17 1 24
3 15 6 -22 5 -24 23 -3 23 8 0 19 9 25 20 13 24 40 27 40 4 0 -8 -5 -12 -11
-8 -14 8 -29 -14 -22 -33 6 -15 113 -19 113 -3 0 6 5 10 11 10 5 0 7 -4 4 -10
-3 -5 1 -10 10 -10 14 0 15 88 15 891 0 669 -4 902 -13 937 -10 36 -9 46 1 49
9 4 12 85 12 364 l0 359 -500 0 c-319 0 -500 -4 -500 -10 0 -6 -5 -10 -11 -10
-5 0 -7 5 -4 10 4 7 -61 10 -189 10 -146 0 -195 -3 -199 -12 -3 -10 -9 -10
-26 0 -16 9 -154 12 -595 12 l-575 0 0 -170z m2204 150 c3 -5 1 -10 -4 -10 -6
0 -11 5 -11 10 0 6 2 10 4 10 3 0 8 -4 11 -10z m30 -24 c30 2 55 0 55 -5 0
-16 -31 -34 -66 -37 -29 -3 -36 1 -44 22 -10 25 -13 50 -4 28 3 -8 25 -10 59
-8z m-610 -6 c-3 -5 -11 -10 -16 -10 -6 0 -7 5 -4 10 3 6 11 10 16 10 6 0 7
-4 4 -10z m-1304 -27 c-8 -15 -10 -15 -11 -2 0 17 10 32 18 25 2 -3 -1 -13 -7
-23z m1304 -3 c-3 -5 -11 -10 -16 -10 -6 0 -7 5 -4 10 3 6 11 10 16 10 6 0 7
-4 4 -10z m-1220 -30 c3 -5 -3 -10 -15 -10 -12 0 -18 5 -15 10 3 6 10 10 15
10 5 0 12 -4 15 -10z m1635 -31 c0 -5 -4 -9 -10 -9 -5 0 -10 7 -10 16 0 8 5
12 10 9 6 -3 10 -10 10 -16z m54 2 c3 -5 -1 -11 -9 -14 -9 -4 -12 -1 -8 9 6
16 10 17 17 5z m-42 -63 c-15 -15 -31 -1 -25 22 5 17 7 18 20 4 11 -11 13 -18
5 -26z m68 5 c0 -17 -8 -16 -26 1 -12 13 -12 15 6 13 11 -1 20 -7 20 -14z m90
-32 c0 -6 -4 -13 -10 -16 -5 -3 -10 1 -10 9 0 9 5 16 10 16 6 0 10 -4 10 -9z
m-1206 -33 c14 -20 16 -20 16 -4 0 17 11 18 238 12 398 -10 438 -14 474 -44
l31 -26 -7 -281 c-10 -399 -14 -454 -37 -492 -11 -18 -29 -35 -40 -38 -22 -7
-535 2 -664 11 -89 7 -129 24 -145 65 -15 34 -5 286 11 306 8 9 8 13 1 13 -11
0 -8 337 3 406 7 39 58 89 97 93 4 1 14 -9 22 -21z m-640 -93 c-6 -16 -24 -21
-24 -7 0 11 11 22 21 22 5 0 6 -7 3 -15z m423 -62 c3 -7 -4 -9 -16 -6 -12 3
-18 9 -15 15 7 11 26 6 31 -9z m-632 -13 c-3 -5 -12 -10 -18 -10 -7 0 -6 4 3
10 19 12 23 12 15 0z m574 -51 c-25 -16 -32 -9 -13 12 12 13 20 16 22 9 3 -7
-2 -16 -9 -21z m-349 -39 c0 -5 -2 -10 -4 -10 -3 0 -8 5 -11 10 -3 6 -1 10 4
10 6 0 11 -4 11 -10z m2110 -10 c0 -5 -5 -10 -11 -10 -5 0 -7 5 -4 10 3 6 8
10 11 10 2 0 4 -4 4 -10z m-2090 -69 c0 -6 -4 -12 -8 -15 -5 -3 -9 1 -9 9 0 8
4 15 9 15 4 0 8 -4 8 -9z m1965 -11 c3 -5 1 -10 -4 -10 -6 0 -11 5 -11 10 0 6
2 10 4 10 3 0 8 -4 11 -10z m-265 -17 c0 -7 5 -13 10 -13 6 0 10 -4 10 -8 0
-14 -36 -7 -54 10 -22 22 -20 26 9 24 14 0 25 -7 25 -13z m284 -38 c3 -8 1
-15 -4 -15 -6 0 -10 7 -10 15 0 8 2 15 4 15 2 0 6 -7 10 -15z m76 -10 c0 -7 5
-15 11 -17 16 -5 -1 -38 -20 -38 -12 0 -16 9 -16 39 0 27 4 37 13 34 6 -3 12
-11 12 -18z m-440 11 c0 -3 -4 -8 -10 -11 -5 -3 -10 -1 -10 4 0 6 5 11 10 11
6 0 10 -2 10 -4z m295 -16 c3 -5 -1 -10 -9 -10 -9 0 -16 5 -16 10 0 6 4 10 9
10 6 0 13 -4 16 -10z m-278 -72 c-16 -10 -36 2 -31 18 15 50 15 50 28 19 8
-20 9 -32 3 -37z m357 6 c9 -24 7 -54 -4 -54 -5 0 -10 -17 -10 -37 0 -37 0
-38 -13 -13 -16 31 -21 90 -7 90 5 0 10 7 10 15 0 20 16 19 24 -1z m-334 -80
c0 -5 -14 -23 -32 -40 -23 -22 -29 -24 -24 -10 4 12 2 23 -6 27 -21 13 -1 22
21 9 17 -8 21 -8 21 4 0 8 -15 19 -32 26 -30 11 -31 13 -13 19 21 8 64 -15 65
-35z m140 25 c0 -5 -4 -9 -8 -9 -5 0 -9 7 -9 15 0 8 4 12 9 9 4 -3 8 -9 8 -15z
m-104 -15 c-3 -9 -6 -18 -6 -20 0 -2 -4 -4 -9 -4 -5 0 -7 9 -4 20 3 11 10 20
15 20 6 0 7 -7 4 -16z m273 -109 c0 -5 -6 -1 -14 9 -8 11 -15 24 -15 30 0 5 7
1 15 -10 8 -10 14 -23 14 -29z m-159 24 c0 -12 -19 -21 -30 -14 -6 4 -8 10 -6
14 7 10 36 10 36 0z m100 1 c0 -5 -2 -10 -4 -10 -3 0 -8 5 -11 10 -3 6 -1 10
4 10 6 0 11 -4 11 -10z m-307 -25 c-3 -9 -8 -14 -10 -11 -3 3 -2 9 2 15 9 16
15 13 8 -4z m157 -11 c0 -8 -4 -12 -10 -9 -5 3 -10 13 -10 21 0 8 5 12 10 9 6
-3 10 -13 10 -21z m130 6 c0 -5 -7 -10 -15 -10 -8 0 -15 5 -15 10 0 6 7 10 15
10 8 0 15 -4 15 -10z m-293 -26 c-3 -4 4 -15 16 -25 19 -16 20 -20 7 -29 -22
-15 -50 -12 -50 5 0 8 5 15 11 15 6 0 8 9 4 20 -4 13 -2 20 6 20 7 0 10 -3 6
-6z m313 -4 c13 -8 13 -10 -2 -10 -9 0 -20 5 -23 10 -8 13 5 13 25 0z m50 0
c0 -5 -4 -10 -10 -10 -5 0 -10 5 -10 10 0 6 5 10 10 10 6 0 10 -4 10 -10z
m-1940 -10 c0 -5 -5 -10 -11 -10 -5 0 -7 5 -4 10 3 6 8 10 11 10 2 0 4 -4 4
-10z m1764 -16 c5 -14 4 -15 -9 -4 -17 14 -19 20 -6 20 5 0 12 -7 15 -16z
m-1724 -49 c0 -8 -9 -15 -20 -15 -22 0 -27 15 -7 23 21 9 27 7 27 -8z m1526
-4 c-4 -5 0 -12 6 -15 10 -5 10 -7 -1 -12 -11 -5 -11 -8 0 -15 7 -4 10 -11 6
-15 -10 -10 -37 16 -37 36 0 15 9 24 28 29 2 1 1 -3 -2 -8z m339 -1 c3 -5 1
-10 -4 -10 -6 0 -11 5 -11 10 0 6 2 10 4 10 3 0 8 -4 11 -10z m-245 -20 c0 -5
-4 -10 -10 -10 -5 0 -10 5 -10 10 0 6 5 10 10 10 6 0 10 -4 10 -10z m-1740
-50 c0 -5 -7 -10 -15 -10 -8 0 -12 -6 -9 -14 7 -18 -12 -30 -33 -22 -13 5 -10
11 13 31 31 27 44 31 44 15z m1770 -15 c0 -19 -20 -29 -32 -17 -8 8 -7 16 2
26 14 17 30 12 30 -9z m-1875 -5 c-3 -5 -11 -10 -16 -10 -6 0 -7 5 -4 10 3 6
11 10 16 10 6 0 7 -4 4 -10z m235 -26 c0 -9 -7 -14 -17 -12 -25 5 -28 28 -4
28 12 0 21 -6 21 -16z m-218 -16 c-7 -7 -12 -8 -12 -2 0 14 12 26 19 19 2 -3
-1 -11 -7 -17z m1612 -17 c-9 -10 -26 18 -18 30 5 9 9 8 14 -7 4 -10 6 -21 4
-23z m326 29 c0 -5 -2 -10 -4 -10 -3 0 -8 5 -11 10 -3 6 -1 10 4 10 6 0 11 -4
11 -10z m-1807 -25 c-3 -9 -8 -14 -10 -11 -3 3 -2 9 2 15 9 16 15 13 8 -4z
m-323 -16 c0 -5 -4 -9 -10 -9 -5 0 -10 7 -10 16 0 8 5 12 10 9 6 -3 10 -10 10
-16z m1910 -8 c11 -10 11 -16 3 -18 -9 -3 -9 -12 -3 -31 10 -27 10 -27 -6 -4
-9 12 -21 22 -27 22 -13 0 -47 30 -47 41 0 22 55 15 80 -10z m410 14 c-8 -10
-9 -15 -2 -15 6 0 9 -7 6 -15 -4 -8 -15 -15 -26 -15 -17 0 -18 3 -8 15 7 8 9
15 5 15 -4 0 -2 7 5 15 7 8 17 15 22 15 6 0 5 -7 -2 -15z m-2170 -5 c0 -5 -4
-10 -10 -10 -5 0 -10 5 -10 10 0 6 5 10 10 10 6 0 10 -4 10 -10z m1830 -10 c0
-11 -7 -20 -15 -20 -13 0 -13 3 -3 20 7 11 14 20 15 20 2 0 3 -9 3 -20z m172
-36 c-5 -36 -11 -43 -21 -25 -5 7 -14 10 -20 7 -18 -12 -13 26 7 40 25 19 37
11 34 -22z m79 -19 c-3 -17 -5 -47 -5 -67 -1 -21 -4 -38 -8 -38 -5 0 -8 5 -8
12 0 6 -9 3 -20 -7 -19 -18 -20 -17 -20 4 0 12 7 24 15 27 8 4 15 10 15 16 0
5 -4 7 -9 3 -5 -3 -13 0 -16 6 -4 6 2 13 14 16 25 6 27 16 6 33 -13 11 -13 15
-3 22 26 16 43 4 39 -27z m-2001 15 c0 -5 -2 -10 -4 -10 -3 0 -8 5 -11 10 -3
6 -1 10 4 10 6 0 11 -4 11 -10z m1800 -17 c0 -29 -2 -29 -19 5 -10 18 -9 22 4
22 10 0 15 -9 15 -27z m-150 0 c0 -10 7 -27 15 -37 24 -31 17 -43 -8 -16 -29
32 -41 70 -21 70 8 0 14 -8 14 -17z m-1410 -13 c0 -5 -4 -10 -10 -10 -5 0 -10
5 -10 10 0 6 5 10 10 10 6 0 10 -4 10 -10z m1580 -70 c0 -5 -7 -10 -15 -10 -8
0 -15 5 -15 10 0 6 7 10 15 10 8 0 15 -4 15 -10z m-1681 -22 c-1 -7 1 -21 6
-31 7 -16 9 -15 32 7 21 22 30 24 81 19 31 -2 74 -11 94 -18 28 -11 38 -11 42
-2 3 9 7 9 14 -1 7 -11 10 -10 16 3 4 11 12 14 25 10 11 -3 23 0 27 7 6 9 10
5 14 -12 3 -14 16 -29 28 -35 12 -5 22 -15 22 -22 0 -11 4 -11 20 -1 11 7 20
18 20 24 0 16 29 38 38 29 4 -4 1 -10 -5 -12 -7 -3 -13 -9 -13 -15 0 -7 5 -7
13 1 8 6 17 8 20 4 4 -3 9 2 13 11 6 15 9 15 30 1 32 -20 35 -19 28 10 -6 25
10 37 18 13 3 -7 24 -11 56 -11 47 2 51 0 49 -20 -1 -16 3 -22 16 -21 9 1 17
-2 17 -6 0 -4 11 -5 24 -3 16 3 23 10 19 19 -3 8 0 14 6 14 6 0 11 -5 11 -11
0 -6 19 -9 48 -8 61 3 72 -4 72 -48 0 -28 3 -34 16 -29 9 3 19 6 24 6 5 0 7
11 6 24 -2 14 1 30 6 38 7 10 11 10 22 -4 18 -24 25 -23 19 2 -7 25 8 26 27 1
12 -17 22 -19 76 -15 54 4 66 2 84 -16 16 -16 25 -18 40 -10 10 6 23 17 27 24
6 11 18 12 53 6 25 -5 62 -9 83 -10 26 0 37 -4 37 -15 0 -14 4 -14 36 0 33 14
38 14 49 -1 7 -10 17 -14 22 -11 17 11 22 -28 7 -54 -16 -29 -20 -73 -4 -49 8
12 10 10 10 -8 0 -20 4 -22 23 -16 27 8 23 4 31 32 5 13 3 22 -3 22 -19 0 -12
28 9 35 11 3 20 11 20 16 0 5 13 9 29 9 25 0 28 -3 23 -26 -3 -18 -1 -25 6
-20 6 3 14 2 17 -4 5 -8 11 -7 21 1 11 9 14 8 14 -4 0 -9 -9 -21 -20 -27 -10
-6 -22 -26 -26 -44 -3 -21 -13 -36 -24 -39 -13 -3 -20 -18 -25 -53 -12 -91
-36 -144 -64 -144 -6 0 -11 5 -11 12 0 9 -3 9 -12 0 -7 -7 -21 -12 -31 -12
-14 0 -18 5 -14 20 3 13 -1 24 -14 30 -16 9 -19 7 -19 -10 0 -18 -6 -20 -52
-20 -29 0 -70 -1 -90 -3 -26 -2 -38 1 -38 10 0 7 -4 13 -10 13 -5 0 -10 10
-10 23 -1 21 -1 21 -17 -5 -22 -35 -44 -44 -59 -24 -6 9 -14 13 -17 9 -4 -3
-7 -1 -7 5 0 21 -49 13 -61 -9 -10 -20 -17 -21 -102 -15 -51 3 -107 5 -124 6
-28 0 -33 4 -33 24 0 14 -4 28 -10 31 -5 3 -10 -3 -10 -14 0 -24 -10 -31 -42
-31 -12 1 -42 1 -66 0 -24 0 -48 3 -55 7 -6 4 -28 6 -49 4 -23 -1 -38 2 -38 9
0 6 -4 9 -9 5 -6 -3 -14 3 -20 12 -10 17 -10 17 -11 1 0 -10 -4 -18 -10 -18
-5 0 -10 9 -10 19 0 30 -32 36 -53 9 -12 -14 -28 -22 -42 -20 -14 2 -25 -3
-29 -14 -4 -11 -10 -13 -19 -7 -11 9 -82 17 -155 17 -21 0 -28 2 -20 8 10 6 7
10 -8 14 -18 5 -21 12 -18 51 4 46 -3 55 -11 14 -10 -53 -29 -75 -67 -77 -21
-2 -38 1 -38 7 0 5 -10 9 -23 9 -26 0 -63 35 -69 65 -2 11 -10 19 -16 18 -7
-2 -12 2 -12 7 0 6 6 10 14 10 17 0 29 69 14 87 -5 7 -8 25 -5 39 3 16 0 27
-10 31 -12 5 -11 9 3 24 11 12 15 28 11 46 -3 17 1 39 11 55 18 30 24 35 21
16z m721 -25 c0 -20 -16 -8 -23 17 -4 17 -3 19 9 9 8 -6 14 -18 14 -26z m975
-63 c-3 -5 -10 -10 -16 -10 -5 0 -9 5 -9 10 0 6 7 10 16 10 8 0 12 -4 9 -10z
m-1951 -25 c-10 -8 -23 -14 -29 -14 -5 0 -1 6 9 14 11 8 24 15 30 15 5 0 1 -7
-10 -15z m-62 -17 c-9 -9 -15 -9 -24 0 -9 9 -7 12 12 12 19 0 21 -3 12 -12z
m2222 -40 c3 -15 2 -38 -3 -50 -9 -22 -9 -22 -16 7 -4 17 -11 44 -15 62 -7 29
-7 31 10 21 10 -7 21 -24 24 -40z m-54 -68 c0 -5 -4 -10 -10 -10 -5 0 -10 5
-10 10 0 6 5 10 10 10 6 0 10 -4 10 -10z m55 -66 c3 -13 15 -24 30 -28 14 -4
25 -11 25 -16 0 -13 -17 -13 -22 -1 -6 18 -42 17 -46 -1 -2 -13 1 -16 12 -12
10 4 16 1 16 -10 0 -10 6 -13 15 -10 8 4 15 1 15 -5 0 -11 -12 -15 -40 -12
-10 1 -11 -1 -4 -6 6 -4 13 -23 16 -42 5 -34 5 -34 -13 -13 -10 13 -24 20 -32
16 -10 -3 -20 3 -27 16 -6 11 -15 18 -20 15 -6 -3 -18 -1 -27 4 -17 10 -16 11
5 17 25 7 29 19 7 28 -8 3 -15 10 -15 15 0 7 9 7 26 0 29 -10 47 -3 25 10 -10
7 -8 13 10 30 19 17 20 21 6 21 -9 0 -17 -4 -17 -10 0 -5 -9 -10 -19 -10 -11
0 -23 5 -26 10 -3 6 1 10 9 10 9 0 16 5 16 11 0 7 10 9 24 7 17 -3 27 0 32 11
6 13 8 13 11 -4 2 -11 6 -30 8 -41z m105 -14 c0 -5 -2 -10 -4 -10 -3 0 -8 5
-11 10 -3 6 -1 10 4 10 6 0 11 -4 11 -10z m62 -61 c5 -3 3 -9 -4 -11 -9 -4
-14 3 -15 21 -1 14 1 19 4 11 3 -8 10 -18 15 -21z m-312 11 c0 -5 -4 -10 -10
-10 -5 0 -10 5 -10 10 0 6 5 10 10 10 6 0 10 -4 10 -10z m45 0 c3 -5 -1 -10
-9 -10 -9 0 -16 5 -16 10 0 6 4 10 9 10 6 0 13 -4 16 -10z m-85 -20 c12 -8 11
-10 -7 -10 -14 0 -23 -6 -23 -15 0 -8 5 -15 10 -15 6 0 10 -5 10 -10 0 -13
-32 -9 -42 5 -4 6 -12 11 -18 11 -5 1 -12 2 -15 3 -3 0 -1 10 5 21 12 22 54
27 80 10z m250 -35 c0 -8 -4 -15 -10 -15 -5 0 -10 7 -10 15 0 8 5 15 10 15 6
0 10 -7 10 -15z m-33 -17 c-3 -8 -6 -5 -6 6 -1 11 2 17 5 13 3 -3 4 -12 1 -19z
m-194 -5 c-7 -2 -13 -11 -13 -19 0 -9 -4 -13 -10 -9 -14 9 0 35 19 34 10 0 11
-2 4 -6z m357 -39 c0 -8 -4 -12 -10 -9 -5 3 -10 10 -10 16 0 5 5 9 10 9 6 0
10 -7 10 -16z m-1110 -4 c0 -5 -4 -10 -10 -10 -5 0 -10 5 -10 10 0 6 5 10 10
10 6 0 10 -4 10 -10z m767 -10 c2 -22 -12 -27 -23 -9 -5 9 5 22 21 29 1 0 1
-9 2 -20z m-1702 0 c-3 -5 -11 -10 -16 -10 -6 0 -7 5 -4 10 3 6 11 10 16 10 6
0 7 -4 4 -10z m1865 -15 c0 -27 -6 -30 -29 -16 -12 8 -12 12 -2 25 19 23 31
20 31 -9z m-2038 -9 c11 -16 0 -20 -17 -6 -12 10 -19 10 -27 2 -9 -9 -8 -12 5
-12 23 0 22 -12 -3 -27 -29 -19 -44 12 -21 44 16 23 48 23 63 -1z m118 4 c0
-5 -5 -10 -11 -10 -5 0 -7 5 -4 10 3 6 8 10 11 10 2 0 4 -4 4 -10z m601 -3
c-1 -12 -15 -9 -19 4 -3 6 1 10 8 8 6 -3 11 -8 11 -12z m-671 -7 c0 -5 -5 -10
-11 -10 -5 0 -7 5 -4 10 3 6 8 10 11 10 2 0 4 -4 4 -10z m1600 -20 c0 -16 -4
-30 -10 -30 -5 0 -10 14 -10 30 0 17 5 30 10 30 6 0 10 -13 10 -30z m108 -10
c-1 -29 -11 -39 -22 -22 -7 12 4 52 14 52 5 0 8 -13 8 -30z m-1658 4 c0 -2 -7
-4 -15 -4 -8 0 -15 4 -15 10 0 5 7 7 15 4 8 -4 15 -8 15 -10z m-95 -4 c3 -5 1
-10 -4 -10 -6 0 -11 5 -11 10 0 6 2 10 4 10 3 0 8 -4 11 -10z m1785 0 c0 -5
-5 -10 -11 -10 -5 0 -7 5 -4 10 3 6 8 10 11 10 2 0 4 -4 4 -10z m140 -26 c0
-14 5 -34 11 -46 14 -26 8 -31 -25 -18 -31 11 -52 51 -41 77 7 15 9 13 14 -11
3 -16 12 -31 20 -34 11 -4 12 3 7 33 -5 25 -4 35 3 30 6 -3 11 -17 11 -31z
m-61 -69 c17 -36 20 -65 7 -65 -23 0 -36 22 -25 42 8 14 6 18 -8 18 -22 -1
-48 -19 -56 -40 -4 -11 -6 -10 -6 4 -1 11 -8 28 -18 38 -21 23 -10 36 12 14
25 -25 43 -19 50 17 14 69 18 74 27 32 4 -22 12 -49 17 -60z m119 57 c4 -47
-6 -104 -17 -97 -5 2 -7 19 -5 37 1 18 3 48 3 66 1 44 15 40 19 -6z m-1908 18
c0 -5 -4 -10 -10 -10 -5 0 -10 5 -10 10 0 6 5 10 10 10 6 0 10 -4 10 -10z
m1721 -33 c-10 -9 -11 -8 -5 6 3 10 9 15 12 12 3 -3 0 -11 -7 -18z m218 6 c-3
-19 2 -23 19 -14 17 9 19 6 20 -27 1 -20 8 -41 15 -47 7 -5 16 -18 20 -28 6
-15 3 -18 -15 -15 -16 2 -26 16 -38 53 -9 28 -21 49 -28 48 -13 -3 -17 19 -5
30 8 9 13 9 12 0z m-1997 -25 c-14 -14 -42 -20 -42 -8 0 9 18 18 40 19 11 1
11 -2 2 -11z m1718 -44 c0 -8 -8 -23 -17 -32 -16 -16 -16 -16 -10 0 3 10 1 20
-5 24 -7 4 -6 9 3 15 21 13 29 11 29 -7z m189 -27 c-12 -22 -13 -21 25 -34 32
-10 47 -33 22 -33 -9 0 -16 -4 -16 -9 0 -5 -3 -17 -7 -26 -5 -15 -3 -16 15 -6
25 14 29 0 6 -20 -13 -10 -17 -10 -25 2 -5 8 -9 20 -9 27 0 6 -4 12 -10 12 -5
0 -11 10 -11 23 -1 18 -2 19 -6 3 -3 -10 0 -23 6 -29 14 -14 14 -27 0 -27 -5
0 -17 16 -25 35 -18 43 -18 45 2 45 11 0 14 6 9 20 -8 24 -1 37 19 37 12 0 13
-5 5 -20z m296 3 c3 -5 1 -10 -4 -10 -6 0 -11 5 -11 10 0 6 2 10 4 10 3 0 8
-4 11 -10z m-185 -24 c0 -13 -8 -30 -17 -37 -15 -13 -16 -11 -10 11 4 14 7 31
7 38 0 6 5 12 10 12 6 0 10 -11 10 -24z m-248 -21 c6 -30 -7 -33 -22 -6 -13
26 -13 31 4 31 7 0 16 -11 18 -25z m-1753 -8 c-8 -7 -21 -21 -27 -32 -10 -17
-11 -17 -12 -3 0 9 10 24 22 32 26 19 40 21 17 3z m1811 3 c0 -5 -4 -10 -10
-10 -5 0 -10 5 -10 10 0 6 5 10 10 10 6 0 10 -4 10 -10z m260 -35 c0 -8 -4
-17 -10 -20 -6 -4 -10 5 -10 20 0 15 4 24 10 20 6 -3 10 -12 10 -20z m120 15
c0 -5 -4 -10 -10 -10 -5 0 -10 5 -10 10 0 6 5 10 10 10 6 0 10 -4 10 -10z
m-2197 -54 c-10 -14 -22 -24 -28 -22 -15 4 -12 31 3 28 7 -1 18 10 25 25 9 20
13 23 15 10 2 -9 -5 -28 -15 -41z m1756 18 c6 -15 10 -29 7 -31 -8 -8 -31 20
-32 40 -2 25 11 21 25 -9z m-1849 12 c0 -11 -19 -15 -25 -6 -3 5 1 10 9 10 9
0 16 -2 16 -4z m1893 -15 c3 -14 1 -18 -9 -14 -8 3 -14 11 -14 19 0 21 17 17
23 -5z m317 -7 c0 -10 6 -14 15 -10 20 7 20 -18 0 -34 -15 -12 -12 -30 5 -30
5 0 7 8 4 18 -5 14 -4 15 5 2 6 -8 8 -24 4 -35 -5 -17 -4 -18 11 -6 9 7 16 11
16 8 0 -3 3 -13 6 -21 5 -12 2 -15 -10 -10 -10 4 -18 0 -22 -10 -8 -20 -24
-21 -24 -2 0 8 -7 16 -15 20 -8 3 -15 13 -15 21 0 9 -4 13 -10 10 -15 -9 -12
18 4 40 7 10 11 27 8 37 -2 10 1 18 7 18 6 0 11 -7 11 -16z m-2234 -31 c-10
-10 -19 5 -10 18 6 11 8 11 12 0 2 -7 1 -15 -2 -18z m138 -7 c-3 -9 -10 -13
-16 -10 -5 3 -4 12 3 20 15 18 22 13 13 -10z m1999 4 c-3 -11 0 -20 6 -20 6 0
11 -5 11 -11 0 -5 -4 -8 -9 -5 -5 3 -12 -1 -15 -10 -3 -8 -2 -13 3 -10 5 3 18
-10 30 -29 11 -19 16 -35 10 -35 -6 0 -13 9 -16 20 -3 11 -11 20 -17 20 -20 0
-52 29 -41 37 6 5 12 17 13 28 3 16 18 34 29 35 0 0 -1 -9 -4 -20z m-2177 -12
c-10 -6 -20 -7 -24 -3 -9 8 20 25 31 18 5 -3 2 -10 -7 -15z m1994 9 c0 -8 11
-24 25 -37 14 -13 25 -31 25 -41 0 -22 -21 -69 -30 -69 -12 0 -41 85 -31 88 7
2 7 12 0 28 -12 32 -12 44 1 44 6 0 10 -6 10 -13z m40 9 c0 -2 -7 -6 -15 -10
-8 -3 -15 -1 -15 4 0 6 7 10 15 10 8 0 15 -2 15 -4z m-2150 -21 c-7 -8 -17
-12 -22 -9 -6 4 -5 10 3 15 22 14 33 10 19 -6z m482 -17 c-19 -19 -22 -20 -22
-5 0 9 7 17 15 17 8 0 15 5 15 12 0 6 3 8 7 4 4 -3 -3 -16 -15 -28z m254 10
c-19 -11 -50 -3 -42 11 3 4 17 6 32 3 23 -4 24 -6 10 -14z m-329 -4 c-3 -3
-12 -4 -19 -1 -8 3 -5 6 6 6 11 1 17 -2 13 -5z m683 -29 c0 -8 -7 -15 -15 -15
-9 0 -12 6 -9 15 4 8 10 15 15 15 5 0 9 -7 9 -15z m-796 -10 c-4 -8 -11 -15
-16 -15 -6 0 -5 6 2 15 7 8 14 15 16 15 2 0 1 -7 -2 -15z m536 8 c0 -5 -4 -14
-9 -22 -11 -17 -32 -5 -24 14 5 15 33 21 33 8z m-480 -37 c-14 -14 -22 -2 -14
18 5 14 9 15 15 4 4 -7 4 -17 -1 -22z m1471 -3 c-8 -15 -10 -15 -11 -2 0 17
10 32 18 25 2 -3 -1 -13 -7 -23z m-1664 11 c-3 -3 -12 -4 -19 -1 -8 3 -5 6 6
6 11 1 17 -2 13 -5z m283 -9 c-7 -8 -16 -12 -21 -9 -13 8 -1 24 18 24 13 0 13
-3 3 -15z m1288 3 c-2 -6 -10 -14 -16 -16 -7 -2 -10 2 -6 12 7 18 28 22 22 4z
m512 -8 c0 -5 -4 -10 -9 -10 -6 0 -13 5 -16 10 -3 6 1 10 9 10 9 0 16 -4 16
-10z m-2150 -10 c0 -5 -4 -10 -10 -10 -5 0 -10 5 -10 10 0 6 5 10 10 10 6 0
10 -4 10 -10z m740 -10 c0 -5 -7 -10 -16 -10 -8 0 -12 5 -9 10 3 6 10 10 16
10 5 0 9 -4 9 -10z m-40 -10 c0 -5 -2 -10 -4 -10 -3 0 -8 5 -11 10 -3 6 -1 10
4 10 6 0 11 -4 11 -10z m1652 -7 c20 -18 24 -48 6 -59 -6 -4 -8 -3 -5 2 3 6 1
16 -4 24 -8 13 -10 13 -19 0 -14 -21 -12 -33 3 -24 8 5 7 2 -2 -10 -10 -12
-16 -14 -22 -5 -4 8 -9 4 -14 -10 -9 -28 -21 -27 -29 4 -4 14 -11 25 -16 25
-6 0 -10 7 -10 16 0 9 7 14 18 12 9 -2 16 -11 14 -20 -1 -9 2 -19 8 -23 6 -3
7 0 4 9 -4 11 0 16 11 16 17 0 17 1 2 18 -10 10 -17 24 -17 30 0 18 51 14 72
-5z m-2264 -23 c-14 -22 -24 -19 -15 5 4 8 11 15 17 15 6 0 6 -7 -2 -20z m102
-4 c0 -2 -7 -9 -15 -16 -12 -10 -15 -10 -15 4 0 9 7 16 15 16 8 0 15 -2 15 -4z
m2020 -5 c0 -6 -4 -13 -10 -16 -5 -3 -10 1 -10 9 0 9 5 16 10 16 6 0 10 -4 10
-9z m-1475 -11 c-27 -12 -35 -12 -35 0 0 6 12 10 28 9 24 0 25 -1 7 -9z m-274
-46 l-9 -39 -1 36 c-1 20 2 39 6 42 12 13 13 0 4 -39z m-437 27 c6 -10 -10
-25 -36 -34 -12 -4 -18 -1 -18 8 0 9 6 12 15 8 9 -3 15 -2 14 3 -4 24 14 34
25 15z m840 -25 c-3 -14 -10 -26 -15 -26 -12 0 -11 4 3 35 14 31 21 26 12 -9z
m-804 14 c0 -5 -4 -10 -10 -10 -5 0 -10 5 -10 10 0 6 5 10 10 10 6 0 10 -4 10
-10z m144 -11 c-3 -5 -10 -7 -15 -3 -5 3 -7 10 -3 15 3 5 10 7 15 3 5 -3 7
-10 3 -15z m474 -19 c2 -34 0 -40 -17 -40 -28 0 -31 21 -8 53 12 15 21 27 22
27 1 0 2 -18 3 -40z m1262 19 c0 -5 -4 -9 -10 -9 -5 0 -10 7 -10 16 0 8 5 12
10 9 6 -3 10 -10 10 -16z m-1113 -21 c-3 -7 -5 -2 -5 12 0 14 2 19 5 13 2 -7
2 -19 0 -25z m1541 18 c-7 -8 -15 -12 -17 -11 -5 6 10 25 20 25 5 0 4 -6 -3
-14z m-1578 -6 c-8 -5 -19 -10 -25 -10 -5 0 -3 5 5 10 8 5 20 10 25 10 6 0 3
-5 -5 -10z m1275 -46 c-20 -21 -48 -9 -53 22 -3 18 -2 18 11 2 21 -26 30 -22
22 10 l-6 27 22 -22 c21 -20 21 -22 4 -39z m195 14 c0 -10 -4 -18 -10 -18 -5
0 -10 15 -10 33 0 24 3 28 10 17 5 -8 10 -23 10 -32z m-2213 15 c3 -7 -4 -9
-16 -6 -12 3 -18 9 -15 15 7 11 26 6 31 -9z m343 -3 c0 -5 -2 -10 -4 -10 -3 0
-8 5 -11 10 -3 6 -1 10 4 10 6 0 11 -4 11 -10z m1580 -11 c0 -6 -4 -7 -10 -4
-5 3 -10 11 -10 16 0 6 5 7 10 4 6 -3 10 -11 10 -16z m420 -3 c14 -18 14 -18
-7 -6 -12 8 -19 18 -16 23 3 4 6 7 7 5 1 -2 8 -12 16 -22z m-1965 4 c-3 -5
-11 -10 -16 -10 -6 0 -7 5 -4 10 3 6 11 10 16 10 6 0 7 -4 4 -10z m175 -16 c0
-9 -11 -14 -27 -14 -27 -1 -27 -1 -9 -15 11 -8 15 -15 10 -15 -6 0 -18 6 -28
13 -27 20 -6 56 29 50 14 -3 25 -12 25 -19z m520 22 c0 -3 -4 -8 -10 -11 -5
-3 -10 -1 -10 4 0 6 5 11 10 11 6 0 10 -2 10 -4z m810 -6 c0 -5 -4 -10 -10
-10 -5 0 -10 5 -10 10 0 6 5 10 10 10 6 0 10 -4 10 -10z m400 -27 c0 -7 5 -13
10 -13 6 0 10 -4 10 -10 0 -18 -19 -10 -25 11 -4 12 -12 18 -21 15 -9 -3 -14
1 -14 14 0 18 3 19 20 8 11 -7 20 -18 20 -25z m-2320 23 c0 -3 -4 -8 -10 -11
-5 -3 -10 -1 -10 4 0 6 5 11 10 11 6 0 10 -2 10 -4z m80 -4 c0 -4 -9 -13 -20
-20 -23 -14 -26 -8 -7 13 13 16 27 19 27 7z m60 -2 c0 -5 -2 -10 -4 -10 -3 0
-8 5 -11 10 -3 6 -1 10 4 10 6 0 11 -4 11 -10z m50 0 c-8 -5 -19 -10 -25 -10
-5 0 -3 5 5 10 8 5 20 10 25 10 6 0 3 -5 -5 -10z m-90 -15 c-7 -8 -17 -15 -22
-15 -6 0 -5 7 2 15 7 8 17 15 22 15 6 0 5 -7 -2 -15z m750 -18 c-1 -22 -21
-57 -34 -57 -11 0 -6 38 7 52 8 7 12 19 9 27 -3 8 0 11 7 7 6 -4 11 -17 11
-29z m1160 -8 c0 -5 5 -7 10 -4 6 3 10 2 10 -4 0 -5 -5 -11 -12 -13 -9 -3 -9
-6 0 -12 7 -4 16 2 23 18 15 31 28 26 21 -9 -5 -27 -5 -27 -41 -29 -20 -1 -24
4 -27 32 -2 17 1 32 6 32 6 0 10 -5 10 -11z m-1860 -9 c0 -5 -9 -10 -21 -10
-11 0 -17 5 -14 10 3 6 13 10 21 10 8 0 14 -4 14 -10z m465 -17 c-1 -16 -15
-32 -15 -18 0 3 0 12 0 20 0 8 4 15 8 15 5 0 8 -8 7 -17z m1289 2 c11 -8 15
-15 10 -15 -6 0 -19 7 -30 15 -10 8 -14 14 -9 14 6 0 19 -6 29 -14z m76 5 c0
-5 -2 -10 -4 -10 -3 0 -8 5 -11 10 -3 6 -1 10 4 10 6 0 11 -4 11 -10z m265 0
c3 -5 1 -10 -4 -10 -6 0 -11 5 -11 10 0 6 2 10 4 10 3 0 8 -4 11 -10z"/>
<path d="M1152 2244 c-35 -14 -44 -27 -48 -68 -3 -30 -3 -30 12 -11 12 16 16
17 23 6 7 -11 15 -10 40 8 17 12 31 19 31 15 0 -5 5 -3 12 4 16 16 29 15 22
-2 -4 -10 6 -14 40 -14 41 -1 62 11 36 20 -6 2 -1 9 10 16 17 11 20 10 20 -7
0 -26 10 -31 65 -33 26 -2 52 -9 59 -18 20 -23 25 -91 9 -122 -12 -26 -18 -28
-72 -28 -40 0 -63 -5 -71 -15 -7 -8 -16 -15 -21 -15 -5 0 -6 7 -3 15 5 12 -2
15 -34 15 -30 0 -42 -4 -45 -17 -4 -17 -5 -17 -6 0 -1 12 -9 17 -29 17 -35 0
-52 16 -52 50 0 31 -10 45 -32 46 -22 2 -25 -19 -28 -173 -1 -102 1 -127 16
-152 10 -17 21 -31 24 -31 3 0 11 -4 19 -9 11 -7 2 -26 -43 -90 l-56 -81 29 0
c20 0 34 8 46 28 10 15 29 40 44 55 25 27 27 28 134 26 119 -1 117 -1 163 -73
18 -29 37 -46 54 -49 33 -7 36 -2 17 27 -9 14 -25 40 -36 59 -10 19 -25 44
-33 56 -11 20 -11 24 7 36 11 8 25 19 31 24 16 14 26 109 29 279 2 140 2 145
-22 173 -16 19 -34 29 -51 29 -20 0 -23 -3 -13 -9 11 -7 9 -11 -7 -20 -17 -9
-21 -9 -17 1 10 27 -12 41 -61 40 -27 -1 -50 -6 -52 -12 -3 -7 -8 -7 -15 -2
-19 16 -114 20 -145 6z m343 -33 c3 -5 1 -12 -5 -16 -5 -3 -10 1 -10 9 0 18 6
21 15 7z m1 -218 c-10 -10 -19 5 -10 18 6 11 8 11 12 0 2 -7 1 -15 -2 -18z
m-275 -74 c9 -18 7 -25 -9 -41 -23 -24 -58 -17 -67 13 -14 44 53 69 76 28z
m247 9 c21 -21 14 -57 -13 -70 -41 -18 -68 18 -49 66 7 19 45 21 62 4z"/>
<path d="M810 1065 c-7 -9 -10 -18 -7 -21 3 -3 10 4 17 15 13 25 8 27 -10 6z"/>
<path d="M1790 1019 c0 -22 4 -38 9 -35 11 7 10 76 -1 76 -4 0 -8 -18 -8 -41z"/>
<path d="M1339 1005 c-1 -6 -1 -14 0 -19 1 -4 -4 -15 -11 -23 -10 -13 -9 -15
7 -12 23 5 32 36 16 52 -6 6 -12 7 -12 2z"/>
<path d="M2080 991 c0 -14 5 -19 15 -14 17 6 15 25 -3 31 -7 2 -12 -5 -12 -17z"/>
<path d="M1920 950 c0 -5 5 -10 10 -10 6 0 10 5 10 10 0 6 -4 10 -10 10 -5 0
-10 -4 -10 -10z"/>
<path d="M1282 933 c-13 -26 -22 -93 -12 -93 11 0 23 31 21 57 -1 11 3 24 8
28 6 3 11 10 11 16 0 15 -19 10 -28 -8z"/>
<path d="M1717 924 c-4 -4 -4 -19 -1 -33 4 -18 3 -22 -4 -13 -7 11 -10 9 -15
-7 -5 -22 0 -31 19 -31 16 0 30 68 17 81 -5 5 -12 6 -16 3z"/>
<path d="M0 149 c0 -5 5 -7 10 -4 5 3 10 8 10 11 0 2 -4 4 -10 4 -5 0 -10 -5
-10 -11z"/>
<path d="M7 116 c-4 -10 -1 -13 8 -9 8 3 12 9 9 14 -7 12 -11 11 -17 -5z"/>
<path d="M0 45 c0 -18 5 -37 11 -41 8 -5 10 1 7 20 -3 14 -1 26 3 26 15 0 10
17 -6 24 -12 4 -15 -3 -15 -29z"/>
<path d="M2281 44 c0 -11 3 -14 6 -6 3 7 2 16 -1 19 -3 4 -6 -2 -5 -13z"/>
<path d="M240 10 c-13 -8 -12 -10 3 -10 9 0 17 5 17 10 0 12 -1 12 -20 0z"/>
</g>
</svg>
